<?xml version="1.0" encoding="utf-8"?>
<!-- Generator: Adobe Illustrator 25.0.1, SVG Export Plug-In . SVG Version: 6.00 Build 0)  -->
<svg version="1.1" id="Layer_1" xmlns="http://www.w3.org/2000/svg" xmlns:xlink="http://www.w3.org/1999/xlink" x="0px" y="0px"
	 viewBox="0 0 1909 868" style="enable-background:new 0 0 1909 868;" xml:space="preserve">
<style type="text/css">
	.st0{fill:url(#SVGID_1_);fill-opacity:8.000000e-02;}
	.st1{fill:url(#SVGID_2_);fill-opacity:8.000000e-02;}
	.st2{opacity:0.4;fill:url(#SVGID_3_);enable-background:new    ;}
	.st3{opacity:0.2;}
	.st4{fill:#6A4ADC;}
	.st5{opacity:0.4;}
	.st6{fill-rule:evenodd;clip-rule:evenodd;fill:url(#path-6_2_);}
	.st7{opacity:0.3078;fill-rule:evenodd;clip-rule:evenodd;fill:url(#Oval-Copy-6_1_);enable-background:new    ;}
	.st8{opacity:0.4;fill-rule:evenodd;clip-rule:evenodd;fill:url(#Oval-Copy-8_1_);enable-background:new    ;}
	.st9{opacity:0.31;}
	.st10{fill-rule:evenodd;clip-rule:evenodd;}
	.st11{fill-rule:evenodd;clip-rule:evenodd;fill:url(#path-11_2_);}
	.st12{fill-rule:evenodd;clip-rule:evenodd;fill:url(#path-14_2_);}
	.st13{fill-rule:evenodd;clip-rule:evenodd;fill:url(#path-17_2_);}
	.st14{fill-rule:evenodd;clip-rule:evenodd;fill:url(#path-20_2_);}
	.st15{opacity:0.3078;fill-rule:evenodd;clip-rule:evenodd;fill:url(#Oval-Copy-7_1_);enable-background:new    ;}
	.st16{opacity:0.3078;fill-rule:evenodd;clip-rule:evenodd;fill:url(#Oval-Copy-9_1_);enable-background:new    ;}
</style>
<desc>Created with Sketch.</desc>
<linearGradient id="SVGID_1_" gradientUnits="userSpaceOnUse" x1="954.4999" y1="-850" x2="954.4999" y2="-506.1216" gradientTransform="matrix(1 0 0 1 0 850)">
	<stop  offset="0" style="stop-color:#16B6FF;stop-opacity:0"/>
	<stop  offset="1" style="stop-color:#16B6FF"/>
</linearGradient>
<path class="st0" d="M0,343.9l63.6-28.6C127.2,287,254.5,229,381.8,189.2s254.5-63.4,381.8-51.5c127.3,11.9,254.5,56.9,381.8,86
	s254.5,39.8,381.8,5.6c127.3-34.8,254.5-114.2,318.2-154.8l63.6-40.1V0h-63.6c-63.6,0-190.9,0-318.2,0s-254.5,0-381.8,0
	S890.9,0,763.6,0S509.1,0,381.8,0S127.3,0,63.6,0H0V343.9z"/>
<linearGradient id="SVGID_2_" gradientUnits="userSpaceOnUse" x1="2844.5" y1="324.9484" x2="2844.5" y2="582.6484" gradientTransform="matrix(-1 0 0 -1 3799 1192.3484)">
	<stop  offset="0" style="stop-color:#16B6FF;stop-opacity:0"/>
	<stop  offset="1" style="stop-color:#16B6FF"/>
</linearGradient>
<path class="st1" d="M1909,609.7l-63.6,21.5c-63.6,21.2-190.9,64.7-318.2,94.4c-127.3,29.8-254.5,47.5-381.8,38.6
	s-254.5-42.7-381.8-64.4C636.3,678,509.1,670,381.8,695.5c-127.3,26-254.5,85.6-318.2,115.9L0,841.6v25.8h63.6
	c63.6,0,190.9,0,318.2,0s254.5,0,381.8,0s254.5,0,381.8,0s254.5,0,381.8,0s254.5,0,318.2,0h63.6L1909,609.7L1909,609.7z"/>
<linearGradient id="SVGID_3_" gradientUnits="userSpaceOnUse" x1="795.6094" y1="1120.6189" x2="790.7502" y2="1072.7932" gradientTransform="matrix(0.7886 0.6149 -0.6149 0.7886 570.3257 -1239.1646)">
	<stop  offset="0" style="stop-color:#FF2F7F"/>
	<stop  offset="0.1584" style="stop-color:#FF3879"/>
	<stop  offset="0.4112" style="stop-color:#FF4F6A"/>
	<stop  offset="0.7249" style="stop-color:#FF7450"/>
	<stop  offset="1" style="stop-color:#FF9B36"/>
</linearGradient>
<path class="st2" d="M517.9,124.7l13.5-5.5c3.7-1.5,4.4-6.5,1.2-8.9l-11.5-9c-3.1-2.5-7.8-0.6-8.3,3.4l-2,14.4
	C510.2,123.1,514.2,126.2,517.9,124.7z"/>
<g id="XMLID_108_" class="st3">
	<path id="XMLID_114_" class="st4" d="M668.9,787.7L668.9,787.7c-0.2-2.2,1.5-4.1,3.7-4.2l28.7-1.9c2.2-0.2,4.1,1.5,4.2,3.7l0,0
		c0.2,2.2-1.5,4.1-3.7,4.2l-28.7,1.9C670.9,791.5,669,789.9,668.9,787.7z"/>
	<path id="XMLID_109_" class="st4" d="M686,768.2L686,768.2c2.2-0.2,4.1,1.5,4.2,3.7l1.9,28.7c0.2,2.2-1.5,4.1-3.7,4.2l0,0
		c-2.2,0.2-4.1-1.5-4.2-3.7l-1.9-28.7C682.2,770.2,683.8,768.4,686,768.2z"/>
</g>
<g id="Oval-Copy-5" class="st5">
	<g>
		
			<linearGradient id="path-6_2_" gradientUnits="userSpaceOnUse" x1="1463.0348" y1="-141.2109" x2="1463.0348" y2="-140.2109" gradientTransform="matrix(46 0 0 46 -66742 7018)">
			<stop  offset="0" style="stop-color:#EFBB6A;stop-opacity:0.2"/>
			<stop  offset="1" style="stop-color:#FF8666"/>
		</linearGradient>
		<circle id="path-6_1_" class="st6" cx="557.6" cy="545.3" r="23"/>
	</g>
</g>
<linearGradient id="Oval-Copy-6_1_" gradientUnits="userSpaceOnUse" x1="1491.7789" y1="-144.5761" x2="1491.0864" y2="-144.4221" gradientTransform="matrix(249 0 0 249 -369937 36146)">
	<stop  offset="0" style="stop-color:#91D1E8;stop-opacity:0"/>
	<stop  offset="1" style="stop-color:#49CDFF"/>
</linearGradient>
<circle id="Oval-Copy-6" class="st7" cx="1421.1" cy="167.6" r="87.7"/>
<linearGradient id="Oval-Copy-8_1_" gradientUnits="userSpaceOnUse" x1="1422.8258" y1="-155.9384" x2="1422.0652" y2="-155.2708" gradientTransform="matrix(22 0 0 22 -30077 3561)">
	<stop  offset="0" style="stop-color:#FFAE66;stop-opacity:0.2"/>
	<stop  offset="1" style="stop-color:#EF666A"/>
</linearGradient>
<circle id="Oval-Copy-8" class="st8" cx="1216.8" cy="137.7" r="11"/>
<g id="Oval-Copy-10" class="st9">
	<g>
		<circle id="path-11" class="st10" cx="1222.3" cy="739" r="5.5"/>
	</g>
	<g>
		
			<linearGradient id="path-11_2_" gradientUnits="userSpaceOnUse" x1="1434.2487" y1="-111.1861" x2="1433.9524" y2="-112.0021" gradientTransform="matrix(11 0 0 11 -14553 1966)">
			<stop  offset="0" style="stop-color:#0354D0"/>
			<stop  offset="0.7156" style="stop-color:#3099FF"/>
			<stop  offset="1" style="stop-color:#74B9FF"/>
		</linearGradient>
		<circle id="path-11_1_" class="st11" cx="1222.3" cy="739" r="5.5"/>
	</g>
</g>
<g id="Oval-Copy-11" class="st9">
	<g>
		<circle id="path-14" class="st10" cx="1120" cy="568.3" r="3"/>
	</g>
	<g>
		
			<linearGradient id="path-14_2_" gradientUnits="userSpaceOnUse" x1="1232.002" y1="-119.7815" x2="1233.0018" y2="-118.7815" gradientTransform="matrix(6 0 0 6 -6275 1284)">
			<stop  offset="0" style="stop-color:#FFD3A5"/>
			<stop  offset="1" style="stop-color:#FD6585"/>
		</linearGradient>
		<circle id="path-14_1_" class="st12" cx="1120" cy="568.3" r="3"/>
	</g>
</g>
<g id="Oval-Copy-12" class="st9">
	<g>
		<circle id="path-17" class="st10" cx="903.8" cy="145.7" r="3"/>
	</g>
	<g>
		
			<linearGradient id="path-17_2_" gradientUnits="userSpaceOnUse" x1="1228.1317" y1="-169.0517" x2="1229.1317" y2="-168.0517" gradientTransform="matrix(6 0 0 6 -6468 1157)">
			<stop  offset="0" style="stop-color:#ABDCFF"/>
			<stop  offset="1" style="stop-color:#0396FF"/>
		</linearGradient>
		<circle id="path-17_1_" class="st13" cx="903.8" cy="145.7" r="3"/>
	</g>
</g>
<g id="Oval-Copy-13" class="st9">
	<g>
		<circle id="path-20" class="st10" cx="643.8" cy="200.7" r="3"/>
	</g>
	<g>
		
			<linearGradient id="path-20_2_" gradientUnits="userSpaceOnUse" x1="1228.1317" y1="-169.0517" x2="1229.1317" y2="-168.0517" gradientTransform="matrix(6 0 0 6 -6728 1212)">
			<stop  offset="0" style="stop-color:#F6D242"/>
			<stop  offset="1" style="stop-color:#FF52E5"/>
		</linearGradient>
		<circle id="path-20_1_" class="st14" cx="643.8" cy="200.7" r="3"/>
	</g>
</g>
<linearGradient id="Oval-Copy-7_1_" gradientUnits="userSpaceOnUse" x1="1460.4031" y1="-142.9616" x2="1461.4031" y2="-143.2414" gradientTransform="matrix(48 0 0 48 -68805 7279)">
	<stop  offset="0" style="stop-color:#C2E998;stop-opacity:0"/>
	<stop  offset="1" style="stop-color:#02CC87"/>
</linearGradient>
<circle id="Oval-Copy-7" class="st15" cx="1318.8" cy="410" r="24"/>
<linearGradient id="Oval-Copy-9_1_" gradientUnits="userSpaceOnUse" x1="1482.5402" y1="-143.1112" x2="1483.5402" y2="-143.3614" gradientTransform="matrix(78 0 0 78 -114935 11583)">
	<stop  offset="0" style="stop-color:#91D1E8;stop-opacity:0"/>
	<stop  offset="1" style="stop-color:#49CDFF"/>
</linearGradient>
<circle id="Oval-Copy-9" class="st16" cx="744.4" cy="410" r="39"/>
</svg>
