<?xml version="1.0" encoding="utf-8"?>
<!-- Generator: Adobe Illustrator 18.0.0, SVG Export Plug-In . SVG Version: 6.00 Build 0)  -->
<!DOCTYPE svg PUBLIC "-//W3C//DTD SVG 1.1//EN" "http://www.w3.org/Graphics/SVG/1.1/DTD/svg11.dtd">
<svg version="1.1" id="Layer_1" xmlns="http://www.w3.org/2000/svg" xmlns:xlink="http://www.w3.org/1999/xlink" x="0px" y="0px"
	 viewBox="0 0 1280 800" enable-background="new 0 0 1280 800" xml:space="preserve">
<desc>Created with Sketch.</desc>
<linearGradient id="SVGID_1_" gradientUnits="userSpaceOnUse" x1="954.4999" y1="1765.1" x2="954.4999" y2="1181.5" gradientTransform="matrix(0.6705 0 0 -0.6705 0 1181.8125)">
	<stop  offset="0" style="stop-color:#16B6FF;stop-opacity:0"/>
	<stop  offset="1" style="stop-color:#16B6FF"/>
</linearGradient>
<path fill="url(#SVGID_1_)" fill-opacity="8.000000e-002" d="M0,389.6L42.6,357c42.6-32.2,128-98.2,213.4-143.4s170.6-72.1,256-58.7
	s170.6,64.8,256,97.8s170.6,45.3,256,6.5c85.4-39.5,170.6-130,213.4-176.1l42.6-45.6V-1.7h-42.6c-42.6,0-128,0-213.4,0
	s-170.6,0-256,0s-170.6,0-256,0s-170.6,0-256,0s-170.6,0-213.4,0H0V389.6z"/>
<linearGradient id="SVGID_2_" gradientUnits="userSpaceOnUse" x1="894.0539" y1="-203.7599" x2="889.1946" y2="-155.9343" gradientTransform="matrix(0.5288 0.4123 0.4123 -0.5288 59.3355 -318.5347)">
	<stop  offset="0" style="stop-color:#FF2F7F"/>
	<stop  offset="0.1584" style="stop-color:#FF3879"/>
	<stop  offset="0.4112" style="stop-color:#FF4F6A"/>
	<stop  offset="0.7249" style="stop-color:#FF7450"/>
	<stop  offset="1" style="stop-color:#FF9B36"/>
</linearGradient>
<path opacity="0.4" fill="url(#SVGID_2_)" enable-background="new    " d="M454.3,151.7l9.1-3.7c2.5-1,3-4.4,0.8-6l-7.7-6
	c-2.1-1.7-5.2-0.4-5.6,2.3l-1.3,9.7C449.1,150.7,451.8,152.7,454.3,151.7z"/>
<g id="XMLID_108_" opacity="0.2">
	<path id="XMLID_114_" fill="#6A4ADC" d="M553.6,378.1L553.6,378.1c-0.1-1.5,1-2.7,2.5-2.8l19.2-1.3c1.5-0.1,2.7,1,2.8,2.5l0,0
		c0.1,1.5-1,2.7-2.5,2.8l-19.2,1.3C554.9,380.7,553.6,379.6,553.6,378.1z"/>
	<path id="XMLID_109_" fill="#6A4ADC" d="M565,365.1L565,365.1c1.5-0.1,2.7,1,2.8,2.5l1.3,19.2c0.1,1.5-1,2.7-2.5,2.8l0,0
		c-1.5,0.1-2.7-1-2.8-2.5l-1.3-19.2C562.5,366.4,563.5,365.2,565,365.1z"/>
</g>
<g id="Oval-Copy-5" opacity="0.4887">
	<g>
		
			<linearGradient id="path-6_2_" gradientUnits="userSpaceOnUse" x1="1432.696" y1="919.9065" x2="1432.696" y2="918.9065" gradientTransform="matrix(30.8434 0 0 -30.8434 -43996.7344 28701.4785)">
			<stop  offset="0" style="stop-color:#00F2FF;stop-opacity:0.2"/>
			<stop  offset="1" style="stop-color:#28A5FF"/>
		</linearGradient>
		<circle id="path-6_1_" fill="url(#path-6_2_)" cx="192.4" cy="343.9" r="15.4"/>
	</g>
</g>
<linearGradient id="Oval-Copy-6_1_" gradientUnits="userSpaceOnUse" x1="1468.363" y1="919.5049" x2="1467.7026" y2="919.358" gradientTransform="matrix(166.9565 0 0 -166.9565 -243888.625 153719.7344)">
	<stop  offset="0" style="stop-color:#0AE1FF;stop-opacity:0"/>
	<stop  offset="1" style="stop-color:#16B6FF"/>
</linearGradient>
<circle id="Oval-Copy-6" opacity="0.1822" fill="url(#Oval-Copy-6_1_)" enable-background="new    " cx="1203.5" cy="215.9" r="56.1"/>
<g id="Oval-Copy-11" opacity="0.31">
	<g>
		<circle id="path-14" cx="751" cy="490" r="2"/>
	</g>
	<g>
		
			<linearGradient id="path-14_2_" gradientUnits="userSpaceOnUse" x1="1211.1686" y1="890.6148" x2="1212.1685" y2="889.6148" gradientTransform="matrix(4.023 0 0 -4.023 -4123.625 4071.032)">
			<stop  offset="0" style="stop-color:#FFD3A5"/>
			<stop  offset="1" style="stop-color:#FD6585"/>
		</linearGradient>
		<circle id="path-14_1_" fill="url(#path-14_2_)" cx="751" cy="490" r="2"/>
	</g>
</g>
<linearGradient id="Oval-Copy-7_1_" gradientUnits="userSpaceOnUse" x1="1440.179" y1="918.5269" x2="1441.179" y2="918.8066" gradientTransform="matrix(32.1844 0 0 -32.1844 -45346.4648 29915.7695)">
	<stop  offset="0" style="stop-color:#C2E998;stop-opacity:0"/>
	<stop  offset="1" style="stop-color:#02CC87"/>
</linearGradient>
<circle id="Oval-Copy-7" opacity="0.3078" fill="url(#Oval-Copy-7_1_)" enable-background="new    " cx="1021.2" cy="349" r="16.1"/>
<linearGradient id="Oval-Copy-9_1_" gradientUnits="userSpaceOnUse" x1="1460.5541" y1="914.5662" x2="1461.5541" y2="914.8165" gradientTransform="matrix(52.2996 0 0 -52.2996 -75774.125 48390.9492)">
	<stop  offset="0" style="stop-color:#91D1E8;stop-opacity:0"/>
	<stop  offset="1" style="stop-color:#49CDFF"/>
</linearGradient>
<circle id="Oval-Copy-9" opacity="0.3078" fill="url(#Oval-Copy-9_1_)" enable-background="new    " cx="640" cy="552.5" r="26.1"/>
<circle opacity="0.3" fill="none" stroke="#536BE6" stroke-width="5" stroke-miterlimit="10" enable-background="new    " cx="56.7" cy="164.7" r="29.3"/>
</svg>
