<?xml version="1.0" encoding="utf-8"?>
<!-- Generator: Adobe Illustrator 18.0.0, SVG Export Plug-In . SVG Version: 6.00 Build 0)  -->
<!DOCTYPE svg PUBLIC "-//W3C//DTD SVG 1.1//EN" "http://www.w3.org/Graphics/SVG/1.1/DTD/svg11.dtd">
<svg version="1.1" id="Layer_1" xmlns="http://www.w3.org/2000/svg" xmlns:xlink="http://www.w3.org/1999/xlink" x="0px" y="0px"
	 viewBox="0 0 1280 800" enable-background="new 0 0 1280 800" xml:space="preserve">
<desc>Created with Sketch.</desc>
<linearGradient id="SVGID_1_" gradientUnits="userSpaceOnUse" x1="954.4999" y1="962.5624" x2="954.4999" y2="403.4285" gradientTransform="matrix(0.6705 0 0 -0.6705 0 645.4059)">
	<stop  offset="0" style="stop-color:#16B6FF;stop-opacity:0"/>
	<stop  offset="1" style="stop-color:#16B6FF"/>
</linearGradient>
<path fill="url(#SVGID_1_)" fill-opacity="8.000000e-002" d="M0,0l26.7,44.7c26.7,45.2,80,133.9,133.4,166.3s106.7,6,160-6.3
	c53.3-12.8,106.7-12.8,160-6.5c53.3,6.8,106.7,18.8,160,51.2s106.7,82.7,160,108.7c53.3,25.6,106.7,25.6,160-25.7
	c53.3-50.7,106.7-153.8,160-217.3s106.7-89.9,133.4-102.3L1280,0l0,0h-26.7c-26.7,0-80,0-133.4,0s-106.7,0-160,0
	c-53.3,0-106.7,0-160,0c-53.3,0-106.7,0-160,0S533.3,0,480,0C426.7,0,373.3,0,320,0S213.4,0,160,0S53.3,0,26.7,0H0z"/>
<linearGradient id="SVGID_2_" gradientUnits="userSpaceOnUse" x1="592.1351" y1="-801.5684" x2="587.2758" y2="-753.7427" gradientTransform="matrix(-0.5288 0.4123 -0.4123 -0.5288 1037.4525 -391.7931)">
	<stop  offset="0" style="stop-color:#FF2F7F"/>
	<stop  offset="0.1584" style="stop-color:#FF3879"/>
	<stop  offset="0.4112" style="stop-color:#FF4F6A"/>
	<stop  offset="0.7249" style="stop-color:#FF7450"/>
	<stop  offset="1" style="stop-color:#FF9B36"/>
</linearGradient>
<path opacity="0.4" fill="url(#SVGID_2_)" enable-background="new    " d="M1053.4,266.4l-1.3-9.7c-0.4-2.7-3.5-4-5.6-2.3l-7.7,6
	c-2.1,1.6-1.7,5,0.8,6l9.1,3.7C1051.2,271.1,1053.8,269,1053.4,266.4z"/>
<g id="XMLID_108_" opacity="0.2">
	<path id="XMLID_114_" fill="#6A4ADC" d="M607.5,648.7l-19.2-1.3c-1.5-0.1-2.5-1.3-2.5-2.8l0,0c0.1-1.5,1.3-2.5,2.8-2.5l19.2,1.3
		c1.5,0.1,2.5,1.3,2.5,2.8l0,0C610.2,647.6,608.9,648.8,607.5,648.7z"/>
	<path id="XMLID_109_" fill="#6A4ADC" d="M601.2,635.9l-1.3,19.2c-0.1,1.5-1.3,2.5-2.8,2.5l0,0c-1.5-0.1-2.5-1.3-2.5-2.8l1.3-19.2
		c0.1-1.5,1.3-2.5,2.8-2.5l0,0C600.2,633.2,601.4,634.5,601.2,635.9z"/>
</g>
<g id="Oval-Copy-5" opacity="0.4887">
	<g>
		
			<linearGradient id="path-6_2_" gradientUnits="userSpaceOnUse" x1="531.4316" y1="306.6283" x2="531.4316" y2="305.6283" gradientTransform="matrix(-30.8434 0 0 -30.8434 17605.502 9880.3145)">
			<stop  offset="0" style="stop-color:#00E1FF;stop-opacity:0.2"/>
			<stop  offset="1" style="stop-color:#2098FF"/>
		</linearGradient>
		<circle id="path-6_1_" fill="url(#path-6_2_)" cx="1214.4" cy="438.3" r="15.4"/>
	</g>
</g>
<linearGradient id="Oval-Copy-6_1_" gradientUnits="userSpaceOnUse" x1="556.4111" y1="312.8673" x2="556.127" y2="312.8041" gradientTransform="matrix(-166.9565 0 0 -166.9565 92953.8516 52414)">
	<stop  offset="0" style="stop-color:#FCCDD1;stop-opacity:0"/>
	<stop  offset="1" style="stop-color:#16B6FF"/>
</linearGradient>
<circle id="Oval-Copy-6" opacity="0.1822" fill="url(#Oval-Copy-6_1_)" enable-background="new    " cx="83.5" cy="184.6" r="24.1"/>
<g id="Oval-Copy-10" opacity="0.31">
	<g>
		<circle id="path-11" cx="209.3" cy="453.7" r="3.7"/>
	</g>
	<g>
		
			<linearGradient id="path-11_2_" gradientUnits="userSpaceOnUse" x1="605.21" y1="280.7176" x2="604.9136" y2="281.5335" gradientTransform="matrix(-7.3756 0 0 -7.3756 4672.0703 2526.8518)">
			<stop  offset="0" style="stop-color:#0354D0"/>
			<stop  offset="0.7156" style="stop-color:#3099FF"/>
			<stop  offset="1" style="stop-color:#74B9FF"/>
		</linearGradient>
		<circle id="path-11_1_" fill="url(#path-11_2_)" cx="209.3" cy="453.7" r="3.7"/>
	</g>
</g>
<g id="Oval-Copy-11" opacity="0.31">
	<g>
		<circle id="path-14" cx="465.9" cy="490" r="2"/>
	</g>
	<g>
		
			<linearGradient id="path-14_2_" gradientUnits="userSpaceOnUse" x1="448.6731" y1="252.286" x2="449.6731" y2="251.286" gradientTransform="matrix(-4.023 0 0 -4.023 2272.9922 1502.9858)">
			<stop  offset="0" style="stop-color:#FFD3A5"/>
			<stop  offset="1" style="stop-color:#FD6585"/>
		</linearGradient>
		<circle id="path-14_1_" fill="url(#path-14_2_)" cx="465.9" cy="490" r="2"/>
	</g>
</g>
<g id="Oval-Copy-12" opacity="0.31">
	<g>
		<circle id="path-17" cx="584.8" cy="340.3" r="2"/>
	</g>
	<g>
		
			<linearGradient id="path-17_2_" gradientUnits="userSpaceOnUse" x1="451.3049" y1="268.3542" x2="452.3049" y2="267.3542" gradientTransform="matrix(-4.023 0 0 -4.023 2402.4001 1417.8313)">
			<stop  offset="0" style="stop-color:#ABDCFF"/>
			<stop  offset="1" style="stop-color:#0396FF"/>
		</linearGradient>
		<circle id="path-17_1_" fill="url(#path-17_2_)" cx="584.8" cy="340.3" r="2"/>
	</g>
</g>
<g id="Oval-Copy-13" opacity="0.31">
	<g>
		<circle id="path-20" cx="948.4" cy="264" r="2"/>
	</g>
	<g>
		
			<linearGradient id="path-20_2_" gradientUnits="userSpaceOnUse" x1="404.255" y1="296.4708" x2="405.255" y2="295.4708" gradientTransform="matrix(-4.023 0 0 -4.023 2576.7324 1454.7094)">
			<stop  offset="0" style="stop-color:#F6D242"/>
			<stop  offset="1" style="stop-color:#FF52E5"/>
		</linearGradient>
		<circle id="path-20_1_" fill="url(#path-20_2_)" cx="948.4" cy="264" r="2"/>
	</g>
</g>
<linearGradient id="Oval-Copy-7_1_" gradientUnits="userSpaceOnUse" x1="546.9792" y1="301.9241" x2="547.9792" y2="302.2039" gradientTransform="matrix(-32.1844 0 0 -32.1844 17728.2051 10281.9492)">
	<stop  offset="0" style="stop-color:#C2E998;stop-opacity:0"/>
	<stop  offset="1" style="stop-color:#02CC87"/>
</linearGradient>
<circle id="Oval-Copy-7" opacity="0.3078" fill="url(#Oval-Copy-7_1_)" enable-background="new    " cx="107.6" cy="560.1" r="16.1"/>
<linearGradient id="Oval-Copy-9_1_" gradientUnits="userSpaceOnUse" x1="560.5992" y1="307.3123" x2="561.5992" y2="307.5626" gradientTransform="matrix(-52.2996 0 0 -52.2996 29750.4141 16567.293)">
	<stop  offset="0" style="stop-color:#91D1E8;stop-opacity:0"/>
	<stop  offset="1" style="stop-color:#49CDFF"/>
</linearGradient>
<circle id="Oval-Copy-9" opacity="0.3078" fill="url(#Oval-Copy-9_1_)" enable-background="new    " cx="403.6" cy="488" r="26.1"/>
</svg>
