<?xml version="1.0" encoding="utf-8"?>
<!-- Generator: Adobe Illustrator 18.0.0, SVG Export Plug-In . SVG Version: 6.00 Build 0)  -->
<!DOCTYPE svg PUBLIC "-//W3C//DTD SVG 1.1//EN" "http://www.w3.org/Graphics/SVG/1.1/DTD/svg11.dtd">
<svg version="1.1" id="_x32_71e5882-3c8d-41ed-8a0a-1cb2b4d0cbc1"
	 xmlns="http://www.w3.org/2000/svg" xmlns:xlink="http://www.w3.org/1999/xlink" x="0px" y="0px" viewBox="0 0 1280 800"
	 enable-background="new 0 0 1280 800" xml:space="preserve">
<g display="none">
	<path display="inline" opacity="0.1" fill="#6C63FF" enable-background="new    " d="M122.1,378.3
		c16.8,65.2,52.2,121.7,108.2,149.1c116.5,56.9,379.2,27.5,575.2-6.1c101.4-17.4,190.5-65.4,255.3-133.1L122.1,378.3z"/>
	<path display="inline" opacity="0.1" fill="#6C63FF" enable-background="new    " d="M1150.1,71h-107.6c-5.1,0-9.3-3.8-9.3-8.5
		s4.2-8.5,9.3-8.5h18.6c-5.1,0-9.3-3.8-9.3-8.5s4.2-8.5,9.3-8.5h-13.3c-5.1,0-9.3-3.8-9.3-8.5s4.2-8.5,9.3-8.5h56.1
		c-12.5-5.3-27-9-43.8-11C907-8.7,852.4,3.2,833,15.4c-24,15.4-50.7,26.1-78.6,31.5C660,64.6,483.3,86,323.2,39.9
		c-79.5-22.9-138.6,15.8-174,80.3h1019.6c-1.3-18.8-5.3-36.1-12.7-51.3C1154.5,70.3,1152.3,71,1150.1,71z"/>
	<path display="inline" opacity="0.1" fill="#6C63FF" enable-background="new    " d="M113,242c-4.1,38-2.7,76.3,4.2,113.9
		l944.4,31.5c26.1-27.2,48.1-57.9,65.6-91.2L113,242z M486.4,323.3h-18.6c5.1,0,9.3,3.8,9.3,8.5s-4.2,8.5-9.3,8.5H360.3
		c-5.1,0-9.3-3.8-9.3-8.5s4.2-8.5,9.3-8.5h18.6c-5.1,0-9.3-3.8-9.3-8.5s4.2-8.5,9.3-8.5h-13.3c-5.1,0-9.3-3.8-9.3-8.5
		s4.2-8.5,9.3-8.5h107.6c5.1,0,9.3,3.8,9.3,8.5s-4.2,8.5-9.3,8.5h13.2c5.1,0,9.3,3.8,9.3,8.5S491.6,323.3,486.4,323.3z"/>
	<path display="inline" opacity="0.1" fill="#6C63FF" enable-background="new    " d="M1168.9,120.8L137.8,143.7
		c-12.6,29.4-20.9,62.6-24.8,97.1h1037.7c6.8-20.2,11.7-40.9,15-61.9C1168.9,158.6,1170.1,139,1168.9,120.8z M322.4,195.7h-18.6
		c5.1,0,9.3,3.8,9.3,8.5s-4.2,8.5-9.3,8.5H196.3c-5.1,0-9.3-3.8-9.3-8.5s4.2-8.5,9.3-8.5h18.6c-5.1,0-9.3-3.8-9.3-8.5
		s4.2-8.5,9.3-8.5h-13.3c-5.1,0-9.3-3.8-9.3-8.5s4.2-8.5,9.3-8.5h107.6c5.1,0,9.3,3.8,9.3,8.5s-4.2,8.5-9.3,8.5h13.3
		c5.1,0,9.3,3.8,9.3,8.5S327.6,195.7,322.4,195.7z"/>
</g>
<g display="none">
	<g display="inline">
		<path fill="#65617D" d="M469.9,483.8l3.2,19.4c2.3-0.4,4.8-0.7,7.4-1.2c-0.9-5.7-3.1-18.6-2.5-20.8l-3.9-3.3L469.9,483.8z"/>
		<path opacity="0.1" enable-background="new    " d="M470.4,483.3l3.2,19.4c2.3-0.4,4.8-0.8,7.4-1.2c-0.9-5.7-3.1-18.6-2.5-20.8
			l-3.9-3.4L470.4,483.3z"/>
		<ellipse fill="#D39999" cx="475.2" cy="484.1" rx="1.6" ry="3.3"/>
	</g>
	<g display="inline">
		<ellipse opacity="0.1" fill="#6C63FF" enable-background="new    " cx="384.4" cy="732.1" rx="126.3" ry="15.7"/>
		
			<linearGradient id="SVGID_1_" gradientUnits="userSpaceOnUse" x1="817.636" y1="41.323" x2="817.636" y2="630.2783" gradientTransform="matrix(-0.9306 0 0 -0.9306 1167.4956 781.572)">
			<stop  offset="0" style="stop-color:#808080;stop-opacity:0.25"/>
			<stop  offset="0.54" style="stop-color:#808080;stop-opacity:0.12"/>
			<stop  offset="1" style="stop-color:#808080;stop-opacity:0.1"/>
		</linearGradient>
		<path fill="url(#SVGID_1_)" d="M314.7,741c0,0,21.2,5.9,31.5-2c10.2-7.8,14.7-5.3,14.7-5.3s24.4-1.4,26.4-7.2s-9.4-26.7-9.4-26.7
			c-0.8-1.9-2-4.2-2.5-4.2l0.1-8.8l0,0l3.5-37c8.2-20.9,0.2-47.9,0.2-47.9l-1.5-6.7c-0.8-3.8-0.4-7.7,1.4-11.2l14.8-29.8
			c0.8-2,1.8-3.9,2.8-5.7c0.9-1.7,2.1-3.8,3.7-6.3c0.5-0.7,0.9-1.5,1.5-2.2c1.8-2.8,4-6,6.6-9.6c6.5-9.1,10.1-20.5,11.8-28.8
			l0.8,2.6l0,0h0.1l0,0h0.2l0,0h0.3h0.1l0.4,0.1h0.1l4.6,58.1c0.3,22.6,8.6,35.2,8.6,35.2l-1.1,50c1.6,12-1.9,28.1-3.4,34.4
			l-3.6,8.1c-2.9,1.4-4.8,4.2-5.3,7.4c-0.7,6-7,18.9-7,18.9c-2.4,3.1-7.7,11.4-7.7,11.4s-2.5,8.1-0.9,11.1s14.4,2.7,14.4,2.7
			c14.8,3.3,26.1-4.7,25.3-10.1c-0.7-5.5,2.3-6.8,2.3-6.8c5.9-1.9,5.3-5.9,5.3-5.9c1.3-8.2-0.3-16.6-4.5-23.7l-0.9,2.1
			c-0.3-4.3,0.4-8.7,1.8-12.7l-0.6,0.4l-0.2,0.1h-0.1c0.9-8.2,9.5-23.3,9.5-23.3c15.7-27.6,10-65,10-65l-2.4-11.6l-0.1-4.4
			c-0.4-10.5,0.5-21,2.3-31.4c0.8-4.6,1.8-10.1,2.4-16.2c1.4-12.8,6-26.1,8.1-31.8l0.7-0.1h0.1c0.8-0.2,1.8-0.3,2.6-0.5h0.2
			c0,0,0.5-2.7,0.9-7.4c0.3-3,0.5-6.7,0.5-11c0.1-12.9-2-25.9-5.9-38.2l0.5-0.7c0,0,1.1-1.5,3.2-4.2l0,0c3.8-4.8,9.7-12.1,16.9-20.3
			c13-14.8,9.2-29.8,9.2-29.8s-9.4-34.4-13.6-55.1c-2.4-11.8-6.9-19.8-10.3-24.6c0.7-3.3,1.2-6.6,1.3-10c0.3-6.1,0.1-12.5-2.7-18
			c-2.8-5.5-8.7-9.9-14.7-9.1c-0.8,0.2-1.8,0.2-2.6,0c-0.7-0.3-1.3-0.8-1.8-1.5c-3.6-4.9-3.8-11.6-2.7-17.6c1.1-6,3.4-11.7,4.5-17.8
			c1-6,0.6-12.7-3.3-17.5c-4.5-5.6-12.3-7.2-18.1-11.4c-4.1-3-7.2-7.2-11.5-9.8s-8.4-1.6-13-0.7c-7.9,1.7-15.4,2.4-22.9,5.9
			c-7.5,3.4-14.3,8.4-19.9,14.5c-2,2-3.5,4.4-4.5,7c-1.9,6.1,1.8,12.7,1,19.1c-0.6,4.5-3.2,8.5-5.3,12.5c-2.1,4-3.7,8.8-2,13
			c2.6,6.6,11.1,8,17.3,11.5c0.8,0.4,1.5,1,2,1.8c1.5,2.7-1.6,5.4-3.5,7.8c-1.1,1.4-2,3-2.3,4.7c-5.2,2.1-9,6.7-10.1,12.2
			c-2,9.4,1.1,21.2,4,29c-3.1,17.4,0.9,24.3,3.9,26.9s4.8,6.2,5.2,10.1v0.4c0.2,3.2,0.6,6.3,0.9,9.5l0,0c-0.1-0.7-0.2-1.5-0.3-1.9
			c-2.4,4.5-7.1,16-9.7,35.3c-0.6,4.1-1.3,8.3-2.3,12.3c-1.9,7.2-2.5,14.6-2,22l0.5,6.2c-0.5,0-0.9-0.1-1.3-0.5l3.3,6v10.1
			c0,4.6-0.8,9-2.5,13.3c-0.2,0.7-0.5,1.2-0.7,1.9c-0.8,1.7-1.2,3.6-1.1,5.5c-7,10.8-23.2,71.1-23.2,71.1
			c-8.7,19.8,0.7,32.6,0.7,32.6s4.6,55.1,5.4,57.9s2.8,36.4,2.8,36.4l0,0c0,0.9,0,1.8,0,2.7c-0.5-0.2-1-0.4-1.6-0.5
			c-7.6-0.5-9.8,11.6-9.8,11.6l-15.7,15c0,0-7.2-1.2-17.7,6.7S314.7,741,314.7,741z M471.2,422.7v-0.2l-0.5,0.3l0,0l-0.2,0.1
			l-0.1,0.1l0,0l-7.3-25.5c-2-6.8-2.1-14.1-0.6-20.9l5.6-24.5l0,0v-5.9l17.8,47.3C487.2,399.8,476.6,415.2,471.2,422.7z"/>
		<path fill="#FDC2CC" d="M479,499.6c0,0-7.2,17.4-9,34.2c-0.7,6-1.5,11.4-2.3,16c-1.9,10.2-2.6,20.6-2.3,31l0.1,4.4l2.3,11.5
			c0,0,5.6,36.9-9.9,64.2c0,0-9.1,16.3-9.4,24l-6.1,2.4l-12.5-3.5c0,0,6-21.7,4.1-36.9l1.1-49.3c0,0-8.1-12.4-8.4-34.7l-4.7-61.3
			L479,499.6z"/>
		<path fill="#FDC2CC" d="M421.9,490.9c0,0-1.5,23.9-13.4,40.4s-14.3,23.6-14.3,23.6l-14.5,29.4c-1.7,3.4-2.1,7.3-1.4,11l1.4,6.6
			c0,0,7.9,26.7-0.1,47.4l-3.8,39.9h-22.2c0,0-1.9-33.2-2.7-36s-5.3-57.2-5.3-57.2s-9.3-12.7-0.7-32.2c0,0,19.4-73,24.6-71.8
			C374.5,493.1,421.9,490.9,421.9,490.9z"/>
		<g opacity="0.1">
			<path d="M377.5,602l-1.4-6.6c-0.8-3.7-0.4-7.6,1.4-11.1l14.5-29.5c0,0,2.5-7.2,14.3-23.6c11.4-15.8,13.2-38.5,13.3-40.2l2.2-0.1
				c0,0-1.5,23.9-13.4,40.4s-14.3,23.6-14.3,23.6l-14.5,29.4c-1.7,3.4-2.1,7.3-1.4,11l1.4,6.6c0,0,7.9,26.7-0.1,47.4l-3.8,39.9h-2.2
				l3.8-39.9C385.4,628.6,377.5,602,377.5,602z"/>
		</g>
		<path opacity="0.1" enable-background="new    " d="M446.4,684.8c0.3-7.7,9.4-24,9.4-24c15.4-27.3,9.9-64.2,9.9-64.2l-2.4-11.5
			l-0.1-4.4c-0.4-10.3,0.5-20.8,2.3-31c0.8-4.6,1.7-10,2.3-16c1.8-16.1,8.5-32.8,8.9-34.1l2.3-0.1c0,0-7.2,17.4-9,34.2
			c-0.7,6-1.5,11.4-2.3,16c-1.9,10.2-2.6,20.6-2.3,31l0.1,4.4l2.3,11.5c0,0,5.6,36.9-9.9,64.2c0,0-9.1,16.3-9.4,24l-6.1,2.4
			l-1.3-0.4L446.4,684.8z"/>
		<path fill="#D39999" d="M439.2,684.5c3.4,1.3,7.3,0.8,10.2-1.3c-2,6-2.3,12.4-0.8,18.5c2.5,10.1-23.6-8.2-23.6-8.2l5.6-12.7
			C430.6,680.9,432.7,685,439.2,684.5z"/>
		<path opacity="0.1" enable-background="new    " d="M441.2,685.1c2.9,0.6,6-0.1,8.3-1.9c-2,6-2.3,12.4-0.8,18.5
			c2.5,10.1-23.6-8.2-23.6-8.2l5.6-12.7c0,0,1.6,3.1,6.4,3.6C438.4,684.7,439.8,684.9,441.2,685.1z"/>
		<polygon fill="#FDC2CC" points="379.9,448.1 390.8,448.1 390.8,386.1 382.6,384.6 		"/>
		<polygon opacity="5.000000e-002" enable-background="new    " points="379.9,448.1 390.8,448.1 390.8,386.1 382.6,384.6 		"/>
		<path fill="#7E5659" d="M433,689.4c0,0,6.9-0.5,10,5.8l3.8,3l1.9-4.4c4,7.1,5.6,15.4,4.3,23.5c0,0,0.6,3.9-5.2,5.8
			c0,0-3,1.4-2.2,6.7c0.7,5.3-10.4,13.2-24.8,10c0,0-12.7,0.3-14.2-2.7s1-10.8,1-10.8s5.2-8.3,7.5-11.3c0,0,6.1-12.7,6.9-18.6
			C422.6,690.4,429.4,686.1,433,689.4z"/>
		<path fill="#D39999" d="M376,694.6l0.1-8.7c0,0-12.6,3.6-22.7-0.5c0,0,0.8,8.7-0.6,10c-1.4,1.2,4.7,12.5,4.7,12.5l6.9,7.2
			l11.7-4.3l3.2-10.1C379.3,700.6,376.9,694.6,376,694.6z"/>
		<path opacity="0.1" enable-background="new    " d="M376,694.6l0.1-8.7c0,0-12.6,3.6-22.7-0.5c0,0,0.8,8.7-0.6,10
			c-1.4,1.2,4.7,12.5,4.7,12.5l6.9,7.2l11.7-4.3l3.2-10.1C379.3,700.6,376.9,694.6,376,694.6z"/>
		<path fill="#7E5659" d="M352,691.4c0,0,6.7,0.7,5.9,9.3c-0.8,8.6,0.4,0,0.4,0s7.1,2.9,9.7,6.9s7.1-3.5,7.4-5.8
			c0.4-2.2,3.2-3.1,3.2-3.1s11.2,20.7,9.2,26.4s-26,7-26,7s-4.4-2.4-14.4,5.2c-10.1,7.6-30.9,1.9-30.9,1.9s-17-7.1-6.7-14.9
			s17.3-6.6,17.3-6.6l15.4-14.8C342.5,702.8,344.5,690.9,352,691.4z"/>
		<path fill="#865A61" d="M431.9,201.8c4.3,2.6,7.3,6.8,11.3,9.7c5.8,4.1,13.4,5.7,17.9,11.2c3.7,4.7,4.2,11.3,3.2,17.2
			c-1,6-3.3,11.6-4.4,17.5s-0.8,12.5,2.7,17.3c0.4,0.7,1,1.2,1.7,1.5c0.8,0.2,1.8,0.2,2.6,0c6-0.7,11.8,3.5,14.5,9
			s2.9,11.7,2.6,17.8c-0.2,4.9-0.8,10-3,14.5c-3.7,7.6-11.4,12.3-19.1,15.9c-4.9,2.3-10.1,4.4-15.3,6.1c-3.5,1.2-7.4,2.3-11.1,1.7
			c-6.3-1.1-10.9-6.9-16.8-9.1c-4.9-1.9-10.4-1.2-15.7-0.7c-4.5,0.4-9.6,0.4-12.7-2.9c-4-4.2-2.1-11-0.2-16.4
			c-6.4-0.4-11.4-6-10.9-12.4c0.2-2.4,1.1-4.8,2.7-6.7c2-2.3,5-5,3.4-7.7c-0.5-0.7-1.2-1.4-2-1.8c-6-3.4-14.4-4.8-16.9-11.4
			c-1.7-4.2-0.1-8.9,2-12.8c2-4,4.7-7.9,5.2-12.3c0.7-6.3-2.8-12.7-1-18.8c0.9-2.6,2.4-4.9,4.4-7c5.5-6,12.1-10.9,19.5-14.3
			c7.4-3.4,14.7-4.1,22.4-5.8C423.6,200.3,427.5,199.2,431.9,201.8z"/>
		<path fill="#FDC2CC" d="M390.8,295.5c0,0-17.8-0.9-21.2,14.2c-3.4,15.2,7.4,36.9,7.4,36.9L390.8,295.5z"/>
		<path opacity="5.000000e-002" enable-background="new    " d="M390.8,295.5c0,0-17.8-0.9-21.2,14.2c-3.4,15.2,7.4,36.9,7.4,36.9
			L390.8,295.5z"/>
		<path fill="#FDC2CC" d="M379.4,340.8l6.7,5.3l31.5,1.4l19.6-13.5l20-34.3c-12.2-3.1-17.1-11.5-19-19.4c-1.2-5.3-1.3-10.9-0.4-16.3
			c0,0-32-16.6-28.1,9.3c0.6,3.2,0.7,6.4,0.3,9.6c-1.9,15.2-16.6,12.3-16.6,12.3l-5.7,8.7l-6.5,21.4L379.4,340.8z"/>
		<path opacity="0.1" enable-background="new    " d="M409.8,273.3c0.6,3.2,0.7,6.4,0.3,9.6c9.2,4.2,19.9,3.2,28.2-2.6
			c-1.2-5.3-1.3-10.9-0.4-16.3C437.9,264,405.9,247.4,409.8,273.3z"/>
		<circle fill="#FDC2CC" cx="421.9" cy="255.9" r="28.4"/>
		<path fill="#6C63FF" d="M401.8,335.3c0.7,0,1.4,0.1,2,0.2c3.7,0.4,19.3,1.2,28.1-9.4c9.9-11.8,23.1-26.4,23.6-27.1l0,0l13.4,4.1
			c0,0-10.6-3.8-17.7,16c-3.2,8.6-0.4,18.1,6.9,23.5c2.6,1.9,5.6,3.2,8.7,3.7l0,0v8.7l0,0l-5.5,24.2c-1.6,6.8-1.4,14,0.6,20.7
			l8.4,29.6l0,0c-1.3,0.8-53.2,36.2-87.9,11.8l0,0c0.1-1,4.5-35.8,1.4-52.8c-0.7-4.4-1.3-8.7-1.6-13.1c0-0.1,0-0.2,0-0.4
			c-0.3-3.9-2.1-7.5-5.1-10.1c-3.2-2.8-7.4-10.2-3.2-29.9c1-4.8,2.6-9.6,4.7-14.1l11.6-26.3l0,0l10.7,0.2 M401.3,295
			c-0.9,1.1-13.4,16.7-14.7,26.7c-1.3,9.5-3,12.5,15.4,13.6L401.3,295z"/>
		<path fill="#FDC2CC" d="M478.1,307.7c0,0,10.5,9,14.6,29.4s13.3,54.3,13.3,54.3s3.7,14.8-9,29.4s-21.2,26.1-21.2,26.1l-8.4,12.4
			c-1.4,2.1-3.5,3.6-6,4.3c-3.8,1-9.7,1.8-14.8-1c-3.8-2.1-5.4-6.8-3.7-10.9l1.9-4.3c0,0-17.2,10.9-18.7,4.8s20-12,20-12
			s17.8-3,21.4-11.4c0,0,19.1-24.6,17.6-33l-18.4-49.5c0,0-23.1-3.1-15.2-28.9C459.3,291.5,478.1,307.7,478.1,307.7z"/>
		<path fill="#65617D" d="M367.8,494.4c0,0,42.2,8.5,52.1,7.3l1,3.5c0,0,16,3.5,52.2-2.1c2.3-0.4,4.8-0.7,7.4-1.2l0.8-0.2
			c0,0,0.5-2.7,0.9-7.3c0.8-10.4,1.2-30.4-6.1-51l-6-18.7c0,0-37.6,22.5-62.5,20.5c-2.2-0.2-4.5-0.4-6.6-0.5c-5.1-0.2-13,0-18.1-4.1
			l-10.8,1.9v30.7c0,4.5-0.8,8.9-2.4,13.1c-0.2,0.7-0.5,1.2-0.7,1.9C367.7,490.1,367.4,492.3,367.8,494.4z"/>
		<path opacity="0.1" enable-background="new    " d="M420.9,495.7v9.6c0,0,18.4,4.1,60.4-3.5c0,0,0.5-2.7,0.9-7.3
			C469.3,496.5,433.8,501.5,420.9,495.7z"/>
		<path opacity="0.1" enable-background="new    " d="M367.8,494.4c0,0,42.2,8.5,52.1,7.3l1,3.5v-9.6c-4.8,2-39.1-6.2-51.6-9.4
			c-0.2,0.7-0.5,1.2-0.7,1.9C367.7,490.1,367.4,492.3,367.8,494.4z"/>
		<g opacity="5.000000e-002">
			<path d="M405.2,445.2c-2.2-0.2-4.5-0.4-6.6-0.5c-4.9-0.2-12.6,0-17.7-3.8l1.8-0.3c5.2,4.1,13,3.9,18.1,4.1
				c2.2,0.1,4.5,0.3,6.6,0.5c0.7,0.1,1.5,0.1,2.2,0.1C408.2,445.4,406.7,445.3,405.2,445.2z"/>
			<path d="M470.9,503.2c2.3-0.4,4.8-0.7,7.4-1.2l0.8-0.2c0,0,0.5-2.7,0.8-7.3c0.8-10.4,1.2-30.4-6.1-51l-5.8-17.7
				c1.2-0.7,1.9-1.1,1.9-1.1l6,18.7c7.4,20.6,7,40.7,6.1,51c-0.4,4.6-0.9,7.3-0.9,7.3l-0.8,0.2c-2.5,0.5-5,0.8-7.4,1.2
				c-16.9,2.7-29.4,3.3-38,3.3C447.1,506.1,459.1,505.1,470.9,503.2z"/>
			<path d="M417.6,501.8L417.6,501.8l-1.2,0.1C416.8,501.8,417.3,501.8,417.6,501.8z"/>
		</g>
		<path fill="#FDC2CC" d="M373.6,417.8c2.6-19.1,7.1-30.4,9.5-34.9c0.1,0.6,0.4,2.6,0.5,3.2c0.5,2.8,0.1,6.3,0.2,9.9l-2.4,43.2
			l3.2,13.5c3,10.7-8.1,2.2-8.1,2.2c-2.3,5-6.5,4.5-6.5,4.5l-0.6-7.7c-0.6-7.3,0.1-14.6,2-21.7C372.3,425.9,373.2,421.8,373.6,417.8
			z"/>
		<path opacity="5.000000e-002" enable-background="new    " d="M373.6,417.8c2.6-19.1,7.1-30.4,9.5-34.9c0.1,0.6,0.4,2.6,0.5,3.2
			c0.5,2.8,0.1,6.3,0.2,9.9l-2.4,43.2l3.2,13.5c3,10.7-8.1,2.2-8.1,2.2c-2.3,5-6.5,4.5-6.5,4.5l-0.6-7.7c-0.6-7.3,0.1-14.6,2-21.7
			C372.3,425.9,373.2,421.8,373.6,417.8z"/>
		<path fill="#FDC2CC" d="M480.5,441.1c-2,2.6-3.2,4.1-3.2,4.1l-8.4,12.3c-1.4,2.1-3.5,3.6-6,4.3c-3.8,1-9.7,1.8-14.8-1
			c-3.8-2.1-5.4-6.8-3.7-10.9l1.9-4.3c0,0-17.2,10.9-18.7,4.8s20-12,20-12s17.8-3,21.4-11.4c0,0,1.6-2,3.7-5"/>
		<path fill="#65617D" d="M469.9,461.7c0,0-20.4-2-26.9-13.7l-3,9.6c0,0,21.4,14.8,26.2,12.8L469.9,461.7z"/>
		<path opacity="0.1" enable-background="new    " d="M469.3,461.6c0,0-20.4-2-26.9-13.7l-3,9.6c0,0,21.4,14.8,26.2,12.8
			L469.3,461.6z"/>
		<path fill="#65617D" d="M377.2,456.3c0,0-7.2,2.5-8.6,1.1l3.3,5.9l6-4.7L377.2,456.3z"/>
		<path opacity="0.1" enable-background="new    " d="M377.2,456.3c0,0-7.2,2.5-8.6,1.1l3.3,5.9l6-4.7L377.2,456.3z"/>
		<polygon opacity="0.1" enable-background="new    " points="420.9,495.7 420.9,483.4 418,496 		"/>
		<path opacity="0.1" enable-background="new    " d="M449.8,240.9c-1.8,2.4-4.7,3.6-7.6,4s-6,0.1-8.8,0c-4.7-0.1-9.6,0.7-13.4,3.4
			c-2.4,1.8-4.3,4.2-6.1,6.5c-5.8,7-13.8,13.6-22.8,12.8c-1.6,0-3.2-0.7-4.2-1.8c-0.7-1.1-1.1-2.5-1.1-3.8
			c-0.4-5.8-0.2-11.6,0.6-17.4c0.4-3.5,1.2-7.1,2.6-10.3c1.6-3.4,3.7-6.3,6.3-9c3.1-3.6,6.8-6.6,11-8.8s9.1-2.9,13.8-1.8
			c5.4,1.5,9.7,5.8,14.8,7.9C440.6,225.2,456.3,231.8,449.8,240.9z"/>
		<path fill="#865A61" d="M449.8,239.8c-1.8,2.4-4.7,3.6-7.6,4s-6,0.1-8.8,0c-4.7-0.1-9.6,0.7-13.4,3.4c-2.4,1.8-4.3,4.2-6.1,6.5
			c-5.8,7-13.8,13.6-22.8,12.8c-1.6,0-3.2-0.7-4.2-1.8c-0.7-1.1-1.1-2.5-1.1-3.8c-0.4-5.8-0.2-11.6,0.6-17.4
			c0.4-3.5,1.2-7.1,2.6-10.3c1.6-3.4,3.7-6.3,6.3-9c3.1-3.6,6.8-6.6,11-8.8s9.1-2.9,13.8-1.8c5.4,1.5,9.7,5.7,14.8,7.9
			C440.6,224.1,456.3,230.7,449.8,239.8z"/>
		<polygon fill="#FDC2CC" points="382.7,440.6 382.6,444 381.8,440.7 		"/>
		<polygon opacity="5.000000e-002" enable-background="new    " points="382.7,440.6 382.6,444 381.8,440.7 		"/>
		<g opacity="5.000000e-002">
			<path d="M454.4,315.6c-7.9,26,15.1,28.9,15.1,28.9l18.4,49.5c1.5,8.5-17.6,33-17.6,33c-1.3,3.2-4.7,5.6-8.3,7.4
				c2.1-1.3,3.8-3.2,4.9-5.4c0,0,19.1-24.6,17.6-32.9l-18.4-49.7c0,0-23-3.1-15.1-28.9c2.6-8.7,6.5-12.6,10.4-14.1
				C458.8,305.7,456.3,309.4,454.4,315.6z"/>
		</g>
		<g opacity="0.1">
			<path d="M454.8,339.2c1.1,1.3,2.3,2.5,3.7,3.5c2.6,1.9,5.6,3.2,8.7,3.7l0,0v0.9c-2.9-0.7-5.6-1.8-8-3.5
				C457.6,342.5,456.1,341,454.8,339.2z"/>
			<path d="M383.4,376.2c0,0.1,0,0.2,0,0.3c0.3,4.5,0.8,8.8,1.6,13.2c2.8,16-0.8,47.9-1.4,52.3c-0.3-0.2-0.6-0.4-0.9-0.6l0,0
				c0.1-1,4.5-35.8,1.5-52.8c-0.7-4.4-1.3-8.7-1.6-13.1c0-0.1,0-0.2,0-0.4c-0.2-2.5-1-5-2.5-7.1C382,370.5,383.2,373.2,383.4,376.2z
				"/>
			<path d="M400.5,296l-9.1-0.2l0,0l-11.6,26.3c-2,4.6-3.6,9.3-4.7,14.1c-3.4,15.9-1.3,23.8,1.3,27.7c-2.9-3.4-6-11.3-2.1-28.8
				c1-4.8,2.6-9.6,4.7-14.1l11.7-26.3l0,0l10.7,0.2 M401.4,295c-0.1,0.1-0.4,0.5-0.7,1L401.4,295z"/>
			<path d="M469.1,303.1h0.2H469.1z"/>
			<path d="M465.8,303l-9.1-2.8 M456.6,300.2c-0.6,0.6-13.8,15.3-23.6,27.1c-8.8,10.6-24.4,9.8-28.1,9.4c-0.7-0.1-1.4-0.1-2-0.2
				c-10.1-0.7-14.1-1.9-15.5-4.5c1.9,1.9,6.1,2.8,14.7,3.4c0.7,0,1.4,0.1,2,0.2c3.7,0.4,19.3,1.2,28.1-9.4
				c9.9-11.8,23.1-26.4,23.6-27.1l0,0l13.3,4c-1-0.3-2.1-0.3-3.3-0.2L456.6,300.2z"/>
		</g>
		<path opacity="0.1" enable-background="new    " d="M439.3,702.3c0,0-14.9,3.8-18.3-2.1"/>
	</g>
</g>
<g display="none">
	
		<linearGradient id="SVGID_2_" gradientUnits="userSpaceOnUse" x1="-760.9635" y1="-12.3207" x2="-760.9635" y2="86.6477" gradientTransform="matrix(0.9306 0 0 0.9306 110.6526 -3.431129e-002)">
		<stop  offset="0" style="stop-color:#F5D40B"/>
		<stop  offset="1" style="stop-color:#EF666A"/>
	</linearGradient>
	<rect x="-632.4" y="-11.5" display="inline" fill="url(#SVGID_2_)" width="69.8" height="92.1"/>
	
		<linearGradient id="SVGID_3_" gradientUnits="userSpaceOnUse" x1="-665.971" y1="-12.3207" x2="-665.971" y2="86.6477" gradientTransform="matrix(0.9306 0 0 0.9306 110.6526 -3.431129e-002)">
		<stop  offset="0" style="stop-color:#A4489A"/>
		<stop  offset="1" style="stop-color:#3C55A3"/>
	</linearGradient>
	<rect x="-544" y="-11.5" display="inline" fill="url(#SVGID_3_)" width="69.8" height="92.1"/>
	
		<linearGradient id="SVGID_4_" gradientUnits="userSpaceOnUse" x1="-570.9785" y1="-12.3207" x2="-570.9785" y2="86.6477" gradientTransform="matrix(0.9306 0 0 0.9306 110.6526 -3.431129e-002)">
		<stop  offset="0" style="stop-color:#A4489A"/>
		<stop  offset="1" style="stop-color:#D53149"/>
	</linearGradient>
	<rect x="-455.6" y="-11.5" display="inline" fill="url(#SVGID_4_)" width="69.8" height="92.1"/>
	
		<linearGradient id="SVGID_5_" gradientUnits="userSpaceOnUse" x1="-475.9861" y1="-12.3207" x2="-475.9861" y2="86.6477" gradientTransform="matrix(0.9306 0 0 0.9306 110.6526 -3.431129e-002)">
		<stop  offset="0" style="stop-color:#B659A1"/>
		<stop  offset="1" style="stop-color:#AF1F63"/>
	</linearGradient>
	<rect x="-367.2" y="-11.5" display="inline" fill="url(#SVGID_5_)" width="69.8" height="92.1"/>
	
		<linearGradient id="SVGID_6_" gradientUnits="userSpaceOnUse" x1="-380.9936" y1="-12.3207" x2="-380.9936" y2="86.6477" gradientTransform="matrix(0.9306 0 0 0.9306 110.6526 -3.431129e-002)">
		<stop  offset="0" style="stop-color:#9ACE87"/>
		<stop  offset="1" style="stop-color:#36B376"/>
	</linearGradient>
	<rect x="-278.8" y="-11.5" display="inline" fill="url(#SVGID_6_)" width="69.8" height="92.1"/>
	
		<linearGradient id="SVGID_7_" gradientUnits="userSpaceOnUse" x1="-286.0011" y1="-12.3207" x2="-286.0011" y2="86.6477" gradientTransform="matrix(0.9306 0 0 0.9306 110.6526 -3.431129e-002)">
		<stop  offset="0" style="stop-color:#5CC4BF"/>
		<stop  offset="1" style="stop-color:#57B962"/>
	</linearGradient>
	<rect x="-190.4" y="-11.5" display="inline" fill="url(#SVGID_7_)" width="69.8" height="92.1"/>
	
		<linearGradient id="SVGID_8_" gradientUnits="userSpaceOnUse" x1="-191.0086" y1="-12.3207" x2="-191.0086" y2="86.6477" gradientTransform="matrix(0.9306 0 0 0.9306 110.6526 -3.431129e-002)">
		<stop  offset="0" style="stop-color:#F39EAC"/>
		<stop  offset="1" style="stop-color:#AE619C"/>
	</linearGradient>
	<rect x="-102" y="-11.5" display="inline" fill="url(#SVGID_8_)" width="69.8" height="92.1"/>
	
		<linearGradient id="SVGID_9_" gradientUnits="userSpaceOnUse" x1="-99.0249" y1="-14.3624" x2="-99.0249" y2="84.606" gradientTransform="matrix(0.9306 0 0 0.9306 110.6526 -3.431129e-002)">
		<stop  offset="0" style="stop-color:#426C7B"/>
		<stop  offset="1" style="stop-color:#19333C"/>
	</linearGradient>
	<rect x="-16.4" y="-13.4" display="inline" fill="url(#SVGID_9_)" width="69.8" height="92.1"/>
	
		<linearGradient id="SVGID_10_" gradientUnits="userSpaceOnUse" x1="-950.3574" y1="-16.834" x2="-950.3574" y2="82.1344" gradientTransform="matrix(0.9306 0 0 0.9306 110.6526 -3.431129e-002)">
		<stop  offset="0" style="stop-color:#38C0EF"/>
		<stop  offset="1" style="stop-color:#426FB3"/>
	</linearGradient>
	<polyline display="inline" fill="url(#SVGID_10_)" points="-808.6,-15.7 -738.9,-15.7 -738.9,76.4 -808.6,76.4 	"/>
	
		<linearGradient id="SVGID_11_" gradientUnits="userSpaceOnUse" x1="-1045.1887" y1="-16.834" x2="-1045.1887" y2="82.1344" gradientTransform="matrix(0.9306 0 0 0.9306 110.6526 -3.431129e-002)">
		<stop  offset="0" style="stop-color:#48B0E3"/>
		<stop  offset="1" style="stop-color:#6FC6AF"/>
	</linearGradient>
	<polyline display="inline" fill="url(#SVGID_11_)" points="-896.9,-15.7 -827.1,-15.7 -827.1,76.4 -896.9,76.4 	"/>
	
		<linearGradient id="SVGID_12_" gradientUnits="userSpaceOnUse" x1="-1141.1483" y1="-16.834" x2="-1141.1483" y2="82.1344" gradientTransform="matrix(0.9306 0 0 0.9306 110.6526 -3.431129e-002)">
		<stop  offset="0" style="stop-color:#65449A"/>
		<stop  offset="1" style="stop-color:#290F45"/>
	</linearGradient>
	<polyline display="inline" fill="url(#SVGID_12_)" points="-986.2,-15.7 -916.4,-15.7 -916.4,76.4 -986.2,76.4 	"/>
	
		<linearGradient id="SVGID_13_" gradientUnits="userSpaceOnUse" x1="-1235.8185" y1="-16.834" x2="-1235.8185" y2="82.1344" gradientTransform="matrix(0.9306 0 0 0.9306 110.6526 -3.431129e-002)">
		<stop  offset="0" style="stop-color:#1887C9"/>
		<stop  offset="1" style="stop-color:#39449B"/>
	</linearGradient>
	<polyline display="inline" fill="url(#SVGID_13_)" points="-1074.3,-15.7 -1004.5,-15.7 -1004.5,76.4 -1074.3,76.4 	"/>
	
		<linearGradient id="SVGID_14_" gradientUnits="userSpaceOnUse" x1="-861.9736" y1="-15.3296" x2="-861.9736" y2="83.6388" gradientTransform="matrix(0.9306 0 0 0.9306 110.6526 -3.431129e-002)">
		<stop  offset="0" style="stop-color:#80D0E9"/>
		<stop  offset="1" style="stop-color:#4F97D2"/>
	</linearGradient>
	<rect x="-726.4" y="-14.3" display="inline" fill="url(#SVGID_14_)" width="69.8" height="92.1"/>
</g>
<linearGradient id="SVGID_15_" gradientUnits="userSpaceOnUse" x1="481.9986" y1="700.4362" x2="824.8875" y2="-87.1168" gradientTransform="matrix(0.9306 0 0 0.9306 110.6526 -3.431129e-002)">
	<stop  offset="0" style="stop-color:#FFFFFF"/>
	<stop  offset="1" style="stop-color:#16B6FF"/>
</linearGradient>
<path opacity="0.3" fill="url(#SVGID_15_)" enable-background="new    " d="M1119.2,386.7c0,153.9-163.6,283.7-386.9,323.6
	c-36.3,6.4-73,10.4-110.2,11.9c-1.8,0.1-3.6,0.2-5.4,0.2c-9.7,0.4-19.4,0.5-29.1,0.5c-17,0-33.9-0.5-50.4-1.5
	c-9.2-0.6-18.3-1.2-27.5-2c-88.1-8.2-169.3-30.1-237.8-62.1c-8.6-4-16.9-8.2-25-12.5c-14.9-7.9-29.3-16.4-43.2-25.5
	c-91.5-60.4-15.2-189.3,32.5-270.4C364.9,129.9,294,50.6,587.6,50.6S1119.2,201,1119.2,386.7z"/>
<g id="W_Mark" opacity="0.3" enable-background="new    ">
	
		<linearGradient id="SVGID_16_" gradientUnits="userSpaceOnUse" x1="782.7693" y1="389.8906" x2="981.084" y2="223.8365" gradientTransform="matrix(0.9306 0 0 0.9306 110.6526 -3.431129e-002)">
		<stop  offset="0" style="stop-color:#FFFFFF"/>
		<stop  offset="1" style="stop-color:#16B6FF"/>
	</linearGradient>
	<path fill="url(#SVGID_16_)" d="M980.4,199.8c12.9,8.2,23.8,18.6,32.4,31.1c4.1,6,7.7,12.4,10.6,19.1c2.9,6.6,5.1,13.6,6.7,20.7
		s2.5,14.3,2.7,21.5c0.2,7.3-0.3,14.6-1.5,21.8c-2.5,14.9-7.9,29-16.1,42c-8.2,12.9-18.6,23.8-31.1,32.4c-6,4.1-12.4,7.7-19.1,10.6
		c-6.6,2.9-13.6,5.1-20.7,6.7c-7.1,1.6-14.3,2.5-21.6,2.7s-14.6-0.3-21.8-1.5c-14.9-2.5-29-7.9-42-16.1
		c-12.9-8.2-23.8-18.6-32.4-31.1c-4.1-6-7.7-12.4-10.6-19.1c-2.9-6.6-5.1-13.6-6.7-20.7s-2.5-14.3-2.7-21.6
		c-0.2-7.3,0.3-14.6,1.5-21.8c2.5-14.9,7.9-29,16.1-42s18.6-23.8,31.1-32.4c6-4.1,12.4-7.7,19.1-10.6c6.6-2.9,13.6-5.1,20.7-6.7
		c7.1-1.6,14.3-2.5,21.6-2.7s14.6,0.3,21.8,1.5C953.4,186.2,967.6,191.6,980.4,199.8 M984.3,193.7c-56.1-35.6-130.5-19-166.1,37
		c-35.6,56.1-19,130.5,37,166.1c56.1,35.6,130.6,19,166.1-37C1057,303.7,1040.4,229.4,984.3,193.7L984.3,193.7z"/>
	
		<linearGradient id="SVGID_17_" gradientUnits="userSpaceOnUse" x1="813.2957" y1="371.1973" x2="969.0085" y2="222.2444" gradientTransform="matrix(0.9306 0 0 0.9306 110.6526 -3.431129e-002)">
		<stop  offset="0" style="stop-color:#FFFFFF"/>
		<stop  offset="1" style="stop-color:#16B6FF"/>
	</linearGradient>
	<path fill="url(#SVGID_17_)" d="M835.1,241.6c-21.3,33.5-20.2,74.8-0.7,106.5l29.9-136.2C853,219.3,843,229.3,835.1,241.6z
		 M979.7,327.3c6.6-10.4,7.4-20.1,7.8-27.7c0.1-9.7-0.1-18.1,4.3-25.1c4.9-7.8,15.4-11.3,23.7-6c0.4,0.3,0.7,0.5,1,0.7
		c-6.3-23.4-21-44.6-43.1-58.5c-29.6-18.8-65.2-20.1-94.9-6.8c2,1.3,3.8,2.5,5.4,3.5c8.8,5.6,23.3,13.2,23.3,13.2
		c4.7,2.6,1,9.7-3.9,7.4c0,0-4.9-2.4-10.2-5.3L865.8,334l53.8-43.8l9.8-44.5c-4.4-3.2-8.4-6.4-8.4-6.4c-4.4-3.2,0.6-9.8,4.9-6.6
		c0,0,13.3,10,21.6,15.3c8.8,5.6,23.3,13.2,23.3,13.2c4.7,2.6,1,9.7-3.9,7.4c0,0-4.9-2.4-10.2-5.3l-27.2,110.5l26.3-22.1
		C967.4,341.7,975.1,334.5,979.7,327.3z M916.6,303.6l-72.3,57.7c6.1,7.1,13.4,13.4,21.7,18.6c9.9,6.2,20.4,10.6,31.2,13
		c0-0.5,0-1,0.1-1.6L916.6,303.6z M1019.9,301.9c-1.3,2.9-3,6-4.9,9c-5.5,8.6-13.2,17.2-25.7,26.2L916,395.4
		c34.5,1.3,68.8-15.2,88.6-46.4C1013.8,334.3,1018.8,318.1,1019.9,301.9z"/>
</g>
<path opacity="0.1" enable-background="new    " d="M319.1,696.2c0,0-12.8,3.5-15.4-2"/>
<g>
	
		<linearGradient id="SVGID_18_" gradientUnits="userSpaceOnUse" x1="229.3654" y1="506.162" x2="309.7436" y2="506.162" gradientTransform="matrix(0.9306 0 0 0.9306 110.6526 -3.431129e-002)">
		<stop  offset="0" style="stop-color:#65449A"/>
		<stop  offset="1" style="stop-color:#290F45"/>
	</linearGradient>
	<ellipse fill="url(#SVGID_18_)" cx="361.5" cy="471" rx="37.4" ry="6.3"/>
	
		<linearGradient id="SVGID_19_" gradientUnits="userSpaceOnUse" x1="248.8932" y1="488.7607" x2="290.0412" y2="488.7607" gradientTransform="matrix(0.9306 0 0 0.9306 110.6526 -3.431129e-002)">
		<stop  offset="0" style="stop-color:#9ACE87"/>
		<stop  offset="1" style="stop-color:#36B376"/>
	</linearGradient>
	<path fill="url(#SVGID_19_)" d="M345.9,460.6c-1.7-1.4-3-3.3-3.5-5.4s0.5-4.7,2.5-5.5c2.3-0.8,4.7,0.7,6.6,2.3
		c1.9,1.6,4,3.4,6.4,3.1c-2.5-2.3-3.7-5.8-3-9.1c0.1-0.7,0.4-1.3,0.8-1.9c1.3-1.4,3.5-0.7,5.1,0.3c4.8,3.4,6.2,10,6.2,15.9
		c0.5-2.1,0.1-4.4,0.1-6.5s0.7-4.7,2.4-5.8c1.1-0.7,2.4-0.9,3.7-0.9c2.1-0.1,4.6,0.2,6,1.8c1.9,2,1.4,5.3-0.3,7.4
		c-1.6,2.1-4.1,3.5-6.3,5c-1.8,1.1-3.4,2.5-4.5,4.3c-0.1,0.3-0.3,0.5-0.4,0.7h-13.6C351.3,464.9,348.5,462.9,345.9,460.6z"/>
</g>
<g>
	<ellipse opacity="0.1" fill="#6C63FF" enable-background="new    " cx="928.1" cy="612.5" rx="26.9" ry="4.6"/>
	<g>
		<g opacity="0.7">
			
				<linearGradient id="SVGID_20_" gradientUnits="userSpaceOnUse" x1="963.842" y1="49.6532" x2="1021.5364" y2="49.6532" gradientTransform="matrix(0.9306 0 0 -0.9306 4.3085 615.1326)">
				<stop  offset="0" style="stop-color:#808080;stop-opacity:0.25"/>
				<stop  offset="0.54" style="stop-color:#808080;stop-opacity:0.12"/>
				<stop  offset="1" style="stop-color:#808080;stop-opacity:0.1"/>
			</linearGradient>
			<path fill="url(#SVGID_20_)" d="M951.9,584.7h-22.7l0.3-2.5c6.4-5.8,10.6-21.1,10.6-21.1c-0.1,0-0.2,0-0.3,0.1
				c-3.7,0.7-6.4,2.3-8.3,4.2l0.8-6.8c11.9-2.5,16.6-18.2,16.6-18.2c-7.5,1.7-12.3,4.3-15.3,6.8l1.2-10c8,2.8,16.3-11.9,16.3-11.9
				l-0.3-0.1l0.2-0.1l-0.3,0.1c-8.8-2-13.6,3.2-15.2,5.3l0.1-1c-0.3,0.7-0.5,1.2-0.7,1.9l0,0l0,0c-0.7,1.7-1.2,3.3-1.8,5l0,0l0,0
				c-0.5,1.4-0.8,2.8-1.3,4.2l0,0c0,0-0.4-8.9-9.8-11.3c0,0,1,19.4,8.5,16.3l0,0c-0.7,2.8-1.2,5.6-1.8,8.2l0,0
				c-0.3,1.7-0.6,3.3-0.8,5v0.1l0,0v0.1l0,0l0,0c-0.2,1.5-0.4,2.9-0.6,4.4c0.2-2.7-0.4-10.5-9.6-17.9c0,0-12.3,21.5,8.7,25.8
				c0.1,0,0.1,0.1,0.1,0.1v-0.1h0.2l0.1-1.1c-0.3,4.7-0.2,9.2,0.1,13.9l0,0c0,0.3,0,0.7,0.1,0.9h-23c-8.7,18.1,4.8,28.1,4.8,28.1
				h37.7C961.4,594.4,951.9,584.7,951.9,584.7z M927.4,564.2L927.4,564.2L927.4,564.2z"/>
		</g>
		<path opacity="0.6" fill="none" stroke="#535461" stroke-width="3" stroke-miterlimit="10" enable-background="new    " d="
			M927.9,591.6c0,0-6-26.1,7.3-59.6"/>
		
			<linearGradient id="SVGID_21_" gradientUnits="userSpaceOnUse" x1="878.0289" y1="627.3741" x2="878.0289" y2="658.4222" gradientTransform="matrix(0.9306 0 0 0.9306 110.6526 -3.431129e-002)">
			<stop  offset="0" style="stop-color:#A4489A"/>
			<stop  offset="1" style="stop-color:#3C55A3"/>
		</linearGradient>
		<path fill="url(#SVGID_21_)" d="M904.6,583.8h46.2c0,0,9.1,11.6-5,28.8h-36.4C909.4,612.8,896.2,600.7,904.6,583.8z"/>
		
			<linearGradient id="SVGID_22_" gradientUnits="userSpaceOnUse" x1="883.47" y1="573.2824" x2="902.0314" y2="573.2824" gradientTransform="matrix(0.9306 0 0 0.9306 110.6526 -3.431129e-002)">
			<stop  offset="0" style="stop-color:#5CC4BF"/>
			<stop  offset="1" style="stop-color:#57B962"/>
		</linearGradient>
		<path fill="url(#SVGID_22_)" d="M934.5,533.7c0,0,4.6-8.2,15.5-5.7c0,0-9.1,15.4-17.3,10.4L934.5,533.7z"/>
		
			<linearGradient id="SVGID_23_" gradientUnits="userSpaceOnUse" x1="871.9956" y1="579.9924" x2="882.1639" y2="579.9924" gradientTransform="matrix(0.9306 0 0 0.9306 110.6526 -3.431129e-002)">
			<stop  offset="0" style="stop-color:#5CC4BF"/>
			<stop  offset="1" style="stop-color:#57B962"/>
		</linearGradient>
		<path fill="url(#SVGID_23_)" d="M931.5,542.4c0,0-0.4-8.4-9.5-10.5c0,0,0.9,18.2,8.2,15.3L931.5,542.4z"/>
		
			<linearGradient id="SVGID_24_" gradientUnits="userSpaceOnUse" x1="878.0939" y1="591.9238" x2="899.669" y2="591.9238" gradientTransform="matrix(0.9306 0 0 0.9306 110.6526 -3.431129e-002)">
			<stop  offset="0" style="stop-color:#5CC4BF"/>
			<stop  offset="1" style="stop-color:#57B962"/>
		</linearGradient>
		<path fill="url(#SVGID_24_)" d="M928.5,554.7c0,0,1.7-8.7,19.3-12.6c0,0-5.6,18.1-20.1,17.4L928.5,554.7z"/>
		
			<linearGradient id="SVGID_25_" gradientUnits="userSpaceOnUse" x1="863.9078" y1="600.6709" x2="877.5585" y2="600.6709" gradientTransform="matrix(0.9306 0 0 0.9306 110.6526 -3.431129e-002)">
			<stop  offset="0" style="stop-color:#5CC4BF"/>
			<stop  offset="1" style="stop-color:#57B962"/>
		</linearGradient>
		<path fill="url(#SVGID_25_)" d="M927.1,564.5c0,0,1.9-9.1-9.1-17.6c0,0-11.9,20.3,8.7,24.1L927.1,564.5z"/>
		
			<linearGradient id="SVGID_26_" gradientUnits="userSpaceOnUse" x1="877.0449" y1="615.0701" x2="890.5571" y2="615.0701" gradientTransform="matrix(0.9306 0 0 0.9306 110.6526 -3.431129e-002)">
			<stop  offset="0" style="stop-color:#5CC4BF"/>
			<stop  offset="1" style="stop-color:#57B962"/>
		</linearGradient>
		<path fill="url(#SVGID_26_)" d="M926.9,577.1c0,0-1.3-12.9,12.6-15.4c0,0-5,18.1-12.6,21.3V577.1z"/>
		<path opacity="0.3" fill="none" stroke="#535461" stroke-miterlimit="10" enable-background="new    " d="M932.9,538.6
			c0,0,11.9-9.1,16.9-10.7"/>
		<path opacity="0.3" fill="none" stroke="#535461" stroke-miterlimit="10" enable-background="new    " d="M927.8,559.4
			c0,0,14.4-15.4,20.1-17.3"/>
		<path opacity="0.3" fill="none" stroke="#535461" stroke-miterlimit="10" enable-background="new    " d="M922.1,531.9
			c0,0,8.7,11.9,8.2,15.1"/>
		<path opacity="0.3" fill="none" stroke="#535461" stroke-miterlimit="10" enable-background="new    " d="M918,546.9
			c0,0,4.7,21.3,8.5,24.2"/>
		<path opacity="0.3" fill="none" stroke="#535461" stroke-miterlimit="10" enable-background="new    " d="M926.8,583.1
			c0,0,7.5-20.8,12.6-21.3"/>
		<g opacity="0.1">
			<path d="M950.9,583.8h-46.2c-0.1,0.2-0.2,0.5-0.3,0.7h44.9c0,0,8.8,11.4-4.6,28.3h1C959.9,595.4,950.9,583.8,950.9,583.8z"/>
		</g>
	</g>
</g>
<g display="none">
	<g display="inline">
		<g>
			<circle fill="#FF2D20" cx="223.3" cy="301.9" r="46.5"/>
		</g>
	</g>
	<path display="inline" fill="#FFFFFF" d="M239.1,292.9L239.1,292.9C239.1,292.8,239.1,292.8,239.1,292.9L239.1,292.9
		c-0.1-0.1-0.1-0.1-0.1-0.2c0,0,0,0-0.1,0c0,0,0,0-0.1,0l0,0l0,0l-6.1-3.5c-0.2-0.1-0.4-0.1-0.5,0l-6.1,3.5l0,0l0,0c0,0,0,0-0.1,0
		c0,0,0,0-0.1,0c0,0,0,0,0,0.1l0,0v0.1l0,0v0.1v6.7l-5.1,3v-13.1v-0.1l0,0v-0.1l0,0c0,0,0,0,0-0.1c0,0,0,0-0.1,0c0,0,0,0-0.1,0l0,0
		l0,0l-6.1-3.5c-0.2-0.1-0.4-0.1-0.5,0l-6.1,3.5l0,0l0,0c0,0,0,0-0.1,0c0,0,0,0-0.1,0c0,0,0,0,0,0.1l0,0v0.1l0,0v0.1v20.9
		c0,0.2,0.1,0.4,0.3,0.5l12.3,7.1h0.1l0,0h0.1h0.1l0,0h0.1L233,311c0.2-0.1,0.3-0.3,0.3-0.5v-6.7l5.9-3.4c0.2-0.1,0.3-0.3,0.3-0.5
		v-7C239.2,293,239.2,292.9,239.1,292.9z M220.3,310l-5.1-2.9l5.3-3.1l0,0l5.9-3.4l5.1,3l-3.7,2.1L220.3,310z M232,296.8v5.8
		l-2.1-1.2l-3-1.7V294l2.1,1.2L232,296.8z M232.5,290.1l5.1,3l-5.1,3l-5.1-3L232.5,290.1z M216.7,305l-2.1,1.2v-12.8l3-1.7l2.1-1.2
		v12.8L216.7,305z M214.1,286.7l5.1,3l-5.1,3l-5.1-3L214.1,286.7z M208.5,290.5l2.1,1.2l3,1.7v13.7l0,0l0,0c0,0,0,0,0,0.1v0.1l0,0
		c0,0,0,0,0,0.1c0,0,0,0,0,0.1l0,0c0,0,0,0,0,0.1c0,0,0,0,0,0.1l0,0c0,0,0,0,0.1,0c0,0,0,0,0.1,0l0,0l0,0l5.9,3.4v5.9l-11.3-6.4
		L208.5,290.5L208.5,290.5z M232,310.2l-11.3,6.4v-5.9l8.3-4.7l2.9-1.7L232,310.2L232,310.2z M238.1,299.7l-5.1,3v-5.9l3-1.7
		l2.1-1.2V299.7z"/>
</g>
<g display="none">
	<g display="inline">
		<g>
			<circle fill="#42B983" cx="335.1" cy="113.9" r="31.2"/>
		</g>
	</g>
	<g display="inline">
		<path fill="#FFFFFF" d="M341.6,106.4h4.4l-10.9,18.8l-10.9-18.8h8.4l2.6,4.4l2.5-4.4C337.7,106.4,341.6,106.4,341.6,106.4z"/>
		<path fill="#FFFFFF" d="M324.2,106.4l10.9,18.8l10.9-18.8h-4.4l-6.5,11.3l-6.6-11.3C328.5,106.4,324.2,106.4,324.2,106.4z"/>
		<path fill="#35495D" d="M328.5,106.4l6.6,11.4l6.5-11.4h-4l-2.5,4.4l-2.6-4.4H328.5z"/>
	</g>
</g>
<rect x="809.8" y="445" fill="#EBEBEB" width="33.7" height="0.3"/>
<g>
	<rect x="251.6" y="596.6" fill="#EBEBEB" width="760.7" height="0.4"/>
	<rect x="742.3" y="628.8" fill="#EBEBEB" width="13.2" height="0.4"/>
	<rect x="855" y="608.2" fill="#EBEBEB" width="29.2" height="0.4"/>
	<rect x="331.5" y="611.1" fill="#EBEBEB" width="65.7" height="0.4"/>
	<rect x="410.7" y="611.1" fill="#EBEBEB" width="9.7" height="0.4"/>
	<rect x="451.7" y="618.3" fill="#EBEBEB" width="142.5" height="0.4"/>
	<rect x="528.5" y="106.3" fill="#E6E6E6" width="4.1" height="238.9"/>
	
		<linearGradient id="SVGID_27_" gradientUnits="userSpaceOnUse" x1="522.7945" y1="520.7373" x2="867.2037" y2="520.7373" gradientTransform="matrix(1 0 0 -1 0 800)">
		<stop  offset="0" style="stop-color:#FFFFFF"/>
		<stop  offset="1" style="stop-color:#16B6FF"/>
	</linearGradient>
	<rect x="522.8" y="271" opacity="0.3" fill="url(#SVGID_27_)" enable-background="new    " width="344.4" height="16.6"/>
	
		<linearGradient id="SVGID_28_" gradientUnits="userSpaceOnUse" x1="377.5871" y1="293.5738" x2="455.5792" y2="293.5738" gradientTransform="matrix(1 0 0 -1 0 800)">
		<stop  offset="0" style="stop-color:#FFFFFF"/>
		<stop  offset="1" style="stop-color:#16B6FF"/>
	</linearGradient>
	<rect x="377.6" y="416.3" opacity="0.3" fill="url(#SVGID_28_)" enable-background="new    " width="78" height="180.3"/>
	<polygon fill="#F5F5F5" points="392.4,596.6 377.6,596.6 377.6,559.8 407.9,559.8 	"/>
	
		<linearGradient id="SVGID_29_" gradientUnits="userSpaceOnUse" x1="822.7639" y1="293.5738" x2="900.7559" y2="293.5738" gradientTransform="matrix(1 0 0 -1 0 800)">
		<stop  offset="0" style="stop-color:#FFFFFF"/>
		<stop  offset="1" style="stop-color:#16B6FF"/>
	</linearGradient>
	<rect x="822.8" y="416.3" opacity="0.3" fill="url(#SVGID_29_)" enable-background="new    " width="78" height="180.3"/>
	
		<linearGradient id="SVGID_30_" gradientUnits="userSpaceOnUse" x1="683.4448" y1="321.8755" x2="821.8215" y2="321.8755" gradientTransform="matrix(1 0 0 -1 0 800)">
		<stop  offset="0" style="stop-color:#FFFFFF"/>
		<stop  offset="1" style="stop-color:#16B6FF"/>
	</linearGradient>
	<path opacity="0.3" fill="url(#SVGID_30_)" enable-background="new    " d="M820.5,529.5H684.7c-0.7,0-1.2-0.6-1.2-1.4l0,0v-100
		c0-0.7,0.6-1.4,1.2-1.4l0,0h25.1c0.2,0,0.6,0.1,0.8,0.2c3.8,3.1,7.9,5.5,12.2,7.1c5.3,2,10.8,3,16.4,3h26.9
		c10.3,0.2,20.3-3.2,28.8-10c0.2-0.1,0.4-0.2,0.8-0.2h25.1c0.7,0,1.2,0.6,1.2,1.4l0,0v99.8C821.8,528.9,821.2,529.5,820.5,529.5
		L820.5,529.5z M685.9,526.7h133.3v-97.1h-23.4c-8.8,6.9-19.1,10.5-29.8,10.2h-26.9c-5.9,0-11.7-1-17.2-3.1
		c-4.4-1.6-8.8-4.1-12.6-7.2h-23.4L685.9,526.7L685.9,526.7z"/>
	<path fill="#E6E6E6" d="M674.6,529.5H538.8c-0.7,0-1.2-0.6-1.2-1.4l0,0v-100c0-0.7,0.6-1.4,1.2-1.4l0,0h23.7c0.2,0,0.6,0.1,0.8,0.2
		c3.7,3.1,7.8,5.5,12.2,7.1c5.3,2,10.8,3,16.4,3h26.8c10.2,0.1,20.2-3.4,28.7-10c0.2-0.1,0.4-0.2,0.8-0.2h26.6
		c0.7,0,1.2,0.6,1.2,1.4l0,0v99.8C675.9,528.9,675.3,529.5,674.6,529.5L674.6,529.5z M540,526.7h133.3v-97.1h-24.8
		c-8.8,6.9-19.1,10.5-29.8,10.2h-26.9c-5.9,0-11.7-1-17.2-3.1c-4.6-1.6-8.8-4.1-12.7-7.2h-22.1L540,526.7z"/>
	
		<linearGradient id="SVGID_31_" gradientUnits="userSpaceOnUse" x1="391.5857" y1="321.8755" x2="529.9048" y2="321.8755" gradientTransform="matrix(1 0 0 -1 0 800)">
		<stop  offset="0" style="stop-color:#FFFFFF"/>
		<stop  offset="1" style="stop-color:#16B6FF"/>
	</linearGradient>
	<path opacity="0.3" fill="url(#SVGID_31_)" enable-background="new    " d="M528.7,529.5H392.8c-0.7,0-1.2-0.6-1.2-1.4l0,0v-100
		c0-0.7,0.6-1.4,1.2-1.4l0,0h23.7c0.2,0,0.6,0.1,0.8,0.2c3.7,3,7.8,5.5,12.2,7.1c5.3,2,10.9,3,16.4,3h26.9
		c10.2,0.1,20.3-3.4,28.7-10c0.2-0.1,0.4-0.2,0.8-0.2h26.4c0.7,0,1.2,0.6,1.2,1.4l0,0v99.8C529.8,528.9,529.3,529.5,528.7,529.5z
		 M394,526.7h133.3v-97.1h-24.8c-8.8,6.9-19.1,10.5-29.8,10.2h-27c-5.9,0-11.7-1-17.2-3.1c-4.6-1.6-8.8-4.1-12.7-7.2h-22.1
		L394,526.7z"/>
	<polygon fill="#F5F5F5" points="820.9,596.6 835.8,596.6 835.8,559.8 805.3,559.8 	"/>
	<g id="freepik--Shadow--inject-32" opacity="0.3" enable-background="new    ">
		
			<linearGradient id="freepik--path--inject-32_1_" gradientUnits="userSpaceOnUse" x1="337.0357" y1="145.5676" x2="926.9754" y2="145.5676" gradientTransform="matrix(1 0 0 -1 0 800)">
			<stop  offset="0" style="stop-color:#FFFFFF"/>
			<stop  offset="1" style="stop-color:#16B6FF"/>
		</linearGradient>
		<ellipse id="freepik--path--inject-32" fill="url(#freepik--path--inject-32_1_)" cx="632" cy="654.4" rx="295" ry="19.4"/>
	</g>
	<g id="freepik--Table--inject-32">
		<rect x="395.7" y="487" fill="#12C9FE" width="472.5" height="60.1"/>
		<rect x="766.9" y="487" opacity="0.3" enable-background="new    " width="101.3" height="60.1"/>
		<rect x="395.7" y="547.1" fill="#12C9FE" width="52.2" height="107.3"/>
		<polygon opacity="0.3" enable-background="new    " points="395.7,547.1 395.7,553.1 432.7,565.7 432.7,654.4 447.9,654.4 
			447.9,547.1 		"/>
		<rect x="816.1" y="547.1" fill="#12C9FE" width="52.2" height="107.3"/>
		<rect x="816.1" y="547.1" opacity="0.2" enable-background="new    " width="52.2" height="107.3"/>
		<polygon opacity="0.3" enable-background="new    " points="816.1,547.1 816.1,553.1 853,565.7 853,654.4 868.2,654.4 
			868.2,547.1 		"/>
		<rect x="714.7" y="547.1" fill="#12C9FE" width="52.2" height="107.3"/>
		<polygon opacity="0.3" enable-background="new    " points="714.7,547.1 714.7,553.1 751.7,565.7 751.7,654.4 766.9,654.4 
			766.9,547.1 		"/>
		<rect x="497.1" y="547.1" fill="#12C9FE" width="52.2" height="107.3"/>
		<rect x="497.1" y="547.1" opacity="0.2" enable-background="new    " width="52.2" height="107.3"/>
		<polygon opacity="0.3" enable-background="new    " points="497.1,547.1 497.1,553.1 534,565.7 534,654.4 549.2,654.4 
			549.2,547.1 		"/>
	</g>
	<g id="freepik--Character--inject-32">
		<path fill="#263238" d="M803.1,475.1H514.2c-3.6,0-6.6-3.2-6.6-7.2c0-0.2,0-0.4,0-0.6L519.6,255c0.3-4.4,3.6-7.7,7.4-7.9h288.9
			c3.6,0,6.6,3.2,6.6,7.2c0,0.2,0,0.4,0,0.6l-11.9,212.3C810.2,471.6,807,475,803.1,475.1z"/>
		<path opacity="0.6" enable-background="new    " d="M803.1,475.1H514.2c-3.6,0-6.6-3.2-6.6-7.2c0-0.2,0-0.4,0-0.6L519.6,255
			c0.3-4.4,3.6-7.7,7.4-7.9h288.9c3.6,0,6.6,3.2,6.6,7.2c0,0.2,0,0.4,0,0.6l-11.9,212.3C810.2,471.6,807,475,803.1,475.1z"/>
		<path fill="#263238" d="M800.9,475.1H512c-3.6,0-6.6-3.2-6.6-7.2c0-0.2,0-0.4,0-0.6L517.4,255c0.3-4.4,3.6-7.7,7.4-7.9h288.9
			c3.6,0,6.6,3.2,6.6,7.2c0,0.2,0,0.4,0,0.6l-11.9,212.3C808,471.6,804.9,475,800.9,475.1z"/>
		<path fill="#263238" d="M800.5,477.9H456.8c-3.2,0-6.2,2-7.6,5.2c-0.6,1.4-0.1,3,1.1,3.6c0.3,0.1,0.7,0.2,1.1,0.2h354.4
			c1.3,0,2.4-1.1,2.4-2.6c0-0.4-0.1-0.9-0.2-1.2C806.7,479.9,803.8,477.9,800.5,477.9z"/>
		<path opacity="0.6" enable-background="new    " d="M800.5,477.9h-48.9c-3.2,0-6.1,2-7.6,5.2c-0.6,1.4-0.1,3,1.1,3.6
			c0.3,0.1,0.7,0.2,1.1,0.2h59.5c1.3,0,2.4-1.1,2.4-2.6c0-0.4-0.1-0.9-0.2-1.2C806.7,479.9,803.8,477.9,800.5,477.9z"/>
		<path fill="#12C9FE" d="M770.2,484.5h-12.7c-0.6,0-1.1-0.6-1.1-1.2l0,0c0-0.6,0.4-1.2,1.1-1.2h12.7c0.7,0,1.1,0.5,1.1,1.2l0,0l0,0
			C771.3,484,770.9,484.5,770.2,484.5L770.2,484.5z"/>
		<path opacity="0.7" fill="#FFFFFF" enable-background="new    " d="M607.9,484.5h-12.7c-0.7,0-1.1-0.5-1.1-1.2l0,0l0,0
			c0-0.7,0.4-1.2,1.1-1.2l0,0h12.7c0.7,0,1.1,0.5,1.1,1.2l0,0l0,0C609,484,608.5,484.5,607.9,484.5L607.9,484.5z"/>
		<path fill="#12C9FE" d="M775.1,482h8.2c0.6,0,0.9,0.5,0.9,1v0.5c0,0.6-0.4,1-0.9,1h-8.2c-0.6,0-0.9-0.5-0.9-1V483
			C774.1,482.5,774.5,482,775.1,482z"/>
		<path fill="#FFFFFF" d="M512,459.6l11-196.9c0.1-1.7,1.3-3,2.9-3h285.2c1.3,0,2.6,1.2,2.6,2.7c0,0.1,0,0.1,0,0.2l-11,196.9
			c-0.1,1.7-1.3,3-2.9,3H514.6c-1.4,0-2.6-1.2-2.6-2.9V459.6z"/>
		<path opacity="0.1" fill="#12C9FE" enable-background="new    " d="M674.3,253.5l-95.1,203.2h-70.1c-1.4,0-2.6-1.2-2.6-2.7
			c0-0.1,0-0.1,0-0.2l11-196.9c0.1-1.7,1.3-3,2.9-3.1L674.3,253.5z"/>
		<polygon opacity="0.1" fill="#12C9FE" enable-background="new    " points="757.4,253.5 662.4,456.6 640.3,456.6 735.3,253.5 		
			"/>
		<path opacity="0.1" fill="#12C9FE" enable-background="new    " d="M808.3,256.6l-11,196.9c-0.1,1.7-1.3,3-2.9,3.1h-108l95-203
			h24.3c1.4,0,2.6,1.2,2.6,2.7C808.3,256.3,808.3,256.5,808.3,256.6z"/>
		<path opacity="0.4" fill="#FFFFFF" enable-background="new    " d="M671,253.7c-0.1,1.2-1,2.2-2.2,2.2c-1,0-1.9-0.9-1.9-2.1
			c0-0.1,0-0.1,0-0.2c0.1-1.2,1-2.2,2.2-2.2c1,0,1.9,0.9,1.9,2.1C671,253.6,671,253.6,671,253.7z"/>
		<path fill="#263238" d="M623.8,206.5c-8.3,10.7-13.1,43.5-7,59.7c6.1,16.1-65.3,32.4-6.3,58.6c59,26.2,106.1-4.2,89.1-31.4
			c-17.1-27.2,1.9-72.5-17.9-83.8C663.8,199.1,640.4,185,623.8,206.5z"/>
		<path fill="#B65B52" d="M606.2,338.7c-3.1,12-6.4,24-9.9,36c-3.4,12-7,23.9-10.8,35.7l-1.4,4.5l-0.8,2.2l-0.2,0.6l-0.3,1
			c-0.2,0.6-0.6,1.4-0.9,2c-1.4,3-3.7,5.6-6.4,7.2c-2.4,1.5-5.2,2.2-8,2.4c-3.9,0-7.8-0.9-11.4-2.5c-3-1.4-5.8-3-8.6-4.7
			c-10-6.9-19.1-15.2-27.2-24.7l6.6-8.7c2.2,1.6,4.6,3.2,6.9,4.9c2.3,1.6,4.7,3.1,7,4.6c4.6,3,9.2,5.6,14,8c2.2,1.1,4.4,2,6.8,2.6
			c1.6,0.6,3.3,0.9,5,0.6c0.4,0,0.3-0.2,0-0.1c-0.3,0.1-0.8,0.6-0.8,0.5c0,0,0,0,0-0.1v-0.1l0.1-0.4l0.6-2.2l1.2-4.5l9.3-36
			c3.1-12,6.4-24,9.8-36L606.2,338.7z"/>
		<path fill="#B55B52" d="M526.5,389.4l-17.7-7.4l7,21c0,0,12.4,2,17.3-5.4l-3.9-6C528.5,390.7,527.5,389.9,526.5,389.4z"/>
		<polygon fill="#B55B52" points="493.1,388.2 499.9,405.4 515.8,403 508.8,382 		"/>
		<path fill="#12C9FE" d="M593.3,307.7c-8.1,2.2-13.7,39.7-13.7,39.7l22.3,17.1c0,0,21.3-37.7,15.1-47.7
			C610.5,306.3,605.1,304.3,593.3,307.7z"/>
		<path opacity="0.5" fill="#FFFFFF" enable-background="new    " d="M593.3,307.7c-8.1,2.2-13.7,39.7-13.7,39.7l22.3,17.1
			c0,0,21.3-37.7,15.1-47.7C610.5,306.3,605.1,304.3,593.3,307.7z"/>
		<path opacity="0.2" enable-background="new    " d="M592.6,321.3l17.3,4.5l1.7,19c-2.9,6.7-6.1,13.2-9.7,19.6l-13.6-10.2
			C588.9,345.4,590.3,327.3,592.6,321.3z"/>
		<path fill="#12C9FE" d="M593.3,307.7c0,0-9.3,3.7,9.3,133.2h79.7c-1.3-36.5-1.3-59,14.1-133.8c-11.1-2.6-22.4-4.2-33.8-5
			c-13.4-0.7-24.3-1.2-36.2,0C610.9,303.7,593.3,307.7,593.3,307.7z"/>
		<path opacity="0.5" fill="#FFFFFF" enable-background="new    " d="M593.3,307.7c0,0-9.3,3.7,9.3,133.2h79.7
			c-1.3-36.5-1.3-59,14.1-133.8c-11.1-2.6-22.4-4.2-33.8-5c-13.4-0.7-24.3-1.2-36.2,0C610.9,303.7,593.3,307.7,593.3,307.7z"/>
		<path opacity="0.2" enable-background="new    " d="M677.7,341.8l10.3,9.9c-2.2,13.1-3.7,24-4.6,33.7
			C681.4,375.7,676.6,349.2,677.7,341.8z"/>
		<path fill="#B55B52" d="M659,256.2c-2.3,13.1-4.6,37.1,3.6,45.9c0,0-7.6,19.6-27.8,19.6c-20.1,0-8.4-19.6-8.4-19.6
			c13-3.4,12.7-14.4,10.4-24.5L659,256.2z"/>
		<path fill="#FAFAFA" d="M660,297.2c-1.9,4.4-8.1,14.4-25.3,17.9c-0.4,0.1-1,0-1.3-0.2c-3.2-2.5-5.2-7.9-3.8-14.1
			c0.2-1.1-0.3-2.2-1.3-2.6c-0.4-0.1-0.8-0.1-1.2,0.1c-1.3,0.6-2.6,1.4-3.8,2.2c-0.2,0.2-0.4,0.5-0.7,0.7c-1.2,2.6-6.3,15.7,9,23.7
			c0.2,0.1,0.6,0.2,0.8,0.2c9.1,0.2,25.1-1.9,35.2-22.2c0.3-0.7,0.3-1.6-0.2-2.4c-1.3-1.6-2.9-3.1-4.7-4.2c-0.9-0.6-2-0.4-2.6,0.6
			C660.1,297.1,660.1,297.1,660,297.2z"/>
		<path fill="#FAFAFA" d="M664.2,351l-20.6-0.6c-0.9,0-1.6-0.7-1.6-1.7c0-0.1,0-0.1,0-0.2l0.2-2.9c0.1-1,0.9-1.7,1.8-1.7l20.6,0.6
			c0.9,0,1.6,0.7,1.6,1.7c0,0.1,0,0.1,0,0.2l-0.2,2.9C665.9,350.3,665.1,351,664.2,351z"/>
		<path opacity="0.2" enable-background="new    " d="M650,265l-13.1,12.6c0.6,2.4,0.9,4.7,1.1,7.2c5-0.7,11.8-6.9,12.3-12.7
			C650.6,269.6,650.4,267.2,650,265z"/>
		<path fill="#B55B52" d="M674.3,231.5c-3.7,21.5-4.8,30.7-15.8,40.4c-16.6,14.6-39.2,4.9-41.3-17.5c-1.9-20.1,4.4-51.9,24.3-57.7
			c14.2-4.2,28.7,5.2,32.4,21.2C675.1,222.2,675.2,227,674.3,231.5z"/>
		<path fill="#263238" d="M663.4,215.6c-2.3,13.5-2.9,31.4,8,31.4c11,0,19.6-21,10.1-37.5S664.9,207.6,663.4,215.6z"/>
		<path fill="#263238" d="M682.4,217.2c0,14.6-16.4,7.4-23.7,1.1c-7.2-6.4-7.6-5.6-21.1-5.6c-13.6,0-16.1-1-20.1-8.2
			c-4-7.2-3.6-12,5.3-10.5c9,1.5,1.4-8.7,8.1-14.5c6.7-5.7,14.6-4.2,23.7,8.7C663.9,201.2,682.4,191.9,682.4,217.2z"/>
		<path fill="#FFFFFF" d="M667.6,260.3c-3.8-1.3-5.5-7.7-3.8-14.3s6.2-11,10.1-9.7c3.8,1.3,5.5,7.7,3.8,14.3
			C675.9,257.2,671.4,261.6,667.6,260.3z"/>
		<path fill="#FFFFFF" d="M647.2,267.2c-3.6,0-7-0.7-10.2-2.4c-0.3-0.1-0.4-0.5-0.3-0.9l0,0c0.1-0.4,0.4-0.5,0.8-0.4
			c6.2,3,13.1,3,19.3,0.1c6-2.7,10.8-8.1,13.2-15c4.6-14.7,9.2-33,3.9-44.5c-2.2-4.5-6-7.7-10.4-8.7c-0.3-0.1-0.4-0.5-0.4-0.7
			c0.1-0.4,0.4-0.5,0.7-0.5c4.8,1.1,8.9,4.6,11.2,9.4c5.6,11.9,0.9,30.5-3.8,45.5c-2.6,7.1-7.6,12.7-14,15.7
			C654,266.3,650.6,267.1,647.2,267.2z"/>
		<path opacity="0.6" fill="#12C9FE" enable-background="new    " d="M677.1,250.7c-1.3,5.1-4.4,8.7-6.9,8s-3.4-5.7-2-10.9
			s4.4-8.7,6.9-8S678.4,245.5,677.1,250.7z"/>
		<path fill="#FFFFFF" d="M632.6,260.7l6,1.2c1,0.2,1.8,1.4,1.6,2.5l-0.1,0.4c-0.2,1.1-1.2,2-2.2,1.7l-6-1.2c-1-0.2-1.8-1.4-1.6-2.5
			l0.1-0.4C630.5,261.2,631.5,260.5,632.6,260.7z"/>
		<path fill="#A02724" d="M630.7,233.2c0,0-3.6,7.2-6.9,10.5c1.8,2.5,5.4,2,5.4,2L630.7,233.2z"/>
		<path fill="#263238" d="M634.1,255h0.1c3.4,0.2,6.9-0.9,9.6-3.2c0.1-0.1,0.1-0.4,0-0.5c-0.1-0.1-0.3-0.1-0.4,0l0,0
			c-2.6,2.2-5.9,3.4-9.1,3.1c-0.1,0-0.3,0.1-0.3,0.2l0,0C633.9,254.7,634,254.8,634.1,255z"/>
		<path fill="#263238" d="M651.4,224.8c0.2,0.1,0.3,0.1,0.6,0c0.2-0.2,0.3-0.6,0.2-0.9c-1.4-2.7-4-4.6-6.9-4.9
			c-0.3,0-0.6,0.2-0.6,0.6s0.2,0.6,0.6,0.6c2.4,0.2,4.7,1.9,6,4.2C651.3,224.7,651.3,224.7,651.4,224.8z"/>
		<path fill="#263238" d="M642.8,233.6c-0.2,1.7-1.3,3-2.3,2.9c-1-0.2-1.7-1.7-1.3-3.5c0.3-1.7,1.3-3,2.3-2.9
			C642.4,230.2,643,231.8,642.8,233.6z"/>
		<path fill="#263238" d="M625,230.2c-0.2,1.7-1.3,3-2.3,2.9c-1-0.2-1.7-1.7-1.3-3.5c0.3-1.7,1.3-3,2.3-2.9
			C624.7,226.8,625.3,228.3,625,230.2z"/>
		<path fill="#263238" d="M624.1,226.8l-3.6-2C620.5,224.8,621.9,228.5,624.1,226.8z"/>
		<path fill="#263238" d="M641.8,230.2l-3.6-1.9C638.2,228.2,639.7,232,641.8,230.2z"/>
		<path fill="#263238" d="M619,218.2c0.2,0.1,0.4,0.1,0.6,0c1.9-1.7,4.4-2.5,6.9-1.7c0.3,0.1,0.7,0,0.8-0.4c0.1-0.4,0-0.7-0.3-0.9
			l0,0c-2.8-0.9-5.8-0.2-8,1.9c-0.2,0.2-0.3,0.6-0.1,0.9l0,0C618.8,218.1,618.9,218.2,619,218.2z"/>
		<path fill="#12C9FE" d="M599.7,462.6c0,0-0.2-12.2,3-21.9h79.7c0,0,7.1,13,9,21.9H599.7z"/>
		<path fill="#12C9FE" d="M683.6,435.6l0.7,8c0.3,0.6-0.3,1.2-1.3,1.2h-80.7c-0.7,0-1.3-0.4-1.3-0.9l-0.8-8c0-0.5,0.6-1,1.3-1h80.7
			C682.7,434.9,683.2,435.1,683.6,435.6z"/>
		<path opacity="0.3" fill="#FAFAFA" enable-background="new    " d="M683.6,435.6l0.7,8c0.3,0.6-0.3,1.2-1.3,1.2h-80.7
			c-0.7,0-1.3-0.4-1.3-0.9l-0.8-8c0-0.5,0.6-1,1.3-1h80.7C682.7,434.9,683.2,435.1,683.6,435.6z"/>
		<path fill="#12C9FE" d="M672.7,445.8h2.1c0.4,0,0.8-0.2,0.8-0.5l-1-10.4c0-0.2-0.4-0.5-0.9-0.5h-2.2c-0.4,0-0.8,0.2-0.8,0.5
			l1,10.4C671.9,445.5,672.2,445.8,672.7,445.8z"/>
		<path fill="#12C9FE" d="M608.3,445.8h2.1c0.4,0,0.8-0.2,0.8-0.5l-1-10.4c0-0.2-0.4-0.5-0.9-0.5h-2.1c-0.4,0-0.8,0.2-0.8,0.5
			l1,10.4C607.6,445.5,607.9,445.8,608.3,445.8z"/>
		<path fill="#12C9FE" d="M640.6,445.8h2.1c0.4,0,0.8-0.2,0.8-0.5l-1-10.4c0-0.2-0.4-0.5-0.9-0.5h-2.1c-0.4,0-0.8,0.2-0.8,0.5
			l1,10.4C639.7,445.5,640.1,445.8,640.6,445.8z"/>
		<path fill="#B65B52" d="M703.2,332.4c3.4,12.7,6.9,25.6,10.1,38.5l4.9,19.2l2.4,9.6l0.6,2.4l0.3,1.1l0.1,0.2l0,0l0,0l-0.2-0.4
			c-0.3-0.6-0.9-1.1-1.4-1.6c-1.2-1-2.6-1.5-4.1-1.6c-1.1,0-2.2,0.1-3.2,0.7c-1.1,0.6-1,0.9-0.9,0.7c0.2-0.2,0.4-0.5,0.7-0.9
			c0.7-1,1.3-2.1,2-3.1c1.3-2.5,2.7-5.2,3.9-8.1c2.6-5.6,4.9-11.7,7.2-17.7c2.3-6,4.6-12.1,6.9-18.4c2.3-6.1,4.4-12.4,6.7-18.5
			l9.7,3.2c-2.6,13.4-5.4,26.5-9.1,39.5c-1.8,6.5-3.8,13-6.1,19.6c-1.2,3.2-2.4,6.6-4,10c-0.9,1.9-1.8,3.6-2.8,5.4
			c-0.7,1.1-1.3,2.1-2.1,3c-1.2,1.6-2.8,2.9-4.4,3.7s-3.6,1.4-5.3,1.2c-2.2-0.1-4.3-1-6.1-2.5c-1.1-1-2.1-2.1-2.9-3.4
			c-0.4-0.9-0.9-1.7-1.3-2.6c-0.1-0.4-0.3-0.7-0.4-1.1l-0.3-0.9l-0.4-1.2l-0.8-2.4c-1-3.2-2.1-6.4-3-9.6c-2-6.4-3.9-12.7-5.7-19.2
			c-3.8-12.9-7.2-25.7-10.4-38.6L703.2,332.4z"/>
		<path fill="#12C9FE" d="M696.4,307.1c8,2.7,20.2,38,20.2,38l-31,24.9c0,0-13.9-30.1-10.6-41.7
			C678.7,316.1,687.3,303.9,696.4,307.1z"/>
		<path opacity="0.5" fill="#FFFFFF" enable-background="new    " d="M696.4,307.1c8,2.7,20.2,38,20.2,38l-31,24.9
			c0,0-13.9-30.1-10.6-41.7C678.7,316.1,687.3,303.9,696.4,307.1z"/>
		<path fill="#B55B52" d="M739.6,339.3l-4.2-21l17.7,10.5c0,0,0.2,14.1-6.9,18.6L739.6,339.3z"/>
		<polygon fill="#B55B52" points="742.7,301.6 753.9,310.6 752.9,328.8 735.3,318.3 		"/>
	</g>
	<g id="freepik--Chat--inject-32">
		<path fill="#12C9FE" d="M426.6,195.7h123.2c9.4-0.1,17.1,8.4,17.2,19c0,0.5,0,1.1,0,1.6l-3.4,62.7c-0.8,11.5-9.2,20.4-19.3,20.5
			H530l5.8,21.5l-27.9-21.5h-87c-9.4,0.1-17.1-8.4-17.2-19c0-0.5,0-1.1,0-1.6l3.4-62.7C408,204.7,416.4,195.9,426.6,195.7z"/>
		<path fill="#FFFFFF" d="M538.6,228.6H434.4c-1.8,0-3.2-1.6-3.2-3.6c0-0.1,0-0.2,0-0.2l0,0c0.1-2.1,1.7-3.9,3.7-3.9H539
			c1.8,0,3.2,1.6,3.2,3.6c0,0.1,0,0.1,0,0.2l0,0C542.1,226.8,540.5,228.5,538.6,228.6z"/>
		<path fill="#FFFFFF" d="M476.8,251.5H433c-1.8,0-3.2-1.6-3.2-3.6c0-0.1,0-0.2,0-0.2l0,0c0.1-2.1,1.8-3.9,3.7-3.9h43.8
			c1.8,0,3.2,1.6,3.2,3.6c0,0.1,0,0.2,0,0.2l0,0C480.4,249.7,478.7,251.5,476.8,251.5z"/>
		<path fill="#FFFFFF" d="M514.2,274.3h-82.4c-1.8,0-3.2-1.6-3.2-3.6c0-0.1,0-0.2,0-0.2l0,0c0.1-2.1,1.8-3.9,3.7-3.9h82.4
			c1.8,0,3.2,1.6,3.2,3.5c0,0.1,0,0.2,0,0.4l0,0C517.8,272.7,516.2,274.3,514.2,274.3z"/>
		<path fill="#FFFFFF" d="M508.9,251.5h-17.2c-1.8,0-3.2-1.6-3.2-3.6c0-0.1,0-0.2,0-0.2l0,0c0.1-2.1,1.8-3.9,3.7-3.9h17.2
			c1.8,0,3.2,1.6,3.2,3.5c0,0.1,0,0.2,0,0.4l0,0C512.5,249.7,510.8,251.5,508.9,251.5z"/>
		<path fill="#12C9FE" d="M598.2,82.9H531c-7.9,0.1-14.4,7-15.1,16l-2.7,48.9c-0.6,8.2,5,15.4,12.2,15.9c0.3,0,0.7,0,1.1,0h11
			l-6.3,16.7l23.6-16.7h39c7.9-0.1,14.4-7,15.1-16l2.7-48.9c0.6-8.2-5-15.4-12.2-15.9C598.9,82.9,598.6,82.9,598.2,82.9z"/>
		<g opacity="0.5">
			<path fill="#FAFAFA" d="M598.2,82.9H531c-7.9,0.1-14.4,7-15.1,16l-2.7,48.9c-0.6,8.2,5,15.4,12.2,15.9c0.3,0,0.7,0,1.1,0h11
				l-6.3,16.7l23.6-16.7h39c7.9-0.1,14.4-7,15.1-16l2.7-48.9c0.6-8.2-5-15.4-12.2-15.9C598.9,82.9,598.6,82.9,598.2,82.9z"/>
		</g>
		<path fill="#FFFFFF" d="M565.8,131.3c-0.4,2.2-2.2,3.7-4.2,3.7h-4c0-1.2,0.1-2,0.1-2.2c0.1-2.5,0.7-4.9,1.7-7.1
			c1.4-2.4,3.2-4.5,5.3-6.2c1.7-1.4,3.3-2.9,4.8-4.5c0.8-1,1.2-2.4,1.3-3.7c0.1-1.9-0.6-3.6-1.8-4.9c-1.4-1.4-3.3-2.1-5.3-2
			c-2-0.1-4,0.7-5.7,2.1c-1,0.9-1.8,2-2.3,3.2c-0.9,1.9-2.6,2.9-4.4,2.7l0,0c-2.1-0.2-3.7-2.5-3.3-4.9c0.1-0.6,0.2-1.2,0.6-1.7
			c0.9-1.7,2.1-3.2,3.4-4.5c3.3-3,7.4-4.5,11.7-4.4c5,0,8.9,1.5,11.7,4.4c2.7,2.5,4.1,6.4,3.9,10.2c-0.1,2.2-0.8,4.2-2,6.1
			c-2.1,3-4.6,5.6-7.3,7.9c-1.4,1.1-2.7,2.5-3.7,4.1C566.1,130.1,565.9,130.8,565.8,131.3z M557.1,143.6V143c0.1-2.6,2-4.5,4.3-4.6
			h0.6c2.1,0,3.8,1.9,3.9,4.2c0,0.1,0,0.2,0,0.4v0.5c-0.1,2.6-2,4.6-4.3,4.6h-0.4c-2.1,0.1-3.9-1.7-3.9-4.1
			C557.1,143.9,557.1,143.8,557.1,143.6z"/>
	</g>
</g>
</svg>
