<?xml version="1.0" encoding="utf-8"?>
<!-- Generator: Adobe Illustrator 18.0.0, SVG Export Plug-In . SVG Version: 6.00 Build 0)  -->
<!DOCTYPE svg PUBLIC "-//W3C//DTD SVG 1.1//EN" "http://www.w3.org/Graphics/SVG/1.1/DTD/svg11.dtd">
<svg version="1.1" id="_x32_71e5882-3c8d-41ed-8a0a-1cb2b4d0cbc1"
	 xmlns="http://www.w3.org/2000/svg" xmlns:xlink="http://www.w3.org/1999/xlink" x="0px" y="0px" viewBox="0 0 1280 800"
	 enable-background="new 0 0 1280 800" xml:space="preserve">
<g display="none">
	<path display="inline" opacity="0.1" fill="#6C63FF" enable-background="new    " d="M122.1,378.3
		c16.8,65.2,52.2,121.7,108.2,149.1c116.5,56.9,379.2,27.5,575.2-6.1c101.4-17.4,190.5-65.4,255.3-133.1L122.1,378.3z"/>
	<path display="inline" opacity="0.1" fill="#6C63FF" enable-background="new    " d="M1150.1,71h-107.6c-5.1,0-9.3-3.8-9.3-8.5
		s4.2-8.5,9.3-8.5h18.6c-5.1,0-9.3-3.8-9.3-8.5s4.2-8.5,9.3-8.5h-13.3c-5.1,0-9.3-3.8-9.3-8.5s4.2-8.5,9.3-8.5h56.1
		c-12.5-5.3-27-9-43.8-11C907-8.7,852.4,3.2,833,15.4c-24,15.4-50.7,26.1-78.6,31.5C660,64.6,483.3,86,323.2,39.9
		c-79.5-22.9-138.6,15.8-174,80.3h1019.6c-1.3-18.8-5.3-36.1-12.7-51.3C1154.5,70.3,1152.3,71,1150.1,71z"/>
	<path display="inline" opacity="0.1" fill="#6C63FF" enable-background="new    " d="M113,242c-4.1,38-2.7,76.3,4.2,113.9
		l944.4,31.5c26.1-27.2,48.1-57.9,65.6-91.2L113,242z M486.4,323.3h-18.6c5.1,0,9.3,3.8,9.3,8.5c0,4.7-4.2,8.5-9.3,8.5H360.3
		c-5.1,0-9.3-3.8-9.3-8.5c0-4.7,4.2-8.5,9.3-8.5h18.6c-5.1,0-9.3-3.8-9.3-8.5c0-4.7,4.2-8.5,9.3-8.5h-13.3c-5.1,0-9.3-3.8-9.3-8.5
		c0-4.7,4.2-8.5,9.3-8.5h107.6c5.1,0,9.3,3.8,9.3,8.5c0,4.7-4.2,8.5-9.3,8.5h13.2c5.1,0,9.3,3.8,9.3,8.5
		C495.7,319.5,491.6,323.3,486.4,323.3z"/>
	<path display="inline" opacity="0.1" fill="#6C63FF" enable-background="new    " d="M1168.9,120.8L137.8,143.7
		c-12.6,29.4-20.9,62.6-24.8,97.1h1037.7c6.8-20.2,11.7-40.9,15-61.9C1168.9,158.6,1170.1,139,1168.9,120.8z M322.4,195.7h-18.6
		c5.1,0,9.3,3.8,9.3,8.5s-4.2,8.5-9.3,8.5H196.3c-5.1,0-9.3-3.8-9.3-8.5s4.2-8.5,9.3-8.5h18.6c-5.1,0-9.3-3.8-9.3-8.5
		s4.2-8.5,9.3-8.5h-13.3c-5.1,0-9.3-3.8-9.3-8.5s4.2-8.5,9.3-8.5h107.6c5.1,0,9.3,3.8,9.3,8.5s-4.2,8.5-9.3,8.5h13.3
		c5.1,0,9.3,3.8,9.3,8.5S327.6,195.7,322.4,195.7z"/>
</g>
<g display="none">
	<g display="inline">
		<path fill="#65617D" d="M469.9,483.8l3.2,19.4c2.3-0.4,4.8-0.7,7.4-1.2c-0.9-5.7-3.1-18.6-2.5-20.8l-3.9-3.3L469.9,483.8z"/>
		<path opacity="0.1" enable-background="new    " d="M470.4,483.3l3.2,19.4c2.3-0.4,4.8-0.8,7.4-1.2c-0.9-5.7-3.1-18.6-2.5-20.8
			l-3.9-3.4L470.4,483.3z"/>
		<ellipse fill="#D39999" cx="475.2" cy="484.1" rx="1.6" ry="3.3"/>
	</g>
	<g display="inline">
		<ellipse opacity="0.1" fill="#6C63FF" enable-background="new    " cx="384.4" cy="732.1" rx="126.3" ry="15.7"/>
		
			<linearGradient id="SVGID_1_" gradientUnits="userSpaceOnUse" x1="817.8015" y1="758.708" x2="817.8015" y2="170.0611" gradientTransform="matrix(-0.9306 0 0 0.9306 1167.4956 37.092)">
			<stop  offset="0" style="stop-color:#808080;stop-opacity:0.25"/>
			<stop  offset="0.54" style="stop-color:#808080;stop-opacity:0.12"/>
			<stop  offset="1" style="stop-color:#808080;stop-opacity:0.1"/>
		</linearGradient>
		<path fill="url(#SVGID_1_)" d="M314.7,741c0,0,21.2,5.9,31.5-2c10.2-7.8,14.7-5.3,14.7-5.3s24.4-1.4,26.4-7.2s-9.4-26.7-9.4-26.7
			c-0.8-1.9-2-4.2-2.5-4.2l0.1-8.8l0,0l3.5-37c8.2-20.9,0.2-47.9,0.2-47.9l-1.5-6.7c-0.8-3.8-0.4-7.7,1.4-11.2l14.8-29.8
			c0.8-2,1.8-3.9,2.8-5.7c0.9-1.7,2.1-3.8,3.7-6.3c0.5-0.7,0.9-1.5,1.5-2.2c1.8-2.8,4-6,6.6-9.6c6.5-9.1,10.1-20.5,11.8-28.8
			l0.8,2.6l0,0h0.1l0,0h0.2l0,0h0.3h0.1l0.4,0.1h0.1l4.6,58.1c0.3,22.6,8.6,35.2,8.6,35.2l-1.1,50c1.6,12-1.9,28.1-3.4,34.4
			l-3.6,8.1c-2.9,1.4-4.8,4.2-5.3,7.4c-0.7,6-7,18.9-7,18.9c-2.4,3.1-7.7,11.4-7.7,11.4s-2.5,8.1-0.9,11.1c1.6,3,14.4,2.7,14.4,2.7
			c14.8,3.3,26.1-4.7,25.3-10.1c-0.7-5.5,2.3-6.8,2.3-6.8c5.9-1.9,5.3-5.9,5.3-5.9c1.3-8.2-0.3-16.6-4.5-23.7l-0.9,2.1
			c-0.3-4.3,0.4-8.7,1.8-12.7l-0.6,0.4l-0.2,0.1h-0.1c0.9-8.2,9.5-23.3,9.5-23.3c15.7-27.6,10-65,10-65l-2.4-11.6l-0.1-4.4
			c-0.4-10.5,0.5-21,2.3-31.4c0.8-4.6,1.8-10.1,2.4-16.2c1.4-12.8,6-26.1,8.1-31.8l0.7-0.1h0.1c0.8-0.2,1.8-0.3,2.6-0.5h0.2
			c0,0,0.5-2.7,0.9-7.4c0.3-3,0.5-6.7,0.5-11c0.1-12.9-2-25.9-5.9-38.2l0.5-0.7c0,0,1.1-1.5,3.2-4.2l0,0c3.8-4.8,9.7-12.1,16.9-20.3
			c13-14.8,9.2-29.8,9.2-29.8s-9.4-34.4-13.6-55.1c-2.4-11.8-6.9-19.8-10.3-24.6c0.7-3.3,1.2-6.6,1.3-10c0.3-6.1,0.1-12.5-2.7-18
			c-2.8-5.5-8.7-9.9-14.7-9.1c-0.8,0.2-1.8,0.2-2.6,0c-0.7-0.3-1.3-0.8-1.8-1.5c-3.6-4.9-3.8-11.6-2.7-17.6c1.1-6,3.4-11.7,4.5-17.8
			c1-6,0.6-12.7-3.3-17.5c-4.5-5.6-12.3-7.2-18.1-11.4c-4.1-3-7.2-7.2-11.5-9.8s-8.4-1.6-13-0.7c-7.9,1.7-15.4,2.4-22.9,5.9
			c-7.5,3.4-14.3,8.4-19.9,14.5c-2,2-3.5,4.4-4.5,7c-1.9,6.1,1.8,12.7,1,19.1c-0.6,4.5-3.2,8.5-5.3,12.5c-2.1,4-3.7,8.8-2,13
			c2.6,6.6,11.1,8,17.3,11.5c0.8,0.4,1.5,1,2,1.8c1.5,2.7-1.6,5.4-3.5,7.8c-1.1,1.4-2,3-2.3,4.7c-5.2,2.1-9,6.7-10.1,12.2
			c-2,9.4,1.1,21.2,4,29c-3.1,17.4,0.9,24.3,3.9,26.9c3,2.6,4.8,6.2,5.2,10.1v0.4c0.2,3.2,0.6,6.3,0.9,9.5l0,0
			c-0.1-0.7-0.2-1.5-0.3-1.9c-2.4,4.5-7.1,16-9.7,35.3c-0.6,4.1-1.3,8.3-2.3,12.3c-1.9,7.2-2.5,14.6-2,22l0.5,6.2
			c-0.5,0-0.9-0.1-1.3-0.5l3.3,6v10.1c0,4.6-0.8,9-2.5,13.3c-0.2,0.7-0.5,1.2-0.7,1.9c-0.8,1.7-1.2,3.6-1.1,5.5
			c-7,10.8-23.2,71.1-23.2,71.1c-8.7,19.8,0.7,32.6,0.7,32.6s4.6,55.1,5.4,57.9s2.8,36.4,2.8,36.4l0,0c0,0.9,0,1.8,0,2.7
			c-0.5-0.2-1-0.4-1.6-0.5c-7.6-0.5-9.8,11.6-9.8,11.6l-15.7,15c0,0-7.2-1.2-17.7,6.7S314.7,741,314.7,741z M471.2,422.7v-0.2
			l-0.5,0.3l0,0l-0.2,0.1l-0.1,0.1l0,0l-7.3-25.5c-2-6.8-2.1-14.1-0.6-20.9l5.6-24.5l0,0v-5.9l17.8,47.3
			C487.2,399.8,476.6,415.2,471.2,422.7z"/>
		<path fill="#FDC2CC" d="M479,499.6c0,0-7.2,17.4-9,34.2c-0.7,6-1.5,11.4-2.3,16c-1.9,10.2-2.6,20.6-2.3,31l0.1,4.4l2.3,11.5
			c0,0,5.6,36.9-9.9,64.2c0,0-9.1,16.3-9.4,24l-6.1,2.4l-12.5-3.5c0,0,6-21.7,4.1-36.9l1.1-49.3c0,0-8.1-12.4-8.4-34.7l-4.7-61.3
			L479,499.6z"/>
		<path fill="#FDC2CC" d="M421.9,490.9c0,0-1.5,23.9-13.4,40.4c-11.9,16.5-14.3,23.6-14.3,23.6l-14.5,29.4c-1.7,3.4-2.1,7.3-1.4,11
			l1.4,6.6c0,0,7.9,26.7-0.1,47.4l-3.8,39.9h-22.2c0,0-1.9-33.2-2.7-36s-5.3-57.2-5.3-57.2s-9.3-12.7-0.7-32.2
			c0,0,19.4-73,24.6-71.8C374.5,493.1,421.9,490.9,421.9,490.9z"/>
		<g opacity="0.1">
			<path d="M377.5,602l-1.4-6.6c-0.8-3.7-0.4-7.6,1.4-11.1l14.5-29.5c0,0,2.5-7.2,14.3-23.6c11.4-15.8,13.2-38.5,13.3-40.2l2.2-0.1
				c0,0-1.5,23.9-13.4,40.4c-11.9,16.5-14.3,23.6-14.3,23.6l-14.5,29.4c-1.7,3.4-2.1,7.3-1.4,11l1.4,6.6c0,0,7.9,26.7-0.1,47.4
				l-3.8,39.9h-2.2l3.8-39.9C385.4,628.6,377.5,602,377.5,602z"/>
		</g>
		<path opacity="0.1" enable-background="new    " d="M446.4,684.8c0.3-7.7,9.4-24,9.4-24c15.4-27.3,9.9-64.2,9.9-64.2l-2.4-11.5
			l-0.1-4.4c-0.4-10.3,0.5-20.8,2.3-31c0.8-4.6,1.7-10,2.3-16c1.8-16.1,8.5-32.8,8.9-34.1l2.3-0.1c0,0-7.2,17.4-9,34.2
			c-0.7,6-1.5,11.4-2.3,16c-1.9,10.2-2.6,20.6-2.3,31l0.1,4.4l2.3,11.5c0,0,5.6,36.9-9.9,64.2c0,0-9.1,16.3-9.4,24l-6.1,2.4
			l-1.3-0.4L446.4,684.8z"/>
		<path fill="#D39999" d="M439.2,684.5c3.4,1.3,7.3,0.8,10.2-1.3c-2,6-2.3,12.4-0.8,18.5c2.5,10.1-23.6-8.2-23.6-8.2l5.6-12.7
			C430.6,680.9,432.7,685,439.2,684.5z"/>
		<path opacity="0.1" enable-background="new    " d="M441.2,685.1c2.9,0.6,6-0.1,8.3-1.9c-2,6-2.3,12.4-0.8,18.5
			c2.5,10.1-23.6-8.2-23.6-8.2l5.6-12.7c0,0,1.6,3.1,6.4,3.6C438.4,684.7,439.8,684.9,441.2,685.1z"/>
		<polygon fill="#FDC2CC" points="379.9,448.1 390.8,448.1 390.8,386.1 382.6,384.6 		"/>
		<polygon opacity="5.000000e-002" enable-background="new    " points="379.9,448.1 390.8,448.1 390.8,386.1 382.6,384.6 		"/>
		<path fill="#7E5659" d="M433,689.4c0,0,6.9-0.5,10,5.8l3.8,3l1.9-4.4c4,7.1,5.6,15.4,4.3,23.5c0,0,0.6,3.9-5.2,5.8
			c0,0-3,1.4-2.2,6.7c0.7,5.3-10.4,13.2-24.8,10c0,0-12.7,0.3-14.2-2.7s1-10.8,1-10.8s5.2-8.3,7.5-11.3c0,0,6.1-12.7,6.9-18.6
			C422.6,690.4,429.4,686.1,433,689.4z"/>
		<path fill="#D39999" d="M376,694.6l0.1-8.7c0,0-12.6,3.6-22.7-0.5c0,0,0.8,8.7-0.6,10c-1.4,1.2,4.7,12.5,4.7,12.5l6.9,7.2
			l11.7-4.3l3.2-10.1C379.3,700.6,376.9,694.6,376,694.6z"/>
		<path opacity="0.1" enable-background="new    " d="M376,694.6l0.1-8.7c0,0-12.6,3.6-22.7-0.5c0,0,0.8,8.7-0.6,10
			c-1.4,1.2,4.7,12.5,4.7,12.5l6.9,7.2l11.7-4.3l3.2-10.1C379.3,700.6,376.9,694.6,376,694.6z"/>
		<path fill="#7E5659" d="M352,691.4c0,0,6.7,0.7,5.9,9.3c-0.8,8.6,0.4,0,0.4,0s7.1,2.9,9.7,6.9c2.6,4,7.1-3.5,7.4-5.8
			c0.4-2.2,3.2-3.1,3.2-3.1s11.2,20.7,9.2,26.4s-26,7-26,7s-4.4-2.4-14.4,5.2c-10.1,7.6-30.9,1.9-30.9,1.9s-17-7.1-6.7-14.9
			s17.3-6.6,17.3-6.6l15.4-14.8C342.5,702.8,344.5,690.9,352,691.4z"/>
		<path fill="#865A61" d="M431.9,201.8c4.3,2.6,7.3,6.8,11.3,9.7c5.8,4.1,13.4,5.7,17.9,11.2c3.7,4.7,4.2,11.3,3.2,17.2
			c-1,6-3.3,11.6-4.4,17.5c-1.1,5.9-0.8,12.5,2.7,17.3c0.4,0.7,1,1.2,1.7,1.5c0.8,0.2,1.8,0.2,2.6,0c6-0.7,11.8,3.5,14.5,9
			c2.7,5.5,2.9,11.7,2.6,17.8c-0.2,4.9-0.8,10-3,14.5c-3.7,7.6-11.4,12.3-19.1,15.9c-4.9,2.3-10.1,4.4-15.3,6.1
			c-3.5,1.2-7.4,2.3-11.1,1.7c-6.3-1.1-10.9-6.9-16.8-9.1c-4.9-1.9-10.4-1.2-15.7-0.7c-4.5,0.4-9.6,0.4-12.7-2.9
			c-4-4.2-2.1-11-0.2-16.4c-6.4-0.4-11.4-6-10.9-12.4c0.2-2.4,1.1-4.8,2.7-6.7c2-2.3,5-5,3.4-7.7c-0.5-0.7-1.2-1.4-2-1.8
			c-6-3.4-14.4-4.8-16.9-11.4c-1.7-4.2-0.1-8.9,2-12.8c2-4,4.7-7.9,5.2-12.3c0.7-6.3-2.8-12.7-1-18.8c0.9-2.6,2.4-4.9,4.4-7
			c5.5-6,12.1-10.9,19.5-14.3c7.4-3.4,14.7-4.1,22.4-5.8C423.6,200.3,427.5,199.2,431.9,201.8z"/>
		<path fill="#FDC2CC" d="M390.8,295.5c0,0-17.8-0.9-21.2,14.2c-3.4,15.2,7.4,36.9,7.4,36.9L390.8,295.5z"/>
		<path opacity="5.000000e-002" enable-background="new    " d="M390.8,295.5c0,0-17.8-0.9-21.2,14.2c-3.4,15.2,7.4,36.9,7.4,36.9
			L390.8,295.5z"/>
		<path fill="#FDC2CC" d="M379.4,340.8l6.7,5.3l31.5,1.4l19.6-13.5l20-34.3c-12.2-3.1-17.1-11.5-19-19.4c-1.2-5.3-1.3-10.9-0.4-16.3
			c0,0-32-16.6-28.1,9.3c0.6,3.2,0.7,6.4,0.3,9.6c-1.9,15.2-16.6,12.3-16.6,12.3l-5.7,8.7l-6.5,21.4L379.4,340.8z"/>
		<path opacity="0.1" enable-background="new    " d="M409.8,273.3c0.6,3.2,0.7,6.4,0.3,9.6c9.2,4.2,19.9,3.2,28.2-2.6
			c-1.2-5.3-1.3-10.9-0.4-16.3C437.9,264,405.9,247.4,409.8,273.3z"/>
		<circle fill="#FDC2CC" cx="421.9" cy="255.9" r="28.4"/>
		<path fill="#6C63FF" d="M401.8,335.3c0.7,0,1.4,0.1,2,0.2c3.7,0.4,19.3,1.2,28.1-9.4c9.9-11.8,23.1-26.4,23.6-27.1l0,0l13.4,4.1
			c0,0-10.6-3.8-17.7,16c-3.2,8.6-0.4,18.1,6.9,23.5c2.6,1.9,5.6,3.2,8.7,3.7l0,0v8.7l0,0l-5.5,24.2c-1.6,6.8-1.4,14,0.6,20.7
			l8.4,29.6l0,0c-1.3,0.8-53.2,36.2-87.9,11.8l0,0c0.1-1,4.5-35.8,1.4-52.8c-0.7-4.4-1.3-8.7-1.6-13.1c0-0.1,0-0.2,0-0.4
			c-0.3-3.9-2.1-7.5-5.1-10.1c-3.2-2.8-7.4-10.2-3.2-29.9c1-4.8,2.6-9.6,4.7-14.1l11.6-26.3l0,0l10.7,0.2 M401.3,295
			c-0.9,1.1-13.4,16.7-14.7,26.7c-1.3,9.5-3,12.5,15.4,13.6L401.3,295z"/>
		<path fill="#FDC2CC" d="M478.1,307.7c0,0,10.5,9,14.6,29.4c4.1,20.4,13.3,54.3,13.3,54.3s3.7,14.8-9,29.4
			c-12.7,14.6-21.2,26.1-21.2,26.1l-8.4,12.4c-1.4,2.1-3.5,3.6-6,4.3c-3.8,1-9.7,1.8-14.8-1c-3.8-2.1-5.4-6.8-3.7-10.9l1.9-4.3
			c0,0-17.2,10.9-18.7,4.8s20-12,20-12s17.8-3,21.4-11.4c0,0,19.1-24.6,17.6-33l-18.4-49.5c0,0-23.1-3.1-15.2-28.9
			C459.3,291.5,478.1,307.7,478.1,307.7z"/>
		<path fill="#65617D" d="M367.8,494.4c0,0,42.2,8.5,52.1,7.3l1,3.5c0,0,16,3.5,52.2-2.1c2.3-0.4,4.8-0.7,7.4-1.2l0.8-0.2
			c0,0,0.5-2.7,0.9-7.3c0.8-10.4,1.2-30.4-6.1-51l-6-18.7c0,0-37.6,22.5-62.5,20.5c-2.2-0.2-4.5-0.4-6.6-0.5c-5.1-0.2-13,0-18.1-4.1
			l-10.8,1.9v30.7c0,4.5-0.8,8.9-2.4,13.1c-0.2,0.7-0.5,1.2-0.7,1.9C367.7,490.1,367.4,492.3,367.8,494.4z"/>
		<path opacity="0.1" enable-background="new    " d="M420.9,495.7v9.6c0,0,18.4,4.1,60.4-3.5c0,0,0.5-2.7,0.9-7.3
			C469.3,496.5,433.8,501.5,420.9,495.7z"/>
		<path opacity="0.1" enable-background="new    " d="M367.8,494.4c0,0,42.2,8.5,52.1,7.3l1,3.5v-9.6c-4.8,2-39.1-6.2-51.6-9.4
			c-0.2,0.7-0.5,1.2-0.7,1.9C367.7,490.1,367.4,492.3,367.8,494.4z"/>
		<g opacity="5.000000e-002">
			<path d="M405.2,445.2c-2.2-0.2-4.5-0.4-6.6-0.5c-4.9-0.2-12.6,0-17.7-3.8l1.8-0.3c5.2,4.1,13,3.9,18.1,4.1
				c2.2,0.1,4.5,0.3,6.6,0.5c0.7,0.1,1.5,0.1,2.2,0.1C408.2,445.4,406.7,445.3,405.2,445.2z"/>
			<path d="M470.9,503.2c2.3-0.4,4.8-0.7,7.4-1.2l0.8-0.2c0,0,0.5-2.7,0.8-7.3c0.8-10.4,1.2-30.4-6.1-51l-5.8-17.7
				c1.2-0.7,1.9-1.1,1.9-1.1l6,18.7c7.4,20.6,7,40.7,6.1,51c-0.4,4.6-0.9,7.3-0.9,7.3l-0.8,0.2c-2.5,0.5-5,0.8-7.4,1.2
				c-16.9,2.7-29.4,3.3-38,3.3C447.1,506.1,459.1,505.1,470.9,503.2z"/>
			<path d="M417.6,501.8L417.6,501.8l-1.2,0.1C416.8,501.8,417.3,501.8,417.6,501.8z"/>
		</g>
		<path fill="#FDC2CC" d="M373.6,417.8c2.6-19.1,7.1-30.4,9.5-34.9c0.1,0.6,0.4,2.6,0.5,3.2c0.5,2.8,0.1,6.3,0.2,9.9l-2.4,43.2
			l3.2,13.5c3,10.7-8.1,2.2-8.1,2.2c-2.3,5-6.5,4.5-6.5,4.5l-0.6-7.7c-0.6-7.3,0.1-14.6,2-21.7C372.3,425.9,373.2,421.8,373.6,417.8
			z"/>
		<path opacity="5.000000e-002" enable-background="new    " d="M373.6,417.8c2.6-19.1,7.1-30.4,9.5-34.9c0.1,0.6,0.4,2.6,0.5,3.2
			c0.5,2.8,0.1,6.3,0.2,9.9l-2.4,43.2l3.2,13.5c3,10.7-8.1,2.2-8.1,2.2c-2.3,5-6.5,4.5-6.5,4.5l-0.6-7.7c-0.6-7.3,0.1-14.6,2-21.7
			C372.3,425.9,373.2,421.8,373.6,417.8z"/>
		<path fill="#FDC2CC" d="M480.5,441.1c-2,2.6-3.2,4.1-3.2,4.1l-8.4,12.3c-1.4,2.1-3.5,3.6-6,4.3c-3.8,1-9.7,1.8-14.8-1
			c-3.8-2.1-5.4-6.8-3.7-10.9l1.9-4.3c0,0-17.2,10.9-18.7,4.8s20-12,20-12s17.8-3,21.4-11.4c0,0,1.6-2,3.7-5"/>
		<path fill="#65617D" d="M469.9,461.7c0,0-20.4-2-26.9-13.7l-3,9.6c0,0,21.4,14.8,26.2,12.8L469.9,461.7z"/>
		<path opacity="0.1" enable-background="new    " d="M469.3,461.6c0,0-20.4-2-26.9-13.7l-3,9.6c0,0,21.4,14.8,26.2,12.8
			L469.3,461.6z"/>
		<path fill="#65617D" d="M377.2,456.3c0,0-7.2,2.5-8.6,1.1l3.3,5.9l6-4.7L377.2,456.3z"/>
		<path opacity="0.1" enable-background="new    " d="M377.2,456.3c0,0-7.2,2.5-8.6,1.1l3.3,5.9l6-4.7L377.2,456.3z"/>
		<polygon opacity="0.1" enable-background="new    " points="420.9,495.7 420.9,483.4 418,496 		"/>
		<path opacity="0.1" enable-background="new    " d="M449.8,240.9c-1.8,2.4-4.7,3.6-7.6,4c-2.9,0.4-6,0.1-8.8,0
			c-4.7-0.1-9.6,0.7-13.4,3.4c-2.4,1.8-4.3,4.2-6.1,6.5c-5.8,7-13.8,13.6-22.8,12.8c-1.6,0-3.2-0.7-4.2-1.8
			c-0.7-1.1-1.1-2.5-1.1-3.8c-0.4-5.8-0.2-11.6,0.6-17.4c0.4-3.5,1.2-7.1,2.6-10.3c1.6-3.4,3.7-6.3,6.3-9c3.1-3.6,6.8-6.6,11-8.8
			c4.2-2.2,9.1-2.9,13.8-1.8c5.4,1.5,9.7,5.8,14.8,7.9C440.6,225.2,456.3,231.8,449.8,240.9z"/>
		<path fill="#865A61" d="M449.8,239.8c-1.8,2.4-4.7,3.6-7.6,4s-6,0.1-8.8,0c-4.7-0.1-9.6,0.7-13.4,3.4c-2.4,1.8-4.3,4.2-6.1,6.5
			c-5.8,7-13.8,13.6-22.8,12.8c-1.6,0-3.2-0.7-4.2-1.8c-0.7-1.1-1.1-2.5-1.1-3.8c-0.4-5.8-0.2-11.6,0.6-17.4
			c0.4-3.5,1.2-7.1,2.6-10.3c1.6-3.4,3.7-6.3,6.3-9c3.1-3.6,6.8-6.6,11-8.8c4.2-2.2,9.1-2.9,13.8-1.8c5.4,1.5,9.7,5.7,14.8,7.9
			C440.6,224.1,456.3,230.7,449.8,239.8z"/>
		<polygon fill="#FDC2CC" points="382.7,440.6 382.6,444 381.8,440.7 		"/>
		<polygon opacity="5.000000e-002" enable-background="new    " points="382.7,440.6 382.6,444 381.8,440.7 		"/>
		<g opacity="5.000000e-002">
			<path d="M454.4,315.6c-7.9,26,15.1,28.9,15.1,28.9l18.4,49.5c1.5,8.5-17.6,33-17.6,33c-1.3,3.2-4.7,5.6-8.3,7.4
				c2.1-1.3,3.8-3.2,4.9-5.4c0,0,19.1-24.6,17.6-32.9l-18.4-49.7c0,0-23-3.1-15.1-28.9c2.6-8.7,6.5-12.6,10.4-14.1
				C458.8,305.7,456.3,309.4,454.4,315.6z"/>
		</g>
		<g opacity="0.1">
			<path d="M454.8,339.2c1.1,1.3,2.3,2.5,3.7,3.5c2.6,1.9,5.6,3.2,8.7,3.7l0,0v0.9c-2.9-0.7-5.6-1.8-8-3.5
				C457.6,342.5,456.1,341,454.8,339.2z"/>
			<path d="M383.4,376.2c0,0.1,0,0.2,0,0.3c0.3,4.5,0.8,8.8,1.6,13.2c2.8,16-0.8,47.9-1.4,52.3c-0.3-0.2-0.6-0.4-0.9-0.6l0,0
				c0.1-1,4.5-35.8,1.5-52.8c-0.7-4.4-1.3-8.7-1.6-13.1c0-0.1,0-0.2,0-0.4c-0.2-2.5-1-5-2.5-7.1C382,370.5,383.2,373.2,383.4,376.2z
				"/>
			<path d="M400.5,296l-9.1-0.2l0,0l-11.6,26.3c-2,4.6-3.6,9.3-4.7,14.1c-3.4,15.9-1.3,23.8,1.3,27.7c-2.9-3.4-6-11.3-2.1-28.8
				c1-4.8,2.6-9.6,4.7-14.1l11.7-26.3l0,0l10.7,0.2 M401.4,295c-0.1,0.1-0.4,0.5-0.7,1L401.4,295z"/>
			<path d="M469.1,303.1h0.2H469.1z"/>
			<path d="M465.8,303l-9.1-2.8 M456.6,300.2c-0.6,0.6-13.8,15.3-23.6,27.1c-8.8,10.6-24.4,9.8-28.1,9.4c-0.7-0.1-1.4-0.1-2-0.2
				c-10.1-0.7-14.1-1.9-15.5-4.5c1.9,1.9,6.1,2.8,14.7,3.4c0.7,0,1.4,0.1,2,0.2c3.7,0.4,19.3,1.2,28.1-9.4
				c9.9-11.8,23.1-26.4,23.6-27.1l0,0l13.3,4c-1-0.3-2.1-0.3-3.3-0.2L456.6,300.2z"/>
		</g>
		<path opacity="0.1" enable-background="new    " d="M439.3,702.3c0,0-14.9,3.8-18.3-2.1"/>
	</g>
</g>
<g display="none">
	
		<linearGradient id="SVGID_2_" gradientUnits="userSpaceOnUse" x1="-761" y1="812.4" x2="-761" y2="713.4" gradientTransform="matrix(0.9306 0 0 -0.9306 110.6526 744.4457)">
		<stop  offset="0" style="stop-color:#F5D40B"/>
		<stop  offset="1" style="stop-color:#EF666A"/>
	</linearGradient>
	<rect x="-632.4" y="-11.5" display="inline" fill="url(#SVGID_2_)" width="69.8" height="92.1"/>
	
		<linearGradient id="SVGID_3_" gradientUnits="userSpaceOnUse" x1="-666" y1="812.4" x2="-666" y2="713.4" gradientTransform="matrix(0.9306 0 0 -0.9306 110.6526 744.4457)">
		<stop  offset="0" style="stop-color:#A4489A"/>
		<stop  offset="1" style="stop-color:#3C55A3"/>
	</linearGradient>
	<rect x="-544" y="-11.5" display="inline" fill="url(#SVGID_3_)" width="69.8" height="92.1"/>
	
		<linearGradient id="SVGID_4_" gradientUnits="userSpaceOnUse" x1="-571" y1="812.4" x2="-571" y2="713.4" gradientTransform="matrix(0.9306 0 0 -0.9306 110.6526 744.4457)">
		<stop  offset="0" style="stop-color:#A4489A"/>
		<stop  offset="1" style="stop-color:#D53149"/>
	</linearGradient>
	<rect x="-455.6" y="-11.5" display="inline" fill="url(#SVGID_4_)" width="69.8" height="92.1"/>
	
		<linearGradient id="SVGID_5_" gradientUnits="userSpaceOnUse" x1="-476" y1="812.4" x2="-476" y2="713.4" gradientTransform="matrix(0.9306 0 0 -0.9306 110.6526 744.4457)">
		<stop  offset="0" style="stop-color:#B659A1"/>
		<stop  offset="1" style="stop-color:#AF1F63"/>
	</linearGradient>
	<rect x="-367.2" y="-11.5" display="inline" fill="url(#SVGID_5_)" width="69.8" height="92.1"/>
	
		<linearGradient id="SVGID_6_" gradientUnits="userSpaceOnUse" x1="-381" y1="812.4" x2="-381" y2="713.4" gradientTransform="matrix(0.9306 0 0 -0.9306 110.6526 744.4457)">
		<stop  offset="0" style="stop-color:#9ACE87"/>
		<stop  offset="1" style="stop-color:#36B376"/>
	</linearGradient>
	<rect x="-278.8" y="-11.5" display="inline" fill="url(#SVGID_6_)" width="69.8" height="92.1"/>
	
		<linearGradient id="SVGID_7_" gradientUnits="userSpaceOnUse" x1="-286" y1="812.4" x2="-286" y2="713.4" gradientTransform="matrix(0.9306 0 0 -0.9306 110.6526 744.4457)">
		<stop  offset="0" style="stop-color:#5CC4BF"/>
		<stop  offset="1" style="stop-color:#57B962"/>
	</linearGradient>
	<rect x="-190.4" y="-11.5" display="inline" fill="url(#SVGID_7_)" width="69.8" height="92.1"/>
	
		<linearGradient id="SVGID_8_" gradientUnits="userSpaceOnUse" x1="-191" y1="812.4" x2="-191" y2="713.4" gradientTransform="matrix(0.9306 0 0 -0.9306 110.6526 744.4457)">
		<stop  offset="0" style="stop-color:#F39EAC"/>
		<stop  offset="1" style="stop-color:#AE619C"/>
	</linearGradient>
	<rect x="-102" y="-11.5" display="inline" fill="url(#SVGID_8_)" width="69.8" height="92.1"/>
	
		<linearGradient id="SVGID_9_" gradientUnits="userSpaceOnUse" x1="-99" y1="814.4" x2="-99" y2="715.4" gradientTransform="matrix(0.9306 0 0 -0.9306 110.6526 744.4457)">
		<stop  offset="0" style="stop-color:#426C7B"/>
		<stop  offset="1" style="stop-color:#19333C"/>
	</linearGradient>
	<rect x="-16.4" y="-13.4" display="inline" fill="url(#SVGID_9_)" width="69.8" height="92.1"/>
	
		<linearGradient id="SVGID_10_" gradientUnits="userSpaceOnUse" x1="-950.4" y1="816.9" x2="-950.4" y2="717.9" gradientTransform="matrix(0.9306 0 0 -0.9306 110.6526 744.4457)">
		<stop  offset="0" style="stop-color:#38C0EF"/>
		<stop  offset="1" style="stop-color:#426FB3"/>
	</linearGradient>
	<polyline display="inline" fill="url(#SVGID_10_)" points="-808.6,-15.7 -738.9,-15.7 -738.9,76.4 -808.6,76.4 	"/>
	
		<linearGradient id="SVGID_11_" gradientUnits="userSpaceOnUse" x1="-1045.2" y1="816.9" x2="-1045.2" y2="717.9" gradientTransform="matrix(0.9306 0 0 -0.9306 110.6526 744.4457)">
		<stop  offset="0" style="stop-color:#48B0E3"/>
		<stop  offset="1" style="stop-color:#6FC6AF"/>
	</linearGradient>
	<polyline display="inline" fill="url(#SVGID_11_)" points="-896.9,-15.7 -827.1,-15.7 -827.1,76.4 -896.9,76.4 	"/>
	
		<linearGradient id="SVGID_12_" gradientUnits="userSpaceOnUse" x1="-1141.2" y1="816.9" x2="-1141.2" y2="717.9" gradientTransform="matrix(0.9306 0 0 -0.9306 110.6526 744.4457)">
		<stop  offset="0" style="stop-color:#65449A"/>
		<stop  offset="1" style="stop-color:#290F45"/>
	</linearGradient>
	<polyline display="inline" fill="url(#SVGID_12_)" points="-986.2,-15.7 -916.4,-15.7 -916.4,76.4 -986.2,76.4 	"/>
	
		<linearGradient id="SVGID_13_" gradientUnits="userSpaceOnUse" x1="-1235.9" y1="816.9" x2="-1235.9" y2="717.9" gradientTransform="matrix(0.9306 0 0 -0.9306 110.6526 744.4457)">
		<stop  offset="0" style="stop-color:#1887C9"/>
		<stop  offset="1" style="stop-color:#39449B"/>
	</linearGradient>
	<polyline display="inline" fill="url(#SVGID_13_)" points="-1074.3,-15.7 -1004.5,-15.7 -1004.5,76.4 -1074.3,76.4 	"/>
	
		<linearGradient id="SVGID_14_" gradientUnits="userSpaceOnUse" x1="-862" y1="815.4" x2="-862" y2="716.4" gradientTransform="matrix(0.9306 0 0 -0.9306 110.6526 744.4457)">
		<stop  offset="0" style="stop-color:#80D0E9"/>
		<stop  offset="1" style="stop-color:#4F97D2"/>
	</linearGradient>
	<rect x="-726.4" y="-14.3" display="inline" fill="url(#SVGID_14_)" width="69.8" height="92.1"/>
</g>
<g>
	
		<linearGradient id="SVGID_15_" gradientUnits="userSpaceOnUse" x1="482.0032" y1="99.5618" x2="824.8921" y2="887.1148" gradientTransform="matrix(0.9306 0 0 -0.9306 110.6526 744.4457)">
		<stop  offset="0" style="stop-color:#FFFFFF"/>
		<stop  offset="1" style="stop-color:#16B6FF"/>
	</linearGradient>
	<path opacity="0.3" fill="url(#SVGID_15_)" enable-background="new    " d="M1119.2,386.7c0,153.9-163.6,283.7-386.9,323.6
		c-36.3,6.4-73,10.4-110.2,11.9c-1.8,0.1-3.6,0.2-5.4,0.2c-9.7,0.4-19.4,0.5-29.1,0.5c-17,0-33.9-0.5-50.4-1.5
		c-9.2-0.6-18.3-1.2-27.5-2c-88.1-8.2-169.3-30.1-237.8-62.1c-8.6-4-16.9-8.2-25-12.5c-14.9-7.9-29.3-16.4-43.2-25.5
		c-91.5-60.4-15.2-189.3,32.5-270.4c128.7-219,57.8-298.3,351.4-298.3S1119.2,201,1119.2,386.7z"/>
	<g id="W_Mark" opacity="0.3" enable-background="new    ">
		
			<linearGradient id="SVGID_16_" gradientUnits="userSpaceOnUse" x1="782.8158" y1="410.0539" x2="981.1566" y2="576.1298" gradientTransform="matrix(0.9306 0 0 -0.9306 110.6526 744.4457)">
			<stop  offset="0" style="stop-color:#FFFFFF"/>
			<stop  offset="1" style="stop-color:#16B6FF"/>
		</linearGradient>
		<path fill="url(#SVGID_16_)" d="M980.4,199.8c12.9,8.2,23.8,18.6,32.4,31.1c4.1,6,7.7,12.4,10.6,19.1c2.9,6.6,5.1,13.6,6.7,20.7
			s2.5,14.3,2.7,21.5c0.2,7.3-0.3,14.6-1.5,21.8c-2.5,14.9-7.9,29-16.1,42c-8.2,12.9-18.6,23.8-31.1,32.4c-6,4.1-12.4,7.7-19.1,10.6
			c-6.6,2.9-13.6,5.1-20.7,6.7c-7.1,1.6-14.3,2.5-21.6,2.7c-7.3,0.2-14.6-0.3-21.8-1.5c-14.9-2.5-29-7.9-42-16.1
			c-12.9-8.2-23.8-18.6-32.4-31.1c-4.1-6-7.7-12.4-10.6-19.1c-2.9-6.6-5.1-13.6-6.7-20.7s-2.5-14.3-2.7-21.6
			c-0.2-7.3,0.3-14.6,1.5-21.8c2.5-14.9,7.9-29,16.1-42s18.6-23.8,31.1-32.4c6-4.1,12.4-7.7,19.1-10.6c6.6-2.9,13.6-5.1,20.7-6.7
			c7.1-1.6,14.3-2.5,21.6-2.7c7.3-0.2,14.6,0.3,21.8,1.5C953.4,186.2,967.6,191.6,980.4,199.8 M984.3,193.7
			c-56.1-35.6-130.5-19-166.1,37c-35.6,56.1-19,130.5,37,166.1c56.1,35.6,130.6,19,166.1-37C1057,303.7,1040.4,229.4,984.3,193.7
			L984.3,193.7z"/>
		
			<linearGradient id="SVGID_17_" gradientUnits="userSpaceOnUse" x1="813.2952" y1="428.8032" x2="969.0272" y2="577.7745" gradientTransform="matrix(0.9306 0 0 -0.9306 110.6526 744.4457)">
			<stop  offset="0" style="stop-color:#FFFFFF"/>
			<stop  offset="1" style="stop-color:#16B6FF"/>
		</linearGradient>
		<path fill="url(#SVGID_17_)" d="M835.1,241.6c-21.3,33.5-20.2,74.8-0.7,106.5l29.9-136.2C853,219.3,843,229.3,835.1,241.6z
			 M979.7,327.3c6.6-10.4,7.4-20.1,7.8-27.7c0.1-9.7-0.1-18.1,4.3-25.1c4.9-7.8,15.4-11.3,23.7-6c0.4,0.3,0.7,0.5,1,0.7
			c-6.3-23.4-21-44.6-43.1-58.5c-29.6-18.8-65.2-20.1-94.9-6.8c2,1.3,3.8,2.5,5.4,3.5c8.8,5.6,23.3,13.2,23.3,13.2
			c4.7,2.6,1,9.7-3.9,7.4c0,0-4.9-2.4-10.2-5.3L865.8,334l53.8-43.8l9.8-44.5c-4.4-3.2-8.4-6.4-8.4-6.4c-4.4-3.2,0.6-9.8,4.9-6.6
			c0,0,13.3,10,21.6,15.3c8.8,5.6,23.3,13.2,23.3,13.2c4.7,2.6,1,9.7-3.9,7.4c0,0-4.9-2.4-10.2-5.3l-27.2,110.5l26.3-22.1
			C967.4,341.7,975.1,334.5,979.7,327.3z M916.6,303.6l-72.3,57.7c6.1,7.1,13.4,13.4,21.7,18.6c9.9,6.2,20.4,10.6,31.2,13
			c0-0.5,0-1,0.1-1.6L916.6,303.6z M1019.9,301.9c-1.3,2.9-3,6-4.9,9c-5.5,8.6-13.2,17.2-25.7,26.2l-73.3,58.3
			c34.5,1.3,68.8-15.2,88.6-46.4C1013.8,334.3,1018.8,318.1,1019.9,301.9z"/>
	</g>
	<g>
		<g>
			
				<linearGradient id="SVGID_18_" gradientUnits="userSpaceOnUse" x1="270.75" y1="107.2026" x2="474.95" y2="107.2026" gradientTransform="matrix(0.9306 0 0 -0.9306 110.6526 744.4457)">
				<stop  offset="0" style="stop-color:#FFFFFF"/>
				<stop  offset="1" style="stop-color:#16B6FF"/>
			</linearGradient>
			<ellipse opacity="0.3" fill="url(#SVGID_18_)" enable-background="new    " cx="457.6" cy="644.7" rx="95" ry="15.7"/>
			
				<linearGradient id="SVGID_19_" gradientUnits="userSpaceOnUse" x1="384.4949" y1="661.5375" x2="384.4949" y2="69.8881" gradientTransform="matrix(0.9306 0 0 0.9306 81.6564 37.092)">
				<stop  offset="0" style="stop-color:#808080;stop-opacity:0.25"/>
				<stop  offset="0.54" style="stop-color:#808080;stop-opacity:0.12"/>
				<stop  offset="1" style="stop-color:#808080;stop-opacity:0.1"/>
			</linearGradient>
			<path fill="url(#SVGID_19_)" d="M528.6,270.8c-2-13.5-14.3-45.1-14.3-45.1l0,0c-0.2-0.9-0.5-1.9-0.7-2.8
				c-8.7-30-20.8-32.6-20.8-32.6l-43.3-9.3c0.4,0.2,0.7,0.6,0.9,0.8c-0.2,0-0.5,0.1-0.7,0.1c-2-2.3-3.3-5.2-3.8-8.2
				c-0.1-0.5-0.2-0.9-0.2-1.4c12-11.7,12.3-31,0.6-43c-0.9-0.9-2-1.9-3.1-2.7c-0.5-0.4-0.9-0.7-1.4-1c2-2.1,2.1-5.2,0.6-8.2
				c-3.4-7.1-10.8-11.5-18.4-13.8c-5.8-1.7-12.1-2.2-17.9-0.4c-3.3,1-6.3,2.8-9.4,4.4c-5.8,2.9-12.1,5.1-16.4,9.9
				c-1,1.1-2,2.5-1.7,3.9c0.2,1.1,1.1,2,1.7,2.9c1.2,2.1,0.9,4.8,0.1,7.2c-0.8,2.3-2,4.6-2.7,6.9c-0.7,2.3-0.4,5.2,1.4,7
				c0.8,0.7,1.8,1.3,2.7,1.9c1,0.8,1.9,1.9,2.6,2.9c1.7,2.3,3.4,4.6,5.1,6.9c2.4,3.1,4.6,6.3,6.4,9.8c1.3,2.5,2.2,5.2,4,7.4
				c0.5,0.7,1.1,1.3,1.7,1.8l-0.5-0.2c1.5,1.5,3.5,2.3,5.7,2.3l0,0c0.1,0,0.2,0,0.3,0c0.4,0,0.7-0.2,1-0.5c0,0.3,0,0.7,0,0.9
				c0.1,3.4,0.1,6.9-0.2,10.1l-0.4-0.2c-1.2-0.6-2.7-0.5-3.7,0.4l-39.7,32.2c0,0-8.7,11.8-7.4,32.3l-7,30.6c0,0-8.7,26-2,44.6
				c6.7,18.6,10.6,29.2,10.6,29.2s2.7,21.1,6.7,22.8c4,1.7,5.8,2.6,5.8,2.6l0.8,5l0,0c0,0,0.3,0.5,0.7,1.3
				c2.9,5.1,13.8,23.1,20.1,21.2c0.8,4.9,1.1,9.9,1,14.8l6.2,41.9c0,0,4.4,11.4,4.1,17.4c-0.3,6,5.1,14.5,5.1,14.5
				c-3.3,6-4.2,12.8-2.7,19.5c2.5,11.2,5.8,62.6,5.8,62.6l4.7,12.5l-0.1,14.6c-0.4,2.4-1.4,4.7-2.9,6.5c-3,3.3-2.8,7.1-10,11.5
				c-7.3,4.5-11.9,6.1-11.9,12.1c0,0.8-0.1,1.7-0.2,2.5c-0.7,4.4-2,6.7,11.4,8c15.7,1.5,26.1-8.7,26.1-8.7s2.3-4.2,13.2-5.9
				c0,0,3.7-0.2,3.9-3.4c0.1-1.1,0.1-3.3,0-5.7c-0.2-4.6-0.7-9.9-1.2-10.1c-0.7-0.3-2-4.9-2.4-6.5h3c0,0,2.8-21.1,0-34.7
				c-2.8-13.6-0.3-23.4-0.3-23.4l-0.6-36.1c0,0-3.7-4-0.8-11s0-41.8,0-41.8s1.1-12.5,4.2-15.4s0.2-18.2,0-19.1l5.5,18.4
				c0,0,2.4,36.6,7.5,43.3l1.5,16.6c0,0,10.4,15.3,8.5,23.5c-2,8.2,2.1,38,2.1,38v30.4c0,0-4.7,12.2,1.9,16.6l2.8-0.1
				c-0.9,0.8-1.7,2.1-2.7,3.3c-1.2,1.3-2,6.2-2.3,10.4c-0.4,3.5-0.5,6.7-0.5,6.7s2.8,4.5,8.1,4.7c5.3,0.3,22.6,13.5,22.6,13.5
				s17.1,0,21.6-0.9l0.3-0.1c1.4-0.5,2.6-1.4,3.4-2.7c0.9-1.5,1.2-3.3,0.8-5c-0.6-2.6-2.6-5.5-7.3-7.9c-11.4-6-13.1-11.6-13.1-11.6
				l-7.5-11.3h1.1c0,0-0.7-11.9,7.5-25.3l-0.6-59c0,0,3.4-20.3-2.4-31.4c0,0-0.5-11.6,3.4-15.3c3.8-3.6-5.1-39.8-5.1-39.8
				s-1.9-19.4-4-37.2l0,0c9,8.6,18.4-22.3,20-27.8h0.2l-0.1-0.4c0.1-0.3,0.1-0.4,0.1-0.4l0,0c0,0-2-7.2-0.6-5.7c1.5,1.5,5.1-4,5.1-4
				s-0.6-29.6,5.8-44.5C537.7,307.1,528.6,270.8,528.6,270.8z M501.6,289.7L501.6,289.7c0.9,18-0.1,56.5-0.1,56.5s-1.2,4.9-2.6,10.8
				l-0.9-36.6l0,0l-0.9-34.5L501.6,289.7z M386.1,277.2c0,0,4.6,57,0,65.2c-1.3,2.3-2.4,6.5-3.3,11.3c-1.5-3.9-4.7-13.2-3.5-18.1
				c1.5-6.3-3-23.1-3-23.5c0-0.4-0.4-9.3,2.8-16.1c3.2-6.8,1.1-9.8,1.1-9.8S382.9,275.1,386.1,277.2z"/>
			<path fill="#FBBEBE" d="M397.2,405.6c-4,17.5-19.7-8.9-23.4-15.3c-0.5-0.8-0.7-1.3-0.7-1.3l1.7-8l9-3.7c1.4,0.7,2.8,1.7,4.1,2.6
				C392.9,383.9,400.3,392.1,397.2,405.6z"/>
			<path fill="#FBBEBE" d="M519.8,377.1c0,0,0,0.1-0.1,0.4c0,0.1-0.1,0.3-0.1,0.5c-1.6,5.5-10.8,36.2-19.6,27.6
				c-9.8-9.3-5-30.8-5-30.8h0.1l20.5-2l4.1,4.2l0,0L519.8,377.1z"/>
			
				<linearGradient id="SVGID_20_" gradientUnits="userSpaceOnUse" x1="360.4635" y1="141.3026" x2="360.4635" y2="396.9027" gradientTransform="matrix(0.9306 0 0 -0.9306 110.6526 744.4457)">
				<stop  offset="0" style="stop-color:#38C0EF"/>
				<stop  offset="1" style="stop-color:#426FB3"/>
			</linearGradient>
			<path fill="url(#SVGID_20_)" d="M508,528.2l0.6,58.6c-8,13.3-7.4,25.1-7.4,25.1l-26.4,1c-6.4-4.4-1.9-16.5-1.9-16.5v-30.2
				c0,0-4.1-29.5-2.1-37.7s-8.3-23.3-8.3-23.3l-1.5-16.5c-5-6.6-7.4-42.9-7.4-42.9l-5.4-18.3c0.2,0.8,3,16.1,0,18.9
				c-3,2.8-4.1,15.3-4.1,15.3s2.9,34.5,0,41.5c-2.9,7,0.7,11,0.7,11l0.6,35.8c0,0-2.5,9.6,0.3,23.2c2.8,13.6,0,34.5,0,34.5h-28.5
				l0.1-14.6l-4.6-12.4c0,0-3.2-51.1-5.7-62.2c-1.5-6.5-0.6-13.4,2.6-19.4c0,0-5.2-8.4-5-14.3s-4.1-17.2-4.1-17.2l-6.1-41.6
				c0.2-8-0.8-16-3.1-23.7c-3.5-11.8-8.8-27.4-8.8-27.4l6,0.6l30,2.7c0,0,73-4.9,76.2-0.8c0.7,1.3,1.1,2.8,1.4,4.3
				c3.3,14.7,7.6,60.8,7.6,60.8s8.8,35.9,5,39.5c-3.8,3.5-3.4,15.2-3.4,15.2C511.2,508,508,528.2,508,528.2z"/>
			<path fill="#B07473" d="M446.3,630c-0.2,3.3-3.8,3.4-3.8,3.4c-10.7,1.7-12.9,5.9-12.9,5.9s-10.2,10.1-25.7,8.7
				c-13.1-1.3-11.8-3.6-11.2-7.9c0.1-0.8,0.2-1.6,0.2-2.4c0-6,4.6-7.6,11.6-12.1s6.9-8.2,9.9-11.4c3-3.3,3.3-9.6,3.3-9.6
				c3.4-5.9,11.8,0.9,11.8,0.9c0.4,2,13,1.8,13,1.8s1.7,6.7,2.5,7.1c0.6,0.3,1,5.5,1.1,10C446.4,626.7,446.4,628.9,446.3,630z"/>
			<path opacity="0.1" enable-background="new    " d="M446.3,630c-0.2,3.3-3.8,3.4-3.8,3.4c-10.7,1.7-12.9,5.9-12.9,5.9
				s-10.2,10.1-25.7,8.7c-13.1-1.3-11.8-3.6-11.2-7.9c5.9,1.5,17,3.4,23.6-0.1c9.1-4.9,15.6-8.4,15.6-8.4l14.3-7.3
				C446.4,626.7,446.4,628.9,446.3,630z"/>
			<path fill="#B07473" d="M526.7,647.6c-0.7,1.3-1.9,2.2-3.3,2.7l-0.3,0.1c-4.4,0.9-21.1,0.9-21.1,0.9s-16.9-13.1-22.1-13.4
				c-5.2-0.3-7.9-4.7-7.9-4.7s0.1-3.1,0.5-6.6c0.4-4.2,1.1-9.1,2.3-10.4c2.2-2.3,2.8-5.6,7.9-3.5c0,0,7.3-12.8,15.9-2.9l8.9,13.5
				c0,0,1.7,5.6,12.9,11.6c4.5,2.4,6.5,5.3,7.1,7.9C527.8,644.3,527.5,646.1,526.7,647.6z"/>
			<path opacity="0.1" enable-background="new    " d="M526.7,647.6c-1,0.8-2.1,1.8-3.3,2.7l-0.3,0.1c-4.4,0.9-21.1,0.9-21.1,0.9
				s-16.9-13.1-22.1-13.4c-5.2-0.3-7.9-4.7-7.9-4.7s0.1-3.1,0.5-6.6c5.2,1.6,13.1,4.4,15.3,7.3c3.3,4.6,13.1,10.9,13.1,10.9
				s18.4-1.8,26.6-2C527.8,644.3,527.5,646.1,526.7,647.6z"/>
			<path fill="#FBBEBE" d="M454.9,188.1l-24.3,25.7c0,0-29.4-2.1-24.3-10.9c2.6-4.5,3-13.7,2.8-21.8c-0.2-7.8-1-14.4-1-14.4
				s41.3-20.6,38.2-1.4c-0.7,3.6-0.7,7.4-0.1,11C447.8,185.9,454.9,188.1,454.9,188.1z"/>
			<path opacity="0.1" enable-background="new    " d="M446.2,165.4c-0.7,3.6-0.7,7.4-0.1,11c-5.7,5.8-13.5,9-21.6,9
				c-5.6,0-11.6-4.6-16.1-7.3c-0.2-7.8-0.3-11.4-0.3-11.4S449.3,146.2,446.2,165.4z"/>
			<path fill="#FBBEBE" d="M454.9,153.3c0,16.8-13.6,30.4-30.4,30.4c-16.8,0-30.4-13.6-30.4-30.4s13.6-30.4,30.4-30.4
				c6.9,0,13.6,2.3,19,6.6C450.6,135.3,454.9,144,454.9,153.3z"/>
			<path opacity="0.1" enable-background="new    " d="M496.2,381.6c-7.5,18.1-56.3,18.4-56.3,18.4v-19.7l-3-0.2
				c1.3,5.6-1.8,19.4-1.8,19.4c-38.5,5.4-47.9-16.5-47.9-16.5l1.3-7.5l30,2.7c0,0,73-4.9,76.2-0.8
				C495.6,378.6,496,380.1,496.2,381.6z"/>
			
				<linearGradient id="SVGID_21_" gradientUnits="userSpaceOnUse" x1="297.25" y1="486.9876" x2="415.2723" y2="486.9876" gradientTransform="matrix(0.9306 0 0 -0.9306 110.6526 744.4457)">
				<stop  offset="0" style="stop-color:#9ACE87"/>
				<stop  offset="1" style="stop-color:#36B376"/>
			</linearGradient>
			<path fill="url(#SVGID_21_)" d="M439.9,397.6V378l-3-0.2c1.3,5.6-1.8,19.4-1.8,19.4c-28.9,4.1-41.5-7.4-45.9-13.2
				c-0.8-1-1.5-2.1-2-3.3l11.7-66.2l2.8-97.3l4.2-17.1l0.9-8.2v-0.1h0.1l3,1.3l18,7.7l20.4-15.4l0.3-0.2l1-0.7l1.7,1.3l4.2,3.4
				l13.4,86.7c0,0,23.3,66.8,27.6,93.7c0.2,1.1,0.3,2,0.5,3C500,397.2,439.9,397.6,439.9,397.6z"/>
			<circle fill="#67647E" cx="430.3" cy="202.7" r="1.8"/>
			<circle fill="#67647E" cx="431.1" cy="218.5" r="1.8"/>
			<circle fill="#67647E" cx="432.9" cy="244.1" r="1.8"/>
			<circle fill="#67647E" cx="435.6" cy="271.6" r="1.8"/>
			<circle fill="#67647E" cx="437.4" cy="297.5" r="1.8"/>
			<circle fill="#67647E" cx="439.1" cy="325" r="1.8"/>
			<circle fill="#67647E" cx="438.4" cy="352.3" r="1.8"/>
			<path opacity="0.1" enable-background="new    " d="M408.2,324.1c0,0-2,25.3-5.5,32.7c-3.5,7.4-5.1,28-5.1,28l-8.3-0.9
				c-0.8-1-1.5-2.1-2-3.3l11.7-66.2l2.8-97.3L406,200l0.9-8.2l0.1-0.1c0.9-0.5,2-0.5,3,0.1l0.4,0.2c-0.1,0.4-0.2,0.7-0.4,1
				c-3.3,10.1-4.5,28.7-4.5,28.7s4.7,34,5.1,49.8C411.1,287.3,408.2,324.1,408.2,324.1z"/>
			<path opacity="0.1" enable-background="new    " d="M387.9,379.9c-0.1,0.2-0.2,0.4-0.3,0.7c-3.2,5.4-11.4,8.8-13.8,9.8
				c-0.5-0.8-0.7-1.3-0.7-1.3l1.7-8l9-3.7C385.3,378.1,386.7,378.9,387.9,379.9z"/>
			<path opacity="0.1" enable-background="new    " d="M496.9,375.8c0,0-19.9,7.5-26.2,0.9c-6.3-6.6-5.7-37.4-5.7-37.4
				s-6-56.9-9.9-66.3c-3.8-9.4-1.9-76.8-1.9-76.8s-2.6-8.7-4.8-11c-0.2-0.2-0.3-0.3-0.5-0.4l0.7,0.2l2.7,0.6l4.2,3.4l13.4,86.7
				c0,0,23.3,66.8,27.6,93.7L496.9,375.8z"/>
			<path opacity="0.1" enable-background="new    " d="M519.8,377.9h-0.2c-2.5,0.4-24.6,3-24.7-1.6c0-0.6,0-1,0.1-1.6l20.5-2
				l4.1,4.2l0,0c0.1,0.3,0.1,0.5,0.2,0.7V377.9z"/>
			<path opacity="0.1" enable-background="new    " d="M455.3,279.3c0,0-8.2,20-10.8,21.3c-2.6,1.3,0.6,6.6,0.6,6.6
				S459.8,286.3,455.3,279.3z"/>
			<path opacity="0.1" enable-background="new    " d="M450.4,209.1c0.1-0.4-9.8,9.7-12.4,11.2C435.5,221.7,447.7,220.2,450.4,209.1
				z"/>
			<path opacity="0.1" enable-background="new    " d="M423,277.7c0,0-15,9.7-13,13.6C411.9,295.2,423,277.7,423,277.7z"/>
			<path opacity="0.1" enable-background="new    " d="M450.3,419.3c0,0,12.7,8.2,32.7,10.2L450.3,419.3z"/>
			<path opacity="0.1" enable-background="new    " d="M419.6,439.1c0,0,11.8,14.9,17.2,15.3C442.3,454.8,419.6,439.1,419.6,439.1z"
				/>
			<path opacity="0.1" enable-background="new    " d="M436.2,497.5c-0.6,0.3-6.7,13.4-13,13.9C416.9,511.8,436.2,497.5,436.2,497.5
				z"/>
			<path opacity="0.1" enable-background="new    " d="M491.1,526.3c0,0,11.7-2.6,14.3,5.8C505.4,532,504.7,529.4,491.1,526.3z"/>
			<path opacity="0.1" enable-background="new    " d="M483.2,574.4c0,0,14.2-2.9,17.2,1C503.4,579.4,483.2,574.4,483.2,574.4z"/>
			<path opacity="0.1" enable-background="new    " d="M442.9,581.2c0,0.1-14.5,2.9-14,4.7c0.6,1.9,15.4,1.6,16-1.3
				C445.3,583.1,444.5,581.6,442.9,581.2C443,581.2,443,581.2,442.9,581.2z"/>
			<path opacity="0.1" enable-background="new    " d="M478.5,593.7c0,0,23.8-2.9,22.3,2.1C499.3,600.9,478.5,593.7,478.5,593.7z"/>
			<path opacity="0.1" enable-background="new    " d="M353.9,300.6c0.1,0.4,15.6,2.5,17.8,7.5c0,0-15.3-7.1-17.7-7.1"/>
			<path opacity="0.1" enable-background="new    " d="M375.7,341.2c0,0-12.9,4.1-12,10.2C364.6,357.6,362.4,348.7,375.7,341.2z"/>
			<path opacity="0.1" enable-background="new    " d="M369.8,372.6c0,0,4.7-6.4,9.2-5.3C383.4,368.5,369.8,372.6,369.8,372.6z"/>
			<path opacity="0.1" enable-background="new    " d="M443.5,129.5c-0.5,0.5-0.9,0.8-1.5,1.1c-3.7,2.1-4.7,5.5-6.5,9.4
				c-1.7,3.5-3.4,7.3-6.8,9.2c-4.3,2.6-10,1.7-14.4,3.9c-4.1,2.1-6.4,6.4-6,11c0.3,1.7,0.7,3.4,1.3,5c1,3.5,1.5,7.3,1.4,11
				c0,0.1,0,0.2,0,0.4c-15-7.5-21.1-25.8-13.6-40.8c7.5-15,25.8-21.1,40.8-13.6C440,127,441.8,128.2,443.5,129.5L443.5,129.5z"/>
			<path fill="#585268" d="M442.6,120.3c-3.4-7-10.6-11.4-18.1-13.6c-5.7-1.7-11.9-2.2-17.6-0.4c-3.3,1-6.1,2.8-9.2,4.3
				c-5.7,2.9-11.8,5.1-16.1,9.8c-1,1.1-1.9,2.5-1.6,3.9c0.2,1,1,1.9,1.6,2.9c1.2,2.1,0.9,4.8,0.1,7.2c-0.8,2.3-2,4.5-2.6,6.9
				c-0.6,2.4-0.4,5.2,1.4,6.9c0.8,0.7,1.8,1.2,2.7,1.9c0.9,0.8,1.9,1.8,2.5,2.9l5,6.9c2.3,3.1,4.5,6.2,6.3,9.7
				c1.2,2.5,2.2,5.1,3.9,7.4c1.7,2.2,4.3,4,7.1,3.8c0.5,0,0.8-0.2,1.1-0.6c0.1-0.2,0.2-0.5,0.1-0.7c0.1-3.7-0.4-7.4-1.3-10.9
				c-0.6-1.7-1-3.4-1.3-5c-0.5-4.6,2-8.9,6-11c4.5-2.2,10.1-1.3,14.4-3.9c3.4-2,5.1-5.8,6.8-9.3c1.8-3.8,2.8-7.2,6.5-9.4
				C444,127.7,444.5,124,442.6,120.3z"/>
			<path opacity="0.1" enable-background="new    " d="M429,617.5c0,0,4.7,6,3.4,9.3S429,617.5,429,617.5z"/>
			<path opacity="0.1" enable-background="new    " d="M491.9,632.4c0,0,1-7.9,5.2-8s4.4-0.5,7.5,0.7s6.1,3.1,5.2,3.3
				c-0.9,0.3-5.4-4.6-10-2C496.9,628,494.3,630,491.9,632.4z"/>
			<path opacity="0.1" enable-background="new    " d="M415.2,210.7l13-9.1c0,0-19.1-11.3-21.3-9.7c-2.2,1.6-3.8,15.8-3.8,15.8
				L415.2,210.7z"/>
			<path fill="#E1E7EF" d="M415.1,210.1l13-9.3c0,0-19.1-11.3-21.3-9.7c-2.2,1.6-3.8,16.6-3.8,16.6L415.1,210.1z"/>
			
				<linearGradient id="SVGID_22_" gradientUnits="userSpaceOnUse" x1="314.1083" y1="584.4844" x2="341.1483" y2="584.4844" gradientTransform="matrix(0.9306 0 0 -0.9306 110.6526 744.4457)">
				<stop  offset="0" style="stop-color:#9ACE87"/>
				<stop  offset="1" style="stop-color:#36B376"/>
			</linearGradient>
			<path fill="url(#SVGID_22_)" d="M415.1,210.1l13-9.3c0,0-19.1-11.3-21.3-9.7c-2.2,1.6-3.8,16.6-3.8,16.6L415.1,210.1z"/>
			<path opacity="0.1" enable-background="new    " d="M447.8,204.9l-16.3-6c0,0,20.7-22.6,23.3-10.1L447.8,204.9z"/>
			<path fill="#E1E7EF" d="M447.8,204.2l-16.3-6c0,0,20.7-22.6,23.3-10.1L447.8,204.2z"/>
			
				<linearGradient id="SVGID_23_" gradientUnits="userSpaceOnUse" x1="344.9383" y1="591.2941" x2="369.9383" y2="591.2941" gradientTransform="matrix(0.9306 0 0 -0.9306 110.6526 744.4457)">
				<stop  offset="0" style="stop-color:#9ACE87"/>
				<stop  offset="1" style="stop-color:#36B376"/>
			</linearGradient>
			<path fill="url(#SVGID_23_)" d="M447.8,204.2l-16.3-6c0,0,20.7-22.6,23.3-10.1L447.8,204.2z"/>
			<path opacity="0.1" enable-background="new    " d="M447.4,184.9c0.3,0,0.5,0,0.7,0.2L447.4,184.9z"/>
			<g>
				
					<linearGradient id="SVGID_24_" gradientUnits="userSpaceOnUse" x1="408.5296" y1="393.5503" x2="408.5296" y2="602.8026" gradientTransform="matrix(0.9306 0 0 -0.9306 110.6526 744.4457)">
					<stop  offset="0" style="stop-color:#1887C9"/>
					<stop  offset="1" style="stop-color:#39449B"/>
				</linearGradient>
				<path fill="url(#SVGID_24_)" d="M527.1,272.6c-2-13.4-14-44.5-14.1-44.8c-0.2-0.9-0.5-1.9-0.7-2.8
					c-8.6-29.8-20.4-32.4-20.4-32.4l-42.4-9.1c2.3,1.4,5.3,11.4,5.3,11.4s-2,67.4,1.9,76.8c3.8,9.4,9.9,66.3,9.9,66.3
					s-0.7,30.9,5.7,37.4c4.7,4.8,16.7,2,22.6,0.3c0.2,4.8,24.9,1.6,24.9,1.6s-2-7.1-0.6-5.7c1.4,1.4,5-3.9,5-3.9s-0.5-29.4,5.7-44.2
					C536.1,308.5,527.1,272.6,527.1,272.6z M500.6,347.3c0,0-1.2,4.9-2.5,10.8l-1.9-70.6l4.5,3.8c0,0,0-0.1,0.1-0.1
					C501.7,309,500.6,347.3,500.6,347.3z"/>
				
					<linearGradient id="SVGID_25_" gradientUnits="userSpaceOnUse" x1="287.7801" y1="382.0026" x2="287.7801" y2="595.1235" gradientTransform="matrix(0.9306 0 0 -0.9306 110.6526 744.4457)">
					<stop  offset="0" style="stop-color:#1887C9"/>
					<stop  offset="1" style="stop-color:#39449B"/>
				</linearGradient>
				<path fill="url(#SVGID_25_)" d="M404.2,220.9c0,0,1.3-19.9,4.7-29.7l-0.4-0.2c-1.2-0.7-2.6-0.5-3.6,0.4l-39.1,31.7
					c0,0-8.5,11.7-7.4,32l-6.8,30.4c0,0-8.6,25.8-2,44.2c6.6,18.4,10.4,28.9,10.4,28.9s2.6,20.9,6.6,22.6c3.9,1.7,5.7,2.6,5.7,2.6
					l0.8,5c0,0,6.6-2.2,11.4-6.3l11.6,1.3c0,0,1.6-20.7,5.1-28c3.5-7.4,5.5-32.7,5.5-32.7s3.2-36.9,2.7-52.6
					C408.8,254.9,404.2,220.9,404.2,220.9z M387.4,343.7c-1.3,2.3-2.3,6.5-3.3,11.2c-1.5-3.9-4.6-13.1-3.4-18.1
					c1.5-6.3-2.9-22.9-2.9-23.3s-0.4-9.2,2.8-16c3.2-6.8,1-9.7,1-9.7v-0.1c0.2-0.8,2.8-10.9,5.8-8.9
					C387.4,278.9,391.8,335.5,387.4,343.7z"/>
				
					<linearGradient id="SVGID_26_" gradientUnits="userSpaceOnUse" x1="363.8" y1="602.8586" x2="363.8" y2="603.0295" gradientTransform="matrix(0.9306 0 0 -0.9306 110.6526 744.4457)">
					<stop  offset="0" style="stop-color:#1887C9"/>
					<stop  offset="1" style="stop-color:#39449B"/>
				</linearGradient>
				<path fill="url(#SVGID_26_)" d="M448.9,183.3l0.7,0.2C449.3,183.3,449.1,183.2,448.9,183.3z"/>
			</g>
			<path opacity="0.1" enable-background="new    " d="M488.3,238.7c-0.7,0.6-1.3,26.9,1.3,46.9c1.6,12.2,4.1,24.3,7.4,36.1
				l-3.9-80.2C493.2,241.5,490.2,237,488.3,238.7z"/>
			<path opacity="0.1" enable-background="new    " d="M483,216.1c1,0.7,5.7,11.6,3.5,16.1C484.5,236.5,483,216.1,483,216.1z"/>
			<path opacity="0.1" enable-background="new    " d="M442.3,120.3c-2.1-4.2-5.4-7.6-9.5-10c3,2.1,5.5,5,7.1,8.4
				c1.9,3.7,1.3,7.4-2.3,9.5s-4.7,5.5-6.5,9.4c-1.7,3.5-3.4,7.3-6.8,9.3c-4.3,2.6-10,1.7-14.4,3.9c-4,2.1-6.4,6.5-6,11
				c0.3,1.7,0.7,3.4,1.3,5c1,3.5,1.5,7.3,1.4,11c0,0.3,0,0.5-0.2,0.7c-0.3,0.4-0.7,0.6-1.1,0.6c-1.1,0.1-2.2-0.1-3.3-0.6
				c1.5,1.5,3.5,2.2,5.6,2.2c0.6,0.1,1.1-0.4,1.2-0.9c0-0.1,0-0.2,0-0.3c0.1-3.7-0.4-7.4-1.4-11c-0.6-1.7-1-3.4-1.3-5
				c-0.5-4.6,2-8.9,6-11c4.5-2.2,10.1-1.3,14.4-3.9c3.4-2,5.1-5.8,6.8-9.3c1.8-3.8,2.8-7.2,6.5-9.4
				C443.7,127.8,444.2,124,442.3,120.3z"/>
		</g>
		<g>
			
				<linearGradient id="SVGID_27_" gradientUnits="userSpaceOnUse" x1="460.75" y1="59.4025" x2="611.15" y2="59.4025" gradientTransform="matrix(0.9306 0 0 -0.9306 110.6526 744.4457)">
				<stop  offset="0" style="stop-color:#FFFFFF"/>
				<stop  offset="1" style="stop-color:#16B6FF"/>
			</linearGradient>
			<ellipse opacity="0.3" fill="url(#SVGID_27_)" enable-background="new    " cx="609.4" cy="689.2" rx="70" ry="15.7"/>
			
				<linearGradient id="SVGID_28_" gradientUnits="userSpaceOnUse" x1="575.2103" y1="712.4238" x2="575.2103" y2="101.8265" gradientTransform="matrix(0.9306 0 0 0.9306 81.6564 37.092)">
				<stop  offset="0" style="stop-color:#808080;stop-opacity:0.25"/>
				<stop  offset="0.54" style="stop-color:#808080;stop-opacity:0.12"/>
				<stop  offset="1" style="stop-color:#808080;stop-opacity:0.1"/>
			</linearGradient>
			<path fill="url(#SVGID_28_)" d="M707.5,237.2c-12.8-0.3-24.1-9.3-30.5-20.4c-1.7-2.6-2.7-5.6-3.1-8.7c0-0.7,0.2-1.4,0.4-2
				c0.4-1,0.7-2.1,0.9-3.2c0.1-0.5,0.1-0.8,0-1.3c0,0,0,0,0-0.1c0.3-2.3-1.1-4.7-2.8-6.2s-3.9-2.8-5.7-4.4c-5.5-4.8-7.2-12.6-7.3-20
				v-0.4c0.1-3.2,0.3-6.3,0.3-9.5c0-1.8,0-3.6-0.2-5.4c-0.6-4.5-2.2-9-5.8-11.9c-9.2-7.4-24.6,0.3-34.2-6.7c-2.3-1.8-4.2-4.3-7-4.9
				c-2.1-0.6-4.3,0.2-6.3,0.8c-7,2.3-14.8,5.3-17.5,12.1c-1.6,3.9-1.1,8.3-2.6,12.2c-0.9,2.6-2.7,4.9-4,7.4c-1,1.9-1.6,4-1.5,6.1
				c-0.1,1.1,0,2.2,0.5,3.3c0.5,1.3,1.3,2.4,2.3,3.3c-0.4,0.7-0.8,1.5-1.4,2.1c-1.8,2.2-4.6,3.7-6.4,5.9c-3.4,4-3.3,9.4-1.6,14.1
				c1.8,4.7,4.7,8.9,6.9,13.5c0.9,2,1.7,4.2,0.7,6.1c-0.7,1.4-2,2.4-3.1,3.6c-1.6,1.8-2.5,3.9-2.8,6.2
				c-20.9,4.7-20.9,21.6-20.9,21.6l0,0l-11.4,28.5c0,0-1.9,4.7-3.9,11.2l-13.4-2.4l9.3,15.5c-1.8,6.3-3,12.2-2.6,15.2
				c0,0-4.2,19.5,3.3,23l16.3,7.4c0.7,0.5,1.5,0.7,2.2,1l0.7,0.3c0.5,0.3,1,0.3,1.5,0l0,0h0.2c0.3,0,0.7,0,0.9-0.1
				c0.4-0.2,0.7-0.5,0.8-0.9v-0.1l4.8-1.4l4.2,4.9c1.9,1.3,3.7,2.4,5.5,3.4l-6.4,63.7c0,0-1,84.7-4.2,103.9
				c-1.1,7.2-1.1,12-0.7,15.4l-0.1,0.2c0.7,5.4,2.8,6.5,2.8,6.5v-0.1l0.1,0.1c0.9-2.5,2-4.8,3.3-7.2c0,0.5,0,0.9,0,1.4
				c-0.1,7.2-0.3,17.2-1,23.8c-1.3,11.2,3.3,47.9,3.3,47.9L572,645c0.3,5.7-1,11.4-3.8,16.3c-3.7,6.7-8.5,16.1-8.8,20.3
				c0,0.2,0,0.5,0,0.7l0,0l-8,9.6c0,0-3.2,4.8,3.9,6.8c3.8,1,10.3,0,15.5-1.2c4.7-1.1,8.1-5.3,8.1-10.1c1.3-4.7,3.5-8.9,6.6-12.7
				l1.3,7.7l8.7,2.1l1.1-21.1c0.5-1.2,0.7-2.4,0.7-3.7l0,0c1.8-15.1-4.1-13.7-4.1-13.7c0.2,0.1,0.3,0.3,0.3,0.6l-0.3-0.5l0,0
				c-3.5-7.1-1.9-18.6-1.9-18.6s4.7-33.5,6.2-42.3c1.1-6.2,0.7-26.7,0.3-38.2c0-0.5,0-0.9,0-1.4c13.6-0.2,30.3-0.7,42.1-1.8v1.4
				l-2.1,79.1c-0.2,5-1.2,10-3.1,14.7c0,0.1-0.1,0.2-0.1,0.3c-2.6,6.6-4,13.7-4.3,20.8l-1,25.1v0.7l0,0c-1.8,0.7-4.5,2.6-4.6,8.3
				c-0.1,8.3,14.4,5.5,14.4,5.5c14.5,0,14.7-15.2,14.7-15.2s0.5-13.9,1.1-23.2c0.7-9.3-2.2-7.3-2.2-7.3l-0.2,26.4c0,0.1,0,0.1,0,0.2
				v-23l0.2-3.3v-0.1l0,0v-0.7l1.9-27.3c0,0,13.4-45.4,15.4-54.2c1.5-6.2,0.8-24.8,0.4-35.2c0-0.5,0-0.9-0.1-1.4
				c4.2-0.4,7.8-0.4,9.3-0.4h0.7c0,0-0.7-73-2.4-100.5s-4.5-52.7-11.4-60.3c-4.2-4.6-10-18.7-14-29.2c8.3,3.5,16.8,6.4,25.7,8.4
				c22,4.6,19-14.4,19-14.4l-2.2-36h0.2c-0.1-9.4-0.9-18.9-2.4-28.2c-1.1-7.2-3-14.5-5.7-20.5c2.4-0.9,4.7-2,7.1-3
				c6-2.6,12.7-6.3,13.5-12.8h-0.3C707.4,238.2,707.5,237.7,707.5,237.2z M571.4,289.3L571.4,289.3c0,3.7-0.1,10.1-0.3,17.3l-7-9.3
				l7-11.4L571.4,289.3z M667.7,322.3l-11.6-3.7c2-3.3,4.5-6.2,7.2-8.8l1-0.9l-0.4,0.1l0.6-0.5l0.4-0.1l-0.6,0.5l0.7-0.1
				c0.7,2.9,2,5.7,3.9,7.9C673,321.1,667.7,322.3,667.7,322.3L667.7,322.3z"/>
			<polygon fill="#A27772" points="597.2,657.3 595.8,683 587.1,680.9 585.3,670.2 			"/>
			<polygon opacity="0.1" enable-background="new    " points="597.2,657.3 595.8,683 587.1,680.9 585.3,670.2 			"/>
			<path fill="#FBBEBE" d="M628.9,686.5l13.2,2.7l9.8-8.7v-24.4l0.2-3.3v-0.1l0,0V652L654,625c0,0,13.2-45.1,15.3-53.8
				c1.5-6.1,0.8-24.7,0.4-34.9c-0.2-4.2-0.4-7-0.4-7l-29.1-7.1l-0.7,22.4l-2.1,78.5c-0.2,5-1.1,10-3,14.6l-0.1,0.3
				c-2.5,6.6-4,13.5-4.2,20.6l-1,24.9v0.7L628.9,686.5z"/>
			<path opacity="0.1" enable-background="new    " d="M652.2,652v0.7l0,0V652L652.2,652z"/>
			<path opacity="0.1" enable-background="new    " d="M628.9,686.5l13.2,2.7l9.8-8.7v-2c-0.1,0.9-0.6,1.8-1.4,2.2l-0.2,0.1
				c-4.6,2.4-9.7,3.4-14.8,3l-5.1-0.5c-0.5,0-0.9,0.2-1.4,0.4v0.7L628.9,686.5z"/>
			<path fill="#B07473" d="M650.4,681.4l0.2-0.1c0.8-0.5,1.4-1.4,1.4-2.4l0.2-26.2c0,0,2.9-2,2.1,7.2c-0.7,9.2-1.1,23-1.1,23
				s-0.1,15.1-14.4,15.1c0,0-14.3,2.7-14.2-5.5c0.1-8.2,6-8.6,6-8.6l5.1,0.5C640.7,684.9,645.9,683.9,650.4,681.4z"/>
			<path fill="#FBBEBE" d="M560.2,680.9c0.4,6,17.8,2.5,17.8,2.5l11.7-22.8c0,0,9.8-7.5,4.9-14.1c-0.3-0.4-0.5-0.7-0.7-1.1
				c0,0,0,0,0-0.1l0,0c-0.1-0.2-0.2-0.4-0.3-0.6l0,0c-3.5-7-1.8-18.4-1.8-18.4s4.6-33.3,6.1-42.1c1.1-6.2,0.7-26.5,0.3-37.9
				c-0.2-4.7-0.3-7.9-0.3-7.9l-28.9-7.7c0,0,0,3.6,0,8.7c-0.1,7.2-0.3,17.1-1,23.6c-1.2,11.1,3.2,47.6,3.2,47.6l1.6,33.3
				c0.3,5.7-1,11.3-3.7,16.2c-3.6,6.6-8.4,16-8.7,20.2C560.2,680.4,560.2,680.7,560.2,680.9z"/>
			<path opacity="0.1" enable-background="new    " d="M560.2,680.9c0.4,6,17.8,2.5,17.8,2.5l11.7-22.8c0,0,9.8-7.5,4.9-14.1
				c-0.3-0.4-0.5-0.7-0.7-1.1c-0.2,3.4-3.9,12.1-3.9,12.1s-9.7,19.4-12.7,23.8c-3.1,4.5-16.5-0.8-16.9-1
				C560.2,680.5,560.2,680.7,560.2,680.9z"/>
			<path fill="#B07473" d="M593.5,644.8c0,0,5.8-1.3,4,13.6l0,0c0.1,3.4-1.6,6.7-4.6,8.6c-4.1,2.6-10.4,8.1-13.7,18.9l0,0
				c0,4.7-3.3,8.9-7.9,10c-5.2,1.2-11.6,2.2-15.4,1.2c-7-2-3.9-6.7-3.9-6.7l8-9.5c0,0,13.9,5.5,16.9,1c3.1-4.5,12.7-23.8,12.7-23.8
				S595.1,646,593.5,644.8z"/>
			<path opacity="0.1" enable-background="new    " d="M640.1,524.9l-0.7,22.4c7.7-0.7,13.3-1.8,14.2-3.3c2-3.2,9.5-4.6,15.8-5.1
				c-0.2-4.2-0.4-7-0.4-7L640.1,524.9z"/>
			<path opacity="0.1" enable-background="new    " d="M568.9,542.1c0.7-1.5,1.9-2.9,3.2-3.8c3.1-1.7,2.7,11,2.7,11
				s10.2,0.1,23.3-0.1c-0.2-4.7-0.3-7.9-0.3-7.9l-28.9-7.7C568.9,533.5,568.9,537,568.9,542.1z"/>
			
				<linearGradient id="SVGID_29_" gradientUnits="userSpaceOnUse" x1="548.3729" y1="214.1788" x2="548.3729" y2="441.3026" gradientTransform="matrix(0.9306 0 0 -0.9306 110.6526 744.4457)">
				<stop  offset="0" style="stop-color:#65449A"/>
				<stop  offset="1" style="stop-color:#290F45"/>
			</linearGradient>
			<path fill="url(#SVGID_29_)" d="M565.6,545.1c0,0,3.4-9.3,6.5-11c3.1-1.7,2.7,11,2.7,11s75.2,0.7,79-5.1s25.6-5.5,25.6-5.5
				s-0.7-72.5-2.4-99.8c-1.8-27.4-4.5-52.3-11.3-59.8c-4.5-4.8-10.7-20.7-14.6-31.1c-2.1-5.8-3.5-10-3.5-10l-71.7,4.1l-0.6,5.8
				l-7.6,76.2c0,0-1,84.1-4.1,103.2C560.4,542.1,565.6,545.1,565.6,545.1z"/>
			<g opacity="0.1">
				<path d="M648,539.9c3.7-5.8,25.6-5.5,25.6-5.5s-0.7-72.5-2.4-99.8c-1.8-27.4-4.5-52.3-11.3-59.8c-4.5-4.8-10.7-20.6-14.6-31.1
					c-1.8-4.8-3.1-8.6-3.4-9.6l5.6-0.3c0,0,1.4,4.2,3.5,9.9c3.9,10.5,10.1,26.2,14.6,31.1c6.8,7.5,9.6,32.5,11.3,59.8
					s2.4,99.8,2.4,99.8s-21.9-0.4-25.7,5.5c-3.3,4.9-58.5,5.2-74.6,5.1C599.6,545,645,544.5,648,539.9z"/>
				<path d="M566.3,534.1c1.4-0.7,2,1.4,2.4,4c-1.2,2.2-2.3,4.6-3.3,7c0,0-2-1.1-2.8-6.5C563.8,536.6,565.1,534.8,566.3,534.1z"/>
			</g>
			<path fill="#585268" d="M587.8,158.5c-4.9,6.8,0.1,16.4-5.3,23c-1.8,2.1-4.5,3.7-6.3,5.9c-3.4,4-3.3,9.4-1.6,14.1
				s4.7,8.9,6.8,13.4c0.9,2,1.6,4.2,0.7,6.1c-0.7,1.4-2,2.4-3.1,3.5c-3.4,3.8-3.5,9.1-1.7,13.7c1.9,4.5,5.4,8.4,8.8,12.2
				c1.4,1.5,3.1,3.2,5.4,3.1c1.2-0.1,2.3-0.5,3.3-1.1c16.4-8.4,23.3-28.2,15.6-44.9c-2.9-6.9-7.7-13.6-7.7-20.8
				c0-5.8,3-11.4,3.5-17.1c0.7-7-3.5-18.1-12-21.2C595,152.7,590.3,155,587.8,158.5z"/>
			<path opacity="0.1" enable-background="new    " d="M587.8,158.5c-4.9,6.8,0.1,16.4-5.3,23c-1.8,2.1-4.5,3.7-6.3,5.9
				c-3.4,4-3.3,9.4-1.6,14.1s4.7,8.9,6.8,13.4c0.9,2,1.6,4.2,0.7,6.1c-0.7,1.4-2,2.4-3.1,3.5c-3.4,3.8-3.5,9.1-1.7,13.7
				c1.9,4.5,5.4,8.4,8.8,12.2c1.4,1.5,3.1,3.2,5.4,3.1c1.2-0.1,2.3-0.5,3.3-1.1c16.4-8.4,23.3-28.2,15.6-44.9
				c-2.9-6.9-7.7-13.6-7.7-20.8c0-5.8,3-11.4,3.5-17.1c0.7-7-3.5-18.1-12-21.2C595,152.7,590.3,155,587.8,158.5z"/>
			<path opacity="0.1" enable-background="new    " d="M642.9,404.9c-10,0.6-19.4,4.8-28,9.7c-8.7,4.8-17.1,10.3-26.5,13.8"/>
			<path opacity="0.1" enable-background="new    " d="M636.7,428.3c-9.9,0.9-19,5.4-25.9,12.6c-2.4,2.6-4.5,5.4-7,7.9
				c-3.8,3.7-8.7,6.5-13.9,7.8"/>
			<path opacity="0.1" enable-background="new    " d="M638.7,446.2c-7.9,2.2-15.1,6.5-20.8,12.6c-1.5,1.7-2.9,3.4-4.5,5
				c-8.2,8.8-19.8,13.5-31.1,18"/>
			<path fill="#FBBEBE" d="M637.9,198.8c0.2,7.9,0.9,15.9,2,23.7c0.9,5.6,2.2,10.6,4.1,12.8c5.5,6.5-26.7,15.3-26.7,15.3l-19-14.7
				c0,0,15.1-13.9,8-27.4S637.9,198.8,637.9,198.8z"/>
			<path opacity="0.1" enable-background="new    " d="M575.2,343.7h75.8c-2.1-5.8-3.5-9.9-3.5-9.9l-71.7,4.1L575.2,343.7z"/>
			
				<linearGradient id="SVGID_30_" gradientUnits="userSpaceOnUse" x1="552.3" y1="432.1025" x2="552.3" y2="557.2026" gradientTransform="matrix(0.9306 0 0 -0.9306 110.6526 744.4457)">
				<stop  offset="0" style="stop-color:#A4489A"/>
				<stop  offset="1" style="stop-color:#D53149"/>
			</linearGradient>
			<path fill="url(#SVGID_30_)" d="M570.4,342.3h81.1c-2.3-8.2,0-15.7,3.3-21.5c2.2-4.1,5.1-7.8,8.5-11l0.6-0.5l28.3-6.2l1.5-0.4
				c0,0,0.2-51.5-18-58.6c-18.2-7.1-29.1-16.7-29.1-16.7l-25,7.7l-18.4-9.3c-6,6.4-21.7,3.9-21.7,3.9c-25.8,3-25.8,22.3-25.8,22.3
				s15.1,35.1,16.2,35.1C572.9,287.3,570.4,342.3,570.4,342.3z"/>
			<path opacity="0.1" enable-background="new    " d="M598.4,309.6c0,0-16.6-3.6-22.1-10"/>
			<path opacity="0.1" enable-background="new    " d="M681.8,290.4l-19.2,15.7c0.1,1.2,0.4,2.5,0.7,3.7l0.6-0.5l28.3-6.2
				L681.8,290.4z"/>
			<path opacity="0.1" enable-background="new    " d="M629.9,336.9c0,0,4.2,2.3,10.6,5.5h11c-2.3-8.2,0-15.7,3.3-21.5l-19.4-6.3
				C642,320.7,629.9,336.9,629.9,336.9z"/>
			
				<linearGradient id="SVGID_31_" gradientUnits="userSpaceOnUse" x1="478.0318" y1="422.7493" x2="478.0318" y2="535.7026" gradientTransform="matrix(0.9306 0 0 -0.9306 110.6526 744.4457)">
				<stop  offset="0" style="stop-color:#A4489A"/>
				<stop  offset="1" style="stop-color:#D53149"/>
			</linearGradient>
			<path fill="url(#SVGID_31_)" d="M567,245.9l-11.4,6.1l-11.2,28.3c0,0-11.6,31-10.5,39.2c0,0-4.1,19.4,3.2,22.8l19,8.6
				c0.9,0.4,2,0,2.3-0.9c0.2-0.5,0.2-1-0.1-1.5c-2.7-5.1-5.7-13.1-0.9-17.6l-5.5-11.4l19.7-32.4l6.6-11.2L567,245.9z"/>
			<path opacity="0.1" enable-background="new    " d="M592.3,303.2c1,4,4.3,10.2,15.4,12.6l12.1,9.9l12.8,5.9l5.2,2.3l2.2-16.1
				l-5-2.8l-5.9-3.3c0,0-13.3-24.1-34.3-14C592.8,298.7,591.7,300.9,592.3,303.2z"/>
			<path fill="#FBBEBE" d="M593,301.8c1,4,4.3,10.2,15.4,12.6l12.1,10l12.8,5.9l5.2,2.3l2.2-16.1l-5-2.8l-5.9-3.2
				c0,0-13.3-24.1-34.3-14C593.6,297.4,592.4,299.6,593,301.8z"/>
			<circle opacity="0.1" enable-background="new    " cx="616.7" cy="190.2" r="29.4"/>
			<circle fill="#FBBEBE" cx="616.7" cy="189.6" r="29.4"/>
			<path opacity="0.1" enable-background="new    " d="M634.9,252.4l-8.8-17.2c0,0,12.9-5.2,13.9-11.3c0.9-6,12.4,7.1,10,11.4
				S634.9,252.4,634.9,252.4z"/>
			
				<linearGradient id="SVGID_32_" gradientUnits="userSpaceOnUse" x1="566.8301" y1="530.3026" x2="566.8301" y2="562.5854" gradientTransform="matrix(0.9306 0 0 -0.9306 110.6526 744.4457)">
				<stop  offset="0" style="stop-color:#A4489A"/>
				<stop  offset="1" style="stop-color:#D53149"/>
			</linearGradient>
			<path fill="url(#SVGID_32_)" d="M634.9,251l-8.8-17.2c0,0,12.9-5.2,13.9-11.3c0.9-6,12.4,7.1,10,11.4
				C647.4,238.3,634.9,251,634.9,251z"/>
			<path fill="#F6F8FB" d="M562.6,295.4l48.9,65.7c0,0-18,9.8-42.8-7.7l-10.7-12.7L527.3,289L562.6,295.4z"/>
			<path fill="#FBBEBE" d="M552.9,331.1l4.5-0.1c0,0,27.2-26.3,33.9-13c6.7,13.3-16.9,25.8-16.9,25.8l-7.2,3.9l-9.3,2.8l-6-8
				L552.9,331.1z"/>
			<path opacity="0.1" enable-background="new    " d="M559.5,345.3c0.4,1.5,0.8,3.2,0.1,4.6c-0.2,0.4-0.5,0.7-0.8,0.9
				c-0.3,0.1-0.7,0.2-0.9,0.1c-2.3-0.2-4.6-1.3-6.1-3.1c-1.6-1.8-2.9-3.6-4-5.8c-1.2-2.1-2.5-4.5-2-6.9c0.5-2.6,2.8-4.5,5-5.9
				c4.5-3,4.7,0.5,5.7,4.4C557.4,337.6,558.5,341.4,559.5,345.3z"/>
			<path fill="#6C63FF" d="M558.9,345.3c0.4,1.5,0.8,3.2,0.1,4.6c-0.2,0.4-0.5,0.7-0.8,0.9c-0.3,0.1-0.7,0.2-0.9,0.1
				c-2.3-0.2-4.6-1.3-6.1-3.1c-1.6-1.8-2.9-3.6-4-5.8c-1.2-2.1-2.5-4.5-2-6.9c0.5-2.6,2.8-4.5,5-5.9c4.5-3,4.7,0.5,5.7,4.4
				C556.7,337.6,557.7,341.4,558.9,345.3z"/>
			<polygon opacity="0.1" enable-background="new    " points="571.8,287.2 574,283.4 572.1,290.5 			"/>
			<path opacity="0.1" enable-background="new    " d="M633.3,330.1l5.2,2.3l2.2-16.1l-5-2.8C639.3,317.6,636.2,324.9,633.3,330.1z"
				/>
			<path opacity="0.1" enable-background="new    " d="M654.3,311.5c0,0-16.9,1-24.1-3.6"/>
			<g opacity="0.1">
				<path d="M652.3,322.2c2.2-4.1,5.1-7.8,8.5-11c0.8-0.5,1.7-0.9,2.5-1.4l26.3-5.4l1.5-0.4c0,0,0.2-51.5-18-58.6
					c-10.2-3.9-19.8-9.3-28.5-16l2-0.7c0,0,11,9.6,29.1,16.7c18.2,7.1,18,58.6,18,58.6h-2.7l-27,5.1c0,0-1.1,1.1-1.5,1.5
					c-3.3,3.4-6.3,7.3-8.7,11.4c-3.5,6.6-4.4,14.4-2.2,21.6h-2.8C646.7,335.6,649,328,652.3,322.2z"/>
				<path d="M580.3,231.3c0.5-0.1,0.8-0.1,1.3-0.2c1.9,0.3,3.7,0.4,5.6,0.5C584.8,231.6,582.5,231.5,580.3,231.3z"/>
				<path d="M618.9,236.6l-16.7-8.5c0.4-0.3,0.7-0.6,0.9-0.9l17.4,8.8L618.9,236.6z"/>
			</g>
			
				<linearGradient id="SVGID_33_" gradientUnits="userSpaceOnUse" x1="593.8743" y1="449.0248" x2="593.8743" y2="519.788" gradientTransform="matrix(0.9306 0 0 -0.9306 110.6526 744.4457)">
				<stop  offset="0" style="stop-color:#A4489A"/>
				<stop  offset="1" style="stop-color:#D53149"/>
			</linearGradient>
			<path fill="url(#SVGID_33_)" d="M682.4,289l11.2,13.7l2.3,37.1c0,0,3,18.9-18.7,14.3c-21.7-4.6-46.7-18.6-46.7-18.6
				s12.1-16.2,5.5-22.3l31,10c0,0,5.2-1.1,1.1-5.7c-4.1-4.6-4.8-12.7-4.8-12.7L682.4,289z"/>
			<path opacity="0.1" enable-background="new    " d="M687.6,328.2l6.1,7.1C690.4,334.3,688,331.6,687.6,328.2z"/>
			<polygon opacity="0.1" enable-background="new    " points="677,327.1 686.6,339.4 681.8,340.5 			"/>
			<path opacity="0.1" enable-background="new    " d="M581.6,176.1c-1-2.6-0.3-5.6,1-8c1.3-2.4,3-4.7,3.9-7.4
				c1.4-3.9,0.9-8.3,2.5-12.1c2.7-6.7,10.4-9.8,17.3-12.1c2-0.7,4.2-1.4,6.3-0.8c2.8,0.7,4.7,3.2,6.9,4.9c9.4,7,24.6-0.7,33.7,6.7
				c3.4,2.8,5.1,7.4,5.7,11.8c0.6,4.5,0,8.9-0.1,13.4c-0.2,7.8,1.3,16.4,7.2,21.6c1.8,1.6,3.8,2.7,5.6,4.4s3.1,3.9,2.8,6.2
				c-0.2,1.1-0.6,2.1-0.9,3.2c-1.1,4.1,0.6,8.4,2.7,12.1c6.3,11,17.5,20,30.2,20.2c-0.8,6.4-7.4,10.1-13.3,12.7
				c-7.4,3.4-15.4,6.6-23.5,6.2c-8.2-0.4-16.8-5.7-18.1-13.8c-0.5-2.8-0.5-6.1-2.8-7.6c-1.5-0.9-3.3-0.7-4.9-1.3
				c-2.2-0.9-3.3-3.4-4.1-5.8c-1.5-4.8-2.3-9.9-2.4-14.9c-0.1-6,0.7-12.6-2.7-17.5c-3.2-4.6-8.7-6.9-12.4-11.1
				c-3.3-3.9-7-8.6-12.5-9.3C601.8,176.7,586,187,581.6,176.1z"/>
			<path fill="#585268" d="M581.6,174.7c-1-2.6-0.3-5.6,1-8c1.3-2.4,3-4.7,3.9-7.4c1.4-3.9,0.9-8.3,2.5-12.1
				c2.7-6.8,10.4-9.8,17.3-12.1c2-0.7,4.2-1.4,6.3-0.8c2.8,0.7,4.7,3.2,6.9,4.9c9.4,7,24.6-0.7,33.7,6.7c3.4,2.8,5.1,7.4,5.7,11.8
				c0.6,4.5,0,8.9-0.1,13.4c-0.2,7.8,1.3,16.4,7.2,21.6c1.8,1.6,3.8,2.7,5.6,4.4c1.8,1.7,3.1,3.9,2.8,6.2c-0.2,1.1-0.6,2.1-0.9,3.2
				c-1.1,4.1,0.6,8.4,2.7,12.1c6.3,10.9,17.5,20,30.1,20.2c-0.8,6.4-7.4,10.1-13.3,12.7c-7.4,3.4-15.4,6.6-23.5,6.1
				c-8.2-0.5-16.8-5.7-18.1-13.8c-0.5-2.8-0.5-6.1-2.8-7.6c-1.5-0.9-3.3-0.7-4.9-1.3c-2.2-0.9-3.3-3.4-4.1-5.8
				c-1.5-4.8-2.3-9.9-2.4-14.9c-0.1-6,0.7-12.6-2.7-17.5c-3.2-4.6-8.7-6.9-12.4-11.1c-3.3-3.9-7-8.6-12.5-9.3
				C601.8,175.4,586,185.7,581.6,174.7z"/>
			<path opacity="0.1" enable-background="new    " d="M602.4,250.2l16.8-13.7c0,0-11.5-6.2-12.9-11.6c-1.4-5.3-10.6,2.5-9.7,7.4
				C597.7,237.1,602.4,250.2,602.4,250.2z"/>
			
				<linearGradient id="SVGID_34_" gradientUnits="userSpaceOnUse" x1="535.2149" y1="533.3026" x2="535.2149" y2="562.36" gradientTransform="matrix(0.9306 0 0 -0.9306 110.6526 744.4457)">
				<stop  offset="0" style="stop-color:#A4489A"/>
				<stop  offset="1" style="stop-color:#D53149"/>
			</linearGradient>
			<path fill="url(#SVGID_34_)" d="M603.1,248.2l16.8-13.7c0,0-11.5-6.2-12.8-11.5c-1.3-5.3-10.6,2.5-9.7,7.4
				C598.4,235.1,603.1,248.2,603.1,248.2z"/>
			<circle opacity="0.1" enable-background="new    " cx="620.6" cy="245.9" r="1.3"/>
			<circle opacity="0.1" enable-background="new    " cx="620.6" cy="253.4" r="1.3"/>
			<circle opacity="0.1" enable-background="new    " cx="620.6" cy="260.8" r="1.3"/>
			<g opacity="0.1">
				<path d="M588.4,155.7c1.3-3.6,1-7.7,2.3-11.4c-0.6,0.8-1,1.7-1.4,2.6c-1.6,3.8-1.1,8.3-2.5,12.1l-0.1,0.2
					C587.3,158.1,587.9,156.9,588.4,155.7z"/>
				<path d="M694.7,247.8c-7.4,3.4-15.4,6.6-23.5,6.2c-8.2-0.4-16.8-5.7-18.1-13.8c-0.5-2.8-0.5-6.1-2.8-7.6
					c-1.5-0.9-3.3-0.7-4.9-1.3c-2.2-0.9-3.3-3.4-4.1-5.8c-1.5-4.8-2.3-9.9-2.4-14.9c-0.1-6,0.7-12.6-2.7-17.5
					c-3.2-4.6-8.7-6.9-12.4-11.1c-3.4-3.9-7-8.6-12.5-9.3c-7.5-1-23.3,9.3-27.7-1.7c-0.7-2-0.7-4.4,0.3-6.3
					c-0.3,0.6-0.7,1.1-0.9,1.7c-1.3,2.5-2,5.5-1,8c4.5,11,20.2,0.7,27.7,1.7c5.5,0.7,9.1,5.5,12.5,9.3c3.6,4.2,9.2,6.5,12.4,11.1
					c3.4,4.9,2.6,11.4,2.7,17.5c0.1,5,0.9,10.1,2.4,14.9c0.7,2.3,1.9,4.8,4.1,5.8c1.6,0.7,3.4,0.5,4.9,1.3c2.4,1.5,2.3,4.8,2.8,7.6
					c1.5,8.1,10,13.3,18.1,13.8s16.1-2.9,23.5-6.1c5.4-2.4,11.4-5.8,13-11.2C703.5,243.5,698.9,245.9,694.7,247.8z"/>
			</g>
			<path opacity="0.1" enable-background="new    " d="M718.4,707.1c0,0,3.2,5.6,14.8,0.7"/>
		</g>
		<g>
			
				<linearGradient id="SVGID_35_" gradientUnits="userSpaceOnUse" x1="575.15" y1="5.7026" x2="846.55" y2="5.7026" gradientTransform="matrix(0.9306 0 0 -0.9306 110.6526 744.4457)">
				<stop  offset="0" style="stop-color:#FFFFFF"/>
				<stop  offset="1" style="stop-color:#16B6FF"/>
			</linearGradient>
			<ellipse opacity="0.3" fill="url(#SVGID_35_)" enable-background="new    " cx="772.1" cy="739.1" rx="126.3" ry="10.3"/>
			
				<linearGradient id="SVGID_36_" gradientUnits="userSpaceOnUse" x1="747.7318" y1="758.5104" x2="747.7318" y2="170.4989" gradientTransform="matrix(0.9306 0 0 0.9306 81.6564 37.092)">
				<stop  offset="0" style="stop-color:#808080;stop-opacity:0.25"/>
				<stop  offset="0.54" style="stop-color:#808080;stop-opacity:0.12"/>
				<stop  offset="1" style="stop-color:#808080;stop-opacity:0.1"/>
			</linearGradient>
			<path fill="url(#SVGID_36_)" d="M859.1,300.3c-19.7-11.4-27.2-14.1-27.2-14.1l-0.4-0.3c-2.1-1.7-3.8-3.8-4.9-6.2
				c0-0.5,0-0.9,0-1.4v0.1c0.3-6,4.6-11.4,8.7-16.2l10.3-12.2c1.2-1.2,2-2.6,2.7-4.2c0.2-0.8,0.3-1.8,0.3-2.6c0-0.4,0-0.7,0-1
				c-0.1-3-0.2-6-0.3-9.1c-0.1-2.6-0.7-6-3.4-6.5c-1.4-0.3-3.2,0.2-3.9-0.9c-0.3-0.5-0.3-1-0.2-1.6v0.1V224c0.6-2,0.8-4.1,0.9-6.2
				c0.1-1-0.1-2.1-0.5-3.2c-1.5-4.4-6.8-6.1-11.4-7c-4.7-0.8-9.9-1.5-12.8-5.2c-0.7-1.2-1.7-2.4-2.5-3.5c-1.3-1.2-3-2-4.7-2.3
				c-5.8-1.4-11.9-0.9-17.3,1.5c-2.2,1-4.5,2.3-7,2.2s-4.7-2-7.3-2.3c-4.1-0.7-8,2.3-10.1,5.9c-1.2,2.1-1.9,4.5-1.9,6.9v0.4l0,0
				c-0.1,2.6,0.9,5.1,2.7,7.1c1.8,1.9,4.4,3.1,5.1,5.5c0.3,0.9,0.2,2,0.5,3.1c0,0.1,0.1,0.3,0.1,0.4l-0.1,0.2
				c-4.2,5.4-6.5,12.1-6.5,18.9c0.1,13.7,9,25.7,22.1,29.8c0,0.3,0,0.7,0,0.9c0,3.7-1.1,7.6-4.3,10.4l-27.9,11.2
				c0,0-16.8-2-22.9,22.6c-0.9,4.1-1.3,8.3-1,12.5c0.2,3.7-0.3,10.2-4.7,18.7c-6.9,13.5-5.3,44.6,8.7,47.6
				c13.3,2.9,18.5,1.7,19.1,1.6v0.6c-0.2,5.9-2.3,56-10,62.1c-2.1,1.7-1.8,2.8,0,3.5c0,0,0,0.3,0,0.9c-0.2,3.7-1.4,17.7-6.5,25.6
				c-6,9.2-5.3,62.3-5.3,62.3l-4.1,31.4c0,0,2.5,19.4,0,22.7c-2.2,3-5.2,74.5-5.9,90.1h-0.3c-2.5,0.2-4.7,1.6-6,3.7
				c-3.3,5.4-14.8,15.3-14.8,15.3c-2.5,3.5-11.7,7-16.7,8.6c-0.7,0.2-1.3,0.5-1.9,0.8c-1.9,1-3.3,2.5-4.2,4.5
				c-0.7,1.1-0.8,2.5-0.5,3.7c1.2,3.1,27.3,5.2,33.9,2.1c5.2-2.4,25.7-5.6,34.2-6.8c3.2-0.4,5.7-2.9,6-6c0.2-1.1-0.1-2.1-0.7-3.1
				l0,0c-1.7-2-2.4-7.5-2.8-11.2c0.7-0.3,1.3-0.7,2-1.1c-0.7-11.2,0.8-22.3,4.7-32.8c6.2-16.6,8.2-47.3,6.6-67.3
				c0,0,19.1-82.3,34.2-90l0,0c0.2,0.3,7.5,9.7,8.5,38.7c0.9,29.5,11.6,48.9,11.6,48.9s-4.7,50.1,0,68.8l-6.1,29.6
				c-0.5-0.4-0.7-0.7-0.7-0.7s0.2,0.8,0.5,2.1l-0.1,0.7l0.3,0.1c0.7,3.7,1.8,10.1,1.3,14c-0.3,2.1-0.8,5.1-1.2,8
				c-0.7,4.6-0.8,8.9,1.6,10c3.9,1.6,27,3.7,30.9-1.3c1.8-2.1,2.2-5,1.1-7.6c-0.3-0.7-0.7-1.4-1.1-2c0,0-6.1-10.1-4.4-17
				c0.3-1.4,0.1-2.9-0.7-4c0.3-3.4,1.7-19.4,5.3-33.1c3.9-14.8,12.2-47.2,6.1-68.5l0,0c-0.2-0.8-0.5-1.7-0.7-2.4
				c-3.5-11.6-4.7-23.8-3.4-35.9c-2.2-10.3-2.2-21,0-31.4c3.7-17.2,6.4-34.1,6.4-34.1s2-22.7,0.3-36.7c0-0.3-0.1-0.6-0.1-0.9l1-0.2
				c0,0-5.3-23.6-7.3-38.7c-0.5-3.5-1-8-1.7-12.8c1.8-0.3,3.4-0.7,5.1-1.3c16.9-5.9,22.2-58.6,22.2-58.6v-16.8
				C873.2,337.4,878.9,311.6,859.1,300.3z M733.1,708.2c-0.6-0.3-0.8-0.5-0.8-0.5l0,0L733.1,708.2z"/>
			
				<linearGradient id="SVGID_37_" gradientUnits="userSpaceOnUse" x1="729.5866" y1="33.9271" x2="729.5866" y2="310.8692" gradientTransform="matrix(0.9306 0 0 -0.9306 110.6526 744.4457)">
				<stop  offset="0" style="stop-color:#A4489A"/>
				<stop  offset="1" style="stop-color:#3C55A3"/>
			</linearGradient>
			<path fill="url(#SVGID_37_)" d="M848.9,605.1c7.4,21.1-1.2,55.4-5.2,70.7c-4,15.4-5.2,33.7-5.2,33.7c-15.6,2.4-26.9-0.7-26.9-0.7
				l6.4-31.5c-4.6-18.7,0-68.6,0-68.6s-10.4-19.3-11.4-48.7c-0.9-28.9-8-38.2-8.3-38.5l0,0c-14.7,7.6-33.3,89.7-33.3,89.7
				c1.5,19.9-0.3,50.5-6.4,67c-3.7,10.5-5.3,21.6-4.6,32.8c-2.1,1.9-5.1,2.1-8.4,1.6c-8.7-1.4-19.3-8.9-19.3-8.9s3.3-89.3,5.8-92.7
				s0-22.6,0-22.6l4-31.2c0,0-0.7-52.9,5.2-62.2c5-7.9,6.1-21.9,6.4-25.5c0-0.6,0-0.9,0-0.9l8.8-10.6c0,0,85.7-6.4,92.1,0
				c1.6,1.6,2.5,5.1,3.2,9.7c1.8,13.9-0.3,36.5-0.3,36.5s-2.6,16.8-6.2,34c-2.2,10.3-2.2,20.9,0,31.2
				C844.4,581.3,845.5,593.5,848.9,605.1z"/>
			<path fill="#A27772" d="M843.6,739.3c-3.8,5-26.3,2.9-30.2,1.3c-2.3-0.9-2.1-5.4-1.5-9.9c0.4-2.9,1-5.8,1.2-7.9
				c0.7-5.5-1.9-16.7-1.9-16.7s5,5.4,6.2,0c0.6-2.3,2.4-3.5,4.4-4.2c2.6-0.8,5.4-0.7,7.9,0.5c4,1.8,10.6,5.4,9.4,10.4
				c-1.7,7,4.3,17,4.3,17c0.5,0.6,0.8,1.2,1.1,2C845.7,734.3,845.4,737.2,843.6,739.3z"/>
			<path opacity="0.1" enable-background="new    " d="M843.6,739.3c-3.8,5-26.3,2.9-30.2,1.3c-2.3-0.9-2.1-5.4-1.5-9.9
				c2.4,1.1,6.5,2,13.4,1.4c1.6-0.2,3.2-0.2,4.8-0.2c4.8,0.2,9.8,0.1,14.6-0.3C845.7,734.3,845.4,737.2,843.6,739.3z"/>
			
				<linearGradient id="SVGID_38_" gradientUnits="userSpaceOnUse" x1="710.7499" y1="34.0271" x2="710.7499" y2="245.9025" gradientTransform="matrix(0.9306 0 0 -0.9306 110.6526 744.4457)">
				<stop  offset="0" style="stop-color:#A4489A"/>
				<stop  offset="1" style="stop-color:#3C55A3"/>
			</linearGradient>
			<path fill="url(#SVGID_38_)" d="M765.1,611.2c1.5,19.9-0.3,50.5-6.4,67c-3.7,10.5-5.3,21.6-4.6,32.8c-2.1,1.9-5.1,2.1-8.4,1.6
				c1.9-12.9,9.7-68.5,14.7-112.4c5.8-50.1,32.6-84.5,32.6-84.5l5.4,5.9C783.8,529.2,765.1,611.2,765.1,611.2z"/>
			<path fill="#FBBEBE" d="M834.4,289.6l-3.7,18.3l-18.3,30.7l-22.5-9.7c0,0-30.7-32.1-11.4-36.8c2.3-0.5,4.5-1.5,6.4-2.9
				c3.8-2.9,4.9-7,5-11.1c-0.2-4.6-1.2-9-3.1-13.1l39.5-12.4c-1.6,5.2-2.5,10.5-2.8,16c-0.3,10.8,3.7,16,7,18.6
				C831.5,288.5,832.9,289.1,834.4,289.6z"/>
			<path opacity="0.1" enable-background="new    " d="M826.1,252.8c-1.6,5.2-2.5,10.5-2.8,16c-0.7,0.8-1.5,1.7-2.3,2.4
				c-8.3,7.9-20.3,10.7-31.2,7.2c-0.2-4.6-1.2-9-3.2-13.1L826.1,252.8z"/>
			<path fill="#FBBEBE" d="M830.7,247.8c0,17.2-14,31.3-31.2,31.3c-17.2,0-31.3-14-31.3-31.2s14-31.3,31.2-31.3l0,0
				c17.1-0.1,31.2,13.8,31.2,30.9C830.7,247.6,830.7,247.7,830.7,247.8z"/>
			<path opacity="0.1" enable-background="new    " d="M834.4,289.6l-3.7,18.3l-18.3,30.7l-22.5-9.7c0,0-30.7-32.1-11.4-36.8
				c2.3-0.5,4.5-1.5,6.4-2.9c-3.4,9.6,10.9,29.5,10.9,29.5c1.7,2.5,5.5,0.9,5.5,0.9c9.3-1.4,26.3-28,29-32.5
				C831.5,288.5,832.9,289.1,834.4,289.6z"/>
			<path opacity="0.1" enable-background="new    " d="M852.1,467.6c-5.4,1.2-35.5,7.9-46.9,6.2c-12.6-1.9-36.9-3.1-36.9-3.1
				s-15.5,0.8-20.3-1.4c0-0.6,0-0.9,0-0.9l8.8-10.6c0,0,85.7-6.4,92.1,0C850.5,459.5,851.5,463,852.1,467.6z"/>
			
				<linearGradient id="SVGID_39_" gradientUnits="userSpaceOnUse" x1="739.9113" y1="490.7925" x2="739.9113" y2="291.6997" gradientTransform="matrix(0.9306 0 0 -0.9306 110.6526 744.4457)">
				<stop  offset="0" style="stop-color:#48B0E3"/>
				<stop  offset="1" style="stop-color:#6FC6AF"/>
			</linearGradient>
			<path fill="url(#SVGID_39_)" d="M795.7,319.9c0,0-16.1-22.3-10-31.1L758.4,300c0,0-16.4-2-22.3,22.5c-0.9,4.1-1.3,8.3-1,12.5
				c0.2,3.7-0.3,10.2-4.5,18.6c-6.7,13.5-5.2,44.4,8.6,47.5c13.8,3.1,18.7,1.5,18.7,1.5s-1.9,56-9.8,62.4s20.3,4.9,20.3,4.9
				s24.4,1.2,36.9,3.1s47.7-6.4,47.7-6.4s-5.2-23.5-7.1-38.5c-1.9-15-6.1-46.9-6.1-46.9l31.2-42.2c0,0,5.5-25.6-13.8-36.9
				c-19.3-11.4-26.5-14.1-26.5-14.1s-19.4,31.5-29.5,33C801.2,320.8,797.4,322.3,795.7,319.9z"/>
			<path opacity="0.1" enable-background="new    " d="M759.9,328.8c0,0-0.3,10.1,1.6,14.1c1.9,3.9,8.6,26.1,8.6,26.1h-15.4
				c0,0,8.3-8.8,7.6-13.1C761.6,351.5,759.9,328.8,759.9,328.8z"/>
			<path fill="#FBBEBE" d="M805.2,405c0,0-33.8-8.3-36.9-15.3c-3.2-7-11.8-22.8-11.8-22.8l3.5-4.8l16.5,12.9
				c0,0,19.5,15.6,28.8,17.1S805.2,405,805.2,405z"/>
			<path opacity="5.000000e-002" enable-background="new    " d="M805.2,405c0,0-33.8-8.3-36.9-15.3c-3.2-7-11.8-22.8-11.8-22.8
				l3.5-4.8l16.5,12.9c0,0,19.5,15.6,28.8,17.1S805.2,405,805.2,405z"/>
			<path fill="#FBBEBE" d="M834.4,365.1v18.3h-3c-14.5,0-28.8,3.7-41.6,10.8l-5.5,3.1l-1.5,0.8l-9.5-21.4l8.8-7.9h0.5
				c2.1,0.2,11.5,1,15.5-0.4c3.8-1.3,8.5-5.4,19.6-2.5c5.5,1.4,10.1,7.5,15.4,5.6L834.4,365.1z"/>
			<path opacity="0.1" enable-background="new    " d="M863.9,331.8l6.1,6.9v16.7c0,0-5.2,52.7-21.7,58.4
				c-16.5,5.8-46.1-3.4-46.1-3.4s-7.6-20.2-4.1-21.4c3.5-1.2,31.5-8.6,31.5-8.6s-0.4-30.9,5.8-40c0,0-4-28.8,9.8-29.4
				C859.1,310.4,863.9,331.8,863.9,331.8z"/>
			
				<linearGradient id="SVGID_40_" gradientUnits="userSpaceOnUse" x1="777.9741" y1="465.7183" x2="777.9741" y2="353.2467" gradientTransform="matrix(0.9306 0 0 -0.9306 110.6526 744.4457)">
				<stop  offset="0" style="stop-color:#48B0E3"/>
				<stop  offset="1" style="stop-color:#6FC6AF"/>
			</linearGradient>
			<path fill="url(#SVGID_40_)" d="M864.8,331.8l6.1,6.9v16.7c0,0-5.2,52.7-21.7,58.4c-16.5,5.8-46.1-3.4-46.1-3.4s-7.6-20.2-4-21.4
				c3.6-1.2,31.5-8.6,31.5-8.6s-0.4-30.9,5.8-40c0,0-4-28.8,9.8-29.4C860,310.4,864.8,331.8,864.8,331.8z"/>
			<path opacity="0.1" enable-background="new    " d="M822.1,261.1c0.3-2,0-4.1-0.7-6c-0.8-1.9-2.9-3.3-4.8-2.8
				c-2.6,0.7-3.7,4-6.3,4.8c-2.1,0.7-4.6-0.8-5.6-2.9c-1-2-1-4.4-1-6.7c0-2.5,0-5.1,0-7.6c0-2.8-0.1-5.8-1.8-8
				c-2.1-2.7-7.2-3.9-10.5-3.8c-2.2,0-4.4,0.9-6,2.4c-1.8,1.5-3.9,2.6-6.3,2.2c-2-0.3-3.8-1.8-4.4-3.8v-0.1
				c10.3-13.8,30-16.6,43.7-6.1c13.8,10.3,16.6,30,6.1,43.7c-1,1.4-2.2,2.7-3.4,3.9C821.6,267.3,821.9,264.2,822.1,261.1z"/>
			<path fill="#7C5C5C" d="M779,231.9c-2-0.3-3.8-1.8-4.4-3.8c-0.3-1-0.2-2-0.5-3c-0.7-2.4-3.3-3.6-5-5.5c-3.4-3.6-3.3-9.7-0.7-14.1
				c2-3.5,5.8-6.5,9.8-5.9c2.5,0.5,4.7,2.2,7.2,2.3s4.7-1.2,6.8-2.2c5.3-2.4,11.3-3,16.9-1.5c1.8,0.4,3.4,1.1,4.7,2.3
				c0.9,1.1,1.7,2.3,2.5,3.5c2.9,3.6,7.9,4.4,12.5,5.2s9.7,2.6,11.2,7c1,2.9,0,6-0.6,9c-0.2,0.7-0.1,1.3,0.1,1.9
				c0.7,1.2,2.5,0.7,3.8,0.9c2.6,0.6,3.3,3.9,3.3,6.5c0.1,3,0.2,6,0.3,9c0.1,1.1,0,2.2-0.3,3.4c-0.6,1.6-1.5,3-2.6,4.2l-10.1,12.1
				c-4.5,5.4-9.2,11.6-8.4,18.6c-2.1,0.9-4.7-0.9-5.3-3.1c-0.7-2.2-0.2-4.7,0.4-6.9c0.8-3.9,1.4-7.9,1.6-12c0.3-2,0-4.1-0.7-6
				c-0.8-1.9-2.9-3.3-4.8-2.8c-2.6,0.7-3.7,4-6.3,4.8c-2.1,0.7-4.6-0.8-5.6-2.9c-1-2-1-4.4-1-6.6V239c0-2.8-0.1-5.8-1.8-8
				c-2.1-2.7-7.2-3.9-10.5-3.8c-2.2,0-4.4,0.9-6,2.4C783.5,231.2,781.4,232.4,779,231.9z"/>
			<path opacity="0.1" enable-background="new    " d="M786,328l9.6,39.4C795.6,367.4,803.2,367.3,786,328z"/>
			<path opacity="0.1" enable-background="new    " d="M818.8,321.4c0,0-12.6,20.6-7.6,41.8l2.3,0.2
				C813.5,363.4,809.3,353.5,818.8,321.4z"/>
			<path opacity="0.1" enable-background="new    " d="M826.7,437.7c0,0,15.4-5.1,16.6,6.7C843.2,444.4,840.3,436.3,826.7,437.7z"/>
			<path opacity="0.1" enable-background="new    " d="M782.2,369.8c0,0-3.1,21.4,2.4,30c0,0-11.2,4.6-26.9,3.7l-1.9-33.7H782.2z"/>
			<path opacity="0.1" enable-background="new    " d="M784.3,397.3l-1.5,0.8l-9.5-21.4l8.8-7.9h0.5l0,0
				C782.6,369.9,780,388.3,784.3,397.3z"/>
			
				<linearGradient id="SVGID_41_" gradientUnits="userSpaceOnUse" x1="704.05" y1="403.6025" x2="704.05" y2="367.2922" gradientTransform="matrix(0.9306 0 0 -0.9306 110.6526 744.4457)">
				<stop  offset="0" style="stop-color:#48B0E3"/>
				<stop  offset="1" style="stop-color:#6FC6AF"/>
			</linearGradient>
			<path fill="url(#SVGID_41_)" d="M782.2,368.9c0,0-3.1,21.4,2.4,30c0,0-11.2,4.6-26.9,3.7L747,368.9H782.2z"/>
			<path fill="#A27772" d="M755.8,726.3c-0.4,3.2-2.8,5.7-6,6c-8.3,1.2-28.3,4.4-33.4,6.8c-6.4,3.1-31.8,0.9-33-2.1
				c-0.4-1.2-0.2-2.6,0.5-3.7c0.8-1.9,2.3-3.4,4.1-4.4c0.6-0.4,1.2-0.6,1.9-0.8c4.7-1.6,13.8-4.9,16.3-8.6c0,0,11.3-9.9,14.5-15.2
				c1.2-2.1,3.4-3.5,5.9-3.6c2.7-0.1,5.7,1.2,6.9,7.1c0,0,14.7,8.4,18.6,1c0,0,0.7,11.3,3.1,14.3l0,0
				C755.7,724.1,755.9,725.2,755.8,726.3z"/>
			<path opacity="0.1" enable-background="new    " d="M755.8,726.3c-0.4,3.2-2.8,5.7-6,6c-8.3,1.2-28.3,4.4-33.4,6.8
				c-6.4,3.1-31.8,0.9-33-2.1c-0.4-1.2-0.2-2.6,0.5-3.7c0.8-1.9,2.3-3.4,4.1-4.4c4.2,2.8,13.3,5.4,33.6,2.3c19.3-3,28.8-6,33.5-8
				l0,0C755.7,724.1,755.9,725.2,755.8,726.3z"/>
			<g opacity="0.1">
				<path d="M839.2,225.8v-0.2c0.5-2.3,1.1-4.7,0.9-7c-0.2,1.9-0.5,3.7-0.9,5.6C839.1,224.8,839.1,225.4,839.2,225.8z"/>
				<path d="M821.4,254.5c0.5,1.1,0.7,2.3,0.7,3.5c0.1-1.7-0.1-3.4-0.7-4.8c-0.8-1.9-2.9-3.3-4.8-2.8c-2.6,0.7-3.7,4-6.3,4.8
					c-2.1,0.7-4.6-0.8-5.6-2.9c-1-2-1-4.4-1-6.7c0-2.6,0-5.1,0-7.6c0-2.8-0.1-5.8-1.8-8c-2.1-2.7-7.2-3.9-10.5-3.8
					c-2.2,0-4.4,0.9-6,2.4c-1.8,1.5-3.9,2.6-6.3,2.2c-2-0.3-3.8-1.8-4.4-3.8c-0.3-1-0.2-2-0.5-3c-0.7-2.4-3.3-3.6-5-5.5
					c-1.6-1.8-2.5-4.1-2.6-6.5c-0.3,2.9,0.7,5.7,2.6,7.8c1.7,1.9,4.3,3.1,5,5.5c0.3,0.9,0.2,2,0.5,3c0.7,2,2.3,3.4,4.4,3.8
					c2.4,0.4,4.5-0.7,6.3-2.2c1.6-1.5,3.7-2.4,6-2.4c3.4-0.1,8.4,1.1,10.5,3.8c1.7,2.2,1.8,5.2,1.8,8c0,2.6,0,5.1,0,7.6
					c0,2.2,0,4.7,1,6.7c1,2,3.4,3.5,5.6,2.9c2.6-0.8,3.7-4.2,6.3-4.8C818.5,251.2,820.5,252.7,821.4,254.5z"/>
				<path d="M846.6,246c-0.6,1.6-1.5,3-2.6,4.2l-10.1,12.1c-4.3,5.1-8.7,11-8.4,17.6c0.3-6,4.5-11.4,8.4-16.2l10.1-12.1
					c1.1-1.2,2-2.6,2.6-4.2c0.3-1.1,0.4-2.2,0.3-3.4C846.8,244.7,846.7,245.4,846.6,246z"/>
				<path d="M820.2,278c-0.2-0.6-0.3-1.1-0.3-1.7c-0.1,1,0,2,0.3,3c0.7,2.2,3.3,4.1,5.3,3.1c-0.1-0.5-0.1-0.9-0.1-1.3
					C823.3,281.9,820.8,280.1,820.2,278z"/>
			</g>
			<path opacity="0.1" enable-background="new    " d="M816.4,708.5c0,0,10,11.8,22.6,3.9"/>
			<path opacity="0.1" enable-background="new    " d="M845.6,569.3c0,0-7.1,4.4-7.3,7s3.6-1.9,3.6-1.9L845.6,569.3z"/>
			<path opacity="0.1" enable-background="new    " d="M848.4,603.2c-2.4,2-5.5,3.3-8.7,3.4c-5.3,0.2-4.8,7.2-1.4,5
				S848.4,603.2,848.4,603.2z"/>
			<path opacity="0.1" enable-background="new    " d="M849.7,607.6c0,0-3.3,16.7-6.1,13.4"/>
		</g>
	</g>
	<path opacity="0.1" enable-background="new    " d="M319.1,696.2c0,0-12.8,3.5-15.4-2"/>
	
		<linearGradient id="SVGID_42_" gradientUnits="userSpaceOnUse" x1="164.8634" y1="257.6228" x2="245.2634" y2="257.6228" gradientTransform="matrix(0.9306 0 0 -0.9306 110.6526 744.4457)">
		<stop  offset="0" style="stop-color:#65449A"/>
		<stop  offset="1" style="stop-color:#290F45"/>
	</linearGradient>
	<ellipse fill="url(#SVGID_42_)" cx="301.5" cy="504.7" rx="37.4" ry="6.3"/>
	
		<linearGradient id="SVGID_43_" gradientUnits="userSpaceOnUse" x1="184.437" y1="275.0027" x2="225.5849" y2="275.0027" gradientTransform="matrix(0.9306 0 0 -0.9306 110.6526 744.4457)">
		<stop  offset="0" style="stop-color:#9ACE87"/>
		<stop  offset="1" style="stop-color:#36B376"/>
	</linearGradient>
	<path fill="url(#SVGID_43_)" d="M285.9,494.3c-1.7-1.4-3-3.3-3.5-5.4c-0.5-2.1,0.5-4.7,2.5-5.5c2.3-0.8,4.7,0.7,6.6,2.3
		c1.9,1.6,4,3.4,6.4,3.1c-2.5-2.3-3.7-5.8-3-9.1c0.1-0.7,0.4-1.3,0.8-1.9c1.3-1.4,3.5-0.7,5.1,0.3c4.8,3.4,6.2,10,6.2,15.9
		c0.5-2.1,0.1-4.4,0.1-6.5c0-2.1,0.7-4.7,2.4-5.8c1.1-0.7,2.4-0.9,3.7-0.9c2.1-0.1,4.6,0.2,6,1.8c1.9,2,1.4,5.3-0.3,7.4
		c-1.6,2.1-4.1,3.5-6.3,5c-1.8,1.1-3.4,2.5-4.5,4.3c-0.1,0.3-0.3,0.5-0.4,0.7h-13.6C291.3,498.6,288.5,496.6,285.9,494.3z"/>
	<g>
		<ellipse opacity="0.1" fill="#6C63FF" enable-background="new    " cx="974.1" cy="687.9" rx="26.9" ry="4.6"/>
		<g>
			<g opacity="0.7">
				
					<linearGradient id="SVGID_44_" gradientUnits="userSpaceOnUse" x1="1013.2747" y1="831.3975" x2="1070.9692" y2="831.3975" gradientTransform="matrix(0.9306 0 0 0.9306 4.3085 -129.3474)">
					<stop  offset="0" style="stop-color:#808080;stop-opacity:0.25"/>
					<stop  offset="0.54" style="stop-color:#808080;stop-opacity:0.12"/>
					<stop  offset="1" style="stop-color:#808080;stop-opacity:0.1"/>
				</linearGradient>
				<path fill="url(#SVGID_44_)" d="M997.9,660.2h-22.7l0.3-2.5c6.4-5.8,10.6-21.1,10.6-21.1c-0.1,0-0.2,0-0.3,0.1
					c-3.7,0.7-6.4,2.3-8.3,4.2l0.8-6.8c11.9-2.5,16.6-18.2,16.6-18.2c-7.5,1.7-12.3,4.3-15.3,6.8l1.2-10c8,2.8,16.3-11.9,16.3-11.9
					l-0.3-0.1l0.2-0.1l-0.3,0.1c-8.8-2-13.6,3.2-15.2,5.3l0.1-1c-0.3,0.7-0.5,1.2-0.7,1.9l0,0l0,0c-0.7,1.7-1.2,3.3-1.8,5l0,0l0,0
					c-0.5,1.4-0.8,2.8-1.3,4.2l0,0c0,0-0.4-8.9-9.8-11.3c0,0,1,19.4,8.5,16.3l0,0c-0.7,2.8-1.2,5.6-1.8,8.2l0,0
					c-0.3,1.7-0.6,3.3-0.8,5v0.1l0,0v0.1l0,0l0,0c-0.2,1.5-0.4,2.9-0.6,4.4c0.2-2.7-0.4-10.5-9.6-17.9c0,0-12.3,21.5,8.7,25.8
					c0.1,0,0.1,0.1,0.1,0.1v-0.1h0.2l0.1-1.1c-0.3,4.7-0.2,9.2,0.1,13.9l0,0c0,0.3,0,0.7,0.1,0.9h-23c-8.7,18.1,4.8,28.1,4.8,28.1
					h37.7C1007.4,669.8,997.9,660.2,997.9,660.2z M973.4,639.6L973.4,639.6L973.4,639.6z"/>
			</g>
			<path opacity="0.6" fill="none" stroke="#535461" stroke-width="3" stroke-miterlimit="10" enable-background="new    " d="
				M973.9,667.1c0,0-6-26.1,7.3-59.6"/>
			
				<linearGradient id="SVGID_45_" gradientUnits="userSpaceOnUse" x1="927.4821" y1="91.5681" x2="927.4821" y2="60.5199" gradientTransform="matrix(0.9306 0 0 -0.9306 110.6526 744.4457)">
				<stop  offset="0" style="stop-color:#A4489A"/>
				<stop  offset="1" style="stop-color:#3C55A3"/>
			</linearGradient>
			<path fill="url(#SVGID_45_)" d="M950.6,659.2h46.2c0,0,9.1,11.6-5,28.8h-36.4C955.4,688.2,942.2,676.2,950.6,659.2z"/>
			
				<linearGradient id="SVGID_46_" gradientUnits="userSpaceOnUse" x1="932.9028" y1="145.5853" x2="951.4642" y2="145.5853" gradientTransform="matrix(0.9306 0 0 -0.9306 110.6526 744.4457)">
				<stop  offset="0" style="stop-color:#5CC4BF"/>
				<stop  offset="1" style="stop-color:#57B962"/>
			</linearGradient>
			<path fill="url(#SVGID_46_)" d="M980.5,609.2c0,0,4.6-8.2,15.5-5.7c0,0-9.1,15.4-17.3,10.4L980.5,609.2z"/>
			
				<linearGradient id="SVGID_47_" gradientUnits="userSpaceOnUse" x1="921.4283" y1="138.9915" x2="931.5966" y2="138.9915" gradientTransform="matrix(0.9306 0 0 -0.9306 110.6526 744.4457)">
				<stop  offset="0" style="stop-color:#5CC4BF"/>
				<stop  offset="1" style="stop-color:#57B962"/>
			</linearGradient>
			<path fill="url(#SVGID_47_)" d="M977.5,617.8c0,0-0.4-8.4-9.5-10.5c0,0,0.9,18.2,8.2,15.3L977.5,617.8z"/>
			
				<linearGradient id="SVGID_48_" gradientUnits="userSpaceOnUse" x1="927.5267" y1="127.0088" x2="949.1017" y2="127.0088" gradientTransform="matrix(0.9306 0 0 -0.9306 110.6526 744.4457)">
				<stop  offset="0" style="stop-color:#5CC4BF"/>
				<stop  offset="1" style="stop-color:#57B962"/>
			</linearGradient>
			<path fill="url(#SVGID_48_)" d="M974.5,630.1c0,0,1.7-8.7,19.3-12.6c0,0-5.6,18.1-20.1,17.4L974.5,630.1z"/>
			
				<linearGradient id="SVGID_49_" gradientUnits="userSpaceOnUse" x1="913.3406" y1="118.2181" x2="926.9913" y2="118.2181" gradientTransform="matrix(0.9306 0 0 -0.9306 110.6526 744.4457)">
				<stop  offset="0" style="stop-color:#5CC4BF"/>
				<stop  offset="1" style="stop-color:#57B962"/>
			</linearGradient>
			<path fill="url(#SVGID_49_)" d="M973.1,640c0,0,1.9-9.1-9.1-17.6c0,0-11.9,20.3,8.7,24.1L973.1,640z"/>
			
				<linearGradient id="SVGID_50_" gradientUnits="userSpaceOnUse" x1="926.4776" y1="103.9181" x2="939.9898" y2="103.9181" gradientTransform="matrix(0.9306 0 0 -0.9306 110.6526 744.4457)">
				<stop  offset="0" style="stop-color:#5CC4BF"/>
				<stop  offset="1" style="stop-color:#57B962"/>
			</linearGradient>
			<path fill="url(#SVGID_50_)" d="M972.9,652.5c0,0-1.3-12.9,12.6-15.4c0,0-5,18.1-12.6,21.3V652.5z"/>
			<path opacity="0.3" fill="none" stroke="#535461" stroke-miterlimit="10" enable-background="new    " d="M978.9,614
				c0,0,11.9-9.1,16.9-10.7"/>
			<path opacity="0.3" fill="none" stroke="#535461" stroke-miterlimit="10" enable-background="new    " d="M973.8,634.9
				c0,0,14.4-15.4,20.1-17.3"/>
			<path opacity="0.3" fill="none" stroke="#535461" stroke-miterlimit="10" enable-background="new    " d="M968.1,607.3
				c0,0,8.7,11.9,8.2,15.1"/>
			<path opacity="0.3" fill="none" stroke="#535461" stroke-miterlimit="10" enable-background="new    " d="M964,622.3
				c0,0,4.7,21.3,8.5,24.2"/>
			<path opacity="0.3" fill="none" stroke="#535461" stroke-miterlimit="10" enable-background="new    " d="M972.8,658.5
				c0,0,7.5-20.8,12.6-21.3"/>
			<g opacity="0.1">
				<path d="M996.9,659.2h-46.2c-0.1,0.2-0.2,0.5-0.3,0.7h44.9c0,0,8.8,11.4-4.6,28.3h1C1005.9,670.9,996.9,659.2,996.9,659.2z"/>
			</g>
		</g>
	</g>
</g>
<g display="none">
	<g display="inline">
		<g>
			<circle fill="#FF2D20" cx="223.3" cy="301.9" r="46.5"/>
		</g>
	</g>
	<path display="inline" fill="#FFFFFF" d="M239.1,292.9L239.1,292.9C239.1,292.8,239.1,292.8,239.1,292.9L239.1,292.9
		c-0.1-0.1-0.1-0.1-0.1-0.2c0,0,0,0-0.1,0c0,0,0,0-0.1,0l0,0l0,0l-6.1-3.5c-0.2-0.1-0.4-0.1-0.5,0l-6.1,3.5l0,0l0,0c0,0,0,0-0.1,0
		c0,0,0,0-0.1,0c0,0,0,0,0,0.1l0,0v0.1l0,0v0.1v6.7l-5.1,3v-13.1v-0.1l0,0v-0.1l0,0c0,0,0,0,0-0.1c0,0,0,0-0.1,0c0,0,0,0-0.1,0l0,0
		l0,0l-6.1-3.5c-0.2-0.1-0.4-0.1-0.5,0l-6.1,3.5l0,0l0,0c0,0,0,0-0.1,0c0,0,0,0-0.1,0c0,0,0,0,0,0.1l0,0v0.1l0,0v0.1v20.9
		c0,0.2,0.1,0.4,0.3,0.5l12.3,7.1h0.1l0,0h0.1h0.1l0,0h0.1l12.3-7.1c0.2-0.1,0.3-0.3,0.3-0.5v-6.7l5.9-3.4c0.2-0.1,0.3-0.3,0.3-0.5
		v-7C239.2,293,239.2,292.9,239.1,292.9z M220.3,310l-5.1-2.9l5.3-3.1l0,0l5.9-3.4l5.1,3l-3.7,2.1L220.3,310z M232,296.8v5.8
		l-2.1-1.2l-3-1.7V294l2.1,1.2L232,296.8z M232.5,290.1l5.1,3l-5.1,3l-5.1-3L232.5,290.1z M216.7,305l-2.1,1.2v-12.8l3-1.7l2.1-1.2
		v12.8L216.7,305z M214.1,286.7l5.1,3l-5.1,3l-5.1-3L214.1,286.7z M208.5,290.5l2.1,1.2l3,1.7v13.7l0,0l0,0c0,0,0,0,0,0.1v0.1l0,0
		c0,0,0,0,0,0.1c0,0,0,0,0,0.1l0,0c0,0,0,0,0,0.1c0,0,0,0,0,0.1l0,0c0,0,0,0,0.1,0c0,0,0,0,0.1,0l0,0l0,0l5.9,3.4v5.9l-11.3-6.4
		L208.5,290.5L208.5,290.5z M232,310.2l-11.3,6.4v-5.9l8.3-4.7l2.9-1.7L232,310.2L232,310.2z M238.1,299.7l-5.1,3v-5.9l3-1.7
		l2.1-1.2V299.7z"/>
</g>
<g display="none">
	<g display="inline">
		<g>
			<circle fill="#42B983" cx="335.1" cy="113.9" r="31.2"/>
		</g>
	</g>
	<g display="inline">
		<path fill="#FFFFFF" d="M341.6,106.4h4.4l-10.9,18.8l-10.9-18.8h8.4l2.6,4.4l2.5-4.4H341.6z"/>
		<path fill="#FFFFFF" d="M324.2,106.4l10.9,18.8l10.9-18.8h-4.4l-6.5,11.3l-6.6-11.3H324.2z"/>
		<path fill="#35495D" d="M328.5,106.4l6.6,11.4l6.5-11.4h-4l-2.5,4.4l-2.6-4.4H328.5z"/>
	</g>
</g>
<g>
	<rect x="-748" y="360.8" fill="#EBEBEB" width="800" height="0.4"/>
	<rect x="-81.2" y="386.6" fill="#EBEBEB" width="53" height="0.4"/>
	<rect x="-232" y="390.9" fill="#EBEBEB" width="13.9" height="0.4"/>
	<rect x="-113.5" y="371.7" fill="#EBEBEB" width="30.7" height="0.4"/>
	<rect x="-664.1" y="374.4" fill="#EBEBEB" width="69.1" height="0.4"/>
	<rect x="-580.7" y="374.4" fill="#EBEBEB" width="10.1" height="0.4"/>
	<rect x="-537.6" y="381.2" fill="#EBEBEB" width="149.9" height="0.4"/>
	<rect x="-461.4" y="-109.2" fill="#E6E6E6" width="370.7" height="246.5"/>
	<rect x="-467.1" y="-109.2" fill="#F5F5F5" width="370.7" height="246.5"/>
	<rect x="-456.8" y="-97.7" fill="#FFFFFF" width="350.1" height="223.4"/>
	<rect x="-456.8" y="-97.6" fill="#E6E6E6" width="4.3" height="223.4"/>
	<rect x="-462.9" y="56.3" fill="#F5F5F5" width="362.2" height="15.5"/>
	<g opacity="0.4">
		<rect x="-478.6" y="-121.4" fill="#E6E6E6" width="35" height="208.5"/>
		<rect x="-443.6" y="-121.4" fill="#F5F5F5" width="17.3" height="191.8"/>
		<rect x="-426.3" y="-121.4" fill="#E6E6E6" width="35" height="208.5"/>
		<rect x="-391.3" y="-121.4" fill="#F5F5F5" width="17.3" height="191.8"/>
		<rect x="-373.9" y="-121.4" fill="#E6E6E6" width="35" height="208.5"/>
		<rect x="-338.9" y="-121.4" fill="#F5F5F5" width="17.3" height="191.8"/>
		<rect x="-321.6" y="-121.4" fill="#E6E6E6" width="35" height="208.5"/>
		<rect x="-286.6" y="-121.4" fill="#F5F5F5" width="17.3" height="191.8"/>
		<rect x="-269.2" y="-121.4" fill="#E6E6E6" width="35" height="208.5"/>
		<rect x="-234.2" y="-121.4" fill="#F5F5F5" width="17.3" height="191.8"/>
		<rect x="-216.9" y="-121.4" fill="#E6E6E6" width="35" height="208.5"/>
		<rect x="-181.9" y="-121.4" fill="#F5F5F5" width="17.3" height="191.8"/>
		<rect x="-164.5" y="-121.4" fill="#E6E6E6" width="35" height="208.5"/>
		<rect x="-129.5" y="-121.4" fill="#F5F5F5" width="17.3" height="191.8"/>
		<rect x="-112.2" y="-121.4" fill="#E6E6E6" width="35" height="208.5"/>
	</g>
	<rect x="-615.5" y="192.2" fill="#EBEBEB" width="82.1" height="168.6"/>
	<polygon fill="#F5F5F5" points="-600,360.8 -615.5,360.8 -615.5,326.5 -583.6,326.5 	"/>
	<rect x="-147.3" y="192.2" fill="#EBEBEB" width="82.1" height="168.6"/>
	<rect x="-615.5" y="192.2" fill="#F5F5F5" width="481.8" height="147.6"/>
	<path fill="#E6E6E6" d="M-149.7,298.1h-142.8c-0.7,0-1.3-0.6-1.3-1.3l0,0v-93.4c0-0.7,0.6-1.3,1.3-1.3l0,0h26.4
		c0.3,0,0.6,0.1,0.8,0.3c3.9,2.9,8.3,5.1,12.9,6.6c5.6,1.8,11.4,2.8,17.2,2.8h28.3c10.8,0.2,21.4-3.1,30.2-9.3
		c0.2-0.2,0.5-0.3,0.8-0.3h26.4c0.7,0,1.3,0.6,1.3,1.3l0,0v93.4C-148.3,297.5-148.9,298.1-149.7,298.1
		C-149.7,298.1-149.7,298.1-149.7,298.1z M-291.2,295.5H-151v-90.8h-24.6c-9.2,6.4-20.1,9.8-31.3,9.6h-28.3c-6.1,0-12.2-1-18.1-2.9
		c-4.7-1.6-9.2-3.8-13.2-6.7h-24.6V295.5z"/>
	<path fill="#E6E6E6" d="M-303.2,298.1H-446c-0.7,0-1.3-0.6-1.3-1.3l0,0v-93.4c0-0.7,0.6-1.3,1.3-1.3l0,0h24.9
		c0.3,0,0.6,0.1,0.8,0.3c3.9,2.9,8.2,5.1,12.8,6.6c5.6,1.8,11.4,2.8,17.2,2.8h28.3c10.8,0.2,21.3-3.1,30.1-9.4
		c0.2-0.2,0.5-0.3,0.8-0.3h27.9c0.7,0,1.3,0.6,1.3,1.3c0,0,0,0,0,0v93.4C-301.9,297.5-302.4,298.1-303.2,298.1
		C-303.2,298.1-303.2,298.1-303.2,298.1z M-444.7,295.5h140.2v-90.8h-26.1c-9.2,6.4-20.1,9.8-31.3,9.6h-28.3c-6.1,0-12.2-1-18.1-2.9
		c-4.7-1.5-9.2-3.8-13.3-6.7h-23.2L-444.7,295.5z"/>
	<path fill="#E6E6E6" d="M-456.7,298.1h-142.8c-0.7,0-1.3-0.6-1.3-1.3l0,0v-93.4c0-0.7,0.6-1.3,1.3-1.3c0,0,0,0,0,0h24.9
		c0.3,0,0.5,0.1,0.8,0.3c3.9,2.9,8.2,5.1,12.8,6.6c5.6,1.8,11.4,2.8,17.3,2.8h28.3c10.8,0.2,21.3-3.1,30.1-9.4
		c0.2-0.2,0.5-0.3,0.8-0.3h27.8c0.7,0,1.3,0.6,1.3,1.3l0,0v93.4C-455.4,297.5-456,298.1-456.7,298.1z M-598.2,295.5H-458v-90.8h-26
		c-9.2,6.4-20.1,9.8-31.3,9.6h-28.3c-6.1,0-12.3-1-18.1-2.9c-4.7-1.5-9.2-3.8-13.3-6.7h-23.2V295.5z"/>
	<polygon fill="#F5F5F5" points="-149.3,360.8 -133.7,360.8 -133.7,326.5 -165.6,326.5 	"/>
	<path fill="#E6E6E6" d="M-517.7,163.9h-12.9c0.1-9,0-31.7-0.9-83.8c-1.6-94.4-4.6-100.2-4.6-100.2l15.3,46.6
		c3.6,11,5.8,22.4,6.3,33.9C-512.8,96.8-519.2,125.8-517.7,163.9z"/>
	<path fill="#E6E6E6" d="M-507.9,12.5c17.3-26.1,51.7-39.8,87-52.6c13.8-5-25,57.5-53.2,85.8c-21.9,22-43.2,21.5-49.5,43.2
		C-524.8,63.7-522.7,35-507.9,12.5z"/>
	<path fill="#E6E6E6" d="M-527.6-4.3c-13.5-30.6-47.7-70.2-86.2-98.1c-15.1-11,22.1,83.2,48.4,121.7c20.4,30,39.5,48.3,42.5,69.7
		C-510,62.2-514.1,26.2-527.6-4.3z"/>
	<path fill="#F0F0F0" d="M-526.4,192.2L-526.4,192.2c15.2,0,27.7-11.9,28.6-27l2.5-25.9h-62.3l2.5,25.9
		C-554.1,180.3-541.5,192.2-526.4,192.2z"/>
	<polygon fill="#F0F0F0" points="-561.5,139.4 -491.2,139.4 -489.2,130.2 -563.6,130.2 	"/>
	<polygon fill="#F0F0F0" points="-558.1,155.2 -494.6,155.2 -492.8,146 -559.9,146 	"/>
	<g id="freepik--Shadow--inject-32">
		<ellipse id="freepik--path--inject-32" fill="#F5F5F5" cx="-348" cy="415" rx="310.2" ry="18.1"/>
	</g>
	<g id="freepik--Table--inject-32">
		<rect x="-596.5" y="258.3" fill="#12C9FE" width="496.9" height="56.3"/>
		<rect x="-206.1" y="258.3" opacity="0.3" enable-background="new    " width="106.6" height="56.3"/>
		<rect x="-596.5" y="314.6" fill="#12C9FE" width="54.9" height="100.4"/>
		<polygon opacity="0.3" enable-background="new    " points="-596.4,314.6 -596.4,320.2 -557.6,331.9 -557.6,415 -541.6,415 
			-541.6,314.6 		"/>
		<rect x="-154.4" y="314.6" fill="#12C9FE" width="54.9" height="100.4"/>
		<rect x="-154.4" y="314.6" opacity="0.2" enable-background="new    " width="54.9" height="100.4"/>
		<polygon opacity="0.3" enable-background="new    " points="-154.4,314.6 -154.4,320.2 -115.5,331.9 -115.5,415 -99.5,415 
			-99.5,314.6 		"/>
		<rect x="-261" y="314.6" fill="#12C9FE" width="54.9" height="100.4"/>
		<polygon opacity="0.3" enable-background="new    " points="-261,314.6 -261,320.2 -222.1,331.9 -222.1,415 -206.1,415 
			-206.1,314.6 		"/>
		<rect x="-489.9" y="314.6" fill="#12C9FE" width="54.9" height="100.4"/>
		<rect x="-489.9" y="314.6" opacity="0.2" enable-background="new    " width="54.9" height="100.4"/>
		<polygon opacity="0.3" enable-background="new    " points="-489.9,314.6 -489.9,320.2 -451,331.9 -451,415 -435,415 -435,314.6 
					"/>
	</g>
	<g id="freepik--Character--inject-32">
		<path fill="#263238" d="M-168,247.3h-303.8c-3.8,0-6.9-3-6.9-6.8c0-0.2,0-0.4,0-0.6l12.5-198.5c0.3-4.1,3.7-7.3,7.8-7.4h303.8
			c3.8,0,6.9,3,6.9,6.8c0,0.2,0,0.4,0,0.6l-12.5,198.5C-160.6,244-163.9,247.2-168,247.3z"/>
		<path opacity="0.6" enable-background="new    " d="M-168,247.3h-303.8c-3.8,0-6.9-3-6.9-6.8c0-0.2,0-0.4,0-0.6l12.5-198.5
			c0.3-4.1,3.7-7.3,7.8-7.4h303.8c3.8,0,6.9,3,6.9,6.8c0,0.2,0,0.4,0,0.6l-12.5,198.5C-160.6,244-163.9,247.2-168,247.3z"/>
		<path fill="#263238" d="M-170.3,247.3h-303.8c-3.8,0-6.9-3-6.9-6.8c0-0.2,0-0.4,0-0.6l12.5-198.5c0.3-4.1,3.7-7.3,7.8-7.4h303.8
			c3.8,0,6.9,3,6.9,6.8c0,0.2,0,0.4,0,0.6l-12.5,198.5C-162.8,244-166.2,247.2-170.3,247.3z"/>
		<path fill="#263238" d="M-170.7,249.8h-361.5c-3.4,0-6.5,1.9-8,4.9c-0.6,1.3-0.1,2.8,1.2,3.4c0.4,0.2,0.7,0.3,1.1,0.2h372.8
			c1.4,0,2.5-1.1,2.6-2.5c0-0.4-0.1-0.8-0.2-1.1C-164.2,251.7-167.3,249.8-170.7,249.8z"/>
		<path opacity="0.6" enable-background="new    " d="M-170.7,249.8h-51.4c-3.4,0-6.4,1.9-7.9,4.9c-0.6,1.3-0.1,2.8,1.2,3.4
			c0.3,0.2,0.7,0.2,1.1,0.2h62.6c1.4,0,2.5-1.1,2.6-2.5c0-0.4-0.1-0.8-0.2-1.1C-164.2,251.7-167.3,249.8-170.7,249.8z"/>
		<path fill="#12C9FE" d="M-202.6,256h-13.3c-0.6,0-1.2-0.5-1.2-1.2l0,0c0-0.6,0.5-1.2,1.2-1.2h13.3c0.6,0,1.2,0.5,1.2,1.2
			c0,0,0,0,0,0l0,0C-201.4,255.5-201.9,256-202.6,256C-202.6,256-202.6,256-202.6,256z"/>
		<path opacity="0.7" fill="#FFFFFF" enable-background="new    " d="M-373.3,256h-13.3c-0.6,0-1.2-0.5-1.2-1.2l0,0l0,0
			c0-0.6,0.5-1.2,1.2-1.2l0,0h13.3c0.6,0,1.2,0.5,1.2,1.2l0,0l0,0C-372.2,255.5-372.7,256-373.3,256L-373.3,256z"/>
		<path fill="#12C9FE" d="M-197.5,253.7h8.7c0.5,0,1,0.4,1,1v0.4c0,0.5-0.4,1-1,1h-8.7c-0.5,0-1-0.4-1-1v-0.4
			C-198.5,254.1-198,253.7-197.5,253.7z"/>
		<path fill="#FFFFFF" d="M-474.1,232.7l11.6-184.2c0.1-1.6,1.4-2.8,3-2.8h300c1.5,0,2.7,1.1,2.7,2.6c0,0.1,0,0.2,0,0.2l-11.6,184.2
			c-0.1,1.6-1.5,2.8-3.1,2.8h-300c-1.5,0-2.7-1.2-2.7-2.7C-474.2,232.9-474.1,232.8-474.1,232.7z"/>
		<path opacity="0.1" fill="#12C9FE" enable-background="new    " d="M-303.5,40l-99.9,189.9h-73.7c-1.5,0-2.7-1.1-2.7-2.6
			c0-0.1,0-0.2,0-0.2l11.6-184.2c0.1-1.6,1.4-2.8,3-2.9L-303.5,40z"/>
		<polygon opacity="0.1" fill="#12C9FE" enable-background="new    " points="-216,40 -315.9,229.9 -339.2,229.9 -239.3,40 		"/>
		<path opacity="0.1" fill="#12C9FE" enable-background="new    " d="M-162.5,42.9l-11.6,184.2c-0.1,1.6-1.4,2.8-3,2.9h-113.6
			L-190.8,40h25.6c1.5,0,2.7,1.1,2.7,2.6C-162.5,42.7-162.5,42.8-162.5,42.9z"/>
		<path opacity="0.4" fill="#FFFFFF" enable-background="new    " d="M-307,40.2c-0.1,1.2-1.1,2.1-2.3,2.2c-1.1,0-2-0.9-2-2
			c0-0.1,0-0.1,0-0.2c0.1-1.2,1.1-2.1,2.3-2.2c1.1,0,2,0.9,2,2C-307,40.1-307,40.1-307,40.2z"/>
		<path fill="#263238" d="M-356.6-4c-8.8,10-13.8,40.7-7.3,55.8s-68.7,30.2-6.7,54.8s111.6-3.9,93.7-29.3s1.9-67.8-18.8-78.4
			C-314.5-10.8-339-24.1-356.6-4z"/>
		<path fill="#B65B52" d="M-375.1,119.7c-3.3,11.2-6.8,22.4-10.4,33.6s-7.4,22.3-11.4,33.4l-1.5,4.2l-0.8,2.1l-0.2,0.6l-0.4,0.9
			c-0.2,0.6-0.6,1.3-0.9,1.9c-1.6,2.9-3.9,5.2-6.7,6.8c-2.6,1.4-5.5,2.2-8.4,2.2c-4.1,0-8.2-0.8-12-2.4c-3.1-1.3-6.1-2.8-9-4.5
			c-10.5-6.5-20.1-14.2-28.6-23.1l6.9-8.1c2.3,1.5,4.8,3.1,7.2,4.6c2.4,1.5,4.9,2.9,7.3,4.4c4.8,2.8,9.7,5.3,14.7,7.5
			c2.3,1,4.7,1.9,7.1,2.5c1.7,0.6,3.5,0.8,5.2,0.6c0.4,0,0.4-0.3,0-0.1c-0.4,0.1-0.8,0.6-0.8,0.5c0,0,0,0,0-0.1c0,0,0-0.1,0-0.1
			l0.1-0.4l0.6-2.1l1.2-4.2l9.8-33.6c3.3-11.2,6.8-22.4,10.3-33.6L-375.1,119.7z"/>
		<path fill="#B55B52" d="M-459,167.1l-18.6-6.9l7.4,19.6c0,0,13.1,1.9,18.2-5l-4.1-5.6C-456.9,168.3-457.9,167.5-459,167.1z"/>
		<polygon fill="#B55B52" points="-494,165.9 -486.9,182 -470.1,179.8 -477.5,160.2 		"/>
		<path fill="#12C9FE" d="M-388.7,90.7c-8.5,2.2-14.4,37.2-14.4,37.2l23.4,16c0,0,22.4-35.3,15.9-44.6
			C-370.6,89.4-376.3,87.5-388.7,90.7z"/>
		<path opacity="0.5" fill="#FFFFFF" enable-background="new    " d="M-388.7,90.7c-8.5,2.2-14.4,37.2-14.4,37.2l23.4,16
			c0,0,22.4-35.3,15.9-44.6C-370.6,89.4-376.3,87.5-388.7,90.7z"/>
		<path opacity="0.2" enable-background="new    " d="M-389.4,103.4l18.2,4.2l1.7,17.8c-3.1,6.3-6.5,12.4-10.2,18.4l-14.2-9.6
			C-393.3,125.9-391.8,109-389.4,103.4z"/>
		<path fill="#12C9FE" d="M-388.7,90.7c0,0-9.8,3.5,9.9,124.5h83.8c-1.4-34.1-1.4-55.1,14.8-125.1c-11.7-2.4-23.6-4-35.6-4.7
			c-14.1-0.7-25.6-1.1-38,0C-370.1,86.9-388.7,90.7-388.7,90.7z"/>
		<path opacity="0.5" fill="#FFFFFF" enable-background="new    " d="M-388.7,90.7c0,0-9.8,3.5,9.9,124.5h83.8
			c-1.4-34.1-1.4-55.1,14.8-125.1c-11.7-2.4-23.6-4-35.6-4.7c-14.1-0.7-25.6-1.1-38,0C-370.1,86.9-388.7,90.7-388.7,90.7z"/>
		<path opacity="0.2" enable-background="new    " d="M-299.9,122.6l10.8,9.2c-2.3,12.2-3.9,22.4-4.8,31.5
			C-296,154.2-301.1,129.5-299.9,122.6z"/>
		<path fill="#B55B52" d="M-319.5,42.6c-2.4,12.2-4.8,34.7,3.8,42.8c0,0-8,18.3-29.2,18.3c-21.2,0-8.8-18.3-8.8-18.3
			c13.6-3.2,13.3-13.4,10.9-22.9L-319.5,42.6z"/>
		<path fill="#FAFAFA" d="M-318.5,80.8c-2,4.1-8.5,13.4-26.7,16.7c-0.5,0.1-1,0-1.5-0.3c-3.4-2.4-5.5-7.4-4-13.2
			c0.3-1.1-0.3-2.1-1.4-2.4c-0.4-0.1-0.9-0.1-1.3,0.1c-1.4,0.6-2.7,1.3-4,2.1c-0.3,0.2-0.5,0.4-0.7,0.7c-1.3,2.5-6.7,14.7,9.5,22.3
			c0.3,0.1,0.5,0.2,0.8,0.2c9.6,0.2,26.4-1.7,37-20.8c0.4-0.7,0.3-1.6-0.2-2.2c-1.4-1.6-3.1-2.9-4.9-4c-0.9-0.6-2.1-0.3-2.7,0.6
			C-318.4,80.7-318.4,80.8-318.5,80.8z"/>
		<path fill="#FAFAFA" d="M-314,131.2l-21.6-0.6c-0.9,0-1.6-0.7-1.6-1.6c0-0.1,0-0.1,0-0.2l0.2-2.7c0.1-0.9,0.9-1.6,1.9-1.6
			l21.6,0.6c0.9,0,1.6,0.7,1.6,1.6c0,0.1,0,0.1,0,0.2l-0.2,2.7C-312.3,130.5-313.1,131.2-314,131.2z"/>
		<path opacity="0.2" enable-background="new    " d="M-329.1,50.7l-13.8,11.8c0.6,2.2,1,4.5,1.2,6.8c5.2-0.8,12.4-6.5,12.9-11.9
			C-328.5,55.1-328.6,52.9-329.1,50.7z"/>
		<path fill="#B55B52" d="M-303.4,19.4c-3.9,20.1-5.1,28.7-16.6,37.8c-17.4,13.7-41.3,4.5-43.5-16.3c-2-18.8,4.6-48.5,25.6-54
			c14.9-4,30.2,4.9,34.2,19.8C-302.7,10.8-302.5,15.2-303.4,19.4z"/>
		<path fill="#263238" d="M-314.8,4.5c-2.5,12.6-3.1,29.3,8.4,29.3s20.6-19.6,10.6-35S-313.4-2.9-314.8,4.5z"/>
		<path fill="#263238" d="M-294.9,6.1c0,13.7-17.2,6.9-24.9,1s-8-5.3-22.1-5.3c-14.1,0-17-1-21.2-7.7s-3.8-11.2,5.6-9.8
			s1.5-8.2,8.5-13.5c7-5.3,15.3-4,24.9,8.2C-314.5-8.9-294.9-17.7-294.9,6.1z"/>
		
			<ellipse transform="matrix(-0.9596 -0.2813 0.2813 -0.9596 -611.9609 -17.5265)" fill="#FFFFFF" cx="-307.2" cy="35.2" rx="7.6" ry="11.7"/>
		<path fill="#FFFFFF" d="M-332,52.8c-3.7,0-7.4-0.8-10.8-2.2c-0.3-0.1-0.4-0.5-0.3-0.8c0,0,0,0,0,0c0.1-0.3,0.5-0.4,0.8-0.3
			c6.5,2.8,13.8,2.8,20.4,0.1c6.3-2.6,11.4-7.6,14-14c4.8-13.7,9.7-30.9,4-41.6c-2.3-4.2-6.3-7.2-11-8.2c-0.3-0.1-0.5-0.4-0.4-0.7
			c0.1-0.3,0.4-0.5,0.7-0.4c5,1.1,9.3,4.3,11.8,8.8c5.9,11.1,1,28.5-4,42.5c-2.7,6.7-8,12-14.7,14.7C-324.9,52-328.4,52.7-332,52.8z
			"/>
		<path opacity="0.6" fill="#12C9FE" enable-background="new    " d="M-300.6,37.4c-1.4,4.8-4.7,8.2-7.3,7.4
			c-2.6-0.8-3.6-5.3-2.1-10.2c1.4-4.9,4.7-8.2,7.3-7.4C-300.1,27.9-299.1,32.5-300.6,37.4z"/>
		<path fill="#FFFFFF" d="M-347.4,46.7l6.3,1.2c1.1,0.2,1.8,1.3,1.6,2.4l-0.1,0.4c-0.2,1.1-1.3,1.8-2.4,1.6l-6.3-1.2
			c-1.1-0.2-1.8-1.3-1.6-2.4l0.1-0.4C-349.6,47.2-348.5,46.5-347.4,46.7z"/>
		<path fill="#A02724" d="M-349.3,21.1c0,0-3.7,6.7-7.2,9.8c1.9,2.3,5.7,1.9,5.7,1.9L-349.3,21.1z"/>
		<path fill="#263238" d="M-345.8,41.3h0.1c3.6,0.3,7.2-0.8,10.1-3.1c0.1-0.1,0.1-0.3,0-0.4c-0.1-0.1-0.3-0.1-0.4,0c0,0,0,0,0,0
			c-2.7,2.1-6.1,3.2-9.6,2.9c-0.2,0-0.3,0.1-0.3,0.3c0,0,0,0,0,0C-346,41.1-345.9,41.3-345.8,41.3z"/>
		<path fill="#263238" d="M-327.5,13.2c0.2,0.1,0.4,0.1,0.6,0c0.3-0.2,0.4-0.6,0.2-0.9c-1.6-2.6-4.3-4.3-7.3-4.5
			c-0.3,0-0.6,0.3-0.6,0.6c0,0.3,0.3,0.6,0.6,0.6c2.6,0.2,4.9,1.7,6.3,4C-327.7,13.1-327.6,13.1-327.5,13.2z"/>
		<path fill="#263238" d="M-336.7,21.4c-0.3,1.6-1.4,2.8-2.5,2.7c-1.1-0.2-1.7-1.6-1.4-3.3c0.3-1.7,1.4-2.8,2.5-2.7
			C-337,18.2-336.4,19.7-336.7,21.4z"/>
		<path fill="#263238" d="M-355.3,18.2c-0.3,1.6-1.4,2.8-2.5,2.7s-1.7-1.7-1.4-3.3c0.3-1.6,1.4-2.8,2.5-2.7
			C-355.7,15-355,16.5-355.3,18.2z"/>
		<path fill="#263238" d="M-356.3,15l-3.8-1.8C-360.1,13.2-358.6,16.6-356.3,15z"/>
		<path fill="#263238" d="M-337.6,18.2l-3.8-1.8C-341.4,16.4-339.9,19.8-337.6,18.2z"/>
		<path fill="#263238" d="M-361.6,7c0.2,0.1,0.4,0.1,0.6,0c2-1.7,4.7-2.3,7.2-1.6c0.3,0.1,0.7-0.1,0.8-0.4c0.1-0.3-0.1-0.7-0.4-0.8
			l0,0c-2.9-0.8-6.1-0.2-8.4,1.7c-0.3,0.2-0.3,0.6-0.1,0.8c0,0,0,0,0,0C-361.8,6.9-361.7,7-361.6,7z"/>
		<path fill="#12C9FE" d="M-382,235.6c0,0-0.2-11.5,3.2-20.4h83.8c0,0,7.5,12.2,9.5,20.4H-382z"/>
		<path fill="#12C9FE" d="M-293.8,210.3l0.7,7.5c0.3,0.6-0.4,1.2-1.4,1.2h-84.8c-0.8,0-1.4-0.4-1.4-0.8l-0.8-7.5c0-0.5,0.6-1,1.4-1
			h84.8C-294.7,209.6-294.1,209.8-293.8,210.3z"/>
		<path opacity="0.3" fill="#FAFAFA" enable-background="new    " d="M-293.8,210.3l0.7,7.5c0.3,0.6-0.4,1.2-1.4,1.2h-84.8
			c-0.8,0-1.4-0.4-1.4-0.8l-0.8-7.5c0-0.5,0.6-1,1.4-1h84.8C-294.7,209.6-294.1,209.8-293.8,210.3z"/>
		<path fill="#12C9FE" d="M-305.2,219.8h2.3c0.5,0,0.8-0.2,0.8-0.5l-1.1-9.7c0-0.3-0.4-0.5-0.9-0.5h-2.3c-0.5,0-0.8,0.2-0.8,0.5
			l1.1,9.7C-306,219.5-305.6,219.8-305.2,219.8z"/>
		<path fill="#12C9FE" d="M-372.8,219.8h2.3c0.4,0,0.8-0.2,0.8-0.5l-1.1-9.7c0-0.3-0.4-0.5-0.9-0.5h-2.3c-0.4,0-0.8,0.2-0.8,0.5
			l1.1,9.7C-373.7,219.5-373.3,219.8-372.8,219.8z"/>
		<path fill="#12C9FE" d="M-339,219.8h2.2c0.4,0,0.8-0.2,0.8-0.5l-1.1-9.7c0-0.3-0.4-0.5-0.9-0.5h-2.3c-0.4,0-0.8,0.2-0.8,0.5
			l1.1,9.7C-339.9,219.5-339.5,219.8-339,219.8z"/>
		<path fill="#B65B52" d="M-273,113.8c3.7,11.9,7.2,24,10.6,36l5.1,18l2.5,9l0.6,2.2l0.3,1.1l0.1,0.3l0,0l0,0l-0.3-0.4
			c-0.4-0.6-0.9-1.1-1.5-1.5c-1.3-0.9-2.7-1.4-4.3-1.5c-1.2-0.1-2.3,0.2-3.4,0.7c-1.2,0.6-1,0.8-0.9,0.7c0.3-0.2,0.5-0.5,0.7-0.8
			c0.8-0.9,1.4-1.9,2.1-3c1.4-2.3,2.8-4.9,4.1-7.6c2.7-5.3,5.2-10.9,7.6-16.6c2.5-5.7,4.8-11.4,7.2-17.2s4.7-11.6,7.1-17.3l10.2,3
			c-2.7,12.5-5.8,24.7-9.6,36.9c-1.9,6.1-4,12.2-6.4,18.3c-1.2,3.1-2.6,6.1-4.2,9.3c-0.9,1.7-1.9,3.4-2.9,5c-0.7,1-1.4,2-2.2,2.8
			c-1.3,1.5-2.9,2.7-4.6,3.5c-1.8,0.9-3.7,1.3-5.7,1.2c-2.3-0.1-4.5-0.9-6.4-2.4c-1.2-0.9-2.2-2-3-3.2c-0.5-0.8-1-1.6-1.4-2.5
			c-0.1-0.4-0.3-0.7-0.4-1l-0.3-0.8l-0.4-1.1l-0.8-2.3c-1.1-3-2.2-6-3.2-9c-2-6-4.1-12-6-18c-3.9-12-7.6-24-11-36.1L-273,113.8z"/>
		<path fill="#12C9FE" d="M-280.2,90.1c8.4,2.5,21.2,35.5,21.2,35.5l-32.6,23.3c0,0-14.6-28.2-11.1-39
			C-298.9,98.6-289.8,87.2-280.2,90.1z"/>
		<path opacity="0.5" fill="#FFFFFF" enable-background="new    " d="M-280.2,90.1c8.4,2.5,21.2,35.5,21.2,35.5l-32.6,23.3
			c0,0-14.6-28.2-11.1-39C-298.9,98.6-289.8,87.2-280.2,90.1z"/>
		<path fill="#B55B52" d="M-234.9,120.3l-4.5-19.7l18.6,9.8c0,0,0.2,13.2-7.3,17.4L-234.9,120.3z"/>
		<polygon fill="#B55B52" points="-231.6,85 -219.7,93.4 -220.8,110.4 -239.3,100.6 		"/>
	</g>
	<g id="freepik--Chat--inject-32">
		<path fill="#12C9FE" d="M-564-14.1h129.6c9.9-0.1,18,7.8,18.1,17.7c0,0.5,0,1,0,1.5l-3.6,58.7c-0.8,10.7-9.7,19-20.4,19.2h-15
			l6.1,20.1L-478.6,83h-91.4c-9.9,0.1-18-7.8-18.1-17.7c0-0.5,0-1,0-1.5l3.6-58.7C-583.5-5.6-574.7-13.9-564-14.1z"/>
		<path fill="#FFFFFF" d="M-446.3,16.7h-109.6c-1.9,0-3.4-1.5-3.3-3.4c0-0.1,0-0.2,0-0.3l0,0c0.1-2,1.8-3.6,3.8-3.6h109.6
			c1.9,0,3.4,1.5,3.4,3.4c0,0.1,0,0.2,0,0.2l0,0C-442.5,15.1-444.2,16.7-446.3,16.7z"/>
		<path fill="#FFFFFF" d="M-511.2,38.1h-46c-1.9,0-3.4-1.5-3.4-3.4c0-0.1,0-0.2,0-0.3l0,0c0.1-2,1.8-3.6,3.8-3.6h46
			c1.9,0,3.4,1.5,3.4,3.3c0,0.1,0,0.2,0,0.3l0,0C-507.5,36.5-509.2,38.1-511.2,38.1z"/>
		<path fill="#FFFFFF" d="M-471.8,59.5h-86.7c-1.9,0-3.4-1.5-3.4-3.4c0-0.1,0-0.2,0-0.3l0,0c0.1-2,1.8-3.6,3.8-3.6h86.7
			c1.9,0,3.4,1.5,3.4,3.3c0,0.1,0,0.2,0,0.3l0,0C-468.1,57.9-469.8,59.5-471.8,59.5z"/>
		<path fill="#FFFFFF" d="M-477.4,38.1h-18.1c-1.9,0-3.4-1.5-3.4-3.4c0-0.1,0-0.2,0-0.3l0,0c0.2-2,1.8-3.6,3.8-3.6h18.1
			c1.9,0,3.4,1.5,3.4,3.3c0,0.1,0,0.2,0,0.3l0,0C-473.7,36.5-475.4,38.1-477.4,38.1z"/>
		<path fill="#12C9FE" d="M-383.5-119.5h-70.7c-8.4,0.1-15.2,6.6-15.9,14.9l-2.8,45.7c-0.5,7.7,5.2,14.3,12.9,14.9
			c0.4,0,0.7,0,1.1,0h11.6l-6.7,15.7l24.7-15.7h41c8.4-0.1,15.2-6.6,15.9-14.9l2.8-45.7c0.5-7.7-5.2-14.3-12.9-14.9
			C-382.8-119.5-383.2-119.5-383.5-119.5z"/>
		<g opacity="0.5">
			<path fill="#FAFAFA" d="M-383.5-119.5h-70.7c-8.4,0.1-15.2,6.6-15.9,14.9l-2.8,45.7c-0.5,7.7,5.2,14.3,12.9,14.9
				c0.4,0,0.7,0,1.1,0h11.6l-6.7,15.7l24.7-15.7h41c8.4-0.1,15.2-6.6,15.9-14.9l2.8-45.7c0.5-7.7-5.2-14.3-12.9-14.9
				C-382.8-119.5-383.2-119.5-383.5-119.5z"/>
		</g>
		<path fill="#FFFFFF" d="M-417.6-74.3c-0.5,2.1-2.4,3.5-4.5,3.5h-4.2c0-1.2,0.1-1.9,0.1-2.2c0.1-2.3,0.7-4.6,1.7-6.6
			c1.5-2.3,3.4-4.2,5.7-5.8c1.8-1.3,3.5-2.7,5-4.3c0.8-1,1.3-2.2,1.4-3.5c0.1-1.7-0.6-3.4-1.8-4.6c-1.6-1.3-3.6-2-5.6-1.9
			c-2.1-0.1-4.2,0.6-5.9,2c-1,0.8-1.8,1.8-2.4,3c-0.9,1.7-2.7,2.7-4.6,2.6l0,0c-2.2-0.3-3.8-2.3-3.5-4.5c0.1-0.6,0.3-1.2,0.6-1.7
			c1-1.6,2.2-3.1,3.7-4.3c3.5-2.8,7.8-4.2,12.3-4c5.2,0,9.3,1.4,12.2,4.1c2.8,2.4,4.3,5.9,4,9.6c-0.1,2.1-0.9,4-2,5.7
			c-2.2,2.8-4.8,5.2-7.7,7.3c-1.5,1-2.8,2.3-3.8,3.9C-417.3-75.4-417.5-74.8-417.6-74.3z M-426.7-62.8v-0.5c0.2-2.4,2.2-4.3,4.6-4.3
			h0.6c2.2,0,4,1.7,4.1,3.9c0,0.1,0,0.2,0,0.3v0.5c-0.2,2.4-2.2,4.3-4.6,4.3h-0.5c-2.2,0.1-4.1-1.7-4.1-3.9
			C-426.8-62.5-426.7-62.6-426.7-62.8z"/>
	</g>
</g>
</svg>
