<?xml version="1.0" encoding="utf-8"?>
<!-- Generator: Adobe Illustrator 25.0.1, SVG Export Plug-In . SVG Version: 6.00 Build 0)  -->
<svg version="1.1" id="Layer_1" xmlns="http://www.w3.org/2000/svg" xmlns:xlink="http://www.w3.org/1999/xlink" x="0px" y="0px"
	 viewBox="0 0 1921 1009" style="enable-background:new 0 0 1921 1009;" xml:space="preserve">
<style type="text/css">
	.st0{fill:url(#SVGID_1_);fill-opacity:8.000000e-02;}
	.st1{opacity:0.4;fill-rule:evenodd;clip-rule:evenodd;fill:url(#SVGID_2_);enable-background:new    ;}
	.st2{display:none;opacity:0.6;}
	.st3{display:inline;}
	.st4{clip-path:url(#SVGID_4_);}
	.st5{fill:url(#SVGID_5_);}
	.st6{fill:url(#SVGID_6_);}
	.st7{fill:url(#SVGID_7_);}
	.st8{fill:url(#SVGID_8_);}
	.st9{fill:url(#SVGID_9_);}
	.st10{fill:url(#SVGID_10_);}
	.st11{fill:url(#SVGID_11_);}
	.st12{fill:url(#SVGID_12_);}
	.st13{fill:url(#SVGID_13_);}
	.st14{fill:url(#SVGID_14_);}
	.st15{fill:url(#SVGID_15_);}
	.st16{fill:url(#SVGID_16_);}
	.st17{fill:url(#SVGID_17_);}
	.st18{fill:url(#SVGID_18_);}
	.st19{fill:url(#SVGID_19_);}
	.st20{fill:url(#SVGID_20_);}
	.st21{fill:url(#SVGID_21_);}
	.st22{opacity:0.41;fill:#536BE6;enable-background:new    ;}
	.st23{opacity:0.4;fill:url(#SVGID_22_);enable-background:new    ;}
	.st24{opacity:0.4;fill:#536BE6;enable-background:new    ;}
	.st25{display:none;opacity:0.4887;}
	.st26{fill-rule:evenodd;clip-rule:evenodd;fill:url(#path-6_2_);}
	.st27{opacity:0.3078;fill-rule:evenodd;clip-rule:evenodd;fill:url(#Oval-Copy-7_1_);enable-background:new    ;}
	.st28{opacity:0.4;fill-rule:evenodd;clip-rule:evenodd;fill:url(#Oval-Copy-9_1_);enable-background:new    ;}
	.st29{display:none;opacity:0.28;}
	.st30{clip-path:url(#SVGID_24_);}
	.st31{fill:url(#SVGID_25_);}
	.st32{fill:url(#SVGID_26_);}
	.st33{fill:url(#SVGID_27_);}
	.st34{fill:url(#SVGID_28_);}
	.st35{fill:url(#SVGID_29_);}
	.st36{fill:url(#SVGID_30_);}
	.st37{fill:url(#SVGID_31_);}
	.st38{fill:url(#SVGID_32_);}
	.st39{fill:url(#SVGID_33_);}
	.st40{fill:url(#SVGID_34_);}
	.st41{fill:url(#SVGID_35_);}
	.st42{fill:url(#SVGID_36_);}
	.st43{fill:url(#SVGID_37_);}
	.st44{fill:url(#SVGID_38_);}
	.st45{fill:url(#SVGID_39_);}
	.st46{fill:url(#SVGID_40_);}
	.st47{fill:url(#SVGID_41_);}
	.st48{fill:url(#SVGID_42_);fill-opacity:8.000000e-02;}
</style>
<linearGradient id="SVGID_1_" gradientUnits="userSpaceOnUse" x1="960.5" y1="69" x2="960.5" y2="-219" gradientTransform="matrix(1 0 0 1 0 940)">
	<stop  offset="0" style="stop-color:#16B6FF;stop-opacity:0"/>
	<stop  offset="1" style="stop-color:#16B6FF"/>
</linearGradient>
<path class="st0" d="M1921,1009h-64c-64,0-192.1,0-320.2,0s-256.1,0-384.2,0s-256.1,0-384.2,0s-256.1,0-384.2,0s-256.1,0-320.2,0H0
	V721h64c64,0,192.1,0,320.2,16s256.1,48,384.2,85.3C896.5,860,1024.5,902,1152.6,929s256.1,37,384.2,26.7
	C1664.9,945,1792.9,913,1857,897l64-16V1009z"/>
<linearGradient id="SVGID_2_" gradientUnits="userSpaceOnUse" x1="1483.0389" y1="31.8242" x2="1483.9889" y2="30.8496" gradientTransform="matrix(304 0 0 -304 -449095 10115)">
	<stop  offset="0" style="stop-color:#91D1E8;stop-opacity:0"/>
	<stop  offset="1" style="stop-color:#49CDFF"/>
</linearGradient>
<circle class="st1" cx="1887.6" cy="582.8" r="152"/>
<g class="st2">
	<g class="st3">
		<g>
			<defs>
				<circle id="SVGID_3_" cx="1719.8" cy="863.1" r="59.9"/>
			</defs>
			<clipPath id="SVGID_4_">
				<use xlink:href="#SVGID_3_"  style="overflow:visible;"/>
			</clipPath>
			<g class="st4">
				
					<linearGradient id="SVGID_5_" gradientUnits="userSpaceOnUse" x1="1659.9" y1="-219.8999" x2="1867" y2="-219.8999" gradientTransform="matrix(1 0 0 1 4.587358e-05 939.9999)">
					<stop  offset="0" style="stop-color:#FFBA67"/>
					<stop  offset="1" style="stop-color:#FF635E"/>
				</linearGradient>
				<polygon class="st5" points="1661.5,823.6 1659.9,822 1865.3,616.6 1867,618.2 				"/>
				
					<linearGradient id="SVGID_6_" gradientUnits="userSpaceOnUse" x1="1659.9" y1="-208.5499" x2="1867" y2="-208.5499" gradientTransform="matrix(1 0 0 1 4.587358e-05 939.9999)">
					<stop  offset="0" style="stop-color:#FFBA67"/>
					<stop  offset="1" style="stop-color:#FF635E"/>
				</linearGradient>
				<polygon class="st6" points="1661.5,835 1659.9,833.3 1865.3,627.9 1867,629.5 				"/>
				
					<linearGradient id="SVGID_7_" gradientUnits="userSpaceOnUse" x1="1659.9" y1="-197.2499" x2="1867" y2="-197.2499" gradientTransform="matrix(1 0 0 1 4.587358e-05 939.9999)">
					<stop  offset="0" style="stop-color:#FFBA67"/>
					<stop  offset="1" style="stop-color:#FF635E"/>
				</linearGradient>
				<polygon class="st7" points="1661.5,846.3 1659.9,844.6 1865.3,639.2 1867,640.9 				"/>
				
					<linearGradient id="SVGID_8_" gradientUnits="userSpaceOnUse" x1="1659.9" y1="-185.9499" x2="1867" y2="-185.9499" gradientTransform="matrix(1 0 0 1 4.587358e-05 939.9999)">
					<stop  offset="0" style="stop-color:#FFBA67"/>
					<stop  offset="1" style="stop-color:#FF635E"/>
				</linearGradient>
				<polygon class="st8" points="1661.5,857.6 1659.9,855.9 1865.3,650.5 1867,652.2 				"/>
				
					<linearGradient id="SVGID_9_" gradientUnits="userSpaceOnUse" x1="1659.9" y1="-174.6499" x2="1867" y2="-174.6499" gradientTransform="matrix(1 0 0 1 4.587358e-05 939.9999)">
					<stop  offset="0" style="stop-color:#FFBA67"/>
					<stop  offset="1" style="stop-color:#FF635E"/>
				</linearGradient>
				<polygon class="st9" points="1661.5,868.9 1659.9,867.2 1865.3,661.8 1867,663.5 				"/>
				
					<linearGradient id="SVGID_10_" gradientUnits="userSpaceOnUse" x1="1659.9" y1="-163.3499" x2="1867" y2="-163.3499" gradientTransform="matrix(1 0 0 1 4.587358e-05 939.9999)">
					<stop  offset="0" style="stop-color:#FFBA67"/>
					<stop  offset="1" style="stop-color:#FF635E"/>
				</linearGradient>
				<polygon class="st10" points="1661.5,880.2 1659.9,878.6 1865.3,673.1 1867,674.8 				"/>
				
					<linearGradient id="SVGID_11_" gradientUnits="userSpaceOnUse" x1="1659.9" y1="-151.9999" x2="1867" y2="-151.9999" gradientTransform="matrix(1 0 0 1 4.587358e-05 939.9999)">
					<stop  offset="0" style="stop-color:#FFBA67"/>
					<stop  offset="1" style="stop-color:#FF635E"/>
				</linearGradient>
				<polygon class="st11" points="1661.5,891.5 1659.9,889.9 1865.3,684.5 1867,686.1 				"/>
				
					<linearGradient id="SVGID_12_" gradientUnits="userSpaceOnUse" x1="1659.9" y1="-140.6499" x2="1867" y2="-140.6499" gradientTransform="matrix(1 0 0 1 4.587358e-05 939.9999)">
					<stop  offset="0" style="stop-color:#FFBA67"/>
					<stop  offset="1" style="stop-color:#FF635E"/>
				</linearGradient>
				<polygon class="st12" points="1661.5,902.9 1659.9,901.2 1865.3,695.8 1867,697.5 				"/>
				
					<linearGradient id="SVGID_13_" gradientUnits="userSpaceOnUse" x1="1659.9" y1="-129.3499" x2="1867" y2="-129.3499" gradientTransform="matrix(1 0 0 1 4.587358e-05 939.9999)">
					<stop  offset="0" style="stop-color:#FFBA67"/>
					<stop  offset="1" style="stop-color:#FF635E"/>
				</linearGradient>
				<polygon class="st13" points="1661.5,914.2 1659.9,912.5 1865.3,707.1 1867,708.8 				"/>
				
					<linearGradient id="SVGID_14_" gradientUnits="userSpaceOnUse" x1="1659.9" y1="-118.0499" x2="1867" y2="-118.0499" gradientTransform="matrix(1 0 0 1 4.587358e-05 939.9999)">
					<stop  offset="0" style="stop-color:#FFBA67"/>
					<stop  offset="1" style="stop-color:#FF635E"/>
				</linearGradient>
				<polygon class="st14" points="1661.5,925.5 1659.9,923.8 1865.3,718.4 1867,720.1 				"/>
				
					<linearGradient id="SVGID_15_" gradientUnits="userSpaceOnUse" x1="1659.9" y1="-106.7499" x2="1867" y2="-106.7499" gradientTransform="matrix(1 0 0 1 4.587358e-05 939.9999)">
					<stop  offset="0" style="stop-color:#FFBA67"/>
					<stop  offset="1" style="stop-color:#FF635E"/>
				</linearGradient>
				<polygon class="st15" points="1661.5,936.8 1659.9,935.2 1865.3,729.7 1867,731.4 				"/>
				
					<linearGradient id="SVGID_16_" gradientUnits="userSpaceOnUse" x1="1659.9" y1="-95.3999" x2="1867" y2="-95.3999" gradientTransform="matrix(1 0 0 1 4.587358e-05 939.9999)">
					<stop  offset="0" style="stop-color:#FFBA67"/>
					<stop  offset="1" style="stop-color:#FF635E"/>
				</linearGradient>
				<polygon class="st16" points="1661.5,948.1 1659.9,946.5 1865.3,741.1 1867,742.7 				"/>
				
					<linearGradient id="SVGID_17_" gradientUnits="userSpaceOnUse" x1="1659.9" y1="-84.0499" x2="1867" y2="-84.0499" gradientTransform="matrix(1 0 0 1 4.587358e-05 939.9999)">
					<stop  offset="0" style="stop-color:#FFBA67"/>
					<stop  offset="1" style="stop-color:#FF635E"/>
				</linearGradient>
				<polygon class="st17" points="1661.5,959.5 1659.9,957.8 1865.3,752.4 1867,754 				"/>
				
					<linearGradient id="SVGID_18_" gradientUnits="userSpaceOnUse" x1="1659.9" y1="-72.7499" x2="1867" y2="-72.7499" gradientTransform="matrix(1 0 0 1 4.587358e-05 939.9999)">
					<stop  offset="0" style="stop-color:#FFBA67"/>
					<stop  offset="1" style="stop-color:#FF635E"/>
				</linearGradient>
				<polygon class="st18" points="1661.5,970.8 1659.9,969.1 1865.3,763.7 1867,765.4 				"/>
				
					<linearGradient id="SVGID_19_" gradientUnits="userSpaceOnUse" x1="1659.9" y1="-61.4499" x2="1867" y2="-61.4499" gradientTransform="matrix(1 0 0 1 4.587358e-05 939.9999)">
					<stop  offset="0" style="stop-color:#FFBA67"/>
					<stop  offset="1" style="stop-color:#FF635E"/>
				</linearGradient>
				<polygon class="st19" points="1661.5,982.1 1659.9,980.4 1865.3,775 1867,776.7 				"/>
				
					<linearGradient id="SVGID_20_" gradientUnits="userSpaceOnUse" x1="1659.9" y1="-50.1499" x2="1867" y2="-50.1499" gradientTransform="matrix(1 0 0 1 4.587358e-05 939.9999)">
					<stop  offset="0" style="stop-color:#FFBA67"/>
					<stop  offset="1" style="stop-color:#FF635E"/>
				</linearGradient>
				<polygon class="st20" points="1661.5,993.4 1659.9,991.7 1865.3,786.3 1867,788 				"/>
				
					<linearGradient id="SVGID_21_" gradientUnits="userSpaceOnUse" x1="1659.9" y1="-38.8499" x2="1867" y2="-38.8499" gradientTransform="matrix(1 0 0 1 4.587358e-05 939.9999)">
					<stop  offset="0" style="stop-color:#FFBA67"/>
					<stop  offset="1" style="stop-color:#FF635E"/>
				</linearGradient>
				<polygon class="st21" points="1661.5,1004.7 1659.9,1003.1 1865.3,797.6 1867,799.3 				"/>
			</g>
		</g>
	</g>
</g>
<path class="st22" d="M909.1,212.3c-14.6,0-26.4,11.8-26.4,26.4c0,14.6,11.8,26.4,26.4,26.4s26.4-11.8,26.4-26.4
	C935.5,224.1,923.6,212.3,909.1,212.3z M909.1,251.6c-7.1,0-12.9-5.8-12.9-12.9c0-7.1,5.8-12.9,12.9-12.9c7.1,0,12.9,5.8,12.9,12.9
	C921.9,245.8,916.2,251.6,909.1,251.6z"/>
<linearGradient id="SVGID_22_" gradientUnits="userSpaceOnUse" x1="1339.6188" y1="-251.3686" x2="1326.2456" y2="-382.9889" gradientTransform="matrix(1 0 0 1 0 940)">
	<stop  offset="0" style="stop-color:#FFD531"/>
	<stop  offset="1" style="stop-color:#FF8300"/>
</linearGradient>
<path class="st23" d="M1336.6,657.3l28.7-49.8c2.5-4.2-0.6-9.6-5.5-9.6h-57.5c-4.9,0-8,5.3-5.5,9.6l28.7,49.8
	C1328,661.6,1334.2,661.6,1336.6,657.3z"/>
<path class="st24" d="M1309.9,620.6c-7.7,0-14,6.3-14,14s6.3,14,14,14s14-6.3,14-14C1323.9,626.8,1317.6,620.6,1309.9,620.6z
	 M1309.9,641.4c-3.8,0-6.8-3.1-6.8-6.8s3.1-6.8,6.8-6.8s6.8,3.1,6.8,6.8S1313.7,641.4,1309.9,641.4z"/>
<g id="Oval-Copy-5" class="st25">
	<g class="st3">
		
			<linearGradient id="path-6_2_" gradientUnits="userSpaceOnUse" x1="2000.1077" y1="-569.7908" x2="2000.1077" y2="-568.2722" gradientTransform="matrix(46 0 0 46 -91627 26308)">
			<stop  offset="0" style="stop-color:#EFBB6A"/>
			<stop  offset="1" style="stop-color:#FF8666"/>
		</linearGradient>
		<path id="path-6_1_" class="st26" d="M374.4,97.8c22.1-2.2,40.5,16.2,38.3,38.3c-1.6,16.3-14.8,29.5-31.2,31.2
			c-22.1,2.2-40.5-16.2-38.3-38.3C344.9,112.6,358.1,99.4,374.4,97.8z"/>
	</g>
</g>
<linearGradient id="Oval-Copy-7_1_" gradientUnits="userSpaceOnUse" x1="2005.6523" y1="-565.6132" x2="2007.8907" y2="-566.2397" gradientTransform="matrix(48 0 0 48 -94796 27377)">
	<stop  offset="0" style="stop-color:#C2E998;stop-opacity:0"/>
	<stop  offset="1" style="stop-color:#02CC87"/>
</linearGradient>
<circle id="Oval-Copy-7" class="st27" cx="1530" cy="212.3" r="53.7"/>
<linearGradient id="Oval-Copy-9_1_" gradientUnits="userSpaceOnUse" x1="2022.1586" y1="-556.4095" x2="2023.1967" y2="-556.6693" gradientTransform="matrix(78 0 0 78 -157516 43801)">
	<stop  offset="0" style="stop-color:#91D1E8;stop-opacity:0"/>
	<stop  offset="1" style="stop-color:#49CDFF"/>
</linearGradient>
<circle id="Oval-Copy-9" class="st28" cx="255.2" cy="390.3" r="40.5"/>
<g class="st29">
	<g class="st3">
		<g>
			<g>
				<defs>
					<circle id="SVGID_23_" cx="25.6" cy="126" r="62.7"/>
				</defs>
				<clipPath id="SVGID_24_">
					<use xlink:href="#SVGID_23_"  style="overflow:visible;"/>
				</clipPath>
				<g class="st30">
					
						<linearGradient id="SVGID_25_" gradientUnits="userSpaceOnUse" x1="-89.8" y1="-902.4" x2="127.2" y2="-902.4" gradientTransform="matrix(1 0 0 1 0 940)">
						<stop  offset="0" style="stop-color:#EFBB6A"/>
						<stop  offset="1" style="stop-color:#FF8666"/>
					</linearGradient>
					<polygon class="st31" points="-88,146.1 -89.8,144.3 125.4,-70.9 127.2,-69.1 					"/>
					
						<linearGradient id="SVGID_26_" gradientUnits="userSpaceOnUse" x1="-89.8" y1="-890.55" x2="127.2" y2="-890.55" gradientTransform="matrix(1 0 0 1 0 940)">
						<stop  offset="0" style="stop-color:#EFBB6A"/>
						<stop  offset="1" style="stop-color:#FF8666"/>
					</linearGradient>
					<polygon class="st32" points="-88,157.9 -89.8,156.2 125.4,-59 127.2,-57.3 					"/>
					
						<linearGradient id="SVGID_27_" gradientUnits="userSpaceOnUse" x1="-89.8" y1="-878.7" x2="127.2" y2="-878.7" gradientTransform="matrix(1 0 0 1 0 940)">
						<stop  offset="0" style="stop-color:#EFBB6A"/>
						<stop  offset="1" style="stop-color:#FF8666"/>
					</linearGradient>
					<polygon class="st33" points="-88,169.8 -89.8,168 125.4,-47.2 127.2,-45.4 					"/>
					
						<linearGradient id="SVGID_28_" gradientUnits="userSpaceOnUse" x1="-89.8" y1="-866.85" x2="127.2" y2="-866.85" gradientTransform="matrix(1 0 0 1 0 940)">
						<stop  offset="0" style="stop-color:#EFBB6A"/>
						<stop  offset="1" style="stop-color:#FF8666"/>
					</linearGradient>
					<polygon class="st34" points="-88,181.6 -89.8,179.9 125.4,-35.3 127.2,-33.6 					"/>
					
						<linearGradient id="SVGID_29_" gradientUnits="userSpaceOnUse" x1="-89.8" y1="-854.95" x2="127.2" y2="-854.95" gradientTransform="matrix(1 0 0 1 0 940)">
						<stop  offset="0" style="stop-color:#EFBB6A"/>
						<stop  offset="1" style="stop-color:#FF8666"/>
					</linearGradient>
					<polygon class="st35" points="-88,193.5 -89.8,191.7 125.4,-23.4 127.2,-21.7 					"/>
					
						<linearGradient id="SVGID_30_" gradientUnits="userSpaceOnUse" x1="-89.8" y1="-843.1" x2="127.2" y2="-843.1" gradientTransform="matrix(1 0 0 1 0 940)">
						<stop  offset="0" style="stop-color:#EFBB6A"/>
						<stop  offset="1" style="stop-color:#FF8666"/>
					</linearGradient>
					<polygon class="st36" points="-88,205.4 -89.8,203.6 125.4,-11.6 127.2,-9.8 					"/>
					
						<linearGradient id="SVGID_31_" gradientUnits="userSpaceOnUse" x1="-89.8" y1="-831.25" x2="127.2" y2="-831.25" gradientTransform="matrix(1 0 0 1 0 940)">
						<stop  offset="0" style="stop-color:#EFBB6A"/>
						<stop  offset="1" style="stop-color:#FF8666"/>
					</linearGradient>
					<polygon class="st37" points="-88,217.2 -89.8,215.5 125.4,0.3 127.2,2 					"/>
					
						<linearGradient id="SVGID_32_" gradientUnits="userSpaceOnUse" x1="-89.8" y1="-819.4" x2="127.2" y2="-819.4" gradientTransform="matrix(1 0 0 1 0 940)">
						<stop  offset="0" style="stop-color:#EFBB6A"/>
						<stop  offset="1" style="stop-color:#FF8666"/>
					</linearGradient>
					<polygon class="st38" points="-88,229.1 -89.8,227.3 125.4,12.1 127.2,13.9 					"/>
					
						<linearGradient id="SVGID_33_" gradientUnits="userSpaceOnUse" x1="-89.8" y1="-807.55" x2="127.2" y2="-807.55" gradientTransform="matrix(1 0 0 1 0 940)">
						<stop  offset="0" style="stop-color:#EFBB6A"/>
						<stop  offset="1" style="stop-color:#FF8666"/>
					</linearGradient>
					<polygon class="st39" points="-88,240.9 -89.8,239.2 125.4,24 127.2,25.7 					"/>
					
						<linearGradient id="SVGID_34_" gradientUnits="userSpaceOnUse" x1="-89.8" y1="-795.7" x2="127.2" y2="-795.7" gradientTransform="matrix(1 0 0 1 0 940)">
						<stop  offset="0" style="stop-color:#EFBB6A"/>
						<stop  offset="1" style="stop-color:#FF8666"/>
					</linearGradient>
					<polygon class="st40" points="-88,252.8 -89.8,251 125.4,35.8 127.2,37.6 					"/>
					
						<linearGradient id="SVGID_35_" gradientUnits="userSpaceOnUse" x1="-89.8" y1="-783.85" x2="127.2" y2="-783.85" gradientTransform="matrix(1 0 0 1 0 940)">
						<stop  offset="0" style="stop-color:#EFBB6A"/>
						<stop  offset="1" style="stop-color:#FF8666"/>
					</linearGradient>
					<polygon class="st41" points="-88,264.6 -89.8,262.9 125.4,47.7 127.2,49.4 					"/>
					
						<linearGradient id="SVGID_36_" gradientUnits="userSpaceOnUse" x1="-89.8" y1="-771.95" x2="127.2" y2="-771.95" gradientTransform="matrix(1 0 0 1 0 940)">
						<stop  offset="0" style="stop-color:#EFBB6A"/>
						<stop  offset="1" style="stop-color:#FF8666"/>
					</linearGradient>
					<polygon class="st42" points="-88,276.5 -89.8,274.7 125.4,59.6 127.2,61.3 					"/>
					
						<linearGradient id="SVGID_37_" gradientUnits="userSpaceOnUse" x1="-89.8" y1="-760.1" x2="127.2" y2="-760.1" gradientTransform="matrix(1 0 0 1 0 940)">
						<stop  offset="0" style="stop-color:#EFBB6A"/>
						<stop  offset="1" style="stop-color:#FF8666"/>
					</linearGradient>
					<polygon class="st43" points="-88,288.4 -89.8,286.6 125.4,71.4 127.2,73.2 					"/>
					
						<linearGradient id="SVGID_38_" gradientUnits="userSpaceOnUse" x1="-89.8" y1="-748.25" x2="127.2" y2="-748.25" gradientTransform="matrix(1 0 0 1 0 940)">
						<stop  offset="0" style="stop-color:#EFBB6A"/>
						<stop  offset="1" style="stop-color:#FF8666"/>
					</linearGradient>
					<polygon class="st44" points="-88,300.2 -89.8,298.5 125.4,83.3 127.2,85 					"/>
					
						<linearGradient id="SVGID_39_" gradientUnits="userSpaceOnUse" x1="-89.8" y1="-736.4" x2="127.2" y2="-736.4" gradientTransform="matrix(1 0 0 1 0 940)">
						<stop  offset="0" style="stop-color:#EFBB6A"/>
						<stop  offset="1" style="stop-color:#FF8666"/>
					</linearGradient>
					<polygon class="st45" points="-88,312.1 -89.8,310.3 125.4,95.1 127.2,96.9 					"/>
					
						<linearGradient id="SVGID_40_" gradientUnits="userSpaceOnUse" x1="-89.8" y1="-724.55" x2="127.2" y2="-724.55" gradientTransform="matrix(1 0 0 1 0 940)">
						<stop  offset="0" style="stop-color:#EFBB6A"/>
						<stop  offset="1" style="stop-color:#FF8666"/>
					</linearGradient>
					<polygon class="st46" points="-88,323.9 -89.8,322.2 125.4,107 127.2,108.7 					"/>
					
						<linearGradient id="SVGID_41_" gradientUnits="userSpaceOnUse" x1="-89.8" y1="-712.7" x2="127.2" y2="-712.7" gradientTransform="matrix(1 0 0 1 0 940)">
						<stop  offset="0" style="stop-color:#EFBB6A"/>
						<stop  offset="1" style="stop-color:#FF8666"/>
					</linearGradient>
					<polygon class="st47" points="-88,335.8 -89.8,334 125.4,118.8 127.2,120.6 					"/>
				</g>
			</g>
		</g>
	</g>
</g>
<linearGradient id="SVGID_42_" gradientUnits="userSpaceOnUse" x1="1656.6" y1="979.1" x2="1656.6" y2="1363.1" gradientTransform="matrix(1 0 0 -1 0 1010)">
	<stop  offset="0" style="stop-color:#EF666A;stop-opacity:0"/>
	<stop  offset="1" style="stop-color:#EF666A"/>
</linearGradient>
<path class="st48" d="M696.6-353.1l64,42.7c64,42.7,192,128,320,184.9c128,56.4,256,85.7,384,42.7c128-42.3,256-156.9,384-170.7
	c128-14.3,256,71.1,384,78.1c128,7.6,256-64.4,320-99.5l64-35.6V30.9h-64c-64,0-192,0-320,0s-256,0-384,0s-256,0-384,0s-256,0-384,0
	s-256,0-320,0h-64L696.6-353.1L696.6-353.1z"/>
</svg>
