<?xml version="1.0" encoding="utf-8"?>
<!-- Generator: Adobe Illustrator 25.0.1, SVG Export Plug-In . SVG Version: 6.00 Build 0)  -->
<svg version="1.1" id="_x37_e38527c-c439-4ac8-ab59-5870f5db8019"
	 xmlns="http://www.w3.org/2000/svg" xmlns:xlink="http://www.w3.org/1999/xlink" x="0px" y="0px" viewBox="0 0 938 435.3"
	 style="enable-background:new 0 0 938 435.3;" xml:space="preserve">
<style type="text/css">
	.st0{opacity:0.15;}
	.st1{opacity:0.5;}
	.st2{fill:#7BF3FF;}
	.st3{opacity:0.5;fill:#7BF3FF;enable-background:new    ;}
	.st4{opacity:0.3;fill:#7BF3FF;enable-background:new    ;}
	.st5{fill:#F2F2F2;}
	.st6{fill:#FFFFFF;}
	.st7{fill:#6C63FF;}
	.st8{fill:#CCCCCC;}
	.st9{fill:#2F2E41;}
	.st10{fill:#3F3D56;}
</style>
<g class="st0">
	<g class="st1">
		<path class="st2" d="M749.3,147.2c18.2,0,26.6-9.8,26.6-22.8c0-22.8-18.4-39.2-41.2-39.2c-22.9,0.3-41.2,19.1-40.9,42
			c0.3,22.5,18.4,40.6,40.9,40.9c8.4-0.1,16.6-2.8,23.5-7.7c0.7-0.5,1.1-1.2,1.3-2.1c0.1-0.7-0.1-1.4-0.6-1.9
			c-1.1-0.9-2.7-0.8-3.7,0.3c0,0-0.1,0.1-0.1,0.2c-1.5,2-6,5.3-19.3,5.6c-20.2,0.5-37.1-15.6-37.1-35.8c-0.1-20,16.4-35.8,36.1-36
			c19.8-0.2,35.7,13.7,35.7,33.3c0,12.4-8.6,18.2-19.1,18c-3.3,0.2-4-1.1-3.5-5.7c0.4-3.8,4-19.8,5.3-25.3c0.4-1.7-0.6-3.3-2.3-3.7
			c-0.3-0.1-0.6-0.1-0.8-0.1h-0.2c-1.4,0.2-2.5,1.3-2.7,2.7c-0.1,0.9-0.2,1.8-0.2,2.7c-2-4-6.7-7.1-12.2-7.3
			c-11.7,0.2-21.9,10.9-22.4,26.4c0,10.4,5.5,16.4,15.1,16.4c6.7,0,11.5-4,14.2-7.8C741.5,140.2,741.3,146.8,749.3,147.2z
			 M728.3,142.6c-6,0-9.5-4.4-9.5-11.5c0-12.2,8.2-20,16-20c6.9,0,9.5,4.7,9.8,10.9C744.4,132,738,142.6,728.3,142.6L728.3,142.6z"
			/>
	</g>
	<path class="st2" d="M748.6,146.3c17.4,0,25.4-9.3,25.4-21.8c0-21.8-17.6-37.5-39.4-37.5c-21.9,0-39.6,17.7-39.6,39.6
		c0,21.9,17.7,39.6,39.6,39.6c8.1-0.1,15.9-2.6,22.4-7.3c0.7-0.5,1.1-1.2,1.2-2c0.1-0.7-0.1-1.4-0.6-1.8c-1.1-0.9-2.6-0.7-3.5,0.3
		c0,0-0.1,0.1-0.1,0.1c-1.4,1.9-5.7,5.1-18.5,5.4c-19.3,0.4-35.4-14.9-35.5-34.2c-0.1-19.1,15.6-34.2,34.5-34.4
		c18.9-0.2,34.1,13.1,34.1,31.8c0,11.9-8.3,17.4-18.2,17.2c-3.2,0.2-3.8-1.1-3.4-5.5c0.3-3.7,3.8-18.9,5.1-24.2
		c0.4-1.6-0.6-3.2-2.2-3.6c-0.3-0.1-0.5-0.1-0.8-0.1h-0.2c-1.3,0.2-2.4,1.2-2.6,2.6c-0.1,0.9-0.2,1.7-0.2,2.6
		c-1.9-3.8-6.4-6.8-11.7-7c-11.2,0.2-21,10.4-21.4,25.2c0,10,5.3,15.7,14.4,15.7c6.4,0,11-3.8,13.6-7.4
		C741.2,139.5,741,145.9,748.6,146.3z M728.5,141.9c-5.7,0-9.1-4.2-9.1-11c0-11.7,7.8-19.1,15.3-19.1c6.6,0,9.1,4.4,9.3,10.4
		C744,131.7,737.8,141.9,728.5,141.9L728.5,141.9z"/>
	<g class="st1">
		<path class="st2" d="M822.1,76.3c10.7,0,15.6-5.7,15.6-13.4c0-13.4-10.8-23-24.2-23c-13.4,0-24.3,10.9-24.3,24.3
			s10.9,24.3,24.3,24.3c5,0,9.8-1.6,13.8-4.5c0.4-0.3,0.6-0.7,0.7-1.2c0.1-0.4-0.1-0.8-0.4-1.1c-0.6-0.5-1.6-0.5-2.2,0.2
			c0,0,0,0.1-0.1,0.1c-0.9,1.2-3.5,3.1-11.4,3.3c-11.7,0.3-21.5-8.9-21.8-20.7c0-0.1,0-0.2,0-0.4c0-11.7,9.6-21,21.2-21.2
			c11.6-0.1,21,8.1,21,19.5c0,7.3-5.1,10.7-11.2,10.5c-2,0.1-2.3-0.7-2.1-3.4c0.2-2.2,2.4-11.6,3.1-14.9c0.2-1-0.4-2-1.3-2.2
			c-0.2,0-0.3-0.1-0.5,0h-0.1c-0.8,0.1-1.5,0.8-1.6,1.6c-0.1,0.5-0.1,1.1-0.1,1.6c-1.5-2.6-4.2-4.3-7.2-4.3
			c-6.9,0.1-12.9,6.4-13.2,15.5c0,6.1,3.3,9.6,8.9,9.6c3.4-0.1,6.5-1.8,8.3-4.6C817.5,72.1,817.4,76.1,822.1,76.3z M809.7,73.6
			c-3.5,0-5.6-2.6-5.6-6.8c0-7.2,4.8-11.7,9.3-11.7c4,0,5.6,2.7,5.7,6.4C819.2,67.3,815.4,73.6,809.7,73.6z"/>
	</g>
	<path class="st2" d="M821.6,75.7c10.1,0,14.8-5.4,14.8-12.7c0-12.7-10.3-21.9-23-21.9c-12.8,0-23.1,10.3-23.1,23.1
		s10.3,23.1,23.1,23.1c4.7,0,9.3-1.6,13.1-4.3c0.4-0.3,0.6-0.7,0.7-1.1c0.1-0.4-0.1-0.8-0.4-1.1c-0.6-0.5-1.5-0.5-2,0.1
		c0,0-0.1,0.1-0.1,0.1c-0.8,1.1-3.4,3-10.8,3.1c-11.1,0.3-20.4-8.4-20.7-19.5c0-0.1,0-0.3,0-0.4c0-11.2,9.1-20,20.1-20.1
		c11-0.2,19.9,7.7,19.9,18.6c0,6.9-4.8,10.1-10.6,10c-1.9,0.1-2.2-0.6-2-3.2c0.2-2.2,2.2-11,3-14.1c0.2-0.9-0.3-1.9-1.2-2.1
		c-0.2,0-0.3-0.1-0.5-0.1h-0.1c-0.8,0.1-1.4,0.7-1.5,1.5c-0.1,0.5-0.1,1-0.1,1.5c-1.4-2.5-4-4-6.8-4.1c-6.6,0.1-12.2,6.1-12.5,14.7
		c0,5.8,3.1,9.1,8.4,9.1c3.2-0.1,6.1-1.7,7.9-4.3C817.3,71.7,817.2,75.5,821.6,75.7z M809.9,73.1c-3.3,0-5.3-2.5-5.3-6.4
		c0-6.8,4.6-11.1,8.9-11.1c3.8,0,5.3,2.6,5.4,6.1C818.9,67.2,815.3,73.1,809.9,73.1L809.9,73.1z"/>
	<g class="st1">
		<path class="st2" d="M898.5,127.9c11,0,16.1-5.9,16.1-13.8c0-13.8-11.1-23.7-24.9-23.7c-13.8,0.2-24.9,11.6-24.6,25.5
			c0.2,13.5,11.1,24.4,24.6,24.6c5.1,0,10-1.7,14.2-4.6c0.4-0.3,0.7-0.7,0.8-1.2c0.1-0.4-0.1-0.9-0.4-1.2c-0.7-0.6-1.7-0.5-2.2,0.2
			c0,0,0,0.1-0.1,0.1c-0.9,1.2-3.6,3.2-11.7,3.4c-12.1,0.3-22.1-9.2-22.4-21.2c0-0.1,0-0.3,0-0.4c0-12.1,9.9-21.6,21.8-21.8
			c11.9-0.1,21.6,8.3,21.6,20.1c0,7.5-5.2,11-11.5,10.9c-2,0.1-2.4-0.7-2.2-3.5c0.2-2.3,2.4-11.9,3.2-15.3c0.2-1-0.4-2-1.4-2.2
			c-0.2,0-0.3-0.1-0.5-0.1h-0.1c-0.9,0.1-1.5,0.8-1.6,1.6c-0.1,0.5-0.1,1.1-0.1,1.6c-1.5-2.7-4.3-4.4-7.4-4.4
			c-7.1,0.1-13.3,6.6-13.5,15.9c0,6.3,3.3,9.9,9.1,9.9c3.4-0.1,6.6-1.8,8.6-4.7C893.8,123.6,893.7,127.7,898.5,127.9z M885.8,125.1
			c-3.6,0-5.7-2.7-5.7-7c0-7.4,5-12.1,9.6-12.1c4.2,0,5.7,2.8,5.9,6.6C895.6,118.7,891.7,125.1,885.8,125.1L885.8,125.1z"/>
	</g>
	<path class="st2" d="M897.8,126.9c10.1,0,14.8-5.4,14.8-12.7c0-12.7-10.3-21.9-23-21.9c-12.8,0-23.1,10.3-23.1,23.1
		c0,12.8,10.3,23.1,23.1,23.1c4.7,0,9.3-1.6,13.1-4.3c0.4-0.3,0.6-0.7,0.7-1.1c0.1-0.4-0.1-0.8-0.4-1.1c-0.6-0.5-1.5-0.5-2,0.1
		c0,0-0.1,0.1-0.1,0.1c-0.8,1.1-3.4,3-10.8,3.1c-11.1,0.3-20.4-8.4-20.7-19.5c0-0.1,0-0.3,0-0.4c0-11.2,9.1-20,20.1-20.1
		s19.9,7.7,19.9,18.6c0,6.9-4.8,10.1-10.6,10c-1.9,0.1-2.2-0.6-2-3.2c0.2-2.2,2.2-11,3-14.1c0.2-0.9-0.3-1.9-1.2-2.1
		c-0.2,0-0.3-0.1-0.5-0.1h-0.1c-0.8,0.1-1.4,0.7-1.5,1.5c-0.1,0.5-0.1,1-0.1,1.5c-1.4-2.5-4-4-6.8-4.1c-6.6,0.1-12.2,6.1-12.5,14.7
		c0,5.8,3.1,9.1,8.4,9.1c3.2-0.1,6.1-1.7,7.9-4.3C893.5,123,893.4,126.7,897.8,126.9z M886.1,124.3c-3.3,0-5.3-2.5-5.3-6.4
		c0-6.8,4.6-11.1,8.9-11.1c3.8,0,5.3,2.6,5.4,6.1C895.1,118.4,891.5,124.4,886.1,124.3L886.1,124.3z"/>
	<g class="st1">
		<path class="st2" d="M829.8,202.2c10.5,0,15.3-5.6,15.3-13.2c0-13.2-10.6-22.6-23.8-22.6c-13.2,0-23.9,10.7-23.9,23.9
			c0,13.2,10.7,23.9,23.9,23.9c4.9,0,9.6-1.6,13.5-4.4c0.4-0.3,0.6-0.7,0.7-1.2c0.1-0.4-0.1-0.8-0.4-1.1c-0.6-0.5-1.6-0.4-2.1,0.2
			c0,0,0,0,0,0.1c-0.9,1.1-3.5,3.1-11.1,3.2c-11.5,0.3-21.1-8.8-21.4-20.3c0-0.1,0-0.2,0-0.3c0-11.5,9.4-20.6,20.8-20.8
			c11.4-0.1,20.6,7.9,20.6,19.2c0,7.2-5,10.5-11,10.3c-1.9,0.1-2.3-0.6-2-3.3c0.1-2.2,2.3-11.4,3-14.6c0.2-1-0.4-1.9-1.3-2.1
			c-0.2,0-0.3-0.1-0.5,0H830c-0.8,0.1-1.5,0.7-1.5,1.6c-0.1,0.5-0.1,1-0.1,1.6c-1.4-2.6-4.1-4.2-7-4.2c-6.8,0.1-12.6,6.3-12.9,15.2
			c0,6,3.2,9.4,8.7,9.4c3.3-0.1,6.3-1.7,8.2-4.5C825.3,198.1,825.2,202,829.8,202.2z M817.7,199.5c-3.4,0-5.5-2.6-5.5-6.6
			c0-7,4.7-11.5,9.2-11.5c4,0,5.5,2.7,5.6,6.3C827,193.4,823.3,199.5,817.7,199.5z"/>
	</g>
	<path class="st2" d="M829.5,201.8c10.1,0,14.8-5.4,14.8-12.7c0-12.7-10.3-21.9-23-21.9c-12.8,0-23.1,10.3-23.1,23.1
		c0,12.8,10.3,23.1,23.1,23.1c4.7,0,9.3-1.6,13.1-4.3c0.4-0.3,0.6-0.7,0.7-1.1c0.1-0.4-0.1-0.8-0.4-1.1c-0.6-0.5-1.5-0.5-2,0.1
		c0,0-0.1,0.1-0.1,0.1c-0.8,1.1-3.4,3-10.8,3.1c-11.1,0.3-20.4-8.4-20.7-19.5c0-0.1,0-0.3,0-0.4c0-11.2,9.1-20,20.1-20.1
		s19.9,7.7,19.9,18.6c0,6.9-4.8,10.1-10.6,10c-1.9,0.1-2.2-0.6-2-3.2c0.2-2.2,2.2-11,3-14.1c0.2-0.9-0.3-1.9-1.2-2.1
		c-0.2,0-0.3-0.1-0.5-0.1h-0.1c-0.8,0.1-1.4,0.7-1.5,1.5c-0.1,0.5-0.1,1-0.1,1.5c-1.4-2.5-4-4-6.8-4.1c-6.6,0.1-12.2,6.1-12.5,14.7
		c0,5.8,3.1,9.1,8.4,9.1c3.2-0.1,6.1-1.7,7.9-4.3C825.2,197.9,825.1,201.6,829.5,201.8z M817.8,199.2c-3.3,0-5.3-2.5-5.3-6.4
		c0-6.8,4.6-11.1,8.9-11.1c3.8,0,5.3,2.6,5.4,6.1C826.8,193.3,823.2,199.2,817.8,199.2L817.8,199.2z"/>
	<g class="st1">
		<path class="st2" d="M766.4,221.7c10.9,0,15.9-5.8,15.9-13.7c0-13.7-11-23.5-24.7-23.5c-13.7,0-24.8,11.1-24.8,24.8
			c0,13.7,11.1,24.8,24.8,24.8c5.1,0,10-1.7,14.1-4.6c0.4-0.3,0.7-0.7,0.8-1.2c0.1-0.4-0.1-0.9-0.4-1.1c-0.7-0.6-1.6-0.5-2.2,0.2
			c0,0,0,0.1-0.1,0.1c-0.9,1.2-3.6,3.2-11.6,3.4c-12,0.3-21.9-9.1-22.3-21c0-0.1,0-0.3,0-0.4c0-12,9.8-21.5,21.7-21.6
			s21.4,8.2,21.4,19.9c0,7.4-5.2,10.9-11.4,10.8c-2,0.1-2.4-0.7-2.2-3.5c0.2-2.3,2.4-11.8,3.2-15.2c0.2-1-0.4-2-1.4-2.2
			c-0.2,0-0.3-0.1-0.5-0.1h-0.1c-0.8,0.1-1.5,0.8-1.6,1.6c-0.1,0.5-0.1,1.1-0.1,1.6c-1.5-2.7-4.3-4.3-7.3-4.4
			c-7,0.1-13.2,6.5-13.4,15.8c0,6.2,3.3,9.8,9,9.8c3.5-0.1,6.7-1.8,8.6-4.7C761.8,217.5,761.6,221.5,766.4,221.7z M753.8,219
			c-3.6,0-5.7-2.7-5.7-6.9c0-7.3,4.9-12,9.6-12c4.1,0,5.7,2.8,5.8,6.5C763.5,212.6,759.6,219,753.8,219L753.8,219z"/>
	</g>
	<path class="st2" d="M765.8,220.9c10.1,0,14.8-5.4,14.8-12.7c0-12.7-10.3-21.9-23-21.9c-12.8,0-23.1,10.3-23.1,23.1
		c0,12.8,10.3,23.1,23.1,23.1c4.7,0,9.3-1.6,13.1-4.3c0.4-0.3,0.6-0.7,0.7-1.1c0.1-0.4-0.1-0.8-0.4-1.1c-0.6-0.5-1.5-0.5-2,0.1
		c0,0-0.1,0.1-0.1,0.1c-0.8,1.1-3.4,3-10.8,3.1c-11.1,0.3-20.4-8.4-20.7-19.5c0-0.1,0-0.3,0-0.4c0-11.2,9.1-20,20.1-20.1
		c11-0.2,19.9,7.7,19.9,18.5c0,6.9-4.8,10.1-10.6,10c-1.9,0.1-2.2-0.6-2-3.2c0.2-2.2,2.2-11,3-14.1c0.2-0.9-0.3-1.9-1.2-2.1
		c-0.2,0-0.3-0.1-0.5-0.1h-0.1c-0.8,0.1-1.4,0.7-1.5,1.5c-0.1,0.5-0.1,1-0.1,1.5c-1.4-2.5-4-4-6.8-4.1c-6.6,0.1-12.2,6.1-12.5,14.7
		c0,5.8,3.1,9.1,8.4,9.1c3.2-0.1,6.1-1.7,7.9-4.3C761.5,216.8,761.4,220.6,765.8,220.9z M754.1,218.3c-3.3,0-5.3-2.5-5.3-6.4
		c0-6.8,4.6-11.1,8.9-11.1c3.8,0,5.3,2.6,5.4,6.1C763.1,212.4,759.5,218.3,754.1,218.3L754.1,218.3z"/>
	<g class="st1">
		<path class="st2" d="M766.4,298.6c10.9,0,15.9-5.8,15.9-13.7c0-13.7-11-23.5-24.7-23.5c-13.7,0-24.8,11.1-24.8,24.8
			s11.1,24.8,24.8,24.8c5.1,0,10-1.7,14.1-4.6c0.4-0.3,0.7-0.7,0.8-1.2c0.1-0.4-0.1-0.9-0.4-1.1c-0.7-0.6-1.6-0.5-2.2,0.2
			c0,0,0,0.1-0.1,0.1c-0.9,1.2-3.6,3.2-11.6,3.4c-12,0.3-21.9-9.1-22.3-21c0-0.1,0-0.3,0-0.4c0-12,9.8-21.5,21.7-21.6
			S779,273,779,284.7c0,7.4-5.2,10.9-11.4,10.8c-2,0.1-2.4-0.7-2.2-3.5c0.2-2.3,2.4-11.8,3.2-15.2c0.2-1-0.4-2-1.4-2.2
			c-0.2,0-0.3-0.1-0.5-0.1h-0.1c-0.8,0.1-1.5,0.8-1.6,1.6c-0.1,0.5-0.1,1.1-0.1,1.6c-1.5-2.7-4.3-4.3-7.3-4.4
			c-7,0.1-13.2,6.5-13.4,15.8c0,6.2,3.3,9.8,9,9.8c3.5-0.1,6.7-1.8,8.6-4.7C761.8,294.4,761.6,298.3,766.4,298.6z M753.8,295.8
			c-3.6,0-5.7-2.7-5.7-6.9c0-7.3,4.9-12,9.6-12c4.1,0,5.7,2.8,5.8,6.5C763.5,289.4,759.6,295.8,753.8,295.8z"/>
	</g>
	<path class="st2" d="M765.8,297.7c10.1,0,14.8-5.4,14.8-12.7c0-12.7-10.3-21.9-23-21.9c-12.8,0-23.1,10.3-23.1,23.1
		c0,12.8,10.3,23.1,23.1,23.1c4.7,0,9.3-1.6,13.1-4.3c0.4-0.3,0.6-0.7,0.7-1.1c0.1-0.4-0.1-0.8-0.4-1.1c-0.6-0.5-1.5-0.5-2,0.1
		c0,0-0.1,0.1-0.1,0.1c-0.8,1.1-3.4,3-10.8,3.1c-11.1,0.3-20.4-8.4-20.7-19.5c0-0.1,0-0.3,0-0.4c0-11.2,9.1-20,20.1-20.1
		c11-0.2,19.9,7.7,19.9,18.5c0,6.9-4.8,10.1-10.6,10c-1.9,0.1-2.2-0.6-2-3.2c0.2-2.2,2.2-11,3-14.1c0.2-0.9-0.3-1.9-1.2-2.1
		c-0.2,0-0.3-0.1-0.5-0.1h-0.1c-0.8,0.1-1.4,0.7-1.5,1.5c-0.1,0.5-0.1,1-0.1,1.5c-1.4-2.5-4-4-6.8-4c-6.6,0.1-12.2,6.1-12.5,14.7
		c0,5.8,3.1,9.1,8.4,9.1c3.2-0.1,6.1-1.7,7.9-4.3C761.5,293.8,761.4,297.5,765.8,297.7z M754.1,295.1c-3.3,0-5.3-2.5-5.3-6.4
		c0-6.8,4.6-11.1,8.9-11.1c3.8,0,5.3,2.6,5.4,6.1C763.1,289.2,759.5,295.1,754.1,295.1L754.1,295.1z"/>
	<g class="st1">
		<path class="st2" d="M875.5,340.1c11,0,16.1-5.9,16.1-13.8c0-13.8-11.1-23.7-24.9-23.7c-13.8,0-25,11.2-25,25
			c0,13.8,11.2,25,25,25l0,0c5.1,0,10-1.7,14.2-4.6c0.4-0.3,0.7-0.7,0.8-1.2c0.1-0.4-0.1-0.9-0.4-1.2c-0.7-0.6-1.7-0.5-2.2,0.2
			c0,0,0,0.1-0.1,0.1c-0.9,1.2-3.6,3.2-11.7,3.4c-12.1,0.3-22.1-9.2-22.4-21.3c0-0.1,0-0.2,0-0.3c0-12.1,9.9-21.6,21.8-21.8
			c11.9-0.1,21.6,8.3,21.6,20.1c0,7.5-5.2,11-11.5,10.8c-2,0.1-2.4-0.7-2.2-3.5c0.2-2.3,2.4-11.9,3.2-15.3c0.2-1-0.4-2-1.4-2.2
			c-0.2,0-0.3-0.1-0.5-0.1h-0.1c-0.9,0.1-1.5,0.8-1.6,1.6c-0.1,0.5-0.1,1.1-0.1,1.6c-1.5-2.7-4.3-4.4-7.4-4.4
			c-7.1,0.1-13.3,6.6-13.5,15.9c0,6.3,3.3,9.9,9.1,9.9c3.4-0.1,6.6-1.8,8.6-4.7C870.9,335.8,870.7,339.8,875.5,340.1z M862.8,337.3
			c-3.6,0-5.7-2.7-5.7-7c0-7.4,5-12.1,9.6-12.1c4.2,0,5.7,2.8,5.9,6.6C872.6,330.8,868.7,337.3,862.8,337.3L862.8,337.3z"/>
	</g>
	<path class="st2" d="M874.8,339.1c10.1,0,14.8-5.4,14.8-12.7c0-12.7-10.3-21.9-23-21.9c-12.8,0-23.1,10.3-23.1,23.1
		c0,12.8,10.3,23.1,23.1,23.1c4.7,0,9.3-1.6,13.1-4.3c0.4-0.3,0.6-0.7,0.7-1.1c0.1-0.4-0.1-0.8-0.4-1.1c-0.6-0.5-1.5-0.5-2,0.1
		c0,0-0.1,0.1-0.1,0.1c-0.8,1.1-3.4,3-10.8,3.1c-11.1,0.3-20.4-8.4-20.7-19.5c0-0.1,0-0.3,0-0.4c0-11.2,9.1-20,20.1-20.1
		c11-0.2,19.9,7.7,19.9,18.6c0,6.9-4.8,10.1-10.6,10c-1.9,0.1-2.2-0.6-2-3.2c0.2-2.2,2.2-11,3-14.1c0.2-0.9-0.3-1.9-1.2-2.1
		c-0.2,0-0.3-0.1-0.5-0.1h-0.1c-0.8,0.1-1.4,0.7-1.5,1.5c-0.1,0.5-0.1,1-0.1,1.5c-1.4-2.5-4-4-6.8-4.1c-6.6,0.1-12.2,6.1-12.5,14.7
		c0,5.8,3.1,9.1,8.4,9.1c3.2-0.1,6.1-1.7,7.9-4.3C870.5,335.1,870.4,338.9,874.8,339.1z M863.1,336.5c-3.3,0-5.3-2.5-5.3-6.4
		c0-6.8,4.6-11.1,8.9-11.1c3.8,0,5.3,2.6,5.4,6.1C872.1,330.6,868.5,336.5,863.1,336.5z"/>
	<path class="st3" d="M833.1,266.9c7.2,0,10.6-3.9,10.6-9.1c0-9.1-7.3-15.6-16.4-15.6c-9.1,0.4-16.2,8.2-15.7,17.3
		c0.4,8.5,7.2,15.3,15.7,15.7c3.4,0,6.6-1.1,9.3-3.1c0.3-0.2,0.5-0.5,0.5-0.8c0.1-0.3,0-0.6-0.3-0.8c-0.4-0.4-1.1-0.3-1.5,0.1
		c0,0,0,0-0.1,0.1c-0.6,0.8-2.4,2.2-7.7,2.2c-7.9,0.1-14.4-6.2-14.5-14.1c-0.1-7.9,6.2-14.4,14.1-14.5c7.9-0.1,14.2,5.5,14.2,13.2
		c0,4.9-3.4,7.2-7.6,7.2c-1.3,0.1-1.6-0.4-1.4-2.3c0.1-1.5,1.6-7.9,2.1-10.1c0.2-0.7-0.2-1.3-0.9-1.5c-0.1,0-0.2,0-0.3,0h-0.1
		c-0.6,0.1-1,0.5-1.1,1.1c0,0.4-0.1,0.7-0.1,1.1c-1-1.8-2.8-2.9-4.9-2.9c-4.7,0.1-8.7,4.3-8.9,10.5c0,4.1,2.2,6.5,6,6.5
		c2.3-0.1,4.4-1.2,5.6-3.1C830,264.1,829.9,266.7,833.1,266.9z M824.7,265c-2.4,0-3.8-1.8-3.8-4.6c0-4.9,3.3-7.9,6.4-7.9
		c2.7,0,3.8,1.9,3.9,4.3C831.2,260.8,828.6,265,824.7,265L824.7,265z"/>
	<path class="st3" d="M693.9,294.5c7.2,0,10.6-3.9,10.6-9.1c0-9.1-7.3-15.6-16.4-15.6c-9.1,0.4-16.2,8.2-15.7,17.3
		c0.4,8.5,7.2,15.3,15.7,15.7c3.4,0,6.6-1.1,9.3-3.1c0.3-0.2,0.5-0.5,0.5-0.8c0.1-0.3,0-0.6-0.3-0.8c-0.4-0.4-1.1-0.3-1.5,0.1
		c0,0,0,0-0.1,0.1c-0.6,0.8-2.4,2.2-7.7,2.2c-7.9,0.1-14.4-6.2-14.5-14.1c-0.1-7.9,6.2-14.4,14.1-14.5c7.9-0.1,14.2,5.5,14.2,13.2
		c0,4.9-3.4,7.2-7.6,7.2c-1.3,0.1-1.6-0.4-1.4-2.3c0.1-1.5,1.6-7.9,2.1-10.1c0.2-0.7-0.2-1.3-0.9-1.5c-0.1,0-0.2,0-0.3,0H694
		c-0.6,0.1-1,0.5-1.1,1.1c0,0.4-0.1,0.7-0.1,1.1c-1-1.8-2.8-2.9-4.9-2.9c-4.7,0.1-8.7,4.3-8.9,10.5c0,4.1,2.2,6.5,6,6.5
		c2.3-0.1,4.4-1.2,5.6-3.1C690.7,291.7,690.7,294.3,693.9,294.5z M685.5,292.6c-2.4,0-3.8-1.8-3.8-4.6c0-4.9,3.3-7.9,6.4-7.9
		c2.7,0,3.8,1.9,3.9,4.3C691.9,288.4,689.4,292.6,685.5,292.6L685.5,292.6z"/>
	<path class="st3" d="M676.8,171.6c7.2,0,10.6-3.9,10.6-9.1c0-9.1-7.3-15.6-16.4-15.6c-9.1,0.4-16.2,8.2-15.7,17.3
		c0.4,8.5,7.2,15.3,15.7,15.7c3.4,0,6.6-1.1,9.3-3.1c0.3-0.2,0.5-0.5,0.5-0.8c0.1-0.3,0-0.6-0.3-0.8c-0.4-0.4-1.1-0.3-1.5,0.1
		c0,0,0,0-0.1,0.1c-0.6,0.8-2.4,2.2-7.7,2.2c-7.9,0.1-14.4-6.2-14.5-14.1c-0.1-7.9,6.2-14.4,14.1-14.5c7.9-0.1,14.2,5.5,14.2,13.2
		c0,4.9-3.4,7.2-7.6,7.2c-1.3,0.1-1.6-0.4-1.4-2.3c0.1-1.5,1.6-7.9,2.1-10.1c0.2-0.7-0.2-1.3-0.9-1.5c-0.1,0-0.2,0-0.3,0h-0.1
		c-0.6,0.1-1,0.5-1.1,1.1c0,0.4-0.1,0.7-0.1,1.1c-1-1.8-2.8-2.9-4.9-2.9c-4.7,0.1-8.7,4.3-8.9,10.5c0,4.1,2.2,6.5,6,6.5
		c2.3-0.1,4.4-1.2,5.6-3.1C673.7,168.9,673.6,171.4,676.8,171.6z M668.4,169.8c-2.4,0-3.8-1.8-3.8-4.6c0-4.9,3.3-7.9,6.4-7.9
		c2.7,0,3.8,1.9,3.9,4.3C674.8,165.5,672.3,169.8,668.4,169.8z"/>
	<path class="st3" d="M952.7,175.6c7.2,0,10.6-3.9,10.6-9.1c0-9.1-7.3-15.6-16.4-15.6c-9.1,0.4-16.2,8.2-15.7,17.3
		c0.4,8.5,7.2,15.3,15.7,15.7c3.4,0,6.6-1.1,9.3-3.1c0.3-0.2,0.5-0.5,0.5-0.8c0.1-0.3,0-0.6-0.3-0.8c-0.4-0.4-1.1-0.3-1.5,0.1
		c0,0,0,0-0.1,0.1c-0.6,0.8-2.4,2.2-7.7,2.2c-7.9,0.1-14.4-6.2-14.5-14.1c-0.1-7.9,6.2-14.4,14.1-14.5c7.9-0.1,14.2,5.5,14.2,13.2
		c0,4.9-3.4,7.2-7.6,7.2c-1.3,0.1-1.6-0.4-1.4-2.3c0.1-1.5,1.6-7.9,2.1-10.1c0.2-0.7-0.2-1.3-0.9-1.5c-0.1,0-0.2,0-0.3,0h-0.1
		c-0.6,0.1-1,0.5-1.1,1.1c0,0.4-0.1,0.7-0.1,1.1c-1-1.8-2.8-2.9-4.9-2.9c-4.7,0.1-8.7,4.3-8.9,10.5c0,4.1,2.2,6.5,6,6.5
		c2.3-0.1,4.4-1.2,5.6-3.1C949.6,172.8,949.5,175.4,952.7,175.6z M944.3,173.7c-2.4,0-3.8-1.8-3.8-4.6c0-4.9,3.3-7.9,6.4-7.9
		c2.7,0,3.8,1.9,3.9,4.3C950.7,169.5,948.1,173.7,944.3,173.7L944.3,173.7z"/>
	<path class="st4" d="M690.6,208.1c4.1,0,5.9-2.2,5.9-5.1c0-5.1-4.1-8.8-9.2-8.8c-5.1,0.1-9.1,4.4-9,9.5c0.1,4.9,4.1,8.9,9,9
		c1.9,0,3.7-0.6,5.2-1.7c0.2-0.1,0.3-0.3,0.3-0.5c0-0.2,0-0.3-0.1-0.4c-0.2-0.2-0.6-0.2-0.8,0.1c0,0,0,0,0,0
		c-0.3,0.4-1.3,1.2-4.3,1.3c-4.4,0.2-8.2-3.3-8.3-7.7c-0.2-4.4,3.3-8.2,7.7-8.3c0.1,0,0.3,0,0.4,0c4.4-0.1,8,3.1,8,7.4
		c0,2.8-1.9,4.1-4.3,4c-0.7,0.1-0.9-0.2-0.8-1.3c0.1-0.9,0.9-4.4,1.2-5.6c0.1-0.4-0.2-0.8-0.6-0.8c0,0-0.1,0-0.1,0h-0.1
		c-0.3,0-0.6,0.3-0.6,0.6c0,0.2,0,0.4,0,0.6c-0.6-1-1.6-1.6-2.7-1.6c-2.6,0.1-4.9,2.4-5,5.9c0,2.3,1.2,3.7,3.4,3.7
		c1.3,0,2.5-0.7,3.2-1.7c0,0.9,0.7,1.6,1.6,1.6C690.5,208.1,690.6,208.1,690.6,208.1z M685.9,207c-1.3,0-2.2-1-2.2-2.6
		c0-2.7,1.8-4.4,3.6-4.4c1.5,0,2.2,1,2.2,2.4C689.5,204.7,688.1,207,685.9,207L685.9,207z"/>
	<path class="st4" d="M737.9,246.8c4.1,0,5.9-2.2,5.9-5.1c0-5.1-4.1-8.8-9.2-8.8c-5.1,0.1-9.1,4.4-9,9.5c0.1,4.9,4.1,8.8,9,9
		c1.9,0,3.7-0.6,5.2-1.7c0.2-0.1,0.3-0.3,0.3-0.5c0-0.2,0-0.3-0.1-0.4c-0.2-0.2-0.6-0.2-0.8,0.1c0,0,0,0,0,0
		c-0.3,0.4-1.3,1.2-4.3,1.3c-4.4,0.2-8.2-3.3-8.3-7.7c-0.2-4.4,3.3-8.2,7.7-8.3c0.1,0,0.3,0,0.4,0c4.4-0.1,8,3.1,8,7.4
		c0,2.8-1.9,4.1-4.3,4c-0.7,0.1-0.9-0.2-0.8-1.3c0.1-0.9,0.9-4.4,1.2-5.6c0.1-0.4-0.2-0.8-0.6-0.8c0,0-0.1,0-0.1,0H738
		c-0.3,0-0.6,0.3-0.6,0.6c0,0.2,0,0.4,0,0.6c-0.6-1-1.6-1.6-2.7-1.6c-2.6,0.1-4.9,2.4-5,5.9c0,2.3,1.2,3.7,3.4,3.7
		c1.3,0,2.5-0.7,3.2-1.7c0,0.9,0.7,1.6,1.6,1.6C737.8,246.8,737.9,246.8,737.9,246.8z M733.2,245.8c-1.3,0-2.2-1-2.2-2.6
		c0-2.7,1.8-4.4,3.6-4.4c1.5,0,2.2,1,2.2,2.4C736.8,243.4,735.4,245.8,733.2,245.8L733.2,245.8z"/>
	<path class="st4" d="M879.1,199.5c4.1,0,5.9-2.2,5.9-5.1c0-5.1-4.1-8.8-9.2-8.8c-5.1,0.1-9.1,4.4-9,9.5c0.1,4.9,4.1,8.9,9,9
		c1.9,0,3.7-0.6,5.2-1.7c0.2-0.1,0.3-0.3,0.3-0.5c0-0.2,0-0.3-0.1-0.4c-0.2-0.2-0.6-0.2-0.8,0.1c0,0,0,0,0,0
		c-0.3,0.4-1.3,1.2-4.3,1.3c-4.4,0.2-8.2-3.3-8.3-7.7c-0.2-4.4,3.3-8.2,7.7-8.3c0.1,0,0.3,0,0.4,0c4.4-0.1,8,3.1,8,7.4
		c0,2.8-1.9,4.1-4.3,4c-0.7,0.1-0.9-0.2-0.8-1.3c0.1-0.9,0.9-4.4,1.2-5.6c0.1-0.4-0.2-0.8-0.6-0.8c0,0-0.1,0-0.1,0h-0.1
		c-0.3,0-0.6,0.3-0.6,0.6c0,0.2,0,0.4,0,0.6c-0.6-1-1.6-1.6-2.7-1.6c-2.6,0.1-4.9,2.4-5,5.9c0,2.3,1.2,3.7,3.4,3.7
		c1.3,0,2.5-0.7,3.2-1.7c0,0.9,0.7,1.6,1.6,1.6C879.1,199.5,879.1,199.5,879.1,199.5z M874.4,198.5c-1.3,0-2.2-1-2.2-2.6
		c0-2.7,1.8-4.4,3.6-4.4c1.5,0,2.2,1,2.2,2.4C878.1,196.1,876.6,198.5,874.4,198.5L874.4,198.5z"/>
	<path class="st4" d="M783.9,158.8c4.1,0,5.9-2.2,5.9-5.1c0-5.1-4.1-8.8-9.2-8.8c-5.1,0.1-9.1,4.4-9,9.5c0.1,4.9,4.1,8.9,9,9
		c1.9,0,3.7-0.6,5.2-1.7c0.2-0.1,0.3-0.3,0.3-0.5c0-0.2,0-0.3-0.1-0.4c-0.2-0.2-0.6-0.2-0.8,0.1c0,0,0,0,0,0
		c-0.3,0.4-1.3,1.2-4.3,1.3c-4.4,0.2-8.2-3.3-8.3-7.7c-0.2-4.4,3.3-8.2,7.7-8.3c0.1,0,0.3,0,0.4,0c4.4-0.1,8,3.1,8,7.4
		c0,2.8-1.9,4.1-4.3,4c-0.7,0.1-0.9-0.2-0.8-1.3c0.1-0.9,0.9-4.4,1.2-5.6c0.1-0.4-0.2-0.8-0.6-0.8c0,0-0.1,0-0.1,0H784
		c-0.3,0-0.6,0.3-0.6,0.6c0,0.2,0,0.4,0,0.6c-0.6-1-1.6-1.6-2.7-1.6c-2.6,0.1-4.9,2.4-5,5.9c0,2.3,1.2,3.7,3.4,3.7
		c1.3,0,2.5-0.7,3.2-1.7c0,0.9,0.7,1.6,1.6,1.6C783.8,158.8,783.9,158.8,783.9,158.8z M779.2,157.8c-1.3,0-2.2-1-2.2-2.6
		c0-2.7,1.8-4.4,3.6-4.4c1.5,0,2.2,1,2.2,2.4C782.8,155.4,781.4,157.8,779.2,157.8L779.2,157.8z"/>
	<path class="st3" d="M833.1,127.6c7.2,0,10.6-3.9,10.6-9.1c0-9.1-7.3-15.6-16.4-15.6c-9.1,0.4-16.2,8.2-15.7,17.3
		c0.4,8.5,7.2,15.3,15.7,15.7c3.4,0,6.6-1.1,9.3-3.1c0.3-0.2,0.5-0.5,0.5-0.8c0.1-0.3,0-0.6-0.3-0.8c-0.4-0.4-1.1-0.3-1.5,0.1
		c0,0,0,0-0.1,0.1c-0.6,0.8-2.4,2.2-7.7,2.2c-7.9,0.1-14.4-6.2-14.5-14.1c-0.1-7.9,6.2-14.4,14.1-14.5c7.9-0.1,14.2,5.5,14.2,13.2
		c0,4.9-3.4,7.2-7.6,7.2c-1.3,0.1-1.6-0.4-1.4-2.3c0.1-1.5,1.6-7.9,2.1-10.1c0.2-0.7-0.2-1.3-0.9-1.5c-0.1,0-0.2,0-0.3,0h-0.1
		c-0.6,0.1-1,0.5-1.1,1.1c0,0.4-0.1,0.7-0.1,1.1c-1-1.8-2.8-2.9-4.9-2.9c-4.7,0.1-8.7,4.3-8.9,10.5c0,4.1,2.2,6.5,6,6.5
		c2.3-0.1,4.4-1.2,5.6-3.1C830,124.8,829.9,127.4,833.1,127.6z M824.7,125.8c-2.4,0-3.8-1.8-3.8-4.6c0-4.9,3.3-7.9,6.4-7.9
		c2.7,0,3.8,1.9,3.9,4.3C831.2,121.5,828.6,125.8,824.7,125.8L824.7,125.8z"/>
	<g class="st1">
		<path class="st2" d="M953.7,276.2c22.4,0,32.8-12,32.8-28.1c0-28.1-22.7-48.3-50.8-48.3c-28.1,0-50.8,22.9-50.8,51.1
			s22.7,51.1,50.8,51.1c10.4-0.1,20.5-3.4,28.9-9.5c0.8-0.6,1.4-1.5,1.6-2.5c0.2-0.9-0.1-1.8-0.8-2.3c-1.3-1.1-3.4-1-4.5,0.4
			c-0.1,0.1-0.1,0.1-0.1,0.2c-1.9,2.4-7.4,6.6-23.8,6.9c-24.8,0.6-45.6-19.2-45.7-44.1c-0.1-24.6,20.2-44.1,44.5-44.4s44,16.9,44,41
			c0,15.3-10.6,22.4-23.5,22.1c-4.1,0.3-4.9-1.4-4.4-7.1c0.4-4.7,5-24.3,6.5-31.2c0.5-2-0.8-4.1-2.8-4.6c-0.3-0.1-0.7-0.1-1-0.1
			h-0.3c-1.7,0.2-3.1,1.6-3.3,3.3c-0.1,1.1-0.2,2.2-0.2,3.3c-2.5-4.9-8.2-8.7-15-9c-14.5,0.3-27,13.4-27.6,32.5
			c0,12.8,6.8,20.2,18.6,20.2c8.2,0,14.2-4.9,17.5-9.6C944.1,267.4,943.8,275.6,953.7,276.2z M927.7,270.4
			c-7.4,0-11.7-5.5-11.7-14.2c0-15,10.1-24.6,19.7-24.6c8.5,0,11.7,5.7,12,13.4C947.7,257.3,939.7,270.4,927.7,270.4L927.7,270.4z"
			/>
	</g>
	<path class="st2" d="M953,275.3c21.6,0,31.6-11.6,31.6-27.1c0-27.1-21.9-46.6-49-46.6c-27.1,0-49,22.1-49,49.3s21.9,49.3,49,49.3
		c10-0.1,19.8-3.3,27.9-9.1c0.8-0.6,1.4-1.5,1.5-2.4c0.2-0.8-0.1-1.7-0.8-2.3c-1.3-1.1-3.2-0.9-4.4,0.4c0,0.1-0.1,0.1-0.1,0.2
		c-1.8,2.3-7.2,6.3-23,6.7c-24,0.5-44-18.5-44.1-42.5c-0.1-23.8,19.4-42.6,42.9-42.8s42.4,16.3,42.4,39.5
		c0,14.8-10.3,21.6-22.7,21.3c-4,0.3-4.7-1.3-4.2-6.8c0.4-4.5,4.8-23.5,6.3-30.1c0.5-2-0.7-3.9-2.7-4.4c-0.3-0.1-0.7-0.1-1-0.1h-0.3
		c-1.7,0.2-3,1.5-3.2,3.2c-0.1,1.1-0.2,2.1-0.2,3.2c-2.4-4.7-7.9-8.4-14.5-8.7c-14,0.3-26.1,12.9-26.6,31.4
		c0,12.4,6.6,19.5,17.9,19.5c7.9,0,13.7-4.7,16.9-9.2C943.8,266.8,943.6,274.7,953,275.3z M928,269.7c-7.1,0-11.3-5.3-11.3-13.7
		c0-14.5,9.7-23.7,19-23.7c8.2,0,11.3,5.5,11.6,12.9C947.2,257.1,939.6,269.7,928,269.7z"/>
	<g>
		<path class="st5" d="M44.2,333.9c2.2-1.8,3.5-4.8,3.2-7.6c-0.3-2.8-2.5-5.4-5.3-6c-2.8-0.6-6,1.1-6.8,3.8
			c-0.5-5.3-1-10.7-3.8-15.2c-2.5-4.1-6.9-7-11.7-7.5s-9.8,1.4-12.7,5.2s-3.7,9.2-1.6,13.5c1.5,3.2,4.3,5.5,7.3,7.5
			c9.4,6.1,21.1,8.2,32.2,6.6L44.2,333.9z"/>
		<path class="st6" d="M11.8,302.9c3.9,3.2,7.5,6.8,10.7,10.7c3.2,3.9,6.1,8.1,8.5,12.5c1.3,2.5,2.6,5.1,3.6,7.7
			c0.2,0.5-0.6,0.8-0.9,0.2c-1.9-4.6-4.2-9.1-7-13.2c-2.7-4.2-5.9-8-9.4-11.6c-2-2-4.1-3.9-6.2-5.7
			C10.7,303.1,11.3,302.5,11.8,302.9L11.8,302.9z"/>
		<path class="st7" d="M200.5,221.3h-29.9c-0.9,0-1.7-0.8-1.7-1.7V216c0-0.9,0.8-1.7,1.7-1.7h29.9c0.9,0,1.7,0.8,1.7,1.7v3.6
			C202.2,220.5,201.4,221.3,200.5,221.3z"/>
		<path class="st7" d="M196.5,215.8l-12.7-11.5c-0.6-0.5-1.4-0.5-2-0.1l-27.8,9.2c-0.8,0.3-1.3,1.2-1,2l1.1,3.4c0.3,0.8,1.2,1.3,2,1
			c0,0,0,0,0,0l25.5-8.4l10.4,9.4c0.3,0.3,0.7,0.4,1.1,0.4c0,0,0.1,0,0.1,0c0.4,0,0.8-0.2,1.1-0.5l2.4-2.7
			C197.2,217.4,197.1,216.4,196.5,215.8z"/>
		<path class="st7" d="M55.6,301.6c-0.8,0-1.5,0.7-1.5,1.5v29.9c0,0.8,0.7,1.5,1.5,1.5h3.6c0.8,0,1.5-0.7,1.5-1.5v-29.9
			c0-0.8-0.7-1.5-1.5-1.5H55.6z"/>
		<path class="st7" d="M66.7,334.6h-3.6c-0.9,0-1.7-0.8-1.7-1.7v-29.9c0-0.9,0.8-1.7,1.7-1.7h3.6c0.9,0,1.7,0.8,1.7,1.7v29.9
			C68.4,333.9,67.7,334.6,66.7,334.6z"/>
		<path class="st8" d="M72.6,305.4c0,0,1.4,12.2-12.3,11.8c-13.7-0.4-8.3-12.4-8.3-12.4s2.9-2.2,10.1-0.1S72.6,305.4,72.6,305.4z"/>
		<path class="st7" d="M66.7,284.7c-1.9,0-3.5-1.6-3.5-3.5c0-1.2,0.6-2.3,1.6-2.9l23.4-15.5c0.8-0.5,1.8-0.3,2.4,0.5c0,0,0,0,0,0
			l2,3c0.5,0.8,0.3,1.8-0.5,2.4l-23.4,15.5C68.1,284.5,67.4,284.7,66.7,284.7z"/>
		<circle class="st7" cx="62.5" cy="258" r="12.4"/>
		<path class="st9" d="M62.5,263.1c0.8,0,1.8-0.1,2.6-0.6c0.5-0.4,0.7-0.9,0.8-1.5c0-0.4-0.1-0.8-0.5-1.1c-0.4-0.3-1-0.4-1.6-0.2
			l0.7-4.8l-0.5-0.1l-0.8,5.6l0.4-0.2c0.5-0.2,1.1-0.3,1.5,0c0.2,0.2,0.3,0.4,0.3,0.7c0,0.4-0.2,0.8-0.6,1.1
			c-0.6,0.4-1.4,0.5-2.3,0.5L62.5,263.1z"/>
		<rect x="66.8" y="255.4" class="st9" width="2.6" height="0.5"/>
		<rect x="58.5" y="255.4" class="st9" width="2.6" height="0.5"/>
		<path class="st9" d="M50,307.9c0,0-1.1-36.3,13.9-33.8s8.7,37.6,8.7,37.6s-3.2,6.4-11-0.7S50,307.9,50,307.9z"/>
		<path class="st9" d="M55.5,247.5c2.4-1.6,5.4-0.5,7.8,0.6c2.3,1.1,4.8,2.6,7.4,1.5c1-0.4,1.8-1.3,2-2.4c0.2-1.3-0.6-2.6-1.5-3.5
			c-1-0.9-2.1-1.7-3.3-2.2c-1.2-0.5-2.5-0.9-3.8-1.2c-5.3-0.9-10.7,0.8-14.5,4.5c-3.7,3.7-5.6,8.9-5.2,14.1c0.2,2.8,1.1,5.6,2.8,7.7
			c1.7,2,4.1,3.5,6.8,3.6c0.6,0,1.3,0,1.9-0.2c0.5-0.1,0.7,0.6,0.2,0.7c-2.8,0.6-5.6-0.3-7.8-2c-2.3-1.8-3.7-4.5-4.3-7.4
			c-1.2-5.4,0.3-11.2,3.7-15.5c1.7-2.2,3.9-3.9,6.3-5c2.6-1.1,5.4-1.7,8.2-1.5c2.8,0.1,5.5,1,7.9,2.5c2.1,1.4,4.5,4.3,2.8,6.8
			c-0.6,1-1.7,1.5-2.8,1.8c-1.3,0.2-2.6,0.1-3.8-0.3c-2.8-1-5.3-3.2-8.4-2.8c-0.7,0.1-1.3,0.3-1.9,0.7
			C55.5,248.4,55.1,247.8,55.5,247.5L55.5,247.5z"/>
		<path class="st7" d="M161.2,191.1c-1.6-1-2-3.1-1-4.7c0.5-0.8,1.2-1.3,2.1-1.5l27.4-6c0.9-0.2,1.7,0.4,1.9,1.2l-0.1,0l0.1,0
			l0.8,3.5c0.2,0.9-0.4,1.7-1.2,1.9c0,0,0,0,0,0l-27.4,6c-0.1,0-0.2,0-0.4,0.1C162.6,191.7,161.9,191.5,161.2,191.1z"/>
		<path class="st9" d="M159,189.1L159,189.1c0-0.1,0-0.1,0-0.2c-0.2-1.2,0.2-2.4,1.2-3.5c1.1-1.1,2.4-1.9,3.9-2.2l12.5-2.7
			c0.9-0.2,1.7,0.4,1.9,1.2c0,0,0,0,0,0l1.1,5.7c0.2,0.8-0.4,1.7-1.2,1.8l-12.6,2.8c-0.6,0.1-1.1,0.2-1.7,0.2
			C161.5,192.3,159.5,191,159,189.1z"/>
		<circle class="st7" cx="161.2" cy="163.9" r="12.4"/>
		<path class="st9" d="M171.6,168.4c0.8,0,1.8-0.1,2.6-0.6c0.5-0.4,0.7-0.9,0.8-1.5c0-0.4-0.1-0.8-0.5-1.1c-0.4-0.3-1-0.4-1.6-0.2
			l0.7-4.8l-0.5-0.1l-0.8,5.6l0.4-0.2c0.5-0.2,1.1-0.3,1.5,0c0.2,0.2,0.3,0.4,0.3,0.7c0,0.4-0.2,0.8-0.6,1.1
			c-0.6,0.4-1.4,0.5-2.3,0.5L171.6,168.4z"/>
		<rect x="167.7" y="160.6" class="st9" width="2.6" height="0.5"/>
		<path class="st9" d="M160.3,151.5c-0.2-3-1.6-5.7-4-7.5c-2.4-1.8-5.6-2.4-8.5-1.6c-2.9,0.8-5.3,2.8-6.5,5.6
			c-0.6,1.4-0.9,2.8-0.9,4.3c0.1,1.6,0.5,3.2,1.2,4.6c0.7,1.6,1.7,3.1,2.4,4.6c0.8,1.5,1.5,3.1,2,4.7c1.2,3.3,1.8,6.8,2,10.3
			c0.3,5.5-0.2,13.6-6.5,15.7c-1.6,0.5-3.3,0.6-5,0.6c-1.8,0-3.5-0.2-5.2-0.6c-2.9-0.8-5.7-2.6-7-5.5c-0.3-0.7-0.5-1.4-0.6-2.1
			c0-0.2,0.2-0.4,0.4-0.4c0.2,0,0.4,0.2,0.4,0.4c0.4,3.1,3,5.4,5.7,6.5c1.6,0.6,3.3,0.9,5,1c1.7,0.1,3.5,0.1,5.2-0.3
			c1.5-0.3,2.8-1.1,3.9-2.2c0.9-1.1,1.6-2.3,2-3.7c1-3,1.1-6.3,0.9-9.4c-0.2-3.5-0.9-6.9-2.1-10.2c-0.6-1.7-1.3-3.3-2.1-4.8
			c-0.8-1.5-1.7-3-2.4-4.6c-0.7-1.5-1-3-1.1-4.6c0-1.5,0.3-3,0.9-4.3c1.1-2.8,3.4-4.9,6.3-5.9c2.9-1,6.1-0.7,8.7,0.7
			c2.5,1.5,4.4,3.9,5.2,6.7c0.2,0.7,0.3,1.4,0.3,2.1C161.1,152,160.3,152,160.3,151.5L160.3,151.5z"/>
		<path class="st9" d="M157.9,151.7c-0.2-1.4-0.9-2.6-1.9-3.5c-1.1-0.9-2.5-1.4-3.9-1.3c-0.5,0-0.5-0.7,0-0.7c3.2-0.1,6,2.1,6.5,5.3
			C158.7,152,158,152.2,157.9,151.7L157.9,151.7z"/>
		<path class="st9" d="M156.4,151.8c-0.2-0.7,0.1-1.5,0.8-1.7l3.5-1.1c0.7-0.2,1.5,0.1,1.7,0.8c0.2,0.7-0.1,1.5-0.8,1.7l-3.5,1.1
			C157.3,152.9,156.6,152.5,156.4,151.8C156.4,151.8,156.4,151.8,156.4,151.8L156.4,151.8z"/>
		<path class="st8" d="M183.4,168.6c-0.7,0.1-1.1,0.8-0.9,1.4c0.1,0.3,0.2,0.5,0.4,0.7l5.3,4.4c0.1,0.1,0.1,0.1,0.2,0.2
			c0,0.1,0.1,0.2,0.1,0.3l0.3,8.1c0,0.5,0.4,1,0.9,1.1l0,0c0.5,0.1,1.1-0.1,1.3-0.6l1.9-3.5c0.1-0.2,0.4-0.4,0.7-0.4
			c0.2,0,0.4,0.1,0.5,0.2l9.2,9.9c0.3,0.3,0.7,0.4,1.1,0.4c0.4-0.1,0.7-0.3,0.9-0.7l13.6-27.1c0.3-0.6,0.1-1.3-0.5-1.6
			c-0.2-0.1-0.5-0.2-0.8-0.1l-0.4,0.1L183.4,168.6L183.4,168.6z M183.1,170.4c-0.3-0.3-0.4-0.7-0.1-1c0.1-0.1,0.2-0.2,0.4-0.2
			l33.8-7.1l0.4-0.1c0.4-0.1,0.8,0.2,0.9,0.6c0,0.2,0,0.3-0.1,0.5l-13.6,27.1c-0.2,0.4-0.6,0.5-1,0.3c-0.1,0-0.1-0.1-0.2-0.2
			l-9.2-9.9c-0.1-0.1-0.2-0.2-0.3-0.2l23.5-17c0.2-0.2,0.3-0.5,0.1-0.7c-0.1-0.2-0.3-0.2-0.5-0.2c0,0-0.1,0-0.1,0L188.7,175
			c-0.1-0.1-0.1-0.1-0.2-0.2L183.1,170.4L183.1,170.4z"/>
		<path class="st10" d="M183.4,168.6c-0.7,0.1-1.1,0.8-0.9,1.4c0.1,0.3,0.2,0.5,0.4,0.7l5.3,4.4c0.1,0.1,0.1,0.1,0.2,0.2
			c0,0.1,0.1,0.2,0.1,0.3l0.3,8.1c0,0.5,0.4,1,0.9,1.1l0,0c0.5,0.1,1.1-0.1,1.3-0.6l1.9-3.5c0.1-0.2,0.4-0.4,0.7-0.4
			c0.2,0,0.4,0.1,0.5,0.2l9.2,9.9c0.3,0.3,0.7,0.4,1.1,0.4c0.4-0.1,0.7-0.3,0.9-0.7l13.6-27.1c0.3-0.6,0.1-1.3-0.5-1.6
			c-0.2-0.1-0.5-0.2-0.8-0.1l-0.4,0.1L183.4,168.6L183.4,168.6z M183.1,170.4c-0.3-0.3-0.4-0.7-0.1-1c0.1-0.1,0.2-0.2,0.4-0.2
			l33.8-7.1l0.4-0.1c0.4-0.1,0.8,0.2,0.9,0.6c0,0.2,0,0.3-0.1,0.5l-13.6,27.1c-0.2,0.4-0.6,0.5-1,0.3c-0.1,0-0.1-0.1-0.2-0.2
			l-9.2-9.9c-0.1-0.1-0.2-0.2-0.3-0.2c-0.2-0.1-0.4-0.1-0.6-0.1c0,0-0.1,0-0.1,0l0,0c-0.4,0-0.8,0.3-1,0.6l-1.9,3.5
			c-0.2,0.3-0.5,0.4-0.8,0.4l0,0c-0.3-0.1-0.6-0.4-0.6-0.7l-0.3-8.1c0-0.1,0-0.2,0-0.3l0,0c0-0.1,0-0.2-0.1-0.2
			c0-0.1-0.1-0.1-0.1-0.2c-0.1-0.1-0.1-0.1-0.2-0.2L183.1,170.4L183.1,170.4z"/>
		<path class="st10" d="M188.7,175l28.5-12.7c0,0,0.1,0,0.1,0c0.3-0.1,0.5,0.1,0.6,0.4c0,0.2,0,0.4-0.2,0.5l-23.5,17l-0.4,0.3
			l-0.3-0.4l0.1,0l0,0l23.8-17.3l-28.5,12.7l0,0l-0.1,0.1l-0.2-0.4L188.7,175z"/>
		<path class="st9" d="M153,213.6c-0.7,0-1.3,0.6-1.3,1.3v4.9c0,0.7,0.6,1.3,1.3,1.3h15.5c0.7,0,1.3-0.6,1.3-1.3V215
			c0-0.7-0.6-1.3-1.3-1.3H153z"/>
		<path class="st9" d="M151.2,189c-0.7,2.1-0.9,4.5-0.4,6.7c1.2,6.1,0.8,13.2-0.4,20.9c0,0.8,0.6,1.5,1.3,1.5h19
			c0.7,0,1.3-0.7,1.3-1.5v-22.7c0-6.7-4.6-12.2-10.3-12.5c-0.2,0-0.3,0-0.5,0C156.6,181.4,152.8,184.5,151.2,189z"/>
		<path class="st7" d="M157.2,218.5v-28.1c0-1.9,1.5-3.4,3.4-3.4c1.9,0,3.4,1.5,3.4,3.4v28.1c0,0.9-0.7,1.6-1.6,1.6h-3.6
			C157.9,220,157.2,219.3,157.2,218.5z"/>
		<path class="st9" d="M163,198.4l-5.1-0.2c-0.9,0-1.5-0.8-1.5-1.6l0.4-8.1c0.1-2.3,2-4,4.3-4c2.3,0.1,4,2,4,4.3c0,0,0,0,0,0
			l-0.4,8.1C164.6,197.7,163.9,198.4,163,198.4C163,198.4,163,198.4,163,198.4z"/>
		<ellipse class="st9" cx="171.8" cy="200" rx="1.1" ry="3.5"/>
		<circle class="st8" cx="112" cy="237.8" r="6.1"/>
		<path class="st8" d="M172,243.8h-46.6c-1.1,0-1.9-0.9-1.9-1.9c0-1.1,0.9-1.9,1.9-1.9H172c1.1,0,1.9,0.9,1.9,1.9
			C173.9,243,173.1,243.8,172,243.8z"/>
		<path class="st8" d="M159.4,235.6h-34c-1.1,0-1.9-0.9-1.9-1.9c0-1.1,0.9-1.9,1.9-1.9h34c1.1,0,1.9,0.9,1.9,1.9
			C161.3,234.7,160.4,235.6,159.4,235.6z"/>
		<circle class="st8" cx="112" cy="260.8" r="6.1"/>
		<path class="st8" d="M172,266.9h-46.6c-1.1,0-1.9-0.9-1.9-1.9c0-1.1,0.9-1.9,1.9-1.9H172c1.1,0,1.9,0.9,1.9,1.9
			C173.9,266,173.1,266.9,172,266.9z"/>
		<path class="st8" d="M159.4,258.7h-34c-1.1,0-1.9-0.9-1.9-1.9c0-1.1,0.9-1.9,1.9-1.9h34c1.1,0,1.9,0.9,1.9,1.9
			C161.3,257.8,160.4,258.7,159.4,258.7z"/>
		<circle class="st8" cx="112" cy="284.1" r="6.1"/>
		<path class="st8" d="M172,290.2h-46.6c-1.1,0-1.9-0.9-1.9-1.9c0-1.1,0.9-1.9,1.9-1.9H172c1.1,0,1.9,0.9,1.9,1.9
			C173.9,289.3,173.1,290.2,172,290.2z"/>
		<path class="st8" d="M159.4,282h-34c-1.1,0-1.9-0.9-1.9-1.9s0.9-1.9,1.9-1.9h34c1.1,0,1.9,0.9,1.9,1.9S160.4,282,159.4,282z"/>
		<path class="st10" d="M188.2,301.1H91.6c-2.3,0-4.1-1.8-4.1-4.1v-72.1c0-2.3,1.8-4.1,4.1-4.1h96.6c2.3,0,4.1,1.8,4.1,4.1V297
			C192.3,299.3,190.5,301.1,188.2,301.1z M91.6,221.3c-2,0-3.6,1.6-3.6,3.6V297c0,2,1.6,3.6,3.6,3.6h96.6c2,0,3.6-1.6,3.6-3.6v-72.1
			c0-2-1.6-3.6-3.6-3.6H91.6z"/>
		<circle class="st7" cx="89.2" cy="222" r="13.6"/>
		<path class="st6" d="M87.8,227.2c-0.3,0-0.6-0.1-0.8-0.3l0,0l-3.2-2.4c-0.6-0.5-0.7-1.4-0.3-2c0.5-0.6,1.4-0.7,2-0.3l2.1,1.6
			l4.9-6.4c0.5-0.6,1.4-0.7,2-0.3c0,0,0,0,0,0l0,0l0,0c0.6,0.5,0.7,1.4,0.3,2l-5.8,7.5C88.7,227,88.3,227.2,87.8,227.2z"/>
		<path class="st7" d="M89.1,303.3c-0.2,0-0.5-0.1-0.7-0.1h0l-25.6-11.5c-1.8-0.8-2.5-2.9-1.8-4.6s2.9-2.5,4.6-1.8c0,0,0,0,0,0
			l25.6,11.5c0.9,0.4,1.2,1.4,0.9,2.2c0,0,0,0,0,0l-1.5,3.3C90.4,302.9,89.8,303.3,89.1,303.3z"/>
		<path class="st10" d="M94.5,334.6H2c-0.1,0-0.2-0.1-0.2-0.2c0-0.1,0.1-0.2,0.2-0.2h92.5c0.1,0,0.2,0.1,0.2,0.2
			C94.7,334.5,94.6,334.6,94.5,334.6z"/>
	</g>
</g>
</svg>
