<?xml version="1.0" encoding="utf-8"?>
<!-- Generator: Adobe Illustrator 25.0.1, SVG Export Plug-In . SVG Version: 6.00 Build 0)  -->
<svg version="1.1" id="Layer_1" xmlns="http://www.w3.org/2000/svg" xmlns:xlink="http://www.w3.org/1999/xlink" x="0px" y="0px"
	 viewBox="0 0 772 550.6" style="enable-background:new 0 0 772 550.6;" xml:space="preserve">
<style type="text/css">
	.st0{opacity:4.000000e-02;fill-rule:evenodd;clip-rule:evenodd;fill:#1FA2FF;enable-background:new    ;}
	.st1{opacity:8.000000e-02;fill:#1FA2FF;enable-background:new    ;}
	.st2{opacity:6.000000e-02;fill:#22FFFF;enable-background:new    ;}
	.st3{fill:#FFFFFF;}
	.st4{fill:#F8FCFF;}
	.st5{fill:#6ABAEF;}
	.st6{fill:#1FA2FF;}
	.st7{fill:url(#Rectangle_12_1_);}
	.st8{fill:url(#Rectangle_14_1_);}
	.st9{fill:url(#Rectangle_16_1_);}
	.st10{fill:url(#Rectangle_24_1_);}
	.st11{fill:url(#Rectangle_26_1_);}
	.st12{fill:url(#Rectangle_27_1_);}
	.st13{fill:url(#Rectangle_28_1_);}
	.st14{fill:url(#Rectangle_25_1_);}
	.st15{fill:url(#Rectangle_20_1_);}
	.st16{fill:url(#Rectangle_23_1_);}
	.st17{fill:url(#Rectangle_22_1_);}
	.st18{fill:url(#Rectangle_21_1_);}
	.st19{fill:url(#Rectangle_17_1_);}
	.st20{fill:url(#Rectangle_18_1_);}
	.st21{fill:url(#Rectangle_19_1_);}
	.st22{fill:url(#Rectangle_13_1_);}
	.st23{fill:url(#Rectangle_10_1_);}
	.st24{fill:url(#Rectangle_9_1_);}
	.st25{fill:url(#Rectangle_5_1_);}
	.st26{fill:url(#Rectangle_7_1_);}
	.st27{fill:url(#Rectangle_11_1_);}
	.st28{fill:url(#Rectangle_6_1_);}
	.st29{filter:url(#Rectangle_29);}
	.st30{fill:#F9F9FF;}
	.st31{filter:url(#Rectangle_30);}
	.st32{fill:url(#Rectangle_31_1_);}
	.st33{fill:url(#Rectangle_34_1_);}
	.st34{fill:url(#Rectangle_32_1_);}
	.st35{opacity:0.5;}
	.st36{fill:url(#Rectangle_38-2_1_);}
	.st37{opacity:0.3;fill:#FFFFFF;enable-background:new    ;}
	.st38{opacity:0.1;fill:#F557D0;enable-background:new    ;}
	.st39{fill:url(#Rectangle_38-4_1_);}
	.st40{fill:url(#Rectangle_33_1_);}
	.st41{fill:#09D887;}
	.st42{fill:#FEA709;}
	.st43{fill:#F728AB;}
	.st44{opacity:0.2;fill:#FFFFFF;enable-background:new    ;}
	.st45{fill:url(#Rectangle_42-2_1_);}
	.st46{fill:url(#Path_4586_1_);}
	.st47{fill:url(#Path_4587_1_);}
	.st48{fill:url(#Path_4588_1_);}
	.st49{fill:url(#Path_4590_1_);}
	.st50{fill:#FFC4B1;}
	.st51{fill:#A16D3C;}
	.st52{fill:url(#Path_4594_1_);}
	.st53{fill:url(#Path_4595_1_);}
	.st54{fill:#0D205A;}
	.st55{fill:url(#Rectangle_38-5_1_);}
	.st56{fill:#FFF3DB;}
	.st57{fill:url(#Path_4598_1_);}
	.st58{fill:#151A4A;}
	.st59{fill:#F4E4FF;}
	.st60{fill:#FFCEBF;}
	.st61{fill:url(#Path_6243_1_);}
	.st62{fill:url(#Path_6244_1_);}
	.st63{fill:url(#Path_6247_1_);}
	.st64{fill:#FFBE55;}
	.st65{fill:url(#Path_6250_1_);}
	.st66{fill:url(#Path_6252_1_);}
	.st67{fill:#FFE3CA;}
	.st68{fill:url(#Path_6254_1_);}
	.st69{fill:url(#Path_6255_1_);}
	.st70{fill:url(#Path_6257_1_);}
	.st71{fill:#FFC1AE;}
</style>
<filter  filterUnits="userSpaceOnUse" height="34" id="Rectangle_30" width="275" x="382" y="47.612">
	<feOffset  dy="1" input="SourceAlpha"></feOffset>
	<feGaussianBlur  result="blur-3" stdDeviation="2"></feGaussianBlur>
	<feFlood  flood-color="#caa8e3" flood-opacity="0.102"></feFlood>
	<feComposite  in2="blur-3" operator="in"></feComposite>
	<feComposite  in="SourceGraphic" operator="over"></feComposite>
</filter>
<filter  filterUnits="userSpaceOnUse" height="353" id="Rectangle_29" width="443" x="298" y="4.612">
	<feOffset  dy="20" input="SourceAlpha"></feOffset>
	<feGaussianBlur  result="blur-2" stdDeviation="30"></feGaussianBlur>
	<feFlood  flood-color="#5d57bc" flood-opacity="0.149"></feFlood>
	<feComposite  in2="blur-2" operator="in"></feComposite>
	<feComposite  in="SourceGraphic" operator="over"></feComposite>
</filter>
<g>
	<path id="Combined-Shape" class="st0" d="M18.3,128.6c0-15.7,3.3-31.2,9.7-45.5l53.4,146.2C42.8,210.6,18.3,171.5,18.3,128.6z
		 M206,123.1c0,9.6-3.7,20.7-8.5,36.3l-11.2,37.4L145.7,76.2c6.8-0.4,12.8-1.1,12.8-1.1c6-0.7,5.3-9.6-0.7-9.2
		c0,0-18.2,1.4-29.9,1.4c-11,0-29.5-1.4-29.5-1.4c-6-0.4-6.8,8.9-0.7,9.2c0,0,5.7,0.7,11.8,1.1l17.5,47.9l-24.5,73.6L61.5,76.2
		c6.8-0.4,12.8-1.1,12.8-1.1c6-0.7,5.3-9.6-0.7-9.2c0,0-18.2,1.4-29.9,1.4c-2.1,0-4.6-0.1-7.2-0.1C70.6,15.4,140.1,1,191.8,35
		c5,3.3,9.8,7,14.2,11c-0.5,0-1-0.1-1.5-0.1c-11,0-18.8,9.6-18.8,19.9c0,9.2,5.3,17.1,11,26.3C201,99.7,206,109.3,206,123.1
		L206,123.1z M132.9,139.6l34.1,93.5c0.2,0.5,0.5,1,0.8,1.5c-22,7.7-45.8,8.4-68.1,1.8L132.9,139.6z M229.1,74.8
		c28.6,53.4,10.4,119.8-41.3,151.2l33.7-99.3c6.3-16,8.4-28.9,8.4-40.3C229.8,82.5,229.6,78.6,229.1,74.8L229.1,74.8z M130.4,254.9
		c68.7,0,124.4-55.7,124.4-124.4S199.1,6,130.4,6C61.7,6,6,61.7,6,130.4C6.1,199.1,61.7,254.8,130.4,254.9z M130.4,0
		c71.9,0,130.4,58.5,130.4,130.4s-58.5,130.4-130.4,130.4S0,202.3,0,130.4S58.5,0,130.4,0L130.4,0z"/>
	<ellipse id="Ellipse_6" class="st1" cx="341" cy="423.1" rx="269" ry="14.5"/>
	<ellipse id="Ellipse_480" class="st2" cx="125.5" cy="494.6" rx="95.5" ry="18"/>
	<ellipse id="Ellipse_481" class="st1" cx="718.5" cy="416.6" rx="53.5" ry="10"/>
	<path id="Rectangle_1-2" class="st3" d="M140,125.6h412c5.5,0,10,4.5,10,10v275c0,5.5-4.5,10-10,10H140c-5.5,0-10-4.5-10-10v-275
		C130,130.1,134.5,125.6,140,125.6z"/>
	<g id="Group_9" transform="translate(1149.272 333.22)">
		<path id="Rectangle_2" class="st4" d="M-988.3-183.6h370c2.8,0,5,2.2,5,5v237c0,2.8-2.2,5-5,5h-370c-2.8,0-5-2.2-5-5v-237
			C-993.3-181.4-991-183.6-988.3-183.6z"/>
		<g id="Group_1" transform="translate(19.156 23.189)">
			<path id="Rectangle_3" class="st5" d="M-990.9-183.8h11c1.4,0,2.5,1.1,2.5,2.5l0,0c0,1.4-1.1,2.5-2.5,2.5h-11
				c-1.4,0-2.5-1.1-2.5-2.5l0,0C-993.4-182.7-992.3-183.8-990.9-183.8z"/>
			<path id="Rectangle_3-2" class="st5" d="M-990.9-165.8h11c1.4,0,2.5,1.1,2.5,2.5l0,0c0,1.4-1.1,2.5-2.5,2.5h-11
				c-1.4,0-2.5-1.1-2.5-2.5l0,0C-993.4-164.7-992.3-165.8-990.9-165.8z"/>
			<path id="Rectangle_3-3" class="st5" d="M-990.9-147.8h11c1.4,0,2.5,1.1,2.5,2.5l0,0c0,1.4-1.1,2.5-2.5,2.5h-11
				c-1.4,0-2.5-1.1-2.5-2.5l0,0C-993.4-146.7-992.3-147.8-990.9-147.8z"/>
			<path id="Rectangle_3-4" class="st5" d="M-990.9-130.8h11c1.4,0,2.5,1.1,2.5,2.5l0,0c0,1.4-1.1,2.5-2.5,2.5h-11
				c-1.4,0-2.5-1.1-2.5-2.5l0,0C-993.4-129.7-992.3-130.8-990.9-130.8z"/>
			<path id="Rectangle_3-5" class="st5" d="M-990.9-113.8h11c1.4,0,2.5,1.1,2.5,2.5l0,0c0,1.4-1.1,2.5-2.5,2.5h-11
				c-1.4,0-2.5-1.1-2.5-2.5l0,0C-993.4-112.7-992.3-113.8-990.9-113.8z"/>
			<path id="Rectangle_3-6" class="st5" d="M-990.9-95.8h11c1.4,0,2.5,1.1,2.5,2.5l0,0c0,1.4-1.1,2.5-2.5,2.5h-11
				c-1.4,0-2.5-1.1-2.5-2.5l0,0C-993.4-94.7-992.3-95.8-990.9-95.8z"/>
			<path id="Rectangle_3-7" class="st5" d="M-990.9-77.8h11c1.4,0,2.5,1.1,2.5,2.5l0,0c0,1.4-1.1,2.5-2.5,2.5h-11
				c-1.4,0-2.5-1.1-2.5-2.5l0,0C-993.4-76.7-992.3-77.8-990.9-77.8z"/>
			<path id="Rectangle_3-8" class="st5" d="M-990.9-58.8h11c1.4,0,2.5,1.1,2.5,2.5l0,0c0,1.4-1.1,2.5-2.5,2.5h-11
				c-1.4,0-2.5-1.1-2.5-2.5l0,0C-993.4-57.7-992.3-58.8-990.9-58.8z"/>
			<path id="Rectangle_3-9" class="st5" d="M-990.9-42.8h11c1.4,0,2.5,1.1,2.5,2.5l0,0c0,1.4-1.1,2.5-2.5,2.5h-11
				c-1.4,0-2.5-1.1-2.5-2.5l0,0C-993.4-41.7-992.3-42.8-990.9-42.8z"/>
			<path id="Rectangle_3-10" class="st5" d="M-990.9-23.8h11c1.4,0,2.5,1.1,2.5,2.5l0,0c0,1.4-1.1,2.5-2.5,2.5h-11
				c-1.4,0-2.5-1.1-2.5-2.5l0,0C-993.4-22.7-992.3-23.8-990.9-23.8z"/>
			<path id="Rectangle_3-11" class="st5" d="M-990.9-5.8h11c1.4,0,2.5,1.1,2.5,2.5l0,0c0,1.4-1.1,2.5-2.5,2.5h-11
				c-1.4,0-2.5-1.1-2.5-2.5l0,0C-993.4-4.7-992.3-5.8-990.9-5.8z"/>
			<path id="Rectangle_3-12" class="st5" d="M-990.9,11.2h11c1.4,0,2.5,1.1,2.5,2.5l0,0c0,1.4-1.1,2.5-2.5,2.5h-11
				c-1.4,0-2.5-1.1-2.5-2.5l0,0C-993.4,12.3-992.3,11.2-990.9,11.2z"/>
		</g>
		<g id="Group_2" transform="translate(50.41 23.189)">
			<path id="Rectangle_8" class="st6" d="M-916.2-165.8h26c1.4,0,2.5,1.1,2.5,2.5l0,0c0,1.4-1.1,2.5-2.5,2.5h-26
				c-1.4,0-2.5-1.1-2.5-2.5l0,0C-918.7-164.7-917.6-165.8-916.2-165.8z"/>
			<linearGradient id="Rectangle_12_1_" gradientUnits="userSpaceOnUse" x1="-904.682" y1="-128.296" x2="-865.682" y2="-128.296">
				<stop  offset="0" style="stop-color:#FF4E95"/>
				<stop  offset="1" style="stop-color:#FA8B0C"/>
			</linearGradient>
			<path id="Rectangle_12" class="st7" d="M-902.2-130.8h34c1.4,0,2.5,1.1,2.5,2.5l0,0c0,1.4-1.1,2.5-2.5,2.5h-34
				c-1.4,0-2.5-1.1-2.5-2.5l0,0C-904.7-129.7-903.6-130.8-902.2-130.8z"/>
			<linearGradient id="Rectangle_14_1_" gradientUnits="userSpaceOnUse" x1="-954.682" y1="-111.296" x2="-908.682" y2="-111.296">
				<stop  offset="0" style="stop-color:#FF4E95"/>
				<stop  offset="1" style="stop-color:#FA8B0C"/>
			</linearGradient>
			<path id="Rectangle_14" class="st8" d="M-952.2-113.8h41c1.4,0,2.5,1.1,2.5,2.5l0,0c0,1.4-1.1,2.5-2.5,2.5h-41
				c-1.4,0-2.5-1.1-2.5-2.5l0,0C-954.7-112.7-953.6-113.8-952.2-113.8z"/>
			<linearGradient id="Rectangle_16_1_" gradientUnits="userSpaceOnUse" x1="-970.682" y1="-93.296" x2="-942.682" y2="-93.296">
				<stop  offset="0" style="stop-color:#16B6FF"/>
				<stop  offset="1" style="stop-color:#09FFCA"/>
			</linearGradient>
			<path id="Rectangle_16" class="st9" d="M-968.2-95.8h23c1.4,0,2.5,1.1,2.5,2.5l0,0c0,1.4-1.1,2.5-2.5,2.5h-23
				c-1.4,0-2.5-1.1-2.5-2.5l0,0C-970.7-94.7-969.6-95.8-968.2-95.8z"/>
			<linearGradient id="Rectangle_24_1_" gradientUnits="userSpaceOnUse" x1="-954.682" y1="-21.296" x2="-925.682" y2="-21.296">
				<stop  offset="0" style="stop-color:#FF4E95"/>
				<stop  offset="1" style="stop-color:#FA8B0C"/>
			</linearGradient>
			<path id="Rectangle_24" class="st10" d="M-952.2-23.8h24c1.4,0,2.5,1.1,2.5,2.5l0,0c0,1.4-1.1,2.5-2.5,2.5h-24
				c-1.4,0-2.5-1.1-2.5-2.5l0,0C-954.7-22.7-953.6-23.8-952.2-23.8z"/>
			<linearGradient id="Rectangle_26_1_" gradientUnits="userSpaceOnUse" x1="-979.682" y1="-3.296" x2="-945.682" y2="-3.296">
				<stop  offset="0" style="stop-color:#16B6FF"/>
				<stop  offset="1" style="stop-color:#09FFCA"/>
			</linearGradient>
			<path id="Rectangle_26" class="st11" d="M-977.2-5.8h29c1.4,0,2.5,1.1,2.5,2.5l0,0c0,1.4-1.1,2.5-2.5,2.5h-29
				c-1.4,0-2.5-1.1-2.5-2.5l0,0C-979.7-4.7-978.6-5.8-977.2-5.8z"/>
			<linearGradient id="Rectangle_27_1_" gradientUnits="userSpaceOnUse" x1="-941.682" y1="-3.296" x2="-873.682" y2="-3.296">
				<stop  offset="0" style="stop-color:#7ED500"/>
				<stop  offset="1" style="stop-color:#00BF8D"/>
			</linearGradient>
			<path id="Rectangle_27" class="st12" d="M-939.2-5.8h63c1.4,0,2.5,1.1,2.5,2.5l0,0c0,1.4-1.1,2.5-2.5,2.5h-63
				c-1.4,0-2.5-1.1-2.5-2.5l0,0C-941.7-4.7-940.6-5.8-939.2-5.8z"/>
			<linearGradient id="Rectangle_28_1_" gradientUnits="userSpaceOnUse" x1="-970.682" y1="13.704" x2="-921.682" y2="13.704">
				<stop  offset="0" style="stop-color:#16B6FF"/>
				<stop  offset="1" style="stop-color:#09FFCA"/>
			</linearGradient>
			<path id="Rectangle_28" class="st13" d="M-968.2,11.2h44c1.4,0,2.5,1.1,2.5,2.5l0,0c0,1.4-1.1,2.5-2.5,2.5h-44
				c-1.4,0-2.5-1.1-2.5-2.5l0,0C-970.7,12.3-969.6,11.2-968.2,11.2z"/>
			<linearGradient id="Rectangle_25_1_" gradientUnits="userSpaceOnUse" x1="-922.682" y1="-21.296" x2="-874.682" y2="-21.296">
				<stop  offset="0" style="stop-color:#16B6FF"/>
				<stop  offset="1" style="stop-color:#09FFCA"/>
			</linearGradient>
			<path id="Rectangle_25" class="st14" d="M-920.2-23.8h43c1.4,0,2.5,1.1,2.5,2.5l0,0c0,1.4-1.1,2.5-2.5,2.5h-43
				c-1.4,0-2.5-1.1-2.5-2.5l0,0C-922.7-22.7-921.6-23.8-920.2-23.8z"/>
			<linearGradient id="Rectangle_20_1_" gradientUnits="userSpaceOnUse" x1="-955.682" y1="-74.296" x2="-908.682" y2="-74.296">
				<stop  offset="0" style="stop-color:#16B6FF"/>
				<stop  offset="1" style="stop-color:#09FFCA"/>
			</linearGradient>
			<path id="Rectangle_20" class="st15" d="M-953.2-76.8h42c1.4,0,2.5,1.1,2.5,2.5l0,0c0,1.4-1.1,2.5-2.5,2.5h-42
				c-1.4,0-2.5-1.1-2.5-2.5l0,0C-955.7-75.7-954.6-76.8-953.2-76.8z"/>
			<linearGradient id="Rectangle_23_1_" gradientUnits="userSpaceOnUse" x1="-970.682" y1="-39.296" x2="-922.682" y2="-39.296">
				<stop  offset="0" style="stop-color:#7ED500"/>
				<stop  offset="1" style="stop-color:#00BF8D"/>
			</linearGradient>
			<path id="Rectangle_23" class="st16" d="M-968.2-41.8h43c1.4,0,2.5,1.1,2.5,2.5l0,0c0,1.4-1.1,2.5-2.5,2.5h-43
				c-1.4,0-2.5-1.1-2.5-2.5l0,0C-970.7-40.7-969.6-41.8-968.2-41.8z"/>
			<linearGradient id="Rectangle_22_1_" gradientUnits="userSpaceOnUse" x1="-876.682" y1="-56.296" x2="-831.682" y2="-56.296">
				<stop  offset="0" style="stop-color:#16B6FF"/>
				<stop  offset="1" style="stop-color:#09FFCA"/>
			</linearGradient>
			<path id="Rectangle_22" class="st17" d="M-874.2-58.8h40c1.4,0,2.5,1.1,2.5,2.5l0,0c0,1.4-1.1,2.5-2.5,2.5h-40
				c-1.4,0-2.5-1.1-2.5-2.5l0,0C-876.7-57.7-875.6-58.8-874.2-58.8z"/>
			<linearGradient id="Rectangle_21_1_" gradientUnits="userSpaceOnUse" x1="-954.682" y1="-56.296" x2="-879.682" y2="-56.296">
				<stop  offset="0" style="stop-color:#16B6FF"/>
				<stop  offset="1" style="stop-color:#09FFCA"/>
			</linearGradient>
			<path id="Rectangle_21" class="st18" d="M-952.2-58.8h70c1.4,0,2.5,1.1,2.5,2.5l0,0c0,1.4-1.1,2.5-2.5,2.5h-70
				c-1.4,0-2.5-1.1-2.5-2.5l0,0C-954.7-57.7-953.6-58.8-952.2-58.8z"/>
			<linearGradient id="Rectangle_17_1_" gradientUnits="userSpaceOnUse" x1="-938.682" y1="-93.296" x2="-912.682" y2="-93.296">
				<stop  offset="0" style="stop-color:#16B6FF"/>
				<stop  offset="1" style="stop-color:#09FFCA"/>
			</linearGradient>
			<path id="Rectangle_17" class="st19" d="M-936.2-95.8h21c1.4,0,2.5,1.1,2.5,2.5l0,0c0,1.4-1.1,2.5-2.5,2.5h-21
				c-1.4,0-2.5-1.1-2.5-2.5l0,0C-938.7-94.7-937.6-95.8-936.2-95.8z"/>
			<linearGradient id="Rectangle_18_1_" gradientUnits="userSpaceOnUse" x1="-908.682" y1="-93.296" x2="-846.682" y2="-93.296">
				<stop  offset="0" style="stop-color:#7ED500"/>
				<stop  offset="1" style="stop-color:#00BF8D"/>
			</linearGradient>
			<path id="Rectangle_18" class="st20" d="M-906.2-95.8h57c1.4,0,2.5,1.1,2.5,2.5l0,0c0,1.4-1.1,2.5-2.5,2.5h-57
				c-1.4,0-2.5-1.1-2.5-2.5l0,0C-908.7-94.7-907.6-95.8-906.2-95.8z"/>
			<linearGradient id="Rectangle_19_1_" gradientUnits="userSpaceOnUse" x1="-842.682" y1="-93.296" x2="-811.682" y2="-93.296">
				<stop  offset="0" style="stop-color:#FF4E95"/>
				<stop  offset="1" style="stop-color:#FA8B0C"/>
			</linearGradient>
			<path id="Rectangle_19" class="st21" d="M-840.2-95.8h26c1.4,0,2.5,1.1,2.5,2.5l0,0c0,1.4-1.1,2.5-2.5,2.5h-26
				c-1.4,0-2.5-1.1-2.5-2.5l0,0C-842.7-94.7-841.6-95.8-840.2-95.8z"/>
			<path id="Rectangle_15" class="st6" d="M-902.2-113.8h38c1.4,0,2.5,1.1,2.5,2.5l0,0c0,1.4-1.1,2.5-2.5,2.5h-38
				c-1.4,0-2.5-1.1-2.5-2.5l0,0C-904.7-112.7-903.6-113.8-902.2-113.8z"/>
			<linearGradient id="Rectangle_13_1_" gradientUnits="userSpaceOnUse" x1="-861.682" y1="-128.296" x2="-799.682" y2="-128.296">
				<stop  offset="0" style="stop-color:#7ED500"/>
				<stop  offset="1" style="stop-color:#00BF8D"/>
			</linearGradient>
			<path id="Rectangle_13" class="st22" d="M-859.2-130.8h57c1.4,0,2.5,1.1,2.5,2.5l0,0c0,1.4-1.1,2.5-2.5,2.5h-57
				c-1.4,0-2.5-1.1-2.5-2.5l0,0C-861.7-129.7-860.6-130.8-859.2-130.8z"/>
			<linearGradient id="Rectangle_10_1_" gradientUnits="userSpaceOnUse" x1="-970.682" y1="-145.296" x2="-933.682" y2="-145.296">
				<stop  offset="0" style="stop-color:#16B6FF"/>
				<stop  offset="1" style="stop-color:#09FFCA"/>
			</linearGradient>
			<path id="Rectangle_10" class="st23" d="M-968.2-147.8h32c1.4,0,2.5,1.1,2.5,2.5l0,0c0,1.4-1.1,2.5-2.5,2.5h-32
				c-1.4,0-2.5-1.1-2.5-2.5l0,0C-970.7-146.7-969.6-147.8-968.2-147.8z"/>
			<linearGradient id="Rectangle_9_1_" gradientUnits="userSpaceOnUse" x1="-883.682" y1="-163.296" x2="-857.682" y2="-163.296">
				<stop  offset="0" style="stop-color:#7ED500"/>
				<stop  offset="1" style="stop-color:#00BF8D"/>
			</linearGradient>
			<path id="Rectangle_9" class="st24" d="M-881.2-165.8h21c1.4,0,2.5,1.1,2.5,2.5l0,0c0,1.4-1.1,2.5-2.5,2.5h-21
				c-1.4,0-2.5-1.1-2.5-2.5l0,0C-883.7-164.7-882.6-165.8-881.2-165.8z"/>
			<linearGradient id="Rectangle_5_1_" gradientUnits="userSpaceOnUse" x1="-992.682" y1="-181.296" x2="-945.682" y2="-181.296">
				<stop  offset="0" style="stop-color:#16B6FF"/>
				<stop  offset="1" style="stop-color:#09FFCA"/>
			</linearGradient>
			<path id="Rectangle_5" class="st25" d="M-990.2-183.8h42c1.4,0,2.5,1.1,2.5,2.5l0,0c0,1.4-1.1,2.5-2.5,2.5h-42
				c-1.4,0-2.5-1.1-2.5-2.5l0,0C-992.7-182.7-991.6-183.8-990.2-183.8z"/>
			<linearGradient id="Rectangle_7_1_" gradientUnits="userSpaceOnUse" x1="-979.682" y1="-163.296" x2="-921.682" y2="-163.296">
				<stop  offset="0" style="stop-color:#FF4E95"/>
				<stop  offset="1" style="stop-color:#FA8B0C"/>
			</linearGradient>
			<path id="Rectangle_7" class="st26" d="M-977.2-165.8h53c1.4,0,2.5,1.1,2.5,2.5l0,0c0,1.4-1.1,2.5-2.5,2.5h-53
				c-1.4,0-2.5-1.1-2.5-2.5l0,0C-979.7-164.7-978.6-165.8-977.2-165.8z"/>
			<linearGradient id="Rectangle_11_1_" gradientUnits="userSpaceOnUse" x1="-967.682" y1="-128.296" x2="-908.682" y2="-128.296">
				<stop  offset="0" style="stop-color:#16B6FF"/>
				<stop  offset="1" style="stop-color:#09FFCA"/>
			</linearGradient>
			<path id="Rectangle_11" class="st27" d="M-965.2-130.8h54c1.4,0,2.5,1.1,2.5,2.5l0,0c0,1.4-1.1,2.5-2.5,2.5h-54
				c-1.4,0-2.5-1.1-2.5-2.5l0,0C-967.7-129.7-966.6-130.8-965.2-130.8z"/>
			<linearGradient id="Rectangle_6_1_" gradientUnits="userSpaceOnUse" x1="-941.682" y1="-181.296" x2="-895.682" y2="-181.296">
				<stop  offset="0" style="stop-color:#7ED500"/>
				<stop  offset="1" style="stop-color:#00BF8D"/>
			</linearGradient>
			<path id="Rectangle_6" class="st28" d="M-939.2-183.8h41c1.4,0,2.5,1.1,2.5,2.5l0,0c0,1.4-1.1,2.5-2.5,2.5h-41
				c-1.4,0-2.5-1.1-2.5-2.5l0,0C-941.7-182.7-940.6-183.8-939.2-183.8z"/>
		</g>
	</g>
	<g id="Group_7" transform="translate(1381.159 236.431)">
		<g transform="matrix(1, 0, 0, 1, -388.16, -53.04)" class="st29">
			<path id="Rectangle_29-2_1_" class="st30" d="M-605-108.8h263l0,0v167c0,3.3-2.7,6-6,6h-251c-3.3,0-6-2.7-6-6V-108.8L-605-108.8z
				"/>
		</g>
		<g transform="matrix(1, 0, 0, 1, -388.16, -53.04)" class="st31">
			<path id="Rectangle_30-2_1_" class="st3" d="M-600-130.8h253c2.8,0,5,2.2,5,5v17l0,0h-263l0,0v-17
				C-605-128.5-602.8-130.8-600-130.8z"/>
		</g>
		<linearGradient id="Rectangle_31_1_" gradientUnits="userSpaceOnUse" x1="-976.159" y1="-150.82" x2="-953.159" y2="-150.82">
			<stop  offset="0" style="stop-color:#7ED500"/>
			<stop  offset="1" style="stop-color:#00BF8D"/>
		</linearGradient>
		<path id="Rectangle_31" class="st32" d="M-974.2-152.8h19c1.1,0,2,0.9,2,2l0,0c0,1.1-0.9,2-2,2h-19c-1.1,0-2-0.9-2-2l0,0
			C-976.2-151.9-975.3-152.8-974.2-152.8z"/>
		
			<linearGradient id="Rectangle_34_1_" gradientUnits="userSpaceOnUse" x1="-1031.6057" y1="77.6436" x2="-1030.9347" y2="77.1826" gradientTransform="matrix(230 0 0 -56 236311.4219 4221.4321)">
			<stop  offset="0" style="stop-color:#FF4E95"/>
			<stop  offset="1" style="stop-color:#FA8B0C"/>
		</linearGradient>
		<path id="Rectangle_34" class="st33" d="M-970.2-138.4h218c3.3,0,6,2.7,6,6v44c0,3.3-2.7,6-6,6h-218c-3.3,0-6-2.7-6-6v-44
			C-976.2-135.7-973.5-138.4-970.2-138.4z"/>
		<linearGradient id="Rectangle_32_1_" gradientUnits="userSpaceOnUse" x1="-802.159" y1="-150.82" x2="-778.159" y2="-150.82">
			<stop  offset="0" style="stop-color:#16B6FF"/>
			<stop  offset="1" style="stop-color:#09FFCA"/>
		</linearGradient>
		<path id="Rectangle_32" class="st34" d="M-800.2-152.8h20c1.1,0,2,0.9,2,2l0,0c0,1.1-0.9,2-2,2h-20c-1.1,0-2-0.9-2-2l0,0
			C-802.2-151.9-801.3-152.8-800.2-152.8z"/>
		<g id="Group_3" transform="translate(29.238 59.888)" class="st35">
			<path id="Rectangle_35" class="st3" d="M-990.4-183.3h48c1.7,0,3,1.3,3,3l0,0c0,1.7-1.3,3-3,3h-48c-1.7,0-3-1.3-3-3l0,0
				C-993.4-182-992.1-183.3-990.4-183.3z"/>
			<path id="Rectangle_36" class="st3" d="M-991.4-171.3h116c1.1,0,2,0.9,2,2l0,0c0,1.1-0.9,2-2,2h-116c-1.1,0-2-0.9-2-2l0,0
				C-993.4-170.4-992.5-171.3-991.4-171.3z"/>
			<path id="Rectangle_37" class="st3" d="M-991.4-162.3h82c1.1,0,2,0.9,2,2l0,0c0,1.1-0.9,2-2,2h-82c-1.1,0-2-0.9-2-2l0,0
				C-993.4-161.4-992.5-162.3-991.4-162.3z"/>
		</g>
		<g id="Group_4" transform="translate(17.139 112.919)">
			
				<linearGradient id="Rectangle_38-2_1_" gradientUnits="userSpaceOnUse" x1="-1052.0369" y1="-35.5405" x2="-1052.0369" y2="-36.5405" gradientTransform="matrix(67 0 0 -63 69526.6719 -2422.7888)">
				<stop  offset="0" style="stop-color:#30CDFF"/>
				<stop  offset="1" style="stop-color:#4353FF"/>
			</linearGradient>
			<path id="Rectangle_38-2" class="st36" d="M-987.3-183.7h55c3.3,0,6,2.7,6,6v51c0,3.3-2.7,6-6,6h-55c-3.3,0-6-2.7-6-6v-51
				C-993.3-181.1-990.6-183.7-987.3-183.7z"/>
			<path id="Rectangle_39" class="st37" d="M-952.3-152.7h15c2.2,0,4,1.8,4,4v17c0,2.2-1.8,4-4,4h-15c-2.2,0-4-1.8-4-4v-17
				C-956.3-150.9-954.5-152.7-952.3-152.7z"/>
			<ellipse id="Ellipse_1" class="st37" cx="-984.3" cy="-174.2" rx="4" ry="3.5"/>
		</g>
		<g id="Group_6" transform="translate(178.452 112.919)">
			<path id="Rectangle_38-3" class="st38" d="M-986.6-183.7h56c3.3,0,6,2.7,6,6v51c0,3.3-2.7,6-6,6h-56c-3.3,0-6-2.7-6-6v-51
				C-992.6-181.1-989.9-183.7-986.6-183.7z"/>
		</g>
		<g id="Group_5" transform="translate(96.788 112.919)">
			
				<linearGradient id="Rectangle_38-4_1_" gradientUnits="userSpaceOnUse" x1="-1131.4613" y1="-36.5405" x2="-1131.4613" y2="-35.5405" gradientTransform="matrix(70 0 0 -63 78244.3438 -2422.7888)">
				<stop  offset="0" style="stop-color:#00A899"/>
				<stop  offset="1" style="stop-color:#01DFD5"/>
			</linearGradient>
			<path id="Rectangle_38-4" class="st39" d="M-986.9-183.7h58c3.3,0,6,2.7,6,6v51c0,3.3-2.7,6-6,6h-58c-3.3,0-6-2.7-6-6v-51
				C-992.9-181.1-990.3-183.7-986.9-183.7z"/>
			<ellipse id="Ellipse_1-2" class="st37" cx="-981.9" cy="-174.2" rx="4" ry="3.5"/>
			<path id="Polygon_1" class="st37" d="M-948.1-149c0.8-1.4,2.6-2,4.1-1.2c0.5,0.3,0.9,0.7,1.2,1.2l9.4,16.8
				c0.8,1.4,0.3,3.3-1.2,4.1c-0.4,0.2-0.9,0.4-1.5,0.4h-18.8c-1.7,0-3-1.3-3-3c0-0.5,0.1-1,0.4-1.5L-948.1-149z"/>
		</g>
		<linearGradient id="Rectangle_33_1_" gradientUnits="userSpaceOnUse" x1="-770.159" y1="-150.82" x2="-746.159" y2="-150.82">
			<stop  offset="0" style="stop-color:#16B6FF"/>
			<stop  offset="1" style="stop-color:#09FFCA"/>
		</linearGradient>
		<path id="Rectangle_33" class="st40" d="M-768.2-152.8h20c1.1,0,2,0.9,2,2l0,0c0,1.1-0.9,2-2,2h-20c-1.1,0-2-0.9-2-2l0,0
			C-770.2-151.9-769.3-152.8-768.2-152.8z"/>
		<circle id="Ellipse_3" class="st41" cx="-965.2" cy="-171.8" r="2"/>
		<circle id="Ellipse_4" class="st42" cx="-973.2" cy="-171.8" r="2"/>
		<circle id="Ellipse_5" class="st43" cx="-981.2" cy="-171.8" r="2"/>
		<path id="Rectangle_41" class="st44" d="M-796.7-177.8h52c2.5,0,4.5,2,4.5,4.5l0,0c0,2.5-2,4.5-4.5,4.5h-52c-2.5,0-4.5-2-4.5-4.5
			l0,0C-801.2-175.8-799.1-177.8-796.7-177.8z"/>
	</g>
	<g id="Group_8" transform="translate(1211.739 256.489)">
		
			<linearGradient id="Rectangle_42-2_1_" gradientUnits="userSpaceOnUse" x1="-864.4176" y1="55.3681" x2="-864.4176" y2="56.3681" gradientTransform="matrix(84 0 0 -84 71660.3359 4551.4351)">
			<stop  offset="0" style="stop-color:#16B6FF"/>
			<stop  offset="1" style="stop-color:#09FFCA"/>
		</linearGradient>
		<path id="Rectangle_42-2" class="st45" d="M-950.7-183.5L-950.7-183.5c23.2,0,42,18.8,42,42l0,0c0,23.2-18.8,42-42,42l0,0
			c-23.2,0-42-18.8-42-42l0,0C-992.7-164.7-973.9-183.5-950.7-183.5z"/>
		<path id="brackets-curly" class="st3" d="M-962.2-153.2c0.1-2,1.8-3.7,3.8-3.6c1,0,1.9-0.8,1.9-1.8c0-1-0.9-1.8-1.9-1.8
			c-4.1-0.1-7.5,3.1-7.6,7.2v5.4c-0.1,2-1.8,3.7-3.8,3.6c-1,0-1.8,0.8-1.8,1.8s0.8,1.8,1.8,1.8c2-0.1,3.8,1.6,3.8,3.6v5.4
			c0.1,4.1,3.5,7.3,7.6,7.2c1,0,1.8-0.8,1.8-1.8c0-1-0.8-1.8-1.8-1.8c0,0,0,0,0,0c-2,0.1-3.8-1.6-3.8-3.6v-5.4c0-2.1-1-4.1-2.6-5.4
			c1.6-1.3,2.6-3.3,2.6-5.4L-962.2-153.2z M-931.7-144.2c-2,0.1-3.8-1.6-3.8-3.6v-5.4c-0.1-4.1-3.5-7.3-7.6-7.2
			c-1,0-1.9,0.8-1.9,1.8c0,1,0.9,1.8,1.9,1.8c2-0.1,3.8,1.6,3.8,3.6v5.4c0,2.1,1,4.1,2.6,5.4c-1.6,1.3-2.6,3.3-2.6,5.4v5.4
			c-0.1,2-1.8,3.7-3.8,3.6c-1,0-1.8,0.8-1.8,1.8s0.8,1.8,1.8,1.8c0,0,0,0,0,0c4.1,0.1,7.5-3.1,7.6-7.2v-5.4c0.1-2,1.8-3.7,3.8-3.6
			c1,0,1.8-0.8,1.8-1.8S-930.7-144.2-931.7-144.2C-931.7-144.2-931.7-144.2-931.7-144.2z"/>
	</g>
	<g id="Group_5153" transform="translate(1595.841 374.264)">
		<g id="Group_4599" transform="translate(51.649)">
			<g id="Group_4596" transform="translate(29.446 104.275)">
				<linearGradient id="Path_4586_1_" gradientUnits="userSpaceOnUse" x1="-940.111" y1="-66.5735" x2="-922.9364" y2="-66.5735">
					<stop  offset="0" style="stop-color:#34C2F1"/>
					<stop  offset="1" style="stop-color:#426FB5"/>
				</linearGradient>
				<path id="Path_4586" class="st46" d="M-923.1-67.7c-0.9,2.4-4.3,3.8-5,6.7c-0.2,1.2-0.8,2.3-1.7,3.2l-10.4-0.7
					c0.1-0.6,0.6-1.1,2-1.3c2.9-0.4,4.2-3.8,4.3-7.1c0-1.4,0.1-2.8,0.3-4.2c0.2-1.9,0.5-3.3,0.5-3.3l6.2-1l0.6,0.9l0.6,0.8
					C-925.6-73.7-922.2-70-923.1-67.7z"/>
				<linearGradient id="Path_4587_1_" gradientUnits="userSpaceOnUse" x1="-993" y1="-65.8593" x2="-971.4668" y2="-65.8593">
					<stop  offset="0" style="stop-color:#34C2F1"/>
					<stop  offset="1" style="stop-color:#426FB5"/>
				</linearGradient>
				<path id="Path_4587" class="st47" d="M-972-60.7l-21-1.5c0.7-0.7,1.7-1.1,2.7-1.1c3.3-0.3,9-1.8,10.5-5.8c0-0.1,0.1-0.3,0.1-0.4
					c1.3-4.3,8.1,1.9,8.1,1.9s0,0.2,0,0.5C-971.4-64.9-971.6-62.8-972-60.7z"/>
				<linearGradient id="Path_4588_1_" gradientUnits="userSpaceOnUse" x1="-981.314" y1="-122.8495" x2="-950.649" y2="-122.8495">
					<stop  offset="0" style="stop-color:#34C2F1"/>
					<stop  offset="1" style="stop-color:#426FB5"/>
				</linearGradient>
				<path id="Path_4588" class="st48" d="M-981.3-178.7c0,0,0.1,13.7,0.3,30.2c0.2,22.4,0.4,49.9,0.2,55.1c-0.3,9,0.2,23.5,0.2,23.5
					s3.2,3.7,10.1,2.7c4.9-13.5,8.5-27.5,10.8-41.7c0.1-0.4,0.1-0.7,0.2-1.1c3.2-22,9-68.4,9-68.4L-981.3-178.7z"/>
				<linearGradient id="Path_4590_1_" gradientUnits="userSpaceOnUse" x1="-976.438" y1="-127.1765" x2="-925.525" y2="-127.1765">
					<stop  offset="0" style="stop-color:#34C2F1"/>
					<stop  offset="1" style="stop-color:#426FB5"/>
				</linearGradient>
				<path id="Path_4590" class="st49" d="M-976.4-176.7c0,0,16.2,50.8,27.6,74.9S-934-71-934-71s7.6-2.4,8.4-4.4
					c0,0-1.8-45.1-9.7-56.7c-4.5-6.5-8.9-25.4-8.7-31.9s-0.4-19.4-0.4-19.4L-976.4-176.7z"/>
			</g>
			<path id="Path_4591" class="st50" d="M-931.6-147.9c-0.3-2.8-0.4-5.5-0.3-8.3l10.6-7.4c-1.1,11,5.6,16.9,5.6,16.9
				s-13.8,5.6-21.3,2.7C-935.5-145.6-933.6-146.9-931.6-147.9z"/>
			<path id="Path_4592" class="st50" d="M-934.2-156.5c0,0,12.6,3,14.3-4.8s4.5-12.8-3.4-15s-10.2,0.4-11.4,2.9
				S-937.5-157.5-934.2-156.5z"/>
			<g id="Group_4597" transform="translate(0 34.939)">
				<path id="Path_4593" class="st51" d="M-980-178.2l-2.6-1.9c-1.9-3.1-5.8-4.2-9-2.5c0,0-2.4,1.3-0.9,2.6s1.1,0.6,3.1,2.5
					s4.7,2.7,6.5,1.9l2.3-0.1L-980-178.2z"/>
				
					<linearGradient id="Path_4594_1_" gradientUnits="userSpaceOnUse" x1="-1301.0847" y1="-86.0155" x2="-1301.0847" y2="-87.0155" gradientTransform="matrix(68.8948 0 0 -18.199 88688.6875 -1745.6276)">
					<stop  offset="0" style="stop-color:#FF3E37"/>
					<stop  offset="1" style="stop-color:#FFC756"/>
				</linearGradient>
				<path id="Path_4594" class="st52" d="M-983.2-177.9c0.8-2.1,1.2-2.3,1.2-2.3s21.7,4.1,23.8,4.4s31.1-3.6,31.1-3.6l12.4,17.4
					c0,0-40-1.3-45.2-2.1c-8.6-1.4-23.7-10.5-23.7-10.5C-983.8-175.8-983.7-176.9-983.2-177.9z"/>
			</g>
			
				<linearGradient id="Path_4595_1_" gradientUnits="userSpaceOnUse" x1="-1304.3975" y1="-61.2329" x2="-1304.3975" y2="-62.2329" gradientTransform="matrix(41.7485 0 0 -79.1797 53524.625 -4998.3511)">
				<stop  offset="0" style="stop-color:#FF3E37"/>
				<stop  offset="1" style="stop-color:#FFC756"/>
			</linearGradient>
			<path id="Path_4595" class="st53" d="M-913.6-76.5c0,0.9-1.8,1.7-2.6,1.9c-5.5,2.2-11.4,3.5-17.4,3.7c-7.2,0.2-15.5-2-18.4-2.1
				c-0.3,0-0.6-0.2-0.8-0.4c-0.2-0.2,0.3-8.9,1.2-19.9c0-0.4,0.1-0.9,0.1-1.3l0-0.2c0.1-1.1,0.2-2.3,0.3-3.5c0.3-3.2,0.6-6.5,1-9.8
				c0.5-4.8,1.2-9.5,1.9-13.7c0.5-3.6,1.3-7.2,2.4-10.8c1.7-5.1,5-9.5,9.3-12.7l2.8-2.2c2.8,0.8,5.7,0.7,8.4-0.4
				c3.1-1.3,6.6-2.7,7.1-2.3c3.9,3.4,6.2,10.5,7,19.5c0.4,5.2,0.4,10.5,0,15.7c-0.2,2.1-0.4,4.3-0.7,6.5c-1.1,9.2-1.6,18.5-1.5,27.8
				C-913.6-78.7-913.6-77.4-913.6-76.5z"/>
			<path id="Path_4599" class="st54" d="M-934.7-173.5c-2.9-2.5-3.3-6.8-1.1-9.9c3.2,1.1,6.5,1.3,9.8,0.7c5.9-0.9,10.9,1.3,11.4,3.4
				c0,0,2.2,1.1,2.2,4.4s-7.5,13.5-7.5,13.5s-1.3-1.9-0.8-3.1s1.9-3.9,0.4-4s-2.2,2.1-2.7,1.2s0.8-4.6-0.9-5.4
				S-932.8-172.2-934.7-173.5z"/>
		</g>
		
			<linearGradient id="Rectangle_38-5_1_" gradientUnits="userSpaceOnUse" x1="-1249.6592" y1="-60.393" x2="-1249.6592" y2="-61.393" gradientTransform="matrix(66 0 0 -62 81517.6641 -3915.0266)">
			<stop  offset="0" style="stop-color:#FEB6DB"/>
			<stop  offset="1" style="stop-color:#F234CD"/>
		</linearGradient>
		<path id="Rectangle_38-5" class="st55" d="M-986.8-170.7h54c3.3,0,6,2.7,6,6v50c0,3.3-2.7,6-6,6h-54c-3.3,0-6-2.7-6-6v-50
			C-992.8-168-990.2-170.7-986.8-170.7z"/>
		<g id="Group_4598" transform="translate(48.404 37.651)">
			<path id="Path_4597" class="st56" d="M-978-162.4l-3.3-0.8c-2.2-3.4-6.5-4.7-10.2-3.1c0,0-2.7,1.3-1.1,2.8s1.2,0.7,3.5,2.8
				s5.3,3.1,7.4,2.3l2.6,0L-978-162.4z"/>
			
				<linearGradient id="Path_4598_1_" gradientUnits="userSpaceOnUse" x1="-1297.6593" y1="-94.3693" x2="-1297.6593" y2="-95.3693" gradientTransform="matrix(71.4227 0 0 -31.8061 91737.3516 -3184.9062)">
				<stop  offset="0" style="stop-color:#FF3E37"/>
				<stop  offset="1" style="stop-color:#FFC756"/>
			</linearGradient>
			<path id="Path_4598" class="st57" d="M-980.6-160.9c0.3-2.4,1.6-2.6,1.6-2.6s25.2,0.1,27.3-0.2s23.3-15.4,23.3-15.4
				s8.2-6.4,13.4-3.7c4.6,2.4,5.7,6.5,5.7,10.2c0,4.4-2.8,8.4-6.9,9.9c-9.2,3.6-27.7,10.5-31.9,10.9c-9.2,0.9-32.2-5.8-32.2-5.8
				C-980.6-158.5-980.7-159.7-980.6-160.9z"/>
		</g>
	</g>
	<g id="Group_5151" transform="translate(1021.978 473.511)">
		<g id="Group_5148" transform="translate(0 46.127)">
			<path id="Path_6236" class="st6" d="M-947.4-84.7h56.3c2.6,0,4.8-2.1,4.8-4.8l0,0c0-2.6-2.1-4.8-4.8-4.8h-56.3
				c-2.6,0-4.8,2.1-4.8,4.8l0,0C-952.1-86.8-950-84.7-947.4-84.7z"/>
			<g id="Group_5147" transform="translate(32.426 95.568)">
				<rect id="Rectangle_1768" x="-966.3" y="-183.4" class="st58" width="4.8" height="60.3"/>
				<path id="Union_33" class="st58" d="M-940.7-115.9c-2.1-0.4-3.7-2.1-3.8-4.3h-39.4c0,0.2,0,0.4-0.1,0.5
					c-0.4,2.5-2.8,4.2-5.3,3.8s-4.2-2.8-3.8-5.3c0.4-2.2,2.3-3.8,4.5-3.8v0h48.5v0c2.5,0,4.6,2,4.6,4.6c0,2.5-2,4.6-4.6,4.6
					C-940.2-115.9-940.4-115.9-940.7-115.9L-940.7-115.9z"/>
			</g>
			<path id="Path_6239" class="st6" d="M-962.1-84.7h53.2c3,0,5.5-2.5,5.4-5.6c0-0.5-0.1-1-0.2-1.5l-25.4-87.6c-0.7-2.3-2.8-4-5.2-4
				h-53.2c-3,0-5.5,2.5-5.4,5.6c0,0.5,0.1,1,0.2,1.5l25.4,87.6C-966.7-86.3-964.6-84.7-962.1-84.7z"/>
			<path id="Path_6240" class="st59" d="M-954.8-84.7h46.4c3,0,5.5-2.5,5.4-5.6c0-0.5-0.1-1-0.2-1.5l-25.4-87.6
				c-0.7-2.3-2.8-4-5.2-4h-46.4c-3,0-5.5,2.5-5.4,5.6c0,0.5,0.1,1,0.2,1.5l25.4,87.6C-959.4-86.3-957.2-84.7-954.8-84.7z"/>
			<path id="Path_6241" class="st6" d="M-962.1-84.7h56.3c2.6,0,4.8-2.1,4.8-4.8l0,0c0-2.6-2.1-4.8-4.8-4.8h-56.3
				c-2.6,0-4.8,2.1-4.8,4.8l0,0C-966.9-86.8-964.8-84.7-962.1-84.7z"/>
		</g>
		<path id="Path_6242" class="st60" d="M-916.5-112.9l11.5,33.2l-2.7,6.5l-15.6-2.9l-4.4-35.6L-916.5-112.9z"/>
		
			<linearGradient id="Path_6243_1_" gradientUnits="userSpaceOnUse" x1="-699.6502" y1="-155.3416" x2="-699.6502" y2="-156.3416" gradientTransform="matrix(12.032 0 0 -29.378 7499.8145 -4692.7515)">
			<stop  offset="0" style="stop-color:#16B6FF"/>
			<stop  offset="1" style="stop-color:#09FFCA"/>
		</linearGradient>
		<path id="Path_6243" class="st61" d="M-923.5-129.1c0,0,9.1,5.2,11.1,22.2l-12,7.2L-923.5-129.1z"/>
		
			<linearGradient id="Path_6244_1_" gradientUnits="userSpaceOnUse" x1="-676.051" y1="-160.462" x2="-676.051" y2="-161.462" gradientTransform="matrix(62.982 0 0 -78.715 41636.3555 -12767.709)">
			<stop  offset="0" style="stop-color:#16B6FF"/>
			<stop  offset="1" style="stop-color:#09FFCA"/>
		</linearGradient>
		<path id="Path_6244" class="st62" d="M-939.1-135.7l15.6,6.6l12.3,54.7l-41.1,16.2l-21.9-62.4c0,0,3.6-13,24.1-16.3L-939.1-135.7z
			"/>
		<path id="Path_6245" class="st60" d="M-980.6-71.4c0-0.7,0.5-5,0.6-5.7l6.8-43.4c1.1-4.9,6-8,10.9-6.9c4.9,1.1,8,6,6.9,10.9
			c-0.1,0.4-0.2,0.7-0.3,1.1l-8.1,37.2L-980.6-71.4z"/>
		<path id="Path_6246" class="st60" d="M-971.4-80.7l45.8-3.6l2.3,8.1l-44.1,14.9c-5.2,1.8-10.9-1-12.7-6.3
			c-0.4-1.3-0.6-2.6-0.5-3.9l0,0C-980.3-76.4-976.3-80.3-971.4-80.7z"/>
		
			<linearGradient id="Path_6247_1_" gradientUnits="userSpaceOnUse" x1="-683.7831" y1="-153.9925" x2="-683.7831" y2="-154.9925" gradientTransform="matrix(26.3809 0 0 -25.214 17075.0527 -4011.7893)">
			<stop  offset="0" style="stop-color:#16B6FF"/>
			<stop  offset="1" style="stop-color:#09FFCA"/>
		</linearGradient>
		<path id="Path_6247" class="st63" d="M-968.6-127.8c0,0-5.9,2.5-8.4,17.7l20.6,6.3c0,0,13.5-15.1-0.9-25.2L-968.6-127.8z"/>
		<path id="Path_6248" class="st60" d="M-911.2-75.7c-1.7,4.5-10.2,4.7-14.7,3c-4.5-1.7-9.1-4.3-7.5-8.8c1.7-4.5,9.2-7.2,14.1-6.1
			C-913.2-86.2-909.5-80.2-911.2-75.7z"/>
		<path id="Path_6249" class="st64" d="M-936.1-69.6l32.7-4.2l-0.5-3.7l-32.7,4.2c-1,0.1-1.7,1.1-1.6,2.1l0,0
			C-938.1-70.2-937.1-69.4-936.1-69.6C-936.1-69.6-936.1-69.6-936.1-69.6z"/>
		<linearGradient id="Path_6250_1_" gradientUnits="userSpaceOnUse" x1="-907.706" y1="-96.5428" x2="-854.9276" y2="-96.5428">
			<stop  offset="0" style="stop-color:#F59FAD"/>
			<stop  offset="1" style="stop-color:#AE619D"/>
		</linearGradient>
		<path id="Path_6250" class="st65" d="M-907.7-73.2l43.3-5.6c2.5-0.3,4.5-2.3,4.8-4.8l4.5-31.5c0.3-2.3-1.3-4.5-3.6-4.8
			c-0.4-0.1-0.8-0.1-1.2,0l-39.8,5.1c-1.7,0.2-3,1.5-3.2,3.2L-907.7-73.2z"/>
		<path id="Path_6251" class="st3" d="M-883.6-94.8c0.3,2.3,2.4,3.9,4.6,3.6c2.3-0.3,3.9-2.4,3.6-4.6c-0.3-2.3-2.4-3.9-4.6-3.6
			C-882.3-99.1-883.9-97.1-883.6-94.8C-883.6-94.8-883.6-94.8-883.6-94.8z"/>
		<linearGradient id="Path_6252_1_" gradientUnits="userSpaceOnUse" x1="-869.885" y1="18.523" x2="-830.532" y2="18.523">
			<stop  offset="0" style="stop-color:#A5479A"/>
			<stop  offset="1" style="stop-color:#D73149"/>
		</linearGradient>
		<path id="Path_6252" class="st66" d="M-855.9,9.9l11.3,4.7l7.1,0.5c3.3,0.2,6,2.6,6.7,5.8l0.3,1.5l-38.6,4.8l-0.8-15.5L-855.9,9.9
			z"/>
		<path id="Path_6253" class="st67" d="M-869.9,11.7l-3.8-16.9l14-1.9l3.8,17L-869.9,11.7z"/>
		<linearGradient id="Path_6254_1_" gradientUnits="userSpaceOnUse" x1="-903.7035" y1="5.444" x2="-903.7035" y2="-75.69">
			<stop  offset="0" style="stop-color:#D7CBFF"/>
			<stop  offset="1" style="stop-color:#5F58FF"/>
		</linearGradient>
		<path id="Path_6254" class="st68" d="M-952.3-58.2c0,0,1.1,9.3,17.9,10.6h40.3l19,53.1l20-3.2l-20-77.9l-45.8,5.1L-952.3-58.2z"/>
		<linearGradient id="Path_6255_1_" gradientUnits="userSpaceOnUse" x1="-834.667" y1="-12.6925" x2="-795.404" y2="-12.6925">
			<stop  offset="0" style="stop-color:#A5479A"/>
			<stop  offset="1" style="stop-color:#D73149"/>
		</linearGradient>
		<path id="Path_6255" class="st69" d="M-823.6-20.6l12-1.8l6.4-3.2c2.9-1.5,6.5-0.8,8.7,1.6l1,1.1L-826,1l-8.6-12.9L-823.6-20.6z"
			/>
		<path id="Path_6256" class="st67" d="M-834.7-11.9l-10.5-13.3l11-8.8l10.6,13.4L-834.7-11.9z"/>
		<linearGradient id="Path_6257_1_" gradientUnits="userSpaceOnUse" x1="-874.4035" y1="-18.22" x2="-874.4035" y2="-85.8678">
			<stop  offset="0" style="stop-color:#D7CBFF"/>
			<stop  offset="1" style="stop-color:#5F58FF"/>
		</linearGradient>
		<path id="Path_6257" class="st70" d="M-911.2-74.4l31.1-9.3c1.3-0.4,2.6-0.9,3.9-1.3c2.7-1,9.4-2.5,14.7,5.6
			c6.7,10.3,33.7,49.1,33.7,49.1l-16.4,12.1l-35.9-45.7c-3-4.1-7.8-6.6-13-6.6l-27.7-0.1L-911.2-74.4z"/>
		<path id="Path_6258" class="st54" d="M-951.2-152.7c-0.6-1-10.2-18.2-1.4-22.5c0,0,1.1-9,11.3-8.1c10.1,1,7.4,4,13.8,2.5
			s12.5,1.9,12,7.2c-0.5,5.4-4.6,7.7-12,6.4c-4.4-0.8-8.9-0.9-13.3-0.3l-6.2,1.8L-951.2-152.7z"/>
		<g id="Group_5150" transform="translate(40.55 27.457)">
			<g id="Group_5149" transform="translate(0)">
				<path id="Path_6259" class="st71" d="M-993-161.6l0.8-21.8l15.1,5.3l-1.2,17.5c-0.3,4.1-2.5,7.2-6.6,6.9l-1.3-0.1
					C-990.2-154-993.3-157.5-993-161.6z"/>
			</g>
			<path id="Path_6260" class="st71" d="M-990.9-180.4c0,0-2.8,18.2,12.7,19.2l0.7-8.6L-990.9-180.4z"/>
		</g>
		<path id="Path_6261" class="st60" d="M-937.5-137.8l-0.5,0c-7.7-0.4-13.7-6.9-13.4-14.7c0,0,0,0,0,0l0.7-15.8
			c0.1-2,1.8-3.6,3.8-3.5c0,0,0,0,0,0l18.4,0.9c3.6,0.2,6.3,3.2,6.2,6.8c0,0,0,0,0,0l-0.6,13C-923.2-143.4-929.8-137.4-937.5-137.8
			C-937.5-137.8-937.5-137.8-937.5-137.8z"/>
		<path id="Path_6262" class="st67" d="M-947.9-157.2c-0.1,2.6-2.3,4.6-4.9,4.5c-2.6-0.1-4.6-2.3-4.5-4.9s2.3-4.6,4.9-4.5
			c0,0,0,0,0,0C-949.8-162-947.8-159.8-947.9-157.2z"/>
		<path id="Path_6263" class="st54" d="M-945.6-169.9l-0.9,17.7c-0.1,1.6,0.6,3.2,1.9,4.1c0.8,0.6,1.5,1.3,3,1.1
			c4.2-0.6,2.3-3.7,10.8-3.3c7.8,0.4,7.2,4.8,7.2,4.8s-1.5,8.3-12.2,8.6c-10.7,0.4-16-6.4-14.8-15.4l1.1-18.6L-945.6-169.9z"/>
		<path id="Path_6264" class="st54" d="M-922.7-166.9c-4.1,0.4-8.2,0.1-12.2-1c-7.2-1.8-12.9,4-12.9,4s-1.5,2.7-1.9,2.6
			c-0.4-0.1-2.6-0.9-2.6-0.9l0.1-8.2l5.3-4.1l14.7-0.6l8.7,1.9L-922.7-166.9z"/>
	</g>
</g>
</svg>
