<?xml version="1.0" encoding="utf-8"?>
<!-- Generator: Adobe Illustrator 25.0.1, SVG Export Plug-In . SVG Version: 6.00 Build 0)  -->
<svg version="1.1" id="Layer_1" xmlns="http://www.w3.org/2000/svg" xmlns:xlink="http://www.w3.org/1999/xlink" x="0px" y="0px"
	 viewBox="0 0 1920 1260" style="enable-background:new 0 0 1920 1260;" xml:space="preserve">
<style type="text/css">
	.st0{fill:url(#SVGID_1_);fill-opacity:8.000000e-02;}
	.st1{opacity:0.3;fill-rule:evenodd;clip-rule:evenodd;fill:url(#SVGID_2_);}
	.st2{opacity:0.4;}
	.st3{fill:#B2B2B2;}
	.st4{opacity:0.6;}
	.st5{clip-path:url(#SVGID_4_);}
	.st6{fill:url(#SVGID_5_);}
	.st7{fill:url(#SVGID_6_);}
	.st8{fill:url(#SVGID_7_);}
	.st9{fill:url(#SVGID_8_);}
	.st10{fill:url(#SVGID_9_);}
	.st11{fill:url(#SVGID_10_);}
	.st12{fill:url(#SVGID_11_);}
	.st13{fill:url(#SVGID_12_);}
	.st14{fill:url(#SVGID_13_);}
	.st15{fill:url(#SVGID_14_);}
	.st16{fill:url(#SVGID_15_);}
	.st17{fill:url(#SVGID_16_);}
	.st18{fill:url(#SVGID_17_);}
	.st19{fill:url(#SVGID_18_);}
	.st20{fill:url(#SVGID_19_);}
	.st21{fill:url(#SVGID_20_);}
	.st22{fill:url(#SVGID_21_);}
	.st23{opacity:0.4;fill:url(#SVGID_22_);}
	.st24{opacity:0.41;fill:#536BE6;enable-background:new    ;}
	.st25{opacity:0.2;fill:url(#SVGID_23_);}
</style>
<linearGradient id="SVGID_1_" gradientUnits="userSpaceOnUse" x1="960" y1="-0.2" x2="960" y2="383.8" gradientTransform="matrix(1 0 0 -1 0 1260)">
	<stop  offset="0" style="stop-color:#16B6FF;stop-opacity:0"/>
	<stop  offset="1" style="stop-color:#16B6FF"/>
</linearGradient>
<path class="st0" d="M0,876.2l40,42.7c40,42.7,120,128,200,142.3c80,13.7,160-42.3,240-85.3c80-42.3,160-71.6,240-42.7
	c80,28.4,160,113.7,240,177.7s160,106.7,240,92.4c80-13.7,160-85.7,240-149.3c80-64.4,160-120.4,240-128c80-7.1,160,35.6,200,56.9
	l40,21.3v256h-40c-40,0-120,0-200,0s-160,0-240,0s-160,0-240,0s-160,0-240,0s-160,0-240,0s-160,0-240,0s-160,0-240,0s-160,0-200,0H0
	V876.2z"/>
<linearGradient id="SVGID_2_" gradientUnits="userSpaceOnUse" x1="2041.3066" y1="-600.4617" x2="2042.2566" y2="-599.4871" gradientTransform="matrix(304 0 0 304 -618775 182815)">
	<stop  offset="0" style="stop-color:#16B6FF"/>
	<stop  offset="1" style="stop-color:#09FFCA"/>
</linearGradient>
<circle class="st1" cx="1921" cy="417" r="152"/>
<g id="XMLID_484_" class="st2">
	<g id="XMLID_548_">
		<path id="XMLID_556_" class="st3" d="M138.4,816.2c0,4.1-3.3,7.5-7.5,7.5c-4.1,0-7.5-3.3-7.5-7.5s3.3-7.5,7.5-7.5
			S138.4,812.1,138.4,816.2z"/>
		<path id="XMLID_555_" class="st3" d="M186.2,816.2c0,4.1-3.3,7.5-7.5,7.5c-4.1,0-7.5-3.3-7.5-7.5s3.3-7.5,7.5-7.5
			S186.2,812.1,186.2,816.2z"/>
		<path id="XMLID_554_" class="st3" d="M234,816.2c0,4.1-3.3,7.5-7.5,7.5c-4.1,0-7.5-3.3-7.5-7.5s3.3-7.5,7.5-7.5
			C230.6,808.7,234,812.1,234,816.2z"/>
		<path id="XMLID_553_" class="st3" d="M281.8,816.2c0,4.1-3.3,7.5-7.5,7.5c-4.1,0-7.5-3.3-7.5-7.5s3.3-7.5,7.5-7.5
			C278.4,808.7,281.8,812.1,281.8,816.2z"/>
		<path id="XMLID_552_" class="st3" d="M329.5,816.2c0,4.1-3.3,7.5-7.5,7.5s-7.5-3.3-7.5-7.5s3.3-7.5,7.5-7.5
			S329.5,812.1,329.5,816.2z"/>
		<path id="XMLID_551_" class="st3" d="M377.3,816.2c0,4.1-3.3,7.5-7.5,7.5c-4.1,0-7.5-3.3-7.5-7.5s3.3-7.5,7.5-7.5
			S377.3,812.1,377.3,816.2z"/>
		<path id="XMLID_550_" class="st3" d="M425.1,816.2c0,4.1-3.3,7.5-7.5,7.5c-4.1,0-7.5-3.3-7.5-7.5s3.3-7.5,7.5-7.5
			C421.7,808.7,425.1,812.1,425.1,816.2z"/>
		<path id="XMLID_549_" class="st3" d="M472.8,816.2c0,4.1-3.3,7.5-7.5,7.5c-4.1,0-7.5-3.3-7.5-7.5s3.3-7.5,7.5-7.5
			S472.8,812.1,472.8,816.2z"/>
	</g>
	<g id="XMLID_539_">
		<path id="XMLID_547_" class="st3" d="M138.4,771.1c0,4.1-3.3,7.5-7.5,7.5c-4.1,0-7.5-3.3-7.5-7.5c0-4.1,3.3-7.5,7.5-7.5
			S138.4,767,138.4,771.1z"/>
		<path id="XMLID_546_" class="st3" d="M186.2,771.1c0,4.1-3.3,7.5-7.5,7.5c-4.1,0-7.5-3.3-7.5-7.5c0-4.1,3.3-7.5,7.5-7.5
			S186.2,767,186.2,771.1z"/>
		<path id="XMLID_545_" class="st3" d="M234,771.1c0,4.1-3.3,7.5-7.5,7.5c-4.1,0-7.5-3.3-7.5-7.5c0-4.1,3.3-7.5,7.5-7.5
			C230.6,763.6,234,767,234,771.1z"/>
		<path id="XMLID_544_" class="st3" d="M281.8,771.1c0,4.1-3.3,7.5-7.5,7.5c-4.1,0-7.5-3.3-7.5-7.5c0-4.1,3.3-7.5,7.5-7.5
			C278.4,763.6,281.8,767,281.8,771.1z"/>
		<path id="XMLID_543_" class="st3" d="M329.5,771.1c0,4.1-3.3,7.5-7.5,7.5s-7.5-3.3-7.5-7.5c0-4.1,3.3-7.5,7.5-7.5
			S329.5,767,329.5,771.1z"/>
		<path id="XMLID_542_" class="st3" d="M377.3,771.1c0,4.1-3.3,7.5-7.5,7.5c-4.1,0-7.5-3.3-7.5-7.5c0-4.1,3.3-7.5,7.5-7.5
			S377.3,767,377.3,771.1z"/>
		<path id="XMLID_541_" class="st3" d="M425.1,771.1c0,4.1-3.3,7.5-7.5,7.5c-4.1,0-7.5-3.3-7.5-7.5c0-4.1,3.3-7.5,7.5-7.5
			C421.7,763.6,425.1,767,425.1,771.1z"/>
		<path id="XMLID_540_" class="st3" d="M472.8,771.1c0,4.1-3.3,7.5-7.5,7.5c-4.1,0-7.5-3.3-7.5-7.5c0-4.1,3.3-7.5,7.5-7.5
			S472.8,767,472.8,771.1z"/>
	</g>
	<g id="XMLID_530_">
		<path id="XMLID_538_" class="st3" d="M138.4,726c0,4.1-3.3,7.5-7.5,7.5c-4.1,0-7.5-3.3-7.5-7.5s3.3-7.5,7.5-7.5
			S138.4,721.9,138.4,726z"/>
		<path id="XMLID_537_" class="st3" d="M186.2,726c0,4.1-3.3,7.5-7.5,7.5c-4.1,0-7.5-3.3-7.5-7.5s3.3-7.5,7.5-7.5
			S186.2,721.9,186.2,726z"/>
		<path id="XMLID_536_" class="st3" d="M234,726c0,4.1-3.3,7.5-7.5,7.5c-4.1,0-7.5-3.3-7.5-7.5s3.3-7.5,7.5-7.5
			C230.6,718.5,234,721.9,234,726z"/>
		<path id="XMLID_535_" class="st3" d="M281.8,726c0,4.1-3.3,7.5-7.5,7.5c-4.1,0-7.5-3.3-7.5-7.5s3.3-7.5,7.5-7.5
			C278.4,718.5,281.8,721.9,281.8,726z"/>
		<path id="XMLID_534_" class="st3" d="M329.5,726c0,4.1-3.3,7.5-7.5,7.5s-7.5-3.3-7.5-7.5s3.3-7.5,7.5-7.5S329.5,721.9,329.5,726z"
			/>
		<path id="XMLID_533_" class="st3" d="M377.3,726c0,4.1-3.3,7.5-7.5,7.5c-4.1,0-7.5-3.3-7.5-7.5s3.3-7.5,7.5-7.5
			S377.3,721.9,377.3,726z"/>
		<path id="XMLID_532_" class="st3" d="M425.1,726c0,4.1-3.3,7.5-7.5,7.5c-4.1,0-7.5-3.3-7.5-7.5s3.3-7.5,7.5-7.5
			C421.7,718.5,425.1,721.9,425.1,726z"/>
		<path id="XMLID_531_" class="st3" d="M472.8,726c0,4.1-3.3,7.5-7.5,7.5c-4.1,0-7.5-3.3-7.5-7.5s3.3-7.5,7.5-7.5
			S472.8,721.9,472.8,726z"/>
	</g>
	<g id="XMLID_521_">
		<path id="XMLID_529_" class="st3" d="M138.4,680.9c0,4.1-3.3,7.5-7.5,7.5c-4.1,0-7.5-3.3-7.5-7.5s3.3-7.5,7.5-7.5
			C135.1,673.5,138.4,676.8,138.4,680.9z"/>
		<path id="XMLID_528_" class="st3" d="M186.2,680.9c0,4.1-3.3,7.5-7.5,7.5c-4.1,0-7.5-3.3-7.5-7.5s3.3-7.5,7.5-7.5
			C182.9,673.5,186.2,676.8,186.2,680.9z"/>
		<path id="XMLID_527_" class="st3" d="M234,680.9c0,4.1-3.3,7.5-7.5,7.5c-4.1,0-7.5-3.3-7.5-7.5s3.3-7.5,7.5-7.5
			C230.6,673.5,234,676.8,234,680.9z"/>
		<path id="XMLID_526_" class="st3" d="M281.8,680.9c0,4.1-3.3,7.5-7.5,7.5c-4.1,0-7.5-3.3-7.5-7.5s3.3-7.5,7.5-7.5
			C278.4,673.5,281.8,676.8,281.8,680.9z"/>
		<path id="XMLID_525_" class="st3" d="M329.5,680.9c0,4.1-3.3,7.5-7.5,7.5s-7.5-3.3-7.5-7.5s3.3-7.5,7.5-7.5
			S329.5,676.8,329.5,680.9z"/>
		<path id="XMLID_524_" class="st3" d="M377.3,680.9c0,4.1-3.3,7.5-7.5,7.5c-4.1,0-7.5-3.3-7.5-7.5s3.3-7.5,7.5-7.5
			C374,673.5,377.3,676.8,377.3,680.9z"/>
		<path id="XMLID_523_" class="st3" d="M425.1,680.9c0,4.1-3.3,7.5-7.5,7.5c-4.1,0-7.5-3.3-7.5-7.5s3.3-7.5,7.5-7.5
			C421.7,673.5,425.1,676.8,425.1,680.9z"/>
		<path id="XMLID_522_" class="st3" d="M472.8,680.9c0,4.1-3.3,7.5-7.5,7.5c-4.1,0-7.5-3.3-7.5-7.5s3.3-7.5,7.5-7.5
			C469.5,673.5,472.8,676.8,472.8,680.9z"/>
	</g>
	<g id="XMLID_512_">
		<path id="XMLID_520_" class="st3" d="M138.4,635.8c0,4.1-3.3,7.5-7.5,7.5c-4.1,0-7.5-3.3-7.5-7.5s3.3-7.5,7.5-7.5
			C135.1,628.4,138.4,631.7,138.4,635.8z"/>
		<path id="XMLID_519_" class="st3" d="M186.2,635.8c0,4.1-3.3,7.5-7.5,7.5c-4.1,0-7.5-3.3-7.5-7.5s3.3-7.5,7.5-7.5
			C182.9,628.4,186.2,631.7,186.2,635.8z"/>
		<path id="XMLID_518_" class="st3" d="M234,635.8c0,4.1-3.3,7.5-7.5,7.5c-4.1,0-7.5-3.3-7.5-7.5s3.3-7.5,7.5-7.5
			C230.6,628.4,234,631.7,234,635.8z"/>
		<path id="XMLID_517_" class="st3" d="M281.8,635.8c0,4.1-3.3,7.5-7.5,7.5c-4.1,0-7.5-3.3-7.5-7.5s3.3-7.5,7.5-7.5
			C278.4,628.4,281.8,631.7,281.8,635.8z"/>
		<path id="XMLID_516_" class="st3" d="M329.5,635.8c0,4.1-3.3,7.5-7.5,7.5s-7.5-3.3-7.5-7.5s3.3-7.5,7.5-7.5
			S329.5,631.7,329.5,635.8z"/>
		<path id="XMLID_515_" class="st3" d="M377.3,635.8c0,4.1-3.3,7.5-7.5,7.5c-4.1,0-7.5-3.3-7.5-7.5s3.3-7.5,7.5-7.5
			C374,628.4,377.3,631.7,377.3,635.8z"/>
		<path id="XMLID_514_" class="st3" d="M425.1,635.8c0,4.1-3.3,7.5-7.5,7.5c-4.1,0-7.5-3.3-7.5-7.5s3.3-7.5,7.5-7.5
			C421.7,628.4,425.1,631.7,425.1,635.8z"/>
		<path id="XMLID_513_" class="st3" d="M472.8,635.8c0,4.1-3.3,7.5-7.5,7.5c-4.1,0-7.5-3.3-7.5-7.5s3.3-7.5,7.5-7.5
			C469.5,628.4,472.8,631.7,472.8,635.8z"/>
	</g>
	<g id="XMLID_503_">
		<path id="XMLID_511_" class="st3" d="M138.4,590.7c0,4.1-3.3,7.5-7.5,7.5c-4.1,0-7.5-3.3-7.5-7.5s3.3-7.5,7.5-7.5
			C135.1,583.3,138.4,586.6,138.4,590.7z"/>
		<path id="XMLID_510_" class="st3" d="M186.2,590.7c0,4.1-3.3,7.5-7.5,7.5c-4.1,0-7.5-3.3-7.5-7.5s3.3-7.5,7.5-7.5
			C182.9,583.3,186.2,586.6,186.2,590.7z"/>
		<path id="XMLID_509_" class="st3" d="M234,590.7c0,4.1-3.3,7.5-7.5,7.5c-4.1,0-7.5-3.3-7.5-7.5s3.3-7.5,7.5-7.5
			C230.6,583.3,234,586.6,234,590.7z"/>
		<path id="XMLID_508_" class="st3" d="M281.8,590.7c0,4.1-3.3,7.5-7.5,7.5c-4.1,0-7.5-3.3-7.5-7.5s3.3-7.5,7.5-7.5
			C278.4,583.3,281.8,586.6,281.8,590.7z"/>
		<path id="XMLID_507_" class="st3" d="M329.5,590.7c0,4.1-3.3,7.5-7.5,7.5s-7.5-3.3-7.5-7.5s3.3-7.5,7.5-7.5
			S329.5,586.6,329.5,590.7z"/>
		<path id="XMLID_506_" class="st3" d="M377.3,590.7c0,4.1-3.3,7.5-7.5,7.5c-4.1,0-7.5-3.3-7.5-7.5s3.3-7.5,7.5-7.5
			C374,583.3,377.3,586.6,377.3,590.7z"/>
		<path id="XMLID_505_" class="st3" d="M425.1,590.7c0,4.1-3.3,7.5-7.5,7.5c-4.1,0-7.5-3.3-7.5-7.5s3.3-7.5,7.5-7.5
			C421.7,583.3,425.1,586.6,425.1,590.7z"/>
		<path id="XMLID_504_" class="st3" d="M472.8,590.7c0,4.1-3.3,7.5-7.5,7.5c-4.1,0-7.5-3.3-7.5-7.5s3.3-7.5,7.5-7.5
			C469.5,583.3,472.8,586.6,472.8,590.7z"/>
	</g>
	<g id="XMLID_494_">
		<path id="XMLID_502_" class="st3" d="M138.4,545.7c0,4.1-3.3,7.5-7.5,7.5c-4.1,0-7.5-3.3-7.5-7.5s3.3-7.5,7.5-7.5
			S138.4,541.5,138.4,545.7z"/>
		<path id="XMLID_501_" class="st3" d="M186.2,545.7c0,4.1-3.3,7.5-7.5,7.5c-4.1,0-7.5-3.3-7.5-7.5s3.3-7.5,7.5-7.5
			S186.2,541.5,186.2,545.7z"/>
		<path id="XMLID_500_" class="st3" d="M234,545.7c0,4.1-3.3,7.5-7.5,7.5c-4.1,0-7.5-3.3-7.5-7.5s3.3-7.5,7.5-7.5
			C230.6,538.2,234,541.5,234,545.7z"/>
		<path id="XMLID_499_" class="st3" d="M281.8,545.7c0,4.1-3.3,7.5-7.5,7.5c-4.1,0-7.5-3.3-7.5-7.5s3.3-7.5,7.5-7.5
			C278.4,538.2,281.8,541.5,281.8,545.7z"/>
		<path id="XMLID_498_" class="st3" d="M329.5,545.7c0,4.1-3.3,7.5-7.5,7.5s-7.5-3.3-7.5-7.5s3.3-7.5,7.5-7.5
			S329.5,541.5,329.5,545.7z"/>
		<path id="XMLID_497_" class="st3" d="M377.3,545.7c0,4.1-3.3,7.5-7.5,7.5c-4.1,0-7.5-3.3-7.5-7.5s3.3-7.5,7.5-7.5
			S377.3,541.5,377.3,545.7z"/>
		<path id="XMLID_496_" class="st3" d="M425.1,545.7c0,4.1-3.3,7.5-7.5,7.5c-4.1,0-7.5-3.3-7.5-7.5s3.3-7.5,7.5-7.5
			C421.7,538.2,425.1,541.5,425.1,545.7z"/>
		<path id="XMLID_495_" class="st3" d="M472.8,545.7c0,4.1-3.3,7.5-7.5,7.5c-4.1,0-7.5-3.3-7.5-7.5s3.3-7.5,7.5-7.5
			S472.8,541.5,472.8,545.7z"/>
	</g>
	<g id="XMLID_485_">
		<path id="XMLID_493_" class="st3" d="M138.4,500.6c0,4.1-3.3,7.5-7.5,7.5c-4.1,0-7.5-3.3-7.5-7.5c0-4.1,3.3-7.5,7.5-7.5
			S138.4,496.5,138.4,500.6z"/>
		<path id="XMLID_492_" class="st3" d="M186.2,500.6c0,4.1-3.3,7.5-7.5,7.5c-4.1,0-7.5-3.3-7.5-7.5c0-4.1,3.3-7.5,7.5-7.5
			S186.2,496.5,186.2,500.6z"/>
		<path id="XMLID_491_" class="st3" d="M234,500.6c0,4.1-3.3,7.5-7.5,7.5c-4.1,0-7.5-3.3-7.5-7.5c0-4.1,3.3-7.5,7.5-7.5
			C230.6,493.1,234,496.5,234,500.6z"/>
		<path id="XMLID_490_" class="st3" d="M281.8,500.6c0,4.1-3.3,7.5-7.5,7.5c-4.1,0-7.5-3.3-7.5-7.5c0-4.1,3.3-7.5,7.5-7.5
			C278.4,493.1,281.8,496.5,281.8,500.6z"/>
		<path id="XMLID_489_" class="st3" d="M329.5,500.6c0,4.1-3.3,7.5-7.5,7.5s-7.5-3.3-7.5-7.5c0-4.1,3.3-7.5,7.5-7.5
			S329.5,496.5,329.5,500.6z"/>
		<path id="XMLID_488_" class="st3" d="M377.3,500.6c0,4.1-3.3,7.5-7.5,7.5c-4.1,0-7.5-3.3-7.5-7.5c0-4.1,3.3-7.5,7.5-7.5
			S377.3,496.5,377.3,500.6z"/>
		<path id="XMLID_487_" class="st3" d="M425.1,500.6c0,4.1-3.3,7.5-7.5,7.5c-4.1,0-7.5-3.3-7.5-7.5c0-4.1,3.3-7.5,7.5-7.5
			C421.7,493.1,425.1,496.5,425.1,500.6z"/>
		<path id="XMLID_486_" class="st3" d="M472.8,500.6c0,4.1-3.3,7.5-7.5,7.5c-4.1,0-7.5-3.3-7.5-7.5c0-4.1,3.3-7.5,7.5-7.5
			S472.8,496.5,472.8,500.6z"/>
	</g>
</g>
<g class="st4">
	<g>
		<g>
			<g>
				<defs>
					<circle id="SVGID_3_" cx="1721" cy="828.9" r="86.6"/>
				</defs>
				<clipPath id="SVGID_4_">
					<use xlink:href="#SVGID_3_"  style="overflow:visible;"/>
				</clipPath>
				<g class="st5">
					
						<linearGradient id="SVGID_5_" gradientUnits="userSpaceOnUse" x1="1634.4" y1="387.9499" x2="1933.9" y2="387.9499" gradientTransform="matrix(1 0 0 -1 0 1009.9999)">
						<stop  offset="0" style="stop-color:#16B6FF"/>
						<stop  offset="1" style="stop-color:#09FFCA"/>
					</linearGradient>
					<polygon class="st6" points="1636.8,771.8 1634.4,769.4 1931.5,472.3 1933.9,474.7 					"/>
					
						<linearGradient id="SVGID_6_" gradientUnits="userSpaceOnUse" x1="1634.4" y1="371.5499" x2="1933.9" y2="371.5499" gradientTransform="matrix(1 0 0 -1 0 1009.9999)">
						<stop  offset="0" style="stop-color:#16B6FF"/>
						<stop  offset="1" style="stop-color:#09FFCA"/>
					</linearGradient>
					<polygon class="st7" points="1636.8,788.2 1634.4,785.8 1931.5,488.7 1933.9,491.1 					"/>
					
						<linearGradient id="SVGID_7_" gradientUnits="userSpaceOnUse" x1="1634.4" y1="355.1999" x2="1933.9" y2="355.1999" gradientTransform="matrix(1 0 0 -1 0 1009.9999)">
						<stop  offset="0" style="stop-color:#16B6FF"/>
						<stop  offset="1" style="stop-color:#09FFCA"/>
					</linearGradient>
					<polygon class="st8" points="1636.8,804.5 1634.4,802.1 1931.5,505.1 1933.9,507.5 					"/>
					
						<linearGradient id="SVGID_8_" gradientUnits="userSpaceOnUse" x1="1634.4" y1="338.8499" x2="1933.9" y2="338.8499" gradientTransform="matrix(1 0 0 -1 0 1009.9999)">
						<stop  offset="0" style="stop-color:#16B6FF"/>
						<stop  offset="1" style="stop-color:#09FFCA"/>
					</linearGradient>
					<polygon class="st9" points="1636.8,820.9 1634.4,818.5 1931.5,521.4 1933.9,523.8 					"/>
					
						<linearGradient id="SVGID_9_" gradientUnits="userSpaceOnUse" x1="1634.4" y1="322.4499" x2="1933.9" y2="322.4499" gradientTransform="matrix(1 0 0 -1 0 1009.9999)">
						<stop  offset="0" style="stop-color:#16B6FF"/>
						<stop  offset="1" style="stop-color:#09FFCA"/>
					</linearGradient>
					<polygon class="st10" points="1636.8,837.3 1634.4,834.9 1931.5,537.8 1933.9,540.2 					"/>
					
						<linearGradient id="SVGID_10_" gradientUnits="userSpaceOnUse" x1="1634.4" y1="306.0499" x2="1933.9" y2="306.0499" gradientTransform="matrix(1 0 0 -1 0 1009.9999)">
						<stop  offset="0" style="stop-color:#16B6FF"/>
						<stop  offset="1" style="stop-color:#09FFCA"/>
					</linearGradient>
					<polygon class="st11" points="1636.8,853.7 1634.4,851.2 1931.5,554.2 1933.9,556.6 					"/>
					
						<linearGradient id="SVGID_11_" gradientUnits="userSpaceOnUse" x1="1634.4" y1="289.7499" x2="1933.9" y2="289.7499" gradientTransform="matrix(1 0 0 -1 0 1009.9999)">
						<stop  offset="0" style="stop-color:#16B6FF"/>
						<stop  offset="1" style="stop-color:#09FFCA"/>
					</linearGradient>
					<polygon class="st12" points="1636.8,870 1634.4,867.6 1931.5,570.5 1933.9,572.9 					"/>
					
						<linearGradient id="SVGID_12_" gradientUnits="userSpaceOnUse" x1="1634.4" y1="273.3499" x2="1933.9" y2="273.3499" gradientTransform="matrix(1 0 0 -1 0 1009.9999)">
						<stop  offset="0" style="stop-color:#16B6FF"/>
						<stop  offset="1" style="stop-color:#09FFCA"/>
					</linearGradient>
					<polygon class="st13" points="1636.8,886.4 1634.4,884 1931.5,586.9 1933.9,589.3 					"/>
					
						<linearGradient id="SVGID_13_" gradientUnits="userSpaceOnUse" x1="1634.4" y1="256.9499" x2="1933.9" y2="256.9499" gradientTransform="matrix(1 0 0 -1 0 1009.9999)">
						<stop  offset="0" style="stop-color:#16B6FF"/>
						<stop  offset="1" style="stop-color:#09FFCA"/>
					</linearGradient>
					<polygon class="st14" points="1636.8,902.8 1634.4,900.3 1931.5,603.3 1933.9,605.7 					"/>
					
						<linearGradient id="SVGID_14_" gradientUnits="userSpaceOnUse" x1="1634.4" y1="240.6499" x2="1933.9" y2="240.6499" gradientTransform="matrix(1 0 0 -1 0 1009.9999)">
						<stop  offset="0" style="stop-color:#16B6FF"/>
						<stop  offset="1" style="stop-color:#09FFCA"/>
					</linearGradient>
					<polygon class="st15" points="1636.8,919.1 1634.4,916.7 1931.5,619.6 1933.9,622 					"/>
					
						<linearGradient id="SVGID_15_" gradientUnits="userSpaceOnUse" x1="1634.4" y1="224.2499" x2="1933.9" y2="224.2499" gradientTransform="matrix(1 0 0 -1 0 1009.9999)">
						<stop  offset="0" style="stop-color:#16B6FF"/>
						<stop  offset="1" style="stop-color:#09FFCA"/>
					</linearGradient>
					<polygon class="st16" points="1636.8,935.5 1634.4,933.1 1931.5,636 1933.9,638.4 					"/>
					
						<linearGradient id="SVGID_16_" gradientUnits="userSpaceOnUse" x1="1634.4" y1="207.8499" x2="1933.9" y2="207.8499" gradientTransform="matrix(1 0 0 -1 0 1009.9999)">
						<stop  offset="0" style="stop-color:#16B6FF"/>
						<stop  offset="1" style="stop-color:#09FFCA"/>
					</linearGradient>
					<polygon class="st17" points="1636.8,951.9 1634.4,949.5 1931.5,652.4 1933.9,654.8 					"/>
					
						<linearGradient id="SVGID_17_" gradientUnits="userSpaceOnUse" x1="1634.4" y1="191.5499" x2="1933.9" y2="191.5499" gradientTransform="matrix(1 0 0 -1 0 1009.9999)">
						<stop  offset="0" style="stop-color:#16B6FF"/>
						<stop  offset="1" style="stop-color:#09FFCA"/>
					</linearGradient>
					<polygon class="st18" points="1636.8,968.2 1634.4,965.8 1931.5,668.7 1933.9,671.2 					"/>
					
						<linearGradient id="SVGID_18_" gradientUnits="userSpaceOnUse" x1="1634.4" y1="175.1499" x2="1933.9" y2="175.1499" gradientTransform="matrix(1 0 0 -1 0 1009.9999)">
						<stop  offset="0" style="stop-color:#16B6FF"/>
						<stop  offset="1" style="stop-color:#09FFCA"/>
					</linearGradient>
					<polygon class="st19" points="1636.8,984.6 1634.4,982.2 1931.5,685.1 1933.9,687.5 					"/>
					
						<linearGradient id="SVGID_19_" gradientUnits="userSpaceOnUse" x1="1634.4" y1="158.7499" x2="1933.9" y2="158.7499" gradientTransform="matrix(1 0 0 -1 0 1009.9999)">
						<stop  offset="0" style="stop-color:#16B6FF"/>
						<stop  offset="1" style="stop-color:#09FFCA"/>
					</linearGradient>
					<polygon class="st20" points="1636.8,1001 1634.4,998.6 1931.5,701.5 1933.9,703.9 					"/>
					
						<linearGradient id="SVGID_20_" gradientUnits="userSpaceOnUse" x1="1634.4" y1="142.4499" x2="1933.9" y2="142.4499" gradientTransform="matrix(1 0 0 -1 0 1009.9999)">
						<stop  offset="0" style="stop-color:#16B6FF"/>
						<stop  offset="1" style="stop-color:#09FFCA"/>
					</linearGradient>
					<polygon class="st21" points="1636.8,1017.3 1634.4,1014.9 1931.5,717.8 1933.9,720.3 					"/>
					
						<linearGradient id="SVGID_21_" gradientUnits="userSpaceOnUse" x1="1634.4" y1="126.0499" x2="1933.9" y2="126.0499" gradientTransform="matrix(1 0 0 -1 0 1009.9999)">
						<stop  offset="0" style="stop-color:#16B6FF"/>
						<stop  offset="1" style="stop-color:#09FFCA"/>
					</linearGradient>
					<polygon class="st22" points="1636.8,1033.7 1634.4,1031.3 1931.5,734.2 1933.9,736.6 					"/>
				</g>
			</g>
		</g>
	</g>
</g>
<linearGradient id="SVGID_22_" gradientUnits="userSpaceOnUse" x1="1356.3304" y1="-177.3552" x2="1342.5637" y2="-41.8623" gradientTransform="matrix(0.7886 0.6149 0.6149 -0.7886 668.037 -789.3836)">
	<stop  offset="0" style="stop-color:#D7CBFF"/>
	<stop  offset="1" style="stop-color:#5F58FF"/>
</linearGradient>
<path class="st23" d="M1654.6,158.7l38.3-15.5c10.5-4.2,12.4-18.3,3.5-25.2l-32.6-25.4c-8.9-7-22-1.6-23.6,9.6l-5.7,40.9
	C1632.9,154.3,1644.1,163,1654.6,158.7z"/>
<path class="st24" d="M178.7,124.6c-30,0-54.2,24.3-54.2,54.2s24.3,54.2,54.2,54.2s54.2-24.3,54.2-54.2S208.7,124.6,178.7,124.6z
	 M178.7,205.2c-14.6,0-26.4-11.8-26.4-26.4c0-14.6,11.8-26.4,26.4-26.4c14.6,0,26.4,11.8,26.4,26.4
	C205.1,193.4,193.3,205.2,178.7,205.2z"/>
<linearGradient id="SVGID_23_" gradientUnits="userSpaceOnUse" x1="624.8329" y1="29.7" x2="657.1671" y2="29.7">
	<stop  offset="0" style="stop-color:#34C2F1"/>
	<stop  offset="1" style="stop-color:#426FB5"/>
</linearGradient>
<path class="st25" d="M654.6,45.9h-27.2c-1.4,0-2.5-1.1-2.5-2.6V16.1c0-1.4,1.1-2.6,2.5-2.6h27.2c1.4,0,2.5,1.1,2.5,2.6v27.2
	C657.2,44.7,656,45.9,654.6,45.9z"/>
</svg>
