<?xml version="1.0" encoding="utf-8"?>
<!-- Generator: Adobe Illustrator 25.0.1, SVG Export Plug-In . SVG Version: 6.00 Build 0)  -->
<svg version="1.1" id="Layer_1" xmlns="http://www.w3.org/2000/svg" xmlns:xlink="http://www.w3.org/1999/xlink" x="0px" y="0px"
	 viewBox="0 0 1920 1260" style="enable-background:new 0 0 1920 1260;" xml:space="preserve">
<style type="text/css">
	.st0{opacity:0.1;}
	.st1{fill:#6A4ADC;}
	.st2{opacity:0.1;fill:#EA649C;enable-background:new    ;}
	.st3{opacity:0.1;fill:url(#SVGID_1_);enable-background:new    ;}
	.st4{opacity:0.1;fill:url(#SVGID_2_);enable-background:new    ;}
	.st5{opacity:0.1;fill:url(#SVGID_3_);enable-background:new    ;}
	.st6{opacity:0.1;fill:none;stroke:#536BE6;stroke-width:5;stroke-miterlimit:10;enable-background:new    ;}
</style>
<g id="XMLID_108_" class="st0">
	<path id="XMLID_114_" class="st1" d="M250.1,494.2L250.1,494.2c-0.3-4.5,3.1-8.4,7.6-8.6l59.2-3.9c4.5-0.3,8.4,3.1,8.6,7.6l0,0
		c0.3,4.5-3.1,8.4-7.6,8.6l-59.2,3.9C254.3,502,250.4,498.6,250.1,494.2z"/>
	<path id="XMLID_109_" class="st1" d="M285.3,453.9L285.3,453.9c4.5-0.3,8.4,3.1,8.6,7.6l3.9,59.2c0.3,4.5-3.1,8.4-7.6,8.6l0,0
		c-4.5,0.3-8.4-3.1-8.6-7.6l-3.9-59.2C277.5,458.1,280.9,454.3,285.3,453.9z"/>
</g>
<path class="st2" d="M1621,251h-53.4c-2.8,0-5-2.2-5-5v-53.4c0-2.8,2.2-5,5-5h53.4c2.8,0,5,2.2,5,5V246
	C1626,248.8,1623.8,251,1621,251z"/>
<linearGradient id="SVGID_1_" gradientUnits="userSpaceOnUse" x1="1636.5" y1="30.7844" x2="1621.515" y2="109.4561" gradientTransform="matrix(-0.102 0.9948 -0.9948 -0.102 785.1274 -625.4424)">
	<stop  offset="0" style="stop-color:#FFC431"/>
	<stop  offset="1" style="stop-color:#FF8300"/>
</linearGradient>
<path class="st3" d="M554.5,975l-42.4-30.7c-3.7-2.6-8.7-0.3-9.2,4.1l-5.3,52c-0.5,4.5,4,7.8,8.1,5.9l47.7-21.4
	C557.5,983.2,558,977.6,554.5,975z"/>
<linearGradient id="SVGID_2_" gradientUnits="userSpaceOnUse" x1="202.1" y1="-883.5" x2="253.3999" y2="-883.5" gradientTransform="matrix(1 0 0 1 0 1192)">
	<stop  offset="0" style="stop-color:#FF2F7F"/>
	<stop  offset="0.1584" style="stop-color:#FF3879"/>
	<stop  offset="0.4112" style="stop-color:#FF4F6A"/>
	<stop  offset="0.7249" style="stop-color:#FF7450"/>
	<stop  offset="1" style="stop-color:#FF9B36"/>
</linearGradient>
<circle class="st4" cx="227.7" cy="308.5" r="25.6"/>
<linearGradient id="SVGID_3_" gradientUnits="userSpaceOnUse" x1="1385.3447" y1="-413.1153" x2="1512.9447" y2="-413.1153" gradientTransform="matrix(1 0 0 1 0 1192)">
	<stop  offset="0" style="stop-color:#C2E998"/>
	<stop  offset="1" style="stop-color:#02CC87"/>
</linearGradient>
<circle class="st5" cx="1449.1" cy="778.9" r="63.8"/>
<circle class="st6" cx="755.9" cy="491.6" r="37.4"/>
</svg>
